<svg width="48" height="48" viewBox="0 0 48 48" fill="none" xmlns="http://www.w3.org/2000/svg">
<g id="icon/all_L">
<path id="Union" fill-rule="evenodd" clip-rule="evenodd" d="M10 18V10H18V18H10ZM6 8C6 6.89543 6.89543 6 8 6H20C21.1046 6 22 6.89543 22 8V20C22 21.1046 21.1046 22 20 22H8C6.89543 22 6 21.1046 6 20V8ZM30 18V10H38V18H30ZM26 8C26 6.89543 26.8954 6 28 6H40C41.1046 6 42 6.89543 42 8V20C42 21.1046 41.1046 22 40 22H28C26.8954 22 26 21.1046 26 20V8ZM10 30V38H18V30H10ZM8 26C6.89543 26 6 26.8954 6 28V40C6 41.1046 6.89543 42 8 42H20C21.1046 42 22 41.1046 22 40V28C22 26.8954 21.1046 26 20 26H8ZM30 38V30H38V38H30ZM26 28C26 26.8954 26.8954 26 28 26H40C41.1046 26 42 26.8954 42 28V40C42 41.1046 41.1046 42 40 42H28C26.8954 42 26 41.1046 26 40V28Z" fill="#CFBFFF"/>
</g>
</svg>
