<svg width="48" height="48" viewBox="0 0 48 48" fill="none" xmlns="http://www.w3.org/2000/svg">
<g id="icon/diary_L">
<path id="Union" fill-rule="evenodd" clip-rule="evenodd" d="M14 4H34C37.3135 4 40 6.68628 40 10V38C40 41.3137 37.3135 44 34 44H14C10.6865 44 8 41.3137 8 38V10C8 6.68628 10.6865 4 14 4ZM14 8C12.8955 8 12 8.89539 12 10V35.1718L12.5859 34.5858C12.9609 34.2107 13.4697 34 14 34H36V10C36 8.89539 35.1045 8 34 8H22V24.0115C22 24.7321 21.1221 25.0853 20.623 24.5656L18.5771 22.4344C18.2622 22.1066 17.7378 22.1066 17.4229 22.4344L15.377 24.5656C14.8779 25.0853 14 24.7321 14 24.0115V8ZM14 40C13.6357 40 13.2939 39.9027 13 39.7325C13.0615 39.697 13.1216 39.658 13.1797 39.6155C13.2617 39.5554 13.3398 39.4883 13.4141 39.4142L14.8286 38H36C36 39.1046 35.1045 40 34 40H14Z" fill="#CFBFFF"/>
</g>
</svg>
