<svg width="48" height="48" viewBox="0 0 48 48" fill="none" xmlns="http://www.w3.org/2000/svg">
<g id="icon/letter_2_L">
<path id="Union" fill-rule="evenodd" clip-rule="evenodd" d="M43.9993 15.9444V13.9999C43.9993 10.6862 41.313 8 37.9994 8H9.99989C6.68625 8 4 10.6862 4 13.9999V15.9984V33.9995C4 37.3132 6.68624 39.9994 9.99989 39.9994L37.9994 39.9994C41.313 39.9994 43.9993 37.3132 43.9993 33.9995V16.0524C44.0002 16.0165 44.0002 15.9805 43.9993 15.9444ZM39.9993 14.8236L24 23.7122L7.99993 14.8232V13.9999C7.99993 12.8953 8.89534 11.9999 9.99989 11.9999L37.9994 11.9999C39.1039 11.9999 39.9993 12.8953 39.9993 13.9999V14.8236ZM39.9993 19.3994L24.9713 27.7483C24.3672 28.0839 23.6328 28.0839 23.0287 27.7483L7.99993 19.399L7.99993 33.9995C7.99993 35.1041 8.89534 35.9995 9.99989 35.9995L37.9994 35.9995C39.1039 35.9995 39.9993 35.1041 39.9993 33.9995V19.3994Z" fill="#CFBFFF"/>
</g>
</svg>
