<svg width="100" height="81" viewBox="0 0 100 81" fill="none" xmlns="http://www.w3.org/2000/svg">
<path fill-rule="evenodd" clip-rule="evenodd" d="M2.24522 41.3007L0.962206 36.4887C2.86622 35.976 3.97894 33.9445 3.4475 31.9513L8.04424 30.7135C8.57568 32.7067 10.55 33.9069 12.4541 33.3942C14.3581 32.8815 15.4708 30.85 14.9393 28.8568L19.5361 27.619C20.0675 29.6122 22.0419 30.8124 23.9459 30.2997C25.8499 29.787 26.9626 27.7555 26.4312 25.7623L31.0279 24.5245C31.5594 26.5177 33.5337 27.7179 35.4377 27.2052C37.3418 26.6925 38.4545 24.661 37.923 22.6678L42.5198 21.43C43.0512 23.4232 45.0256 24.6234 46.9296 24.1107C48.8336 23.598 49.9463 21.5665 49.4149 19.5733L54.0116 18.3355C54.5431 20.3287 56.5174 21.5289 58.4214 21.0162L59.7045 25.8282C57.8004 26.3409 56.6877 28.3724 57.2192 30.3656C57.7506 32.3587 59.725 33.5589 61.629 33.0462L62.912 37.8582C61.008 38.371 59.8953 40.4024 60.4267 42.3956C60.9581 44.3888 62.9325 45.589 64.8365 45.0763L66.1195 49.8883C64.2155 50.401 63.1028 52.4325 63.6342 54.4257C64.1657 56.4189 66.14 57.6191 68.044 57.1064L69.3271 61.9184C67.423 62.4311 66.3103 64.4626 66.8418 66.4557L62.245 67.6936C61.7136 65.7004 59.7392 64.5002 57.8352 65.0129C55.9312 65.5256 54.8185 67.5571 55.3499 69.5503L50.7532 70.7881C50.2217 68.7949 48.2474 67.5947 46.3434 68.1074C44.4394 68.6201 43.3266 70.6516 43.8581 72.6448L39.2613 73.8826C38.7299 71.8894 36.7555 70.6892 34.8515 71.2019C32.9475 71.7146 31.8348 73.7461 32.3662 75.7393L27.7695 76.9771C27.238 74.9839 25.2637 73.7837 23.3597 74.2964C21.4557 74.8091 20.3429 76.8406 20.8744 78.8338L16.2776 80.0716C15.7462 78.0784 13.7718 76.8782 11.8678 77.3909L10.5848 72.5789C12.4888 72.0662 13.6015 70.0347 13.0701 68.0415C12.5387 66.0483 10.5643 64.8481 8.66029 65.3609L7.37727 60.5488C9.28128 60.0361 10.394 58.0046 9.86257 56.0115C9.33113 54.0183 7.35676 52.8181 5.45275 53.3308L4.16974 48.5188C6.07375 48.0061 7.18647 45.9746 6.65503 43.9814C6.1236 41.9882 4.14923 40.788 2.24522 41.3007Z" fill="#F7FAFF"/>
<rect width="35.857" height="45.6213" transform="matrix(0.257626 0.966245 -0.965604 0.260016 52.5518 25.9491)" fill="white"/>
<path fill-rule="evenodd" clip-rule="evenodd" d="M40.2958 8.42103L41.5788 3.609C43.4828 4.12171 45.4572 2.92152 45.9886 0.928337L50.5854 2.16614C50.0539 4.15933 51.1666 6.1908 53.0707 6.70351C54.9747 7.21622 56.949 6.01603 57.4805 4.02284L62.0772 5.26065C61.5458 7.25383 62.6585 9.28531 64.5625 9.79802C66.4665 10.3107 68.4409 9.11054 68.9723 7.11735L73.5691 8.35516C73.0376 10.3483 74.1503 12.3798 76.0543 12.8925C77.9584 13.4052 79.9327 12.205 80.4642 10.2119L85.0609 11.4497C84.5295 13.4428 85.6422 15.4743 87.5462 15.987C89.4502 16.4997 91.4246 15.2996 91.956 13.3064L96.5528 14.5442C96.0213 16.5374 97.134 18.5688 99.038 19.0815L97.755 23.8936C95.851 23.3809 93.8767 24.5811 93.3452 26.5742C92.8138 28.5674 93.9265 30.5989 95.8305 31.1116L94.5475 35.9236C92.6435 35.4109 90.6691 36.6111 90.1377 38.6043C89.6063 40.5975 90.719 42.629 92.623 43.1417L91.34 47.9537C89.436 47.441 87.4616 48.6412 86.9302 50.6344C86.3987 52.6275 87.5114 54.659 89.4154 55.1717L88.1324 59.9838C86.2284 59.471 84.2541 60.6712 83.7226 62.6644L79.1259 61.4266C79.6573 59.4334 78.5446 57.402 76.6406 56.8893C74.7366 56.3765 72.7622 57.5767 72.2308 59.5699L67.634 58.3321C68.1655 56.3389 67.0528 54.3075 65.1487 53.7947C63.2447 53.282 61.2704 54.4822 60.7389 56.4754L56.1422 55.2376C56.6736 53.2444 55.5609 51.2129 53.6569 50.7002C51.7529 50.1875 49.7785 51.3877 49.2471 53.3809L44.6503 52.1431C45.1818 50.1499 44.0691 48.1184 42.165 47.6057C40.261 47.093 38.2867 48.2932 37.7552 50.2864L33.1585 49.0486C33.6899 47.0554 32.5772 45.0239 30.6732 44.5112L31.9562 39.6992C33.8602 40.2119 35.8346 39.0117 36.366 37.0185C36.8975 35.0253 35.7847 32.9939 33.8807 32.4812L35.1637 27.6691C37.0678 28.1818 39.0421 26.9816 39.5736 24.9885C40.105 22.9953 38.9923 20.9638 37.0883 20.4511L38.3713 15.6391C40.2753 16.1518 42.2497 14.9516 42.7811 12.9584C43.3125 10.9652 42.1998 8.93374 40.2958 8.42103Z" fill="#EFF6FF"/>
<rect width="35.857" height="45.6213" transform="matrix(-0.257626 0.966245 -0.965604 -0.260017 91.5 20.4042)" fill="white"/>
</svg>
