<svg width="17" height="16" viewBox="0 0 17 16" fill="none" xmlns="http://www.w3.org/2000/svg">
<g id="Group 35175">
<path id="Ellipse 209" d="M15.5 8C15.5 11.866 12.366 15 8.5 15C4.63401 15 1.5 11.866 1.5 8C1.5 4.13401 4.63401 1 8.5 1C12.366 1 15.5 4.13401 15.5 8Z" fill="white"/>
<path id="Ellipse 209 (Stroke)" fill-rule="evenodd" clip-rule="evenodd" d="M16.5 8C16.5 12.4183 12.9183 16 8.5 16C4.08172 16 0.5 12.4183 0.5 8C0.5 3.58172 4.08172 0 8.5 0C12.9183 0 16.5 3.58172 16.5 8ZM8.5 15C12.366 15 15.5 11.866 15.5 8C15.5 4.13401 12.366 1 8.5 1C4.63401 1 1.5 4.13401 1.5 8C1.5 11.866 4.63401 15 8.5 15Z" fill="#F3C736"/>
<path id="Union" fill-rule="evenodd" clip-rule="evenodd" d="M8.7839 5.90844C9.32915 5.78007 9.73501 5.29043 9.73501 4.706C9.73501 4.02376 9.18195 3.4707 8.49971 3.4707C7.81748 3.4707 7.26442 4.02376 7.26442 4.706C7.26442 5.29043 7.67028 5.78007 8.21552 5.90844L6.02912 8.82364L3.72909 6.52361C3.87812 6.37459 3.9703 6.1687 3.9703 5.94129C3.9703 5.48647 3.60159 5.11776 3.14677 5.11776C2.69195 5.11776 2.32324 5.48647 2.32324 5.94129C2.32324 6.39611 2.69195 6.76482 3.14677 6.76482C3.21567 6.76482 3.28259 6.75636 3.34655 6.74042L4.63788 11.9057C4.72953 12.2723 5.05893 12.5295 5.43682 12.5295H8.49971H11.5626C11.9405 12.5295 12.2699 12.2723 12.3615 11.9057L13.6529 6.74042C13.7168 6.75636 13.7838 6.76482 13.8527 6.76482C14.3075 6.76482 14.6762 6.39611 14.6762 5.94129C14.6762 5.48647 14.3075 5.11776 13.8527 5.11776C13.3978 5.11776 13.0291 5.48647 13.0291 5.94129C13.0291 6.1687 13.1213 6.37459 13.2703 6.52361L10.9703 8.82364L8.7839 5.90844Z" fill="#F3C736"/>
</g>
</svg>
