<svg width="93" height="12" viewBox="0 0 93 12" fill="none" xmlns="http://www.w3.org/2000/svg">
<path d="M3.87 0.731999C4.542 0.659999 5.088 0.672 5.508 0.768C5.928 0.863999 6.288 1.056 6.588 1.344C6.744 1.476 6.894 1.662 7.038 1.902C7.194 2.142 7.29 2.334 7.326 2.478C7.374 2.622 7.416 2.736 7.452 2.82C7.5 2.964 7.524 3.21 7.524 3.558C7.524 3.906 7.488 4.158 7.416 4.314C7.128 5.034 6.828 5.544 6.516 5.844C6.36 5.988 6.366 6.108 6.534 6.204C7.17 6.588 7.62 6.984 7.884 7.392C8.028 7.596 8.184 7.86 8.352 8.184C8.52 8.508 8.604 8.7 8.604 8.76C8.604 8.832 8.622 8.892 8.658 8.94C8.706 8.976 8.742 9.054 8.766 9.174C8.778 9.282 8.808 9.408 8.856 9.552C9 9.996 9.018 10.386 8.91 10.722C8.802 11.058 8.61 11.226 8.334 11.226C7.89 11.226 7.668 10.896 7.668 10.236C7.668 9.732 7.494 9.192 7.146 8.616C6.81 8.028 6.438 7.626 6.03 7.41C5.79 7.29 5.4 7.224 4.86 7.212C4.32 7.2 3.906 7.242 3.618 7.338C3.474 7.398 3.228 7.47 2.88 7.554C2.556 7.638 2.382 7.698 2.358 7.734C2.334 7.77 2.322 8.232 2.322 9.12C2.322 9.888 2.304 10.404 2.268 10.668C2.244 10.92 2.19 11.1 2.106 11.208C1.89 11.496 1.626 11.58 1.314 11.46C1.014 11.34 0.888 11.106 0.936 10.758C0.972 10.506 0.984 9.39 0.972 7.41C0.96 5.418 0.93 4.278 0.882 3.99C0.834 3.618 0.81 3.366 0.81 3.234C0.81 3.066 0.732 2.868 0.576 2.64C0.408 2.412 0.426 2.1 0.63 1.704C0.75 1.452 0.852 1.296 0.936 1.236C1.02 1.176 1.152 1.158 1.332 1.182C1.572 1.206 1.704 1.218 1.728 1.218C1.788 1.218 2.028 1.17 2.448 1.074C2.868 0.965999 3.186 0.881999 3.402 0.821999C3.522 0.774 3.678 0.744 3.87 0.731999ZM5.436 2.1C5.292 2.028 5.01 1.992 4.59 1.992C4.182 1.992 3.846 2.028 3.582 2.1C3.282 2.184 3.084 2.238 2.988 2.262C2.496 2.394 2.214 2.49 2.142 2.55C2.07 2.598 2.052 2.766 2.088 3.054C2.148 3.714 2.196 4.602 2.232 5.718C2.244 6.018 2.268 6.186 2.304 6.222C2.352 6.258 2.496 6.24 2.736 6.168C2.952 6.084 3.186 6.024 3.438 5.988C3.702 5.94 4.044 5.826 4.464 5.646C4.596 5.586 4.674 5.556 4.698 5.556C4.746 5.556 4.89 5.466 5.13 5.286C5.382 5.106 5.568 4.956 5.688 4.836C6.096 4.404 6.27 3.894 6.21 3.306C6.162 2.718 5.904 2.316 5.436 2.1ZM11.0059 5.106C11.4259 4.962 11.9059 4.95 12.4459 5.07C12.9979 5.178 13.4359 5.376 13.7599 5.664C13.9879 5.868 14.1499 6.036 14.2459 6.168C14.7259 6.816 14.9299 7.62 14.8579 8.58C14.7979 9.54 14.4859 10.272 13.9219 10.776C13.4299 11.22 12.8779 11.466 12.2659 11.514C11.6659 11.55 11.1499 11.4 10.7179 11.064C10.2979 10.716 10.0879 10.248 10.0879 9.66C10.0879 9.06 10.3399 8.574 10.8439 8.202C11.3479 7.83 12.0259 7.638 12.8779 7.626C13.2259 7.614 13.4179 7.59 13.4539 7.554C13.4899 7.518 13.4479 7.38 13.3279 7.14C13.1119 6.696 12.7399 6.414 12.2119 6.294C11.6959 6.162 11.2819 6.264 10.9699 6.6C10.7539 6.84 10.5139 6.924 10.2499 6.852C9.99788 6.768 9.87188 6.57 9.87188 6.258C9.87188 5.718 10.2499 5.334 11.0059 5.106ZM13.2019 8.94C12.8779 8.82 12.4819 8.85 12.0139 9.03C11.5579 9.198 11.3299 9.408 11.3299 9.66C11.3299 9.828 11.4259 9.978 11.6179 10.11C11.8099 10.23 12.0079 10.266 12.2119 10.218C12.7279 10.11 13.0999 9.876 13.3279 9.516C13.5199 9.228 13.4779 9.036 13.2019 8.94ZM16.1381 0.84C16.2821 0.744 16.4501 0.732 16.6421 0.803999C16.8341 0.875999 16.9481 0.989999 16.9841 1.146C16.9961 1.218 17.0441 1.404 17.1281 1.704C17.3441 2.544 17.5061 3.378 17.6141 4.206C17.6501 4.518 17.6801 4.752 17.7041 4.908C17.7401 5.136 17.7641 5.28 17.7761 5.34C17.8001 5.472 17.8301 5.544 17.8661 5.556C17.9021 5.556 17.9861 5.502 18.1181 5.394C18.4541 5.142 18.7721 4.98 19.0721 4.908C19.3721 4.824 19.7621 4.806 20.2421 4.854C20.5421 4.878 20.8541 5.01 21.1781 5.25C21.5021 5.478 21.7421 5.742 21.8981 6.042C22.0661 6.366 22.1681 6.618 22.2041 6.798C22.2401 6.978 22.2581 7.314 22.2581 7.806C22.2581 8.394 22.2041 8.832 22.0961 9.12C21.9881 9.396 21.7301 9.774 21.3221 10.254C21.1061 10.518 20.8061 10.776 20.4221 11.028C19.9181 11.352 19.3841 11.508 18.8201 11.496C18.2561 11.484 17.9021 11.31 17.7581 10.974C17.7101 10.878 17.6621 10.824 17.6141 10.812C17.5781 10.8 17.4881 10.77 17.3441 10.722C17.0561 10.65 16.9001 10.446 16.8761 10.11C16.8641 10.014 16.8461 9.768 16.8221 9.372C16.7981 9.144 16.7501 8.574 16.6781 7.662C16.5221 5.682 16.3961 4.494 16.3001 4.098C16.2641 3.966 16.2221 3.708 16.1741 3.324C16.1381 2.928 16.0901 2.664 16.0301 2.532C15.9581 2.376 15.9221 2.262 15.9221 2.19C15.9221 2.106 15.8981 2.01 15.8501 1.902C15.7661 1.698 15.7481 1.494 15.7961 1.29C15.8561 1.086 15.9701 0.935999 16.1381 0.84ZM20.3141 6.258C20.1341 6.174 19.8941 6.15 19.5941 6.186C19.3061 6.222 19.0841 6.3 18.9281 6.42C18.6281 6.648 18.4241 6.936 18.3161 7.284C18.2201 7.632 18.1601 8.19 18.1361 8.958C18.1241 9.462 18.1301 9.756 18.1541 9.84C18.1901 9.912 18.3221 9.984 18.5501 10.056C18.8861 10.176 19.2341 10.158 19.5941 10.002C19.9541 9.846 20.2721 9.588 20.5481 9.228C20.9081 8.736 21.0641 8.172 21.0161 7.536C20.9681 6.888 20.7341 6.462 20.3141 6.258ZM23.5209 0.84C23.6649 0.744 23.8329 0.732 24.0249 0.803999C24.2169 0.875999 24.3309 0.989999 24.3669 1.146C24.3789 1.218 24.4269 1.404 24.5109 1.704C24.7269 2.544 24.8889 3.378 24.9969 4.206C25.0329 4.518 25.0629 4.752 25.0869 4.908C25.1229 5.136 25.1469 5.28 25.1589 5.34C25.1829 5.472 25.2129 5.544 25.2489 5.556C25.2849 5.556 25.3689 5.502 25.5009 5.394C25.8369 5.142 26.1549 4.98 26.4549 4.908C26.7549 4.824 27.1449 4.806 27.6249 4.854C27.9249 4.878 28.2369 5.01 28.5609 5.25C28.8849 5.478 29.1249 5.742 29.2809 6.042C29.4489 6.366 29.5509 6.618 29.5869 6.798C29.6229 6.978 29.6409 7.314 29.6409 7.806C29.6409 8.394 29.5869 8.832 29.4789 9.12C29.3709 9.396 29.1129 9.774 28.7049 10.254C28.4889 10.518 28.1889 10.776 27.8049 11.028C27.3009 11.352 26.7669 11.508 26.2029 11.496C25.6389 11.484 25.2849 11.31 25.1409 10.974C25.0929 10.878 25.0449 10.824 24.9969 10.812C24.9609 10.8 24.8709 10.77 24.7269 10.722C24.4389 10.65 24.2829 10.446 24.2589 10.11C24.2469 10.014 24.2289 9.768 24.2049 9.372C24.1809 9.144 24.1329 8.574 24.0609 7.662C23.9049 5.682 23.7789 4.494 23.6829 4.098C23.6469 3.966 23.6049 3.708 23.5569 3.324C23.5209 2.928 23.4729 2.664 23.4129 2.532C23.3409 2.376 23.3049 2.262 23.3049 2.19C23.3049 2.106 23.2809 2.01 23.2329 1.902C23.1489 1.698 23.1309 1.494 23.1789 1.29C23.2389 1.086 23.3529 0.935999 23.5209 0.84ZM27.6969 6.258C27.5169 6.174 27.2769 6.15 26.9769 6.186C26.6889 6.222 26.4669 6.3 26.3109 6.42C26.0109 6.648 25.8069 6.936 25.6989 7.284C25.6029 7.632 25.5429 8.19 25.5189 8.958C25.5069 9.462 25.5129 9.756 25.5369 9.84C25.5729 9.912 25.7049 9.984 25.9329 10.056C26.2689 10.176 26.6169 10.158 26.9769 10.002C27.3369 9.846 27.6549 9.588 27.9309 9.228C28.2909 8.736 28.4469 8.172 28.3989 7.536C28.3509 6.888 28.1169 6.462 27.6969 6.258ZM31.6418 2.298C32.0378 2.094 32.4278 2.106 32.8118 2.334C33.1958 2.562 33.3878 2.892 33.3878 3.324C33.3878 3.84 33.2018 4.23 32.8298 4.494C32.4578 4.746 32.0438 4.77 31.5878 4.566C31.1318 4.374 30.9398 3.93 31.0118 3.234C31.0478 2.958 31.1018 2.76 31.1738 2.64C31.2578 2.52 31.4138 2.406 31.6418 2.298ZM32.1638 6.204C32.4398 6.096 32.6918 6.18 32.9198 6.456C32.9798 6.528 33.0098 6.66 33.0098 6.852C33.0218 7.044 33.0218 7.68 33.0098 8.76C32.9858 9.996 32.9558 10.734 32.9198 10.974C32.8838 11.202 32.7758 11.352 32.5958 11.424C32.1998 11.592 31.9238 11.508 31.7678 11.172C31.6478 10.908 31.6298 9.774 31.7138 7.77C31.7498 7.17 31.7918 6.78 31.8398 6.6C31.8878 6.408 31.9958 6.276 32.1638 6.204ZM38.5069 2.1C38.5429 2.088 38.6209 2.094 38.7409 2.118C38.8729 2.13 38.9629 2.148 39.0109 2.172C39.1429 2.244 39.2209 2.37 39.2449 2.55C39.2809 2.718 39.2869 3.126 39.2629 3.774L39.2449 4.98H40.3789C41.0149 4.968 41.4049 4.98 41.5489 5.016C41.6929 5.04 41.7949 5.13 41.8549 5.286C41.9629 5.586 41.9329 5.814 41.7649 5.97C41.6089 6.126 41.3209 6.204 40.9009 6.204C40.5409 6.204 40.1629 6.222 39.7669 6.258L39.1549 6.312L39.1189 7.068C39.0949 7.68 39.0829 8.406 39.0829 9.246C39.0829 10.074 39.0949 10.548 39.1189 10.668C39.1789 10.968 39.1009 11.202 38.8849 11.37C38.6689 11.538 38.4289 11.55 38.1649 11.406C38.1529 11.406 38.1349 11.4 38.1109 11.388C37.9549 11.316 37.8649 11.184 37.8409 10.992C37.8169 10.8 37.8049 10.176 37.8049 9.12C37.8049 8.964 37.8049 8.844 37.8049 8.76V6.456H36.4549C36.0949 6.456 35.8249 6.456 35.6449 6.456C35.4649 6.444 35.2969 6.432 35.1409 6.42C34.9969 6.396 34.9009 6.354 34.8529 6.294C34.8049 6.234 34.7749 6.168 34.7629 6.096C34.7509 6.024 34.7449 5.922 34.7449 5.79C34.7689 5.586 34.8169 5.448 34.8889 5.376C34.9729 5.292 35.1229 5.238 35.3389 5.214C35.5669 5.19 35.9689 5.178 36.5449 5.178C37.1449 5.178 37.5109 5.172 37.6429 5.16C37.7749 5.148 37.8469 5.124 37.8589 5.088C37.9669 4.704 38.0209 4.116 38.0209 3.324C38.0209 2.856 38.0389 2.55 38.0749 2.406C38.1229 2.262 38.2129 2.172 38.3449 2.136C38.4289 2.124 38.4829 2.112 38.5069 2.1ZM50.3513 0.713999C50.6633 0.677999 51.1253 0.677999 51.7373 0.713999C52.3613 0.738 52.7513 0.78 52.9073 0.84C53.5913 1.128 54.0953 1.446 54.4193 1.794C54.7553 2.142 54.9533 2.568 55.0133 3.072C55.1813 4.368 54.9053 5.364 54.1853 6.06C53.4773 6.744 52.3313 7.122 50.7473 7.194C50.2073 7.218 49.9253 7.254 49.9013 7.302C49.8653 7.362 49.8833 7.854 49.9553 8.778C50.0513 10.218 50.0393 11.016 49.9193 11.172C49.6553 11.532 49.3673 11.604 49.0553 11.388C48.9113 11.28 48.8093 11.07 48.7493 10.758C48.7013 10.434 48.6773 9.852 48.6773 9.012C48.6773 8.28 48.6533 7.77 48.6053 7.482C48.5453 7.11 48.4793 6.192 48.4073 4.728C48.3713 4.056 48.3293 3.474 48.2813 2.982C48.2093 2.214 48.2093 1.704 48.2813 1.452C48.3653 1.2 48.5633 1.05 48.8753 1.002C48.9593 0.978 49.0733 0.947999 49.2173 0.911999C49.3493 0.864 49.7273 0.798 50.3513 0.713999ZM52.2773 2.064C51.8693 1.98 51.3173 1.98 50.6213 2.064C50.4413 2.088 50.2253 2.106 49.9733 2.118C49.7693 2.142 49.6433 2.178 49.5953 2.226C49.5473 2.274 49.5293 2.376 49.5413 2.532C49.5653 2.688 49.5893 3.138 49.6133 3.882C49.6613 5.142 49.7273 5.802 49.8113 5.862C49.8953 5.91 50.2553 5.91 50.8913 5.862C51.5393 5.802 51.9953 5.73 52.2593 5.646C52.8113 5.49 53.2013 5.268 53.4293 4.98C53.6573 4.692 53.7713 4.284 53.7713 3.756C53.7713 3.252 53.6573 2.874 53.4293 2.622C53.2133 2.37 52.8293 2.184 52.2773 2.064ZM58.4637 5.214C59.1477 5.058 59.7357 5.142 60.2277 5.466C60.7317 5.778 61.0797 6.27 61.2717 6.942C61.4637 7.602 61.4637 8.346 61.2717 9.174C61.0557 10.098 60.6177 10.764 59.9577 11.172C59.3097 11.568 58.5717 11.622 57.7437 11.334C57.0957 11.106 56.6337 10.806 56.3577 10.434C56.0937 10.05 55.9617 9.504 55.9617 8.796C55.9617 7.836 56.1777 7.044 56.6097 6.42C57.0537 5.784 57.6717 5.382 58.4637 5.214ZM59.3637 6.564C59.0277 6.516 58.7937 6.504 58.6617 6.528C58.5297 6.54 58.3677 6.6 58.1757 6.708C57.9957 6.804 57.8217 6.954 57.6537 7.158C57.4977 7.35 57.4197 7.506 57.4197 7.626C57.4197 7.662 57.3897 7.728 57.3297 7.824C57.2817 7.92 57.2457 8.172 57.2217 8.58C57.2097 8.976 57.2277 9.24 57.2757 9.372C57.2997 9.468 57.3777 9.594 57.5097 9.75C57.6537 9.894 57.7737 9.984 57.8697 10.02C58.4697 10.248 58.9497 10.26 59.3097 10.056C59.6697 9.84 59.9217 9.39 60.0657 8.706C60.1857 8.13 60.1797 7.644 60.0477 7.248C59.9157 6.84 59.6877 6.612 59.3637 6.564ZM64.3598 4.944C64.4918 4.908 64.7678 4.902 65.1878 4.926C65.6078 4.938 65.8958 4.968 66.0518 5.016C66.5918 5.196 67.0178 5.43 67.3298 5.718C67.6538 6.006 67.7918 6.282 67.7438 6.546C67.6838 6.87 67.5218 7.056 67.2578 7.104C66.9938 7.152 66.7478 7.044 66.5198 6.78C66.3758 6.612 66.2798 6.528 66.2318 6.528C66.1958 6.528 66.1598 6.51 66.1238 6.474C66.0638 6.402 65.9198 6.33 65.6918 6.258C65.4758 6.186 65.3018 6.156 65.1698 6.168C64.9898 6.18 64.8998 6.216 64.8998 6.276C64.8878 6.36 65.1398 6.624 65.6558 7.068C66.0038 7.38 66.2138 7.578 66.2858 7.662C66.3698 7.758 66.4238 7.818 66.4478 7.842C66.8078 8.166 67.0478 8.568 67.1678 9.048C67.2998 9.516 67.2938 9.96 67.1498 10.38C67.0178 10.8 66.7718 11.088 66.4118 11.244C65.8598 11.496 65.2538 11.568 64.5938 11.46C63.9338 11.34 63.3278 11.058 62.7758 10.614C62.5478 10.434 62.3978 10.236 62.3258 10.02C62.2538 9.792 62.2718 9.6 62.3798 9.444C62.4878 9.288 62.6618 9.21 62.9018 9.21C63.0338 9.21 63.1358 9.234 63.2078 9.282C63.2798 9.318 63.4538 9.45 63.7298 9.678C64.3538 10.206 64.9838 10.368 65.6198 10.164C66.3758 9.924 66.0518 9.186 64.6478 7.95C64.2998 7.638 64.0358 7.374 63.8558 7.158L63.6218 6.834L63.6398 6.15C63.6518 5.718 63.6998 5.43 63.7838 5.286C63.8798 5.13 64.0718 5.016 64.3598 4.944ZM72.3975 2.1C72.4335 2.088 72.5115 2.094 72.6315 2.118C72.7635 2.13 72.8535 2.148 72.9015 2.172C73.0335 2.244 73.1115 2.37 73.1355 2.55C73.1715 2.718 73.1775 3.126 73.1535 3.774L73.1355 4.98H74.2695C74.9055 4.968 75.2955 4.98 75.4395 5.016C75.5835 5.04 75.6855 5.13 75.7455 5.286C75.8535 5.586 75.8235 5.814 75.6555 5.97C75.4995 6.126 75.2115 6.204 74.7915 6.204C74.4315 6.204 74.0535 6.222 73.6575 6.258L73.0455 6.312L73.0095 7.068C72.9855 7.68 72.9735 8.406 72.9735 9.246C72.9735 10.074 72.9855 10.548 73.0095 10.668C73.0695 10.968 72.9915 11.202 72.7755 11.37C72.5595 11.538 72.3195 11.55 72.0555 11.406C72.0435 11.406 72.0255 11.4 72.0015 11.388C71.8455 11.316 71.7555 11.184 71.7315 10.992C71.7075 10.8 71.6955 10.176 71.6955 9.12C71.6955 8.964 71.6955 8.844 71.6955 8.76V6.456H70.3455C69.9855 6.456 69.7155 6.456 69.5355 6.456C69.3555 6.444 69.1875 6.432 69.0315 6.42C68.8875 6.396 68.7915 6.354 68.7435 6.294C68.6955 6.234 68.6655 6.168 68.6535 6.096C68.6415 6.024 68.6355 5.922 68.6355 5.79C68.6595 5.586 68.7075 5.448 68.7795 5.376C68.8635 5.292 69.0135 5.238 69.2295 5.214C69.4575 5.19 69.8595 5.178 70.4355 5.178C71.0355 5.178 71.4015 5.172 71.5335 5.16C71.6655 5.148 71.7375 5.124 71.7495 5.088C71.8575 4.704 71.9115 4.116 71.9115 3.324C71.9115 2.856 71.9295 2.55 71.9655 2.406C72.0135 2.262 72.1035 2.172 72.2355 2.136C72.3195 2.124 72.3735 2.112 72.3975 2.1ZM77.0635 5.934L77.6395 5.97C78.3235 6.03 79.8655 6.03 82.2655 5.97C83.1535 5.946 83.6995 5.946 83.9035 5.97C84.1195 5.994 84.2995 6.072 84.4435 6.204C84.5635 6.336 84.6115 6.486 84.5875 6.654C84.5755 6.81 84.4915 6.948 84.3355 7.068C84.2395 7.128 83.7595 7.164 82.8955 7.176C80.0515 7.248 78.3595 7.266 77.8195 7.23C77.2915 7.182 76.9495 7.02 76.7935 6.744C76.6735 6.552 76.7095 6.348 76.9015 6.132L77.0635 5.934ZM85.7985 0.821999C85.9545 0.689999 86.1705 0.677999 86.4465 0.786C86.5545 0.834 86.6925 0.858 86.8605 0.858C87.0285 0.858 87.1845 0.888 87.3285 0.948C87.6405 1.056 88.2405 1.152 89.1285 1.236C89.8485 1.296 90.4125 1.356 90.8205 1.416C91.2645 1.464 91.6245 1.488 91.9005 1.488C92.2245 1.488 92.4465 1.536 92.5665 1.632C92.6865 1.716 92.7465 1.878 92.7465 2.118C92.7465 2.382 92.6205 2.58 92.3685 2.712C92.1165 2.844 91.7985 2.88 91.4145 2.82C90.9465 2.736 90.2205 2.652 89.2365 2.568C88.2645 2.484 87.7605 2.46 87.7245 2.496C87.6765 2.544 87.6345 2.676 87.5985 2.892C87.5625 3.096 87.5445 3.3 87.5445 3.504C87.5445 3.78 87.5205 4.056 87.4725 4.332C87.4005 4.752 87.3825 5.01 87.4185 5.106C87.4545 5.202 87.6105 5.28 87.8865 5.34C88.2585 5.412 88.6125 5.46 88.9485 5.484C89.2845 5.508 89.8845 5.52 90.7485 5.52C91.5405 5.52 92.0265 5.526 92.2065 5.538C92.3865 5.55 92.5065 5.574 92.5665 5.61C92.7345 5.718 92.8365 5.868 92.8725 6.06C92.9085 6.24 92.8725 6.402 92.7645 6.546C92.6445 6.678 92.4945 6.762 92.3145 6.798C92.1345 6.822 91.6365 6.84 90.8205 6.852C90.0885 6.864 89.5665 6.864 89.2545 6.852C88.9545 6.828 88.5345 6.774 87.9945 6.69C87.9465 6.69 87.8925 6.684 87.8325 6.672C87.5805 6.624 87.4305 6.63 87.3825 6.69C87.3345 6.738 87.2985 6.948 87.2745 7.32C87.2745 7.428 87.2685 7.512 87.2565 7.572C87.1845 8.688 87.1185 9.48 87.0585 9.948C87.0105 10.272 86.9865 10.506 86.9865 10.65C86.9745 11.034 86.8185 11.298 86.5185 11.442C86.2305 11.586 85.9785 11.508 85.7625 11.208C85.7145 11.148 85.6905 10.956 85.6905 10.632C85.7025 10.296 85.7325 10.014 85.7805 9.786C85.8285 9.594 85.8645 9.234 85.8885 8.706C85.9245 8.166 85.9605 7.848 85.9965 7.752C86.0325 7.632 86.0505 7.338 86.0505 6.87C86.0505 6.27 86.1405 5.106 86.3205 3.378C86.3805 2.814 86.4045 2.52 86.3925 2.496C86.3805 2.448 86.3685 2.382 86.3565 2.298C86.3325 2.214 86.2185 2.124 86.0145 2.028C85.7265 1.896 85.5585 1.704 85.5105 1.452C85.4745 1.2 85.5705 0.989999 85.7985 0.821999Z" fill="#FF9199"/>
</svg>
