<svg width="54" height="40" viewBox="0 0 54 40" fill="none" xmlns="http://www.w3.org/2000/svg">
<g clip-path="url(#clip0_155_1455)">
<path d="M8.60961 16.0324C8.36456 15.789 8.40346 15.4913 8.57331 15.2298C9.01803 14.5476 9.43293 13.8304 9.96712 13.2246C10.4339 12.6951 10.8086 12.1191 11.169 11.5262C12.2283 9.78252 13.6027 8.33527 15.366 7.31262C16.6056 6.59288 17.9579 6.13722 19.4295 6.31974C19.9896 6.38964 20.5458 6.5411 21.0878 6.7068C21.6868 6.88932 22.0473 7.37993 22.4025 7.8589C22.4492 7.92103 22.4907 7.98835 22.5478 8.07249C23.1442 7.65566 23.8223 7.51586 24.503 7.41877C26.3467 7.15858 27.8961 7.69579 29.1149 9.14304C30.3855 10.6537 31.0014 12.4129 31.1725 14.3521C31.179 14.4233 31.192 14.4958 31.192 14.567C31.192 14.7379 31.2724 14.8129 31.4448 14.8518C32.5288 15.0977 33.5064 15.543 34.2817 16.3715C34.8768 17.0084 35.2995 17.745 35.6107 18.5527C36.1617 19.9858 36.2694 21.4757 36.0827 22.9773C35.9336 24.1761 35.3436 25.1974 34.5618 26.11C34.0302 26.7301 33.4299 27.2699 32.7129 27.6608C32.4276 27.8175 32.1139 27.9262 31.8066 28.0388C31.6354 28.101 31.5187 28.1929 31.4487 28.3625C30.9067 29.6505 30.0056 30.6602 28.9476 31.5417C28.7894 31.6738 28.6053 31.7825 28.4173 31.868C27.4721 32.3029 26.5295 32.7495 25.5675 33.1456C25.15 33.3165 24.6923 33.411 24.2424 33.4783C22.291 33.7696 20.3293 33.7981 18.3702 33.5845C16.9219 33.4265 15.475 33.2414 14.0384 32.9981C12.839 32.7948 11.6527 32.4919 10.5337 31.9948C9.41089 31.4964 8.35548 30.8803 7.41417 30.0777C6.66475 29.4395 6.15261 28.6434 5.72474 27.7696C4.82362 25.9327 4.62525 23.9974 4.92994 22.0065C5.20222 20.2304 6.01387 18.7003 7.24173 17.3942C7.67349 16.9346 8.13506 16.5023 8.60831 16.0324H8.60961ZM8.36326 29.5689C8.44495 29.6155 8.49033 29.6349 8.52793 29.6634C9.28123 30.2589 10.1136 30.7405 11.0031 31.0744C11.9522 31.4304 12.935 31.7217 13.9256 31.9301C15.1391 32.1864 16.3696 32.3832 17.6039 32.5061C19.2934 32.6744 20.9906 32.8039 22.6904 32.6265C23.7237 32.5178 24.7662 32.4621 25.7256 31.9793C26.4258 31.6272 27.1804 31.376 27.8598 30.989C28.91 30.3896 29.6996 29.5068 30.2844 28.4466C30.3168 28.3871 30.3363 28.3197 30.3764 28.2227C30.1029 28.1955 29.8591 28.1618 29.6154 28.1553C29.5635 28.154 29.4974 28.2472 29.4572 28.3081C29.334 28.4945 29.2329 28.6964 29.1006 28.8764C28.6689 29.4615 28.1386 29.9327 27.5305 30.3405C26.479 31.046 25.3341 31.279 24.1179 31.0511C22.5231 30.7521 21.281 29.8744 20.3578 28.5437C20.2852 28.4388 20.2204 28.3249 20.1789 28.2045C19.5164 26.3068 19.6421 24.532 20.9465 22.9061C21.7322 21.9275 22.7241 21.3579 23.9571 21.1987C24.1801 21.1702 24.267 21.0977 24.3046 20.8725C24.4511 19.9767 24.6819 19.1055 25.054 18.2705C25.5428 17.1702 26.2183 16.2472 27.3243 15.6945C27.4695 15.622 27.6005 15.5184 27.7924 15.3955C27.358 14.9372 26.9548 14.5178 26.5593 14.0919C26.431 13.9534 26.326 13.9392 26.1794 14.0699C25.6803 14.5139 25.102 14.5618 24.5211 14.2926C24.1335 14.1126 23.76 13.877 23.4255 13.6078C22.8667 13.1586 22.4285 12.6239 22.5503 11.8239C22.5581 11.7761 22.4751 11.6867 22.4168 11.6634C22.1562 11.5612 21.8865 11.4796 21.6233 11.3851C21.469 11.3294 21.364 11.367 21.2901 11.5172C20.8233 12.4647 20.3086 13.3916 19.8989 14.3638C19.6214 15.0214 19.4827 15.7385 19.2934 16.4324C19.2065 16.7495 19.0198 16.9307 18.754 16.9113C18.4856 16.8906 18.2963 16.6589 18.3002 16.3301C18.3028 16.1709 18.3313 16.0116 18.3611 15.855C18.636 14.4634 19.2596 13.2065 19.8976 11.9573C20.0376 11.6816 20.1867 11.411 20.3332 11.1366C19.9092 10.9592 19.8755 10.9929 19.6953 11.3489C19.5592 11.6155 19.4036 11.9107 19.1741 12.0841C18.1731 12.8414 17.106 13.3696 15.7887 12.9113C15.2066 12.7081 14.9408 12.4207 14.9226 11.8006C14.9174 11.6427 14.9226 11.4861 14.9226 11.2984C14.7852 11.3294 14.662 11.3527 14.5414 11.3864C13.4458 11.6945 12.5097 12.2913 11.6643 13.0291C11.4245 13.2388 11.1989 13.5068 11.0692 13.7942C10.7554 14.4945 10.5065 15.222 10.2225 15.9366C10.1772 16.0518 10.1071 16.1696 10.0177 16.2537C9.80116 16.4557 9.57556 16.6498 9.33828 16.8259C8.57979 17.3903 7.94836 18.0816 7.3662 18.8181C7.14708 19.0951 6.97982 19.4136 6.74903 19.7748C6.92277 19.7748 7.01612 19.767 7.10688 19.776C7.39213 19.8032 7.69812 19.7799 7.96003 19.8757C9.03877 20.2667 10.0773 20.743 10.749 21.7385C11.0912 22.246 11.4491 22.7625 11.676 23.3256C11.912 23.9133 11.886 24.5722 11.8212 25.2039C11.7382 26.0194 11.4037 26.7456 10.9279 27.4058C10.3172 28.2537 9.59371 28.9773 8.63036 29.4278C8.56164 29.4602 8.49551 29.5003 8.36456 29.5715L8.36326 29.5689ZM35.1349 21.6401C35.0674 19.9767 34.8029 19.0019 34.1676 17.899C33.2678 16.3353 31.4772 15.512 29.6322 15.8718C28.9126 16.0116 28.2566 16.321 27.6238 16.6938C26.9924 17.0654 26.5477 17.5845 26.2106 18.2214C25.6725 19.2337 25.4106 20.3236 25.2394 21.4472C25.0112 22.9502 25.5506 24.2201 26.4828 25.323C27.3243 26.3184 28.4536 26.8997 29.7424 27.1249C30.309 27.2246 30.8964 27.2932 31.4539 27.0848C32.0542 26.8608 32.6273 26.5838 33.1148 26.1437C34.4542 24.9372 35.2217 23.4835 35.1349 21.6401ZM12.8131 10.8893C12.8299 10.91 12.8455 10.9294 12.8624 10.9502C12.8987 10.9385 12.9376 10.932 12.97 10.9152C13.626 10.5618 14.3353 10.3638 15.0588 10.2123C15.2519 10.1722 15.3686 10.079 15.449 9.90421C15.7226 9.31133 16.0636 8.75599 16.5187 8.28738C17.3226 7.4589 18.2185 7.33074 18.9692 8.30032C19.2065 8.60712 19.4515 8.94628 19.5527 9.30874C19.7147 9.88997 20.0493 10.1126 20.6185 10.1204C20.8142 10.123 20.9776 10.1437 21.15 10.0013C21.4029 9.79158 21.7802 9.85113 21.858 10.1294C21.941 10.4272 22.1458 10.4764 22.3766 10.5411C22.5387 10.5864 22.6943 10.6589 22.8589 10.6861C22.938 10.699 23.0573 10.6641 23.1131 10.6058C23.3905 10.3197 23.6265 9.98964 23.9247 9.73074C24.4498 9.27637 25.0359 8.92168 25.7529 8.84013C26.2676 8.78058 26.6981 9.0343 26.8472 9.53139C26.912 9.74498 26.9742 9.96505 26.9989 10.1864C27.0741 10.8634 27.1298 11.5405 27.0067 12.2201C26.9794 12.3741 26.9574 12.5087 27.1169 12.6472C27.8157 13.2583 28.5094 13.8757 29.1732 14.523C29.4001 14.7443 29.605 14.8595 29.9239 14.8233C30.1366 14.7987 30.1923 14.7353 30.1729 14.5269C30.0497 13.2375 29.7697 11.9948 29.0954 10.8699C28.3421 9.61553 27.4319 8.56181 25.8423 8.40388C24.8258 8.30291 23.8638 8.43883 22.9886 9.00582C22.8291 9.10938 22.6515 9.18964 22.4751 9.26472C22.234 9.36699 22.0058 9.3178 21.8476 9.11197C21.7231 8.94887 21.6259 8.76116 21.539 8.57346C21.3575 8.18252 21.1086 7.84336 20.7079 7.67767C19.8626 7.32945 18.9874 7.18705 18.0733 7.36828C16.4098 7.69968 15.0445 8.55663 13.8711 9.74757C13.5068 10.1165 13.1645 10.5061 12.8131 10.8867V10.8893Z" fill="#9452D6"/>
<path d="M20.1633 22.444C19.6434 22.4129 19.2583 22.3573 18.9692 22.0388C18.754 21.8019 18.7151 21.5197 18.8719 21.3191C19.0327 21.1133 19.2998 21.0848 19.5851 21.2686C19.8029 21.4097 20.0272 21.4421 20.2735 21.3929C20.376 21.3722 20.4771 21.3476 20.5795 21.332C20.8868 21.2841 21.1215 21.4097 21.1954 21.6583C21.2667 21.9016 21.1435 22.1696 20.8622 22.2718C20.6029 22.3663 20.3228 22.4065 20.1646 22.444H20.1633Z" fill="#9452D6"/>
<path d="M14.5894 21.6389C14.203 21.6168 13.8659 21.4757 13.5599 21.2622C13.3525 21.1172 13.2812 20.8673 13.3629 20.6706C13.4433 20.479 13.6455 20.3806 13.9061 20.4168C13.993 20.4285 14.0825 20.444 14.1616 20.4803C14.4014 20.5929 14.6426 20.6214 14.9071 20.5812C15.2299 20.5321 15.4646 20.6913 15.5165 20.9502C15.567 21.2052 15.4089 21.446 15.1055 21.5405C14.9395 21.5923 14.7619 21.6078 14.5894 21.6401V21.6389Z" fill="#9452D6"/>
<path d="M17.3317 21.7087C17.3278 21.8964 17.1411 22.0634 16.9453 22.057C16.7392 22.0492 16.5654 21.8861 16.5654 21.6984C16.5654 21.5081 16.747 21.3437 16.9479 21.3515C17.1476 21.3579 17.3356 21.534 17.3317 21.7087Z" fill="#9452D6"/>
<path d="M30.7072 19.5132C30.6178 19.288 30.5296 19.0744 30.4492 18.8595C30.3974 18.7223 30.3909 18.5786 30.5465 18.5074C30.7046 18.4349 30.7993 18.541 30.8758 18.6666C30.9653 18.8142 31.0573 18.9618 31.2012 19.099C31.2194 18.9605 31.2311 18.8207 31.2583 18.6834C31.2933 18.5061 31.3387 18.3158 31.5772 18.3391C31.7964 18.3611 31.8547 18.5281 31.856 18.7223C31.856 18.8491 31.856 18.976 31.856 19.1443C31.9779 19.0317 32.079 18.9307 32.1892 18.8401C32.2955 18.752 32.4369 18.6446 32.5432 18.7805C32.6067 18.8608 32.6054 19.0394 32.5626 19.1456C32.4952 19.3126 32.3694 19.455 32.2579 19.6232C32.3215 19.6802 32.3772 19.7333 32.4369 19.7825C32.9762 20.2355 33.1733 20.8245 32.9879 21.4847C32.8142 22.1048 32.5484 22.7003 32.3189 23.3048C32.2916 23.3786 32.2385 23.4433 32.1918 23.508C31.7445 24.1488 31.0962 24.198 30.6619 23.5456C30.1406 22.7624 29.7672 21.8925 29.7257 20.932C29.6998 20.3106 29.9863 19.8368 30.5776 19.5805C30.6204 19.5624 30.6593 19.5365 30.7046 19.5119L30.7072 19.5132Z" fill="#9452D6"/>
<path d="M20.4837 40C9.4382 40 0.45166 31.0278 0.45166 20C0.45166 8.97217 9.4382 0 20.4837 0C31.5292 0 40.5157 8.97217 40.5157 20C40.5157 31.0278 31.5292 40 20.4837 40ZM20.4837 1.2945C10.1526 1.2945 1.74823 9.68544 1.74823 20C1.74823 30.3146 10.1526 38.7055 20.4837 38.7055C30.8148 38.7055 39.2191 30.3146 39.2191 20C39.2191 9.68544 30.8148 1.2945 20.4837 1.2945Z" fill="#9452D6"/>
<path d="M44.9927 25.4835C44.1253 25.4835 43.2657 25.3385 42.4553 25.0498L36.8528 23.0615C35.7715 22.6783 34.5929 22.5877 33.4429 22.8L26.2184 24.1333C25.937 24.1851 25.666 23.9987 25.6142 23.7178C25.5623 23.4369 25.7477 23.1664 26.0304 23.1146L33.2549 21.7812C34.5838 21.5366 35.9478 21.6414 37.2003 22.0854L42.8028 24.0738C43.853 24.4466 45.0018 24.5424 46.1233 24.3521L53.3945 23.1133C53.6759 23.0654 53.9442 23.2544 53.9935 23.5366C54.0415 23.8188 53.8522 24.0854 53.5695 24.1346L46.2984 25.3735C45.8653 25.4473 45.4284 25.4835 44.994 25.4835H44.9927Z" fill="#9452D6"/>
<path d="M44.9927 29.367C44.1253 29.367 43.2657 29.2221 42.4553 28.9334L36.8528 26.945C35.7715 26.5619 34.5929 26.4713 33.4429 26.6836L26.2184 28.0169C25.937 28.0687 25.666 27.8836 25.6142 27.6014C25.5623 27.3204 25.7477 27.0499 26.0304 26.9981L33.2549 25.6648C34.5838 25.4201 35.9478 25.525 37.2003 25.969L42.8028 27.9573C43.853 28.3302 45.0018 28.4259 46.1233 28.2357L53.3945 26.9968C53.6759 26.9489 53.9442 27.1379 53.9935 27.4201C54.0415 27.7023 53.8522 27.969 53.5695 28.0182L46.2984 29.257C45.8653 29.3308 45.4284 29.367 44.994 29.367H44.9927Z" fill="#9452D6"/>
<path d="M44.9927 33.2505C44.1253 33.2505 43.2657 33.1055 42.4553 32.8168L36.8528 30.8285C35.7715 30.4453 34.5929 30.3547 33.4429 30.567L26.2184 31.9003C25.937 31.9508 25.666 31.7657 25.6142 31.4848C25.5623 31.2039 25.7477 30.9333 26.0304 30.8815L33.2549 29.5482C34.5838 29.3035 35.9478 29.4084 37.2003 29.8524L42.8028 31.8408C43.853 32.2136 45.0018 32.3094 46.1233 32.1191L53.3945 30.8802C53.6759 30.8323 53.9442 31.0213 53.9935 31.3035C54.0415 31.5857 53.8522 31.8524 53.5695 31.9016L46.2984 33.1404C45.8653 33.2142 45.4284 33.2505 44.994 33.2505H44.9927Z" fill="#9452D6"/>
<path d="M44.9927 37.134C44.1253 37.134 43.2657 36.989 42.4553 36.7004L36.8528 34.712C35.7715 34.3288 34.5929 34.2382 33.4429 34.4505L26.2184 35.7839C25.937 35.8356 25.666 35.6505 25.6142 35.3683C25.5623 35.0874 25.7477 34.8169 26.0304 34.7651L33.2549 33.4318C34.5838 33.1871 35.9478 33.2919 37.2003 33.736L42.8028 35.7243C43.853 36.0971 45.0018 36.1929 46.1233 36.0026L53.3945 34.7638C53.6759 34.7159 53.9442 34.9049 53.9935 35.1871C54.0415 35.4693 53.8522 35.736 53.5695 35.7851L46.2984 37.024C45.8653 37.0978 45.4284 37.134 44.994 37.134H44.9927Z" fill="#9452D6"/>
</g>
<defs>
<clipPath id="clip0_155_1455">
<rect width="53.5484" height="40" fill="white" transform="translate(0.45166)"/>
</clipPath>
</defs>
</svg>
