<svg width="38" height="28" viewBox="0 0 38 28" fill="none" xmlns="http://www.w3.org/2000/svg">
<g clip-path="url(#clip0_92_1446)">
<path d="M5.71059 11.2227C5.53905 11.0523 5.56628 10.8439 5.68518 10.6609C5.99648 10.1833 6.28691 9.68133 6.66085 9.25725C6.98758 8.88664 7.24988 8.4834 7.50219 8.06839C8.2437 6.8478 9.20576 5.83473 10.4401 5.11887C11.3078 4.61505 12.2544 4.29609 13.2845 4.42385C13.6766 4.47279 14.066 4.57881 14.4453 4.69479C14.8646 4.82256 15.117 5.16599 15.3656 5.50127C15.3983 5.54476 15.4274 5.59188 15.4673 5.65078C15.8848 5.359 16.3595 5.26114 16.8359 5.19318C18.1266 5.01104 19.2111 5.38709 20.0643 6.40017C20.9537 7.45764 21.3848 8.6891 21.5046 10.0465C21.5092 10.0963 21.5183 10.1471 21.5183 10.1969C21.5183 10.3165 21.5745 10.3691 21.6952 10.3963C22.454 10.5685 23.1383 10.8802 23.6811 11.4601C24.0977 11.9059 24.3935 12.4215 24.6114 12.987C24.9971 13.9901 25.0724 15.033 24.9417 16.0842C24.8373 16.9233 24.4244 17.6382 23.8771 18.2771C23.505 18.7111 23.0848 19.089 22.5829 19.3626C22.3832 19.4723 22.1636 19.5484 21.9485 19.6272C21.8287 19.6707 21.747 19.7351 21.698 19.8538C21.3186 20.7554 20.6878 21.4622 19.9472 22.0793C19.8365 22.1717 19.7076 22.2478 19.576 22.3076C18.9144 22.6121 18.2545 22.9247 17.5811 23.202C17.2888 23.3216 16.9685 23.3877 16.6535 23.4349C15.2876 23.6387 13.9144 23.6587 12.543 23.5092C11.5292 23.3986 10.5163 23.269 9.51071 23.0987C8.67118 22.9564 7.84073 22.7444 7.05747 22.3964C6.27149 22.0475 5.5327 21.6162 4.87378 21.0544C4.34919 20.6077 3.99069 20.0504 3.69118 19.4387C3.0604 18.1529 2.92153 16.7982 3.13482 15.4046C3.32542 14.1613 3.89357 13.0903 4.75307 12.176C5.0553 11.8543 5.37841 11.5516 5.70968 11.2227H5.71059ZM5.53815 20.6983C5.59532 20.7309 5.62709 20.7445 5.65341 20.7644C6.18073 21.1813 6.7634 21.5184 7.38602 21.7521C8.05038 22.0013 8.73834 22.2052 9.43175 22.3511C10.2813 22.5305 11.1426 22.6683 12.0066 22.7543C13.1892 22.8721 14.3773 22.9628 15.5671 22.8386C16.2905 22.7625 17.0202 22.7235 17.6918 22.3855C18.1819 22.1391 18.7101 21.9633 19.1857 21.6923C19.9209 21.2728 20.4736 20.6548 20.8829 19.9127C20.9056 19.871 20.9192 19.8239 20.9474 19.7559C20.7559 19.7369 20.5852 19.7133 20.4146 19.7088C20.3783 19.7079 20.332 19.7731 20.3039 19.8157C20.2177 19.9462 20.1469 20.0875 20.0543 20.2135C19.7521 20.6231 19.3809 20.9529 18.9552 21.2384C18.2191 21.7322 17.4177 21.8953 16.5664 21.7358C15.45 21.5265 14.5806 20.9121 13.9344 19.9806C13.8835 19.9072 13.8381 19.8275 13.8091 19.7432C13.3453 18.4148 13.4334 17.1725 14.3464 16.0343C14.8964 15.3493 15.5907 14.9506 16.4538 14.8391C16.61 14.8192 16.6708 14.7685 16.6971 14.6108C16.7996 13.9837 16.9612 13.3739 17.2217 12.7894C17.5638 12.0192 18.0367 11.3731 18.8109 10.9862C18.9125 10.9354 19.0042 10.8629 19.1385 10.7769C18.8345 10.4561 18.5522 10.1625 18.2754 9.86437C18.1855 9.76741 18.112 9.75745 18.0095 9.84897C17.66 10.1598 17.2553 10.1933 16.8487 10.0048C16.5773 9.87887 16.3159 9.71395 16.0817 9.52547C15.6906 9.21104 15.3838 8.8368 15.4691 8.2768C15.4745 8.24327 15.4165 8.18075 15.3756 8.16444C15.1932 8.09285 15.0044 8.03576 14.8202 7.96961C14.7122 7.93065 14.6386 7.95693 14.5869 8.06204C14.2602 8.72534 13.8999 9.37415 13.6131 10.0547C13.4188 10.515 13.3217 11.017 13.1892 11.5027C13.1284 11.7247 12.9977 11.8516 12.8117 11.838C12.6238 11.8235 12.4913 11.6613 12.494 11.4311C12.4958 11.3196 12.5158 11.2082 12.5366 11.0985C12.7291 10.1244 13.1656 9.24457 13.6122 8.37013C13.7102 8.17712 13.8145 7.98774 13.9171 7.79563C13.6203 7.67149 13.5967 7.69505 13.4706 7.94424C13.3753 8.13091 13.2664 8.33751 13.1057 8.45894C12.405 8.98903 11.6581 9.35874 10.736 9.03796C10.3285 8.8957 10.1424 8.69453 10.1297 8.26049C10.1261 8.14994 10.1297 8.04029 10.1297 7.9089C10.0335 7.93065 9.94726 7.94696 9.86286 7.97052C9.09594 8.18618 8.44065 8.60392 7.84889 9.12042C7.68099 9.26722 7.52307 9.45479 7.43231 9.65596C7.21267 10.1462 7.03841 10.6554 6.83964 11.1556C6.80788 11.2363 6.75887 11.3187 6.69624 11.3776C6.54467 11.519 6.38675 11.6549 6.22066 11.7782C5.68971 12.1732 5.24771 12.6571 4.8402 13.1727C4.68682 13.3666 4.56974 13.5895 4.40818 13.8424C4.5298 13.8424 4.59515 13.8369 4.65868 13.8433C4.85835 13.8623 5.07255 13.846 5.25588 13.913C6.011 14.1867 6.73799 14.5202 7.20813 15.217C7.44773 15.5722 7.69823 15.9338 7.85706 16.3279C8.02225 16.7393 8.00409 17.2006 7.95871 17.6428C7.90063 18.2136 7.66647 18.722 7.33338 19.1841C6.9059 19.7776 6.39946 20.2842 5.72511 20.5995C5.67701 20.6222 5.63072 20.6503 5.53905 20.7001L5.53815 20.6983ZM24.2783 15.1481C24.2311 13.9837 24.0459 13.3014 23.6012 12.5294C22.9713 11.4347 21.7179 10.8584 20.4264 11.1103C19.9227 11.2082 19.4634 11.4248 19.0205 11.6857C18.5785 11.9458 18.2672 12.3092 18.0313 12.755C17.6546 13.4636 17.4713 14.2266 17.3515 15.0131C17.1917 16.0651 17.5693 16.9541 18.2219 17.7261C18.8109 18.4229 19.6014 18.8298 20.5036 18.9875C20.9002 19.0573 21.3113 19.1053 21.7016 18.9594C22.1218 18.8026 22.523 18.6087 22.8642 18.3006C23.8018 17.4561 24.3391 16.4385 24.2783 15.1481ZM8.65303 7.62256C8.66483 7.63706 8.67572 7.65065 8.68752 7.66515C8.71293 7.65699 8.74016 7.65246 8.76285 7.64068C9.22209 7.3933 9.71855 7.25466 10.225 7.14864C10.3602 7.12055 10.4419 7.05531 10.4982 6.93298C10.6897 6.51796 10.9284 6.12923 11.2469 5.8012C11.8097 5.22127 12.4368 5.13156 12.9623 5.81026C13.1284 6.02502 13.2999 6.26243 13.3707 6.51615C13.4842 6.92301 13.7183 7.07887 14.1168 7.08431C14.2538 7.08612 14.3682 7.10062 14.4889 7.00094C14.6659 6.85415 14.93 6.89583 14.9844 7.09065C15.0425 7.29907 15.1859 7.3335 15.3475 7.37881C15.4609 7.41052 15.5698 7.46127 15.6851 7.4803C15.7405 7.48936 15.824 7.46489 15.863 7.42411C16.0572 7.22385 16.2224 6.99279 16.4312 6.81156C16.7987 6.4935 17.209 6.24521 17.7109 6.18813C18.0712 6.14644 18.3725 6.32405 18.4769 6.67201C18.5223 6.82152 18.5658 6.97557 18.5831 7.13052C18.6357 7.60444 18.6747 8.07835 18.5885 8.55408C18.5695 8.66191 18.554 8.75615 18.6657 8.85311C19.1549 9.28081 19.6404 9.71305 20.1051 10.1661C20.264 10.3211 20.4074 10.4017 20.6306 10.3763C20.7795 10.3591 20.8185 10.3147 20.8049 10.1688C20.7187 9.26631 20.5226 8.39641 20.0507 7.60897C19.5234 6.73091 18.8862 5.9933 17.7735 5.88275C17.0619 5.81207 16.3885 5.90722 15.7759 6.30411C15.6642 6.37661 15.5399 6.43279 15.4165 6.48534C15.2476 6.55693 15.0879 6.5225 14.9772 6.37842C14.8901 6.26424 14.822 6.13285 14.7612 6.00146C14.6341 5.7278 14.4599 5.49039 14.1794 5.37441C13.5876 5.13065 12.975 5.03097 12.3352 5.15784C11.1707 5.38981 10.215 5.98968 9.39363 6.82334C9.13859 7.08159 8.89899 7.35434 8.65303 7.62075V7.62256Z" fill="#3385FF"/>
<path d="M13.7983 15.7108C13.4343 15.6891 13.1648 15.6501 12.9624 15.4272C12.8117 15.2614 12.7845 15.0638 12.8943 14.9234C13.0068 14.7793 13.1938 14.7594 13.3935 14.888C13.546 14.9868 13.703 15.0095 13.8754 14.975C13.9471 14.9605 14.0179 14.9433 14.0896 14.9324C14.3047 14.8989 14.469 14.9868 14.5207 15.1608C14.5706 15.3311 14.4844 15.5187 14.2875 15.5903C14.1059 15.6564 13.9099 15.6845 13.7992 15.7108H13.7983Z" fill="#3385FF"/>
<path d="M9.89649 15.1472C9.62602 15.1318 9.39004 15.033 9.17585 14.8835C9.03063 14.782 8.98072 14.6072 9.0379 14.4694C9.09417 14.3353 9.23575 14.2664 9.41818 14.2918C9.47899 14.3 9.54161 14.3108 9.59698 14.3362C9.76488 14.4151 9.9337 14.435 10.1188 14.4069C10.3448 14.3725 10.5091 14.4839 10.5454 14.6652C10.5808 14.8437 10.4701 15.0122 10.2577 15.0784C10.1415 15.1146 10.0172 15.1255 9.89649 15.1481V15.1472Z" fill="#3385FF"/>
<path d="M11.8161 15.1961C11.8133 15.3275 11.6826 15.4444 11.5456 15.4398C11.4013 15.4344 11.2797 15.3202 11.2797 15.1888C11.2797 15.0556 11.4067 14.9405 11.5474 14.946C11.6872 14.9505 11.8188 15.0738 11.8161 15.1961Z" fill="#3385FF"/>
<path d="M21.1788 13.6593C21.1162 13.5016 21.0545 13.3521 20.9982 13.2017C20.9619 13.1056 20.9574 13.0051 21.0663 12.9552C21.177 12.9045 21.2433 12.9788 21.2968 13.0667C21.3595 13.17 21.4239 13.2733 21.5246 13.3693C21.5373 13.2724 21.5455 13.1745 21.5646 13.0785C21.5891 12.9543 21.6208 12.8211 21.7878 12.8374C21.9412 12.8528 21.9821 12.9697 21.983 13.1056C21.983 13.1944 21.983 13.2832 21.983 13.401C22.0683 13.3222 22.1391 13.2515 22.2162 13.1881C22.2907 13.1265 22.3896 13.0513 22.464 13.1464C22.5085 13.2026 22.5076 13.3276 22.4776 13.402C22.4304 13.5188 22.3424 13.6185 22.2643 13.7363C22.3088 13.7762 22.3478 13.8133 22.3896 13.8478C22.7671 14.1649 22.9051 14.5772 22.7753 15.0394C22.6537 15.4734 22.4676 15.8902 22.307 16.3134C22.2879 16.3651 22.2507 16.4104 22.218 16.4557C21.9049 16.9042 21.4511 16.9387 21.1471 16.482C20.7822 15.9337 20.5208 15.3248 20.4918 14.6524C20.4736 14.2175 20.6742 13.8858 21.0881 13.7064C21.118 13.6937 21.1453 13.6756 21.177 13.6584L21.1788 13.6593Z" fill="#3385FF"/>
<path d="M14.0224 28C6.29057 28 0 21.7195 0 14C0 6.28052 6.29057 0 14.0224 0C21.7543 0 28.0448 6.28052 28.0448 14C28.0448 21.7195 21.7543 28 14.0224 28ZM14.0224 0.906149C6.79066 0.906149 0.9076 6.77981 0.9076 14C0.9076 21.2202 6.79066 27.0939 14.0224 27.0939C21.2542 27.0939 27.1372 21.2202 27.1372 14C27.1372 6.77981 21.2542 0.906149 14.0224 0.906149Z" fill="#3385FF"/>
<path d="M31.1788 17.8384C30.5716 17.8384 29.9699 17.7369 29.4026 17.5349L25.4809 16.143C24.7239 15.8748 23.8989 15.8114 23.0939 15.96L18.0368 16.8933C17.8398 16.9296 17.6501 16.7991 17.6138 16.6024C17.5775 16.4058 17.7073 16.2164 17.9052 16.1802L22.9623 15.2468C23.8926 15.0756 24.8474 15.149 25.7241 15.4598L29.6459 16.8516C30.381 17.1126 31.1852 17.1797 31.9702 17.0465L37.06 16.1793C37.257 16.1457 37.4449 16.278 37.4794 16.4756C37.5129 16.6731 37.3804 16.8598 37.1826 16.8942L32.0928 17.7614C31.7896 17.8131 31.4838 17.8384 31.1797 17.8384H31.1788Z" fill="#3385FF"/>
<path d="M31.1788 20.5569C30.5716 20.5569 29.9699 20.4554 29.4026 20.2534L25.4809 18.8615C24.7239 18.5933 23.8989 18.5299 23.0939 18.6785L18.0368 19.6118C17.8398 19.6481 17.6501 19.5185 17.6138 19.3209C17.5775 19.1243 17.7073 18.9349 17.9052 18.8987L22.9623 17.9653C23.8926 17.7941 24.8474 17.8675 25.7241 18.1783L29.6459 19.5701C30.381 19.8311 31.1852 19.8982 31.9702 19.765L37.06 18.8978C37.257 18.8642 37.4449 18.9965 37.4794 19.1941C37.5129 19.3916 37.3804 19.5783 37.1826 19.6127L32.0928 20.4799C31.7896 20.5316 31.4838 20.5569 31.1797 20.5569H31.1788Z" fill="#3385FF"/>
<path d="M31.1788 23.2753C30.5716 23.2753 29.9699 23.1738 29.4026 22.9718L25.4809 21.5799C24.7239 21.3117 23.8989 21.2483 23.0939 21.3969L18.0368 22.3302C17.8398 22.3655 17.6501 22.236 17.6138 22.0393C17.5775 21.8427 17.7073 21.6533 17.9052 21.6171L22.9623 20.6837C23.8926 20.5125 24.8474 20.5859 25.7241 20.8967L29.6459 22.2885C30.381 22.5495 31.1852 22.6165 31.9702 22.4833L37.06 21.6162C37.257 21.5826 37.4449 21.7149 37.4794 21.9125C37.5129 22.11 37.3804 22.2967 37.1826 22.3311L32.0928 23.1983C31.7896 23.2499 31.4838 23.2753 31.1797 23.2753H31.1788Z" fill="#3385FF"/>
<path d="M31.1788 25.9938C30.5716 25.9938 29.9699 25.8923 29.4026 25.6903L25.4809 24.2984C24.7239 24.0302 23.8989 23.9668 23.0939 24.1154L18.0368 25.0487C17.8398 25.085 17.6501 24.9554 17.6138 24.7578C17.5775 24.5612 17.7073 24.3718 17.9052 24.3356L22.9623 23.4022C23.8926 23.231 24.8474 23.3044 25.7241 23.6152L29.6459 25.007C30.381 25.268 31.1852 25.3351 31.9702 25.2018L37.06 24.3347C37.257 24.3011 37.4449 24.4334 37.4794 24.631C37.5129 24.8285 37.3804 25.0152 37.1826 25.0496L32.0928 25.9168C31.7896 25.9685 31.4838 25.9938 31.1797 25.9938H31.1788Z" fill="#3385FF"/>
</g>
<defs>
<clipPath id="clip0_92_1446">
<rect width="37.4839" height="28" fill="white"/>
</clipPath>
</defs>
</svg>
