<svg width="25" height="24" viewBox="0 0 25 24" fill="none" xmlns="http://www.w3.org/2000/svg">
<g id="icon-pinned-filled">
<path id="Vector" d="M11.2145 2.27271C11.4353 2.14551 11.6964 2.10746 11.9444 2.16631C12.1924 2.22517 12.4086 2.37651 12.5487 2.58939C12.6889 2.80228 12.7425 3.06064 12.6985 3.31171C12.6546 3.56277 12.5164 3.78758 12.3123 3.94019L12.2145 4.00476L14.5965 8.1305L18.1312 10.4649C18.2283 10.5285 18.3137 10.6086 18.3833 10.7015L18.4465 10.799L19.4465 12.531C19.5689 12.7432 19.6093 12.9929 19.5598 13.2328C19.5104 13.4726 19.3746 13.6861 19.1783 13.8325L19.0805 13.8971L15.6164 15.8971L17.6164 19.3612C17.7436 19.582 17.7816 19.8431 17.7228 20.0911C17.6639 20.3391 17.5126 20.5553 17.2997 20.6954C17.0868 20.8356 16.8284 20.8892 16.5774 20.8452C16.3263 20.8013 16.1015 20.6631 15.9489 20.459L15.8843 20.3612L13.8843 16.8971L10.4202 18.8971C10.2081 19.0195 9.9584 19.0598 9.7185 19.0104C9.47861 18.961 9.2652 18.8252 9.11876 18.6289L9.0542 18.531L8.0542 16.799C7.99634 16.6985 7.9564 16.5887 7.93616 16.4745L7.9225 16.3589L7.66725 12.1288L5.28625 8.00476C5.06538 8.13195 4.80427 8.17001 4.55628 8.11115C4.30829 8.05229 4.09213 7.90095 3.95198 7.68807C3.81182 7.47519 3.75824 7.21682 3.80219 6.96575C3.84613 6.71469 3.98429 6.48989 4.18842 6.33727L4.28625 6.27271L11.2145 2.27271Z" fill="black"/>
</g>
</svg>
