<svg width="16" height="15" viewBox="0 0 16 15" fill="none" xmlns="http://www.w3.org/2000/svg">
<g id="icon/time">
<circle id="Ellipse 44" cx="7.59521" cy="7.5" r="7.5" fill="white"/>
<path id="Vector" d="M11.3454 1.00492C12.4766 1.65806 13.4176 2.59531 14.0752 3.72389C14.7329 4.85247 15.0844 6.13325 15.095 7.43942C15.1055 8.7456 14.7748 10.0319 14.1354 11.1709C13.4961 12.31 12.5703 13.2623 11.4498 13.9337C10.3293 14.605 9.05285 14.972 7.74688 14.9985C6.44092 15.0249 5.15069 14.7098 4.00393 14.0843C2.85717 13.4589 1.89364 12.5448 1.20873 11.4326C0.523817 10.3203 0.141272 9.04845 0.098965 7.74292L0.0952148 7.49992L0.098965 7.25692C0.140968 5.96166 0.517881 4.69939 1.19296 3.59316C1.86803 2.48694 2.81824 1.57451 3.95093 0.944831C5.08362 0.315154 6.36015 -0.0102831 7.65606 0.000247684C8.95197 0.0107785 10.223 0.356918 11.3454 1.00492ZM7.59531 2.99992C7.4116 2.99994 7.2343 3.06739 7.09702 3.18946C6.95974 3.31152 6.87204 3.47973 6.85055 3.66217L6.8453 3.74992V7.49992L6.85205 7.59817C6.86915 7.72829 6.9201 7.85165 6.9998 7.95592L7.06505 8.03092L9.31508 10.2809L9.38558 10.3424C9.51711 10.4445 9.67886 10.4999 9.84534 10.4999C10.0118 10.4999 10.1736 10.4445 10.3051 10.3424L10.3756 10.2802L10.4378 10.2097C10.5399 10.0781 10.5953 9.91639 10.5953 9.74992C10.5953 9.58344 10.5399 9.4217 10.4378 9.29017L10.3756 9.21967L8.34532 7.18867V3.74992L8.34007 3.66217C8.31857 3.47973 8.23087 3.31152 8.09359 3.18946C7.95631 3.06739 7.77901 2.99994 7.59531 2.99992Z" fill="#C8C8CD"/>
</g>
</svg>
