<svg width="25" height="24" viewBox="0 0 25 24" fill="none" xmlns="http://www.w3.org/2000/svg">
<g id="icon/search">
<path id="Vector" d="M21.8105 21L15.8105 15M3.81055 10C3.81055 10.9193 3.99161 11.8295 4.34339 12.6788C4.69517 13.5281 5.21079 14.2997 5.8608 14.9497C6.51081 15.5998 7.28248 16.1154 8.13176 16.4672C8.98104 16.8189 9.89129 17 10.8105 17C11.7298 17 12.6401 16.8189 13.4893 16.4672C14.3386 16.1154 15.1103 15.5998 15.7603 14.9497C16.4103 14.2997 16.9259 13.5281 17.2777 12.6788C17.6295 11.8295 17.8105 10.9193 17.8105 10C17.8105 9.08075 17.6295 8.1705 17.2777 7.32122C16.9259 6.47194 16.4103 5.70026 15.7603 5.05025C15.1103 4.40024 14.3386 3.88463 13.4893 3.53284C12.6401 3.18106 11.7298 3 10.8105 3C9.89129 3 8.98104 3.18106 8.13176 3.53284C7.28248 3.88463 6.51081 4.40024 5.8608 5.05025C5.21079 5.70026 4.69517 6.47194 4.34339 7.32122C3.99161 8.1705 3.81055 9.08075 3.81055 10Z" stroke="white" stroke-width="2" stroke-linecap="round" stroke-linejoin="round"/>
</g>
</svg>
