<svg width="24" height="24" viewBox="0 0 24 24" fill="none" xmlns="http://www.w3.org/2000/svg">
<path fill-rule="evenodd" clip-rule="evenodd" d="M7 2H17C18.6567 2 20 3.34314 20 5V19C20 20.6569 18.6567 22 17 22H7C5.34326 22 4 20.6569 4 19V5C4 3.34314 5.34326 2 7 2ZM7 4C6.44775 4 6 4.44769 6 5V17.5859L6.29297 17.2929C6.48047 17.1053 6.73486 17 7 17H18V5C18 4.44769 17.5522 4 17 4H11V12.0057C11 12.366 10.561 12.5427 10.3115 12.2828L9.28857 11.2172C9.1311 11.0533 8.8689 11.0533 8.71143 11.2172L7.68848 12.2828C7.43896 12.5427 7 12.366 7 12.0057V4ZM7 20C6.81787 20 6.64697 19.9514 6.5 19.8663C6.53076 19.8485 6.56079 19.829 6.58984 19.8077C6.63086 19.7777 6.66992 19.7441 6.70703 19.7071L7.41431 19H18C18 19.5523 17.5522 20 17 20H7Z" fill="black"/>
</svg>
