<svg width="11" height="12" viewBox="0 0 11 12" fill="none" xmlns="http://www.w3.org/2000/svg">
<g id="icon/time">
<circle id="Ellipse 44" cx="5.5" cy="6" r="5.5" fill="white"/>
<path id="Vector" d="M8.2501 1.23694C9.07966 1.71591 9.76974 2.40323 10.252 3.23086C10.7343 4.05848 10.9921 4.99771 10.9998 5.95558C11.0076 6.91344 10.765 7.85671 10.2961 8.69202C9.82728 9.52733 9.1484 10.2257 8.32668 10.718C7.50497 11.2103 6.56893 11.4795 5.61122 11.4989C4.65351 11.5183 3.70735 11.2872 2.86639 10.8285C2.02543 10.3699 1.31885 9.69953 0.816577 8.88387C0.314308 8.06822 0.0337755 7.13553 0.0027501 6.17814L0 5.99994L0.0027501 5.82174C0.0335522 4.87188 0.309955 3.94622 0.805012 3.13499C1.30007 2.32375 1.99688 1.65464 2.82753 1.19288C3.65817 0.731113 4.59429 0.492459 5.54462 0.500182C6.49496 0.507904 7.42707 0.76174 8.2501 1.23694ZM5.50007 2.69994C5.36535 2.69996 5.23533 2.74942 5.13466 2.83893C5.03399 2.92845 4.96967 3.0518 4.95391 3.18559L4.95006 3.24994V5.99994L4.95501 6.07199C4.96755 6.16741 5.00491 6.25788 5.06336 6.33434L5.11121 6.38934L6.76123 8.03934L6.81293 8.08444C6.90939 8.15928 7.028 8.19989 7.15009 8.19989C7.27217 8.19989 7.39079 8.15928 7.48724 8.08444L7.53894 8.03879L7.58459 7.98709C7.65943 7.89063 7.70005 7.77202 7.70005 7.64994C7.70005 7.52786 7.65943 7.40924 7.58459 7.31279L7.53894 7.26109L6.05007 5.77169V3.24994L6.04622 3.18559C6.03046 3.0518 5.96615 2.92845 5.86548 2.83893C5.76481 2.74942 5.63478 2.69996 5.50007 2.69994Z" fill="#C8C8CD"/>
</g>
</svg>
