<svg width="24" height="24" viewBox="0 0 24 24" fill="none" xmlns="http://www.w3.org/2000/svg">
<path fill-rule="evenodd" clip-rule="evenodd" d="M22 7.97229V7C22 5.34315 20.6569 4 19 4H5C3.34315 4 2 5.34314 2 7V7.99928V17C2 18.6569 3.34314 20 5 20L19 20C20.6569 20 22 18.6569 22 17V8.02627C22.0005 8.00831 22.0005 7.99031 22 7.97229ZM20 7.41188L12.0002 11.8562L4 7.41168V7C4 6.44771 4.44771 6 5 6L19 6C19.5523 6 20 6.44772 20 7V7.41188ZM20 9.6998L12.4858 13.8743C12.1838 14.0421 11.8166 14.0421 11.5145 13.8743L4 9.6996L4 17C4 17.5523 4.44771 18 5 18L19 18C19.5523 18 20 17.5523 20 17V9.6998Z" fill="black"/>
</svg>
