<svg width="24" height="24" viewBox="0 0 24 24" fill="none" xmlns="http://www.w3.org/2000/svg">
<g id="icon/graph_on">
<path id="Vector" d="M3 18.75V5.25C3 4.65326 3.23705 4.08097 3.65901 3.65901C4.08097 3.23705 4.65326 3 5.25 3H18.75C19.3467 3 19.919 3.23705 20.341 3.65901C20.7629 4.08097 21 4.65326 21 5.25V18.75C21 19.3467 20.7629 19.919 20.341 20.341C19.919 20.7629 19.3467 21 18.75 21H5.25C4.65326 21 4.08097 20.7629 3.65901 20.341C3.23705 19.919 3 19.3467 3 18.75Z" stroke="#7331B7" stroke-width="2" stroke-linecap="round" stroke-linejoin="round"/>
<rect id="Rectangle 2325" x="7" y="13" width="2" height="5" rx="1" fill="#BC81F9"/>
<rect id="Rectangle 2326" x="11" y="6" width="2" height="12" rx="1" fill="#BC81F9"/>
<rect id="Rectangle 2327" x="15" y="9" width="2" height="9" rx="1" fill="#7331B7"/>
</g>
</svg>
