<svg width="25" height="24" viewBox="0 0 25 24" fill="none" xmlns="http://www.w3.org/2000/svg">
<mask id="mask0_586_6150" style="mask-type:luminance" maskUnits="userSpaceOnUse" x="1" y="4" width="23" height="17">
<path d="M3.5 4.5H21.5C22.3284 4.5 23 5.17157 23 6V18.5C23 19.3284 22.3284 20 21.5 20H3.5C2.67157 20 2 19.3284 2 18.5V6C2 5.17157 2.67157 4.5 3.5 4.5Z" fill="white" stroke="white"/>
</mask>
<g mask="url(#mask0_586_6150)">
<path d="M21.5 5H3.5C2.94772 5 2.5 5.44772 2.5 6V18.5C2.5 19.0523 2.94772 19.5 3.5 19.5H21.5C22.0523 19.5 22.5 19.0523 22.5 18.5V6C22.5 5.44772 22.0523 5 21.5 5Z" fill="white"/>
<path d="M21.5 6V18.5H3.5V6H21.5ZM21.5 4H3.5C2.4 4 1.5 4.9 1.5 6V18.5C1.5 19.6 2.4 20.5 3.5 20.5H21.5C22.6 20.5 23.5 19.6 23.5 18.5V6C23.5 4.9 22.6 4 21.5 4Z" fill="#7331B7"/>
<path d="M4 19.44L12.5 11.36L21 19.44H4Z" fill="white"/>
<path d="M12.5 12.74L18.5 18.44H6.5L12.5 12.74ZM12.5 9.97998L1.5 20.44H23.5L12.5 9.97998Z" fill="#7331B7"/>
<path d="M12.5 12.84C12.33 12.84 12.17 12.77 12.03 12.63L4 5H21L12.98 12.63C12.84 12.77 12.67 12.84 12.51 12.84H12.5Z" fill="#BC81F9"/>
<path d="M18.5 6L12.5 11.7L6.5 6H18.49M23.5 4H1.5L11.34 13.36C11.68 13.68 12.09 13.84 12.5 13.84C12.91 13.84 13.33 13.68 13.66 13.36L23.5 4Z" fill="#7331B7"/>
</g>
</svg>
