<svg width="24" height="24" viewBox="0 0 24 24" fill="none" xmlns="http://www.w3.org/2000/svg">
<g id="icon/home-on">
<path id="Rectangle 1175" d="M5 11L12 4L19 11V21H5V11Z" fill="#BC81F9"/>
<rect id="Rectangle 1176" x="10" y="14" width="4" height="6" fill="white"/>
<path id="Vector" d="M9 21V15C9 14.4696 9.21071 13.9609 9.58579 13.5858C9.96086 13.2107 10.4696 13 11 13H13C13.5304 13 14.0391 13.2107 14.4142 13.5858C14.7893 13.9609 15 14.4696 15 15V21M5 12H3L12 3L21 12H19V19C19 19.5304 18.7893 20.0391 18.4142 20.4142C18.0391 20.7893 17.5304 21 17 21H7C6.46957 21 5.96086 20.7893 5.58579 20.4142C5.21071 20.0391 5 19.5304 5 19V12Z" stroke="#7331B7" stroke-width="2" stroke-linecap="round" stroke-linejoin="round"/>
</g>
</svg>
