<svg width="140" height="140" viewBox="0 0 140 140" fill="none" xmlns="http://www.w3.org/2000/svg">
<path d="M70 140C108.66 140 140 108.66 140 70C140 31.3401 108.66 0 70 0C31.3401 0 0 31.3401 0 70C0 108.66 31.3401 140 70 140Z" fill="#C9B9EF"/>
<mask id="mask0_54934_29909" style="mask-type:luminance" maskUnits="userSpaceOnUse" x="0" y="0" width="140" height="140">
<path d="M70 140C108.66 140 140 108.66 140 70C140 31.3401 108.66 0 70 0C31.3401 0 0 31.3401 0 70C0 108.66 31.3401 140 70 140Z" fill="white"/>
</mask>
<g mask="url(#mask0_54934_29909)">
<path d="M21.3998 141.345L106.978 140.793L105.013 121.585L93.4226 90.1967L98.1093 82.2368L94.8938 50.2027L90.7641 39.642L86.8708 27.3685L70.5622 17.8481L55.0154 23.5593L46.8085 21.8307L35.8327 21.1687L25.8342 28.7293L21.5312 40.6823L21.7518 52.2308L21.5312 60.0961L19.335 72.4064L21.5312 84.5801L26.2336 90.1967L23.843 94.0847L19.335 122.578L21.3998 141.345Z" fill="#FEFDFD"/>
<path d="M127.064 141.65C124.7 141.439 122.325 141.424 119.961 141.282C118.563 141.198 117.207 141.366 115.915 141.681C114.848 141.939 113.882 141.813 112.868 141.723C111.88 141.634 110.908 141.597 109.904 141.776C108.811 141.965 107.803 141.571 106.973 140.798C107.209 140.058 107.629 139.432 107.566 138.534C107.382 135.823 107.503 133.085 107.288 130.38C107.125 128.362 107.288 126.308 106.494 124.301C106.242 123.66 105.785 122.131 106.999 121.511C109.074 120.449 110.861 118.989 112.636 117.539C114.486 116.031 115.968 114.103 116.383 111.712C116.75 109.595 117.087 107.456 117.06 105.27C117.018 101.262 116.372 97.5417 113.088 94.7833C113.551 93.3805 113.088 91.8621 113.624 90.4697C115.08 90.6273 116.556 90.6957 117.99 90.9689C119.23 91.2053 120.47 91.0424 121.652 90.9321C126.586 90.4697 131.483 91.2631 136.401 91.1055C137.493 91.0687 138.592 91.1633 139.642 90.7482C139.952 90.6221 140.241 90.5643 140.583 90.7797C141.833 91.5573 143.126 92.2929 143.783 93.6957C144.066 94.2999 143.888 94.8674 143.478 95.4033C142.811 96.2702 142.396 97.1319 143.21 98.23C143.441 98.54 143.903 99.3649 143.052 99.8062C142.606 100.037 142.832 100.153 143.126 100.316C143.425 100.479 143.362 100.82 143.357 101.093C143.252 104.85 143.042 108.602 143.063 112.358C143.073 114.323 143.126 116.293 143.11 118.264C143.094 120.176 143.005 122.083 142.968 123.991C142.931 126.239 142.989 128.493 142.874 130.742C142.737 133.443 143.735 136.107 143.063 138.812C142.821 139.784 142.679 140.846 141.24 140.588C141.166 140.573 141.056 140.651 140.987 140.709C139.243 142.291 137.199 141.329 135.329 141.235C133.9 141.166 132.518 141.082 131.115 141.397C129.87 141.681 128.614 141.839 127.337 141.644L127.353 141.66C127.253 141.524 127.153 141.287 127.048 141.66L127.059 141.65H127.064Z" fill="#B586FE"/>
<path d="M97.6257 121.521C97.3368 122.719 98.0461 123.807 97.962 125.01C97.8307 126.917 98.1932 128.814 98.0986 130.763C98.004 132.739 97.6573 134.688 97.5312 136.653C97.4734 137.557 97.1476 138.419 97.2002 139.417C97.2737 140.809 95.6555 142.107 94.2579 141.865C92.3454 141.534 90.5327 141.87 88.6781 142.175C87.0178 142.448 85.3049 141.902 83.6236 142.427C83.2401 142.548 82.5466 142.37 82.2996 142.075C81.4379 141.051 80.3451 141.382 79.3048 141.382C78.0648 141.382 76.7461 142.291 75.6322 140.898C75.401 140.609 74.718 140.741 74.2609 140.919C73.5673 141.187 72.837 141.156 72.1435 141.061C70.3413 140.814 68.576 141.182 66.8054 141.34C65.991 141.413 65.1766 141.371 64.4253 141.214C62.4813 140.804 60.7474 141.56 58.9348 141.934C58.1729 142.091 57.3743 142.023 57.1957 140.967C57.1746 140.841 57.0538 140.715 56.9487 140.625C53.6597 137.919 53.0922 134.221 53.6597 130.396C54.1063 127.38 53.9381 124.259 55.0205 121.338C55.1361 121.028 55.2569 120.723 55.3777 120.413C57.4899 120.781 59.3551 120.187 61.0101 118.889C61.7877 118.28 62.518 117.628 63.18 116.872C65.371 114.371 67.9507 112.201 68.576 108.623C68.9963 106.211 69.7634 103.857 69.59 101.367C69.6215 101.341 69.6898 101.304 69.6846 101.288C69.6636 101.214 69.6215 101.151 69.59 101.083C69.4849 98.414 68.4814 95.9499 67.8246 93.4069C70.168 93.0864 72.5113 93.3438 74.7548 93.8693C77.4554 94.505 79.8617 95.9814 82.3364 97.2108C83.2033 97.6417 84.0913 98.2774 84.6324 99.055C85.4521 100.237 86.7971 100.521 87.8006 101.346C86.8654 105.05 86.6185 108.659 88.1369 112.369C89.9863 116.887 93.1283 119.856 97.6257 121.537V121.521Z" fill="#FEF3E0"/>
<path d="M37.6871 91.3314C33.7991 92.6817 29.8638 93.0705 25.855 91.8989C25.6868 89.7447 25.6133 87.6326 24.3155 85.6833C23.4328 84.3593 23.0335 82.6885 22.5134 81.1648C21.8724 79.2838 21.9827 77.2032 21.3522 75.254C21.1893 74.7496 21.0002 73.9299 21.079 73.2994C21.4888 70.0104 21.3627 66.6636 22.1456 63.4218C22.5817 61.6249 22.4083 59.6651 23.5537 58.0521C25.6028 57.0013 27.82 56.6073 30.0687 56.2763C33.4996 55.7666 36.8149 56.0398 39.9306 57.6738C43.1409 59.3551 45.936 61.5356 47.9168 64.6355C47.4072 65.6758 48.542 65.7809 48.8836 66.3378C50.3074 68.9648 50.5281 71.9176 50.5859 74.7548C50.6594 78.3013 49.782 81.7638 47.7119 84.7901C46.6243 85.5835 45.295 85.8829 44.1339 86.566C41.8011 87.932 39.794 89.7027 37.6766 91.3367L37.6871 91.3314Z" fill="#FECD76"/>
<path d="M23.5592 58.0523C22.4138 59.6653 22.5871 61.6251 22.1511 63.422C21.3629 66.6637 21.489 70.0106 21.0845 73.2996C21.0057 73.9354 21.1948 74.755 21.3577 75.2541C21.9934 77.2034 21.8778 79.284 22.5188 81.165C23.039 82.6939 23.4436 84.3594 24.321 85.6835C25.6187 87.6327 25.6923 89.7449 25.8604 91.899C25.2142 92.167 25.0618 92.9078 24.9725 93.3597C24.4103 96.2021 23.638 98.9868 22.7921 101.745C22.5714 102.465 22.9234 103.295 22.3297 103.926C21.6151 104.346 21.6519 104.924 21.9882 105.57C21.9934 105.78 21.9987 105.996 22.0092 106.206C21.1948 106.868 20.7797 108.833 21.2894 109.637C21.3262 109.921 21.6099 110.162 21.4365 110.483C20.517 110.435 20.3699 111.155 20.2911 111.78C20.2123 112.379 20.785 112.148 21.1055 112.217C20.8533 114.817 21.0635 117.444 20.4592 120.05C20.2701 120.854 20.2859 122.099 20.5486 122.993C21.2474 125.425 20.3804 128.031 21.5521 130.396C21.8621 131.021 22.1038 131.825 21.715 132.597C21.3052 133.411 22.3875 133.369 22.5399 134.01C22.8499 135.287 23.0075 136.606 23.4541 137.867C23.6695 138.482 24.1318 138.991 24.1949 139.659C24.1003 140.347 23.8534 140.983 23.4908 141.576C22.7815 141.65 22.0617 141.813 21.4102 141.34C20.6221 139.685 19.5608 138.103 19.0932 136.364C17.6378 130.953 16.3663 125.494 16.9495 119.798C17.2122 117.218 17.2963 114.612 17.5748 112.033C17.8795 109.227 18.3734 106.448 18.9146 103.668C19.6764 99.7696 20.433 95.8921 21.8989 92.1775C22.3507 91.0269 22.5136 89.7974 21.6677 88.6835C22.1038 87.5539 21.0845 86.8183 20.7062 86.0565C18.0792 80.8234 17.7114 75.2489 17.89 69.5902C18.0424 64.7828 19.2245 60.1644 20.7009 55.5986C21.2106 54.0329 20.9058 52.2833 20.6274 50.7019C19.109 42.0904 21.0635 34.2986 25.6818 26.9955C27.9988 23.3281 31.0515 20.8692 35.3178 19.8342C41.2549 18.3893 46.945 18.6047 52.2411 21.9358C53.2131 22.5453 53.8384 22.3404 54.595 21.6573C58.0626 18.5417 62.3762 17.2912 66.7791 16.2824C67.2573 16.1721 67.8352 16.2929 68.3133 16.4611C70.5621 17.2492 73.0052 16.7868 75.2592 17.6748C76.8354 18.2947 78.0859 19.2352 79.1735 20.4647C79.5991 20.948 80.2401 21.153 80.7497 21.3841C83.5186 22.6609 85.1842 25.0935 86.8865 27.3528C88.2315 29.1444 89.771 30.8467 90.6641 33.0114C91.7202 35.5754 92.8131 38.1078 93.5486 40.7927C94.1686 43.0624 94.3998 45.3795 94.7203 47.6913C94.8149 48.3848 95.2142 48.7946 95.9497 48.8156C95.4243 49.6931 94.7361 50.4234 93.99 51.1064C93.0075 50.2815 91.7307 49.7509 91.2999 48.3848C90.7797 46.0047 90.6221 43.5773 90.0494 41.1815C88.6518 35.3442 85.2577 30.7049 81.8531 26.0235C80.9494 24.7783 79.2628 24.4315 78.2488 23.3492C75.1384 20.0286 70.9456 20.1652 66.963 19.5767C66.7844 19.5505 66.59 19.6555 66.4008 19.6608C64.667 19.6976 63.3167 20.8535 61.6827 21.2633C60.3954 21.589 58.8665 22.0304 58.0364 23.1705C57.18 24.3527 55.8454 24.752 54.8156 25.6242C54.2692 26.0865 53.1448 26.013 52.2727 25.5033C49.3777 23.8168 46.6193 22.0409 42.9519 22.0987C39.8625 22.146 36.915 22.4507 34.1041 23.6644C33.0953 24.1005 32.0813 24.6995 31.2984 25.4613C29.0024 27.7153 27.3526 30.5315 26.0706 33.3739C24.1424 37.6507 23.2071 42.2848 23.5749 47.066C23.8586 50.7281 24.2107 54.385 23.5697 58.0418L23.5592 58.0523Z" fill="#EBB86E"/>
<path d="M21.6625 88.6941C22.5084 89.8079 22.3455 91.0374 21.8936 92.188C20.4278 95.9027 19.6764 99.7802 18.9093 103.679C18.3682 106.458 17.8743 109.232 17.5695 112.043C17.2858 114.623 17.207 117.224 16.9443 119.809C16.3611 125.504 17.6326 130.963 19.088 136.375C19.5556 138.114 20.6169 139.695 21.405 141.35C20.454 142.506 19.1353 142.343 17.9006 142.212C14.3541 141.834 2.47985 141.361 -1.08241 142.044C-2.20153 142.259 -2.51152 141.676 -2.50626 140.599C-2.47474 129.04 -2.48525 117.481 -2.48525 105.922C-2.48525 100.642 -2.46423 95.3615 -2.50626 90.0812C-2.51152 89.1197 -2.26983 88.6521 -1.25054 88.7466C3.10508 89.1512 15.7832 88.2948 20.1335 88.5102C20.6484 88.5365 21.1528 88.6363 21.6677 88.6993L21.6625 88.6941Z" fill="#B585FE"/>
<path d="M93.9691 51.1221C94.7152 50.439 95.4035 49.7035 95.9289 48.8313C99.2652 46.0046 102.896 43.7821 107.293 42.9678C110.819 42.311 114.271 42.0115 117.744 43.2935C121.721 44.7594 124.963 47.192 127.642 50.418C131.22 54.7264 132.823 59.8176 132.523 65.2923C132.324 68.9596 131.052 72.4956 128.851 75.6113C126.219 79.3259 122.735 81.8794 118.548 83.545C117.933 83.7866 117.276 84.0283 116.63 84.0494C114.933 84.1071 114.161 85.0686 114.118 86.6028C114.076 87.9216 113.462 89.1511 113.635 90.4803C113.104 91.8727 113.562 93.3911 113.099 94.7939C112.505 94.8675 112.012 94.6888 111.644 94.2055C111.213 93.638 110.63 93.3123 109.973 93.0811C110.304 90.7483 110.604 88.4102 110.987 86.0879C111.139 85.1842 110.987 84.7009 109.973 84.7692C109.553 84.8007 109.159 84.4644 108.717 84.6431C107.693 84.4644 106.658 84.3436 105.654 84.0914C104.992 83.9233 104.85 84.1597 104.787 84.7429C104.593 86.4767 104.356 88.2001 104.136 89.9287C103.763 90.3069 103.973 91.1686 103.122 91.1581C102.376 91.2947 101.645 91.3262 101.036 90.7588C101.031 90.2912 101.025 89.8288 101.02 89.3612C101.398 87.6169 101.33 85.7884 101.756 84.0914C102.113 82.678 101.677 82.305 100.495 82.1369C99.7171 81.2437 98.6663 80.734 97.6785 80.1351C97.5524 79.9354 97.4683 79.6832 97.2949 79.5466C93.801 76.7094 91.7834 72.9843 90.6591 68.6864C89.6135 64.6776 89.913 60.7633 91.1267 56.8385C91.7677 54.7631 93.1442 53.0924 93.9691 51.1326V51.1221ZM110.451 81.3435C120.607 81.3593 128.856 73.4414 128.599 63.6268C128.315 52.7508 120.901 45.227 109.243 45.826C100.904 46.2568 93.0707 53.6808 93.4332 64.8142C93.7222 73.6778 100.768 81.1596 110.451 81.3435Z" fill="#88C45D"/>
<path d="M97.6781 80.1245C98.6659 80.7235 99.7167 81.2331 100.494 82.1263C99.8008 83.7551 98.9286 85.284 97.7674 86.6238C97.0319 87.4802 96.2385 88.2841 95.8182 89.3612C95.235 89.3822 94.904 89.834 94.5257 90.165C94.0896 90.5486 93.5379 91.0215 94.0686 91.6677C94.5099 92.2036 95.0196 92.7395 95.8392 92.1248C97.3786 90.9742 99.207 90.8638 101.03 90.743C101.64 91.3157 102.37 91.2842 103.116 91.1423C103.62 91.7413 104.251 92.314 105.039 92.109C106.253 91.7938 107.272 92.314 108.349 92.6029C108.89 92.75 109.358 93.1388 109.967 93.0705C110.624 93.2965 111.207 93.6275 111.638 94.1949C112.006 94.6783 112.505 94.8517 113.094 94.7834C116.372 97.5418 117.018 101.262 117.06 105.271C117.087 107.456 116.75 109.6 116.383 111.712C115.968 114.103 114.486 116.031 112.636 117.539C110.861 118.989 109.074 120.444 106.999 121.511C105.785 122.131 106.242 123.66 106.494 124.301C107.288 126.308 107.125 128.357 107.288 130.38C107.503 133.086 107.382 135.823 107.566 138.534C107.629 139.432 107.204 140.058 106.973 140.799C104.193 140.757 104.309 140.751 104.172 137.877C103.936 132.996 103.547 128.12 102.832 123.276C102.691 122.304 102.102 121.989 101.272 121.984C100.032 121.978 98.8235 121.8 97.6203 121.527C93.1281 119.845 89.9809 116.882 88.1315 112.358C86.613 108.649 86.8652 105.039 87.7952 101.335C88.5098 98.7187 89.9809 96.5277 91.6885 94.4839C92.3032 93.7483 92.4661 93.1599 91.8881 92.2877C90.8688 90.7482 90.9161 89.1615 91.7936 88.2315C93.5484 86.3663 95.3243 84.5169 96.4907 82.1946C96.8532 81.4853 97.5573 80.9757 97.6729 80.1245H97.6781ZM113.472 105.003C113.488 102.397 112.925 99.7905 111.381 97.8833C109.531 95.603 106.579 94.7256 103.699 94.2107C101.104 93.7483 98.6344 94.6205 96.3173 95.6293C94.8409 96.2755 93.5116 97.3684 92.6815 98.8605C91.3417 101.277 90.6219 103.862 90.7848 106.642C91.0002 110.288 92.319 113.498 95.1089 115.889C97.3524 117.812 100.063 119.12 103.053 118.999C107.535 118.816 111.817 115.054 112.694 111.166C113.146 109.153 113.22 107.057 113.467 105.003H113.472Z" fill="#E9B76E"/>
<path d="M37.6871 91.3315C39.8045 89.6975 41.8115 87.9269 44.1444 86.5608C45.3055 85.8831 46.6348 85.5836 47.7224 84.785C48.3529 84.8638 48.9308 84.6484 49.5298 84.5118C54.7996 83.2928 59.4232 84.7167 63.5476 88.0267C65.3656 89.4874 66.4584 91.5522 67.8245 93.3911C68.4812 95.9341 69.49 98.3983 69.5898 101.067L69.6003 101.057C69.2693 101.157 69.4007 101.262 69.6003 101.362L69.5898 101.351C69.7632 103.841 68.9961 106.195 68.5758 108.607C67.9506 112.185 65.3708 114.355 63.1799 116.856C62.5178 117.612 61.7875 118.269 61.0099 118.873C59.3549 120.171 57.4897 120.765 55.3776 120.397C54.8259 119.162 55.2252 118.217 56.2602 117.45C58.467 115.805 60.5371 114.034 62.2341 111.822C65.292 107.824 66.1326 103.332 65.5652 98.435C65.1029 94.4577 62.9697 91.4209 59.7069 89.5399C56.1709 87.5013 52.3249 87.2176 48.2215 88.715C43.4666 90.4489 40.4035 94.0742 37.0461 97.421C35.9638 98.4981 35.349 100.032 33.5469 100.221C32.4225 100.342 31.9339 99.8957 32.2124 98.7871C32.4908 97.689 33.384 96.9797 33.9882 96.0812C35.1179 94.4104 36.6783 93.0759 37.6871 91.321V91.3315Z" fill="#EBB86E"/>
<path d="M21.2789 109.636C20.7692 108.827 21.1843 106.862 21.9987 106.206C21.8673 107.372 22.0827 108.612 21.2789 109.636Z" fill="#FECE78"/>
<path d="M21.0947 112.217C20.7742 112.148 20.2015 112.379 20.2803 111.78C20.3644 111.155 20.5115 110.435 21.4257 110.483C21.3154 111.061 21.1998 111.639 21.0894 112.217H21.0947Z" fill="#FECE78"/>
<path d="M23.4805 141.576C23.8377 140.982 24.0847 140.347 24.1845 139.658C24.9306 140.163 24.6259 140.888 24.4682 141.487C24.3001 142.128 23.8377 141.755 23.4805 141.576Z" fill="#FEF3E0"/>
<path d="M21.9827 105.565C21.6465 104.924 21.6097 104.346 22.3243 103.92C22.3558 104.498 22.671 105.134 21.9827 105.565Z" fill="#FECE78"/>
<path d="M69.5947 101.067C69.6263 101.135 69.6683 101.199 69.6893 101.272C69.6893 101.288 69.6263 101.325 69.5947 101.351L69.6052 101.361C69.6052 101.262 69.6052 101.162 69.6052 101.057L69.5947 101.067Z" fill="#EBB86E"/>
<path d="M47.9221 64.6304C50.4966 62.5603 53.5544 62.0559 56.7226 61.9981C57.6263 61.9824 58.5458 62.0402 59.4285 62.4237C60.1956 62.7547 60.5003 63.2644 60.3637 64.0157C60.2113 64.8511 59.5598 64.8091 58.9136 64.6882C56.2288 64.1996 53.6753 64.746 51.2111 65.7653C50.4493 66.0805 49.6874 66.2487 48.8888 66.338C48.5473 65.7811 47.4124 65.676 47.9221 64.6357V64.6304Z" fill="#0E0E0D"/>
<path d="M96.4959 82.1945C90.7584 82.5938 86.3608 80.177 82.6724 75.9212C80.4027 73.2994 79.0734 70.252 78.8842 66.9892C78.6793 63.49 78.6478 59.8227 80.5813 56.5809C81.5428 56.3708 82.5253 56.2236 83.4605 55.9294C84.4273 55.6299 84.5797 54.6737 83.8231 53.9907C83.5814 53.77 83.2819 53.6124 83.0139 53.4285C84.1226 51.2796 86.282 50.4442 88.205 49.3566C89.1297 48.8364 90.1542 48.3898 91.2786 48.4003C91.7094 49.7664 92.9914 50.297 93.9687 51.1219C93.1438 53.0817 91.7725 54.7525 91.1262 56.8279C89.9125 60.7527 89.6078 64.6669 90.6586 68.6758C91.783 72.9736 93.8005 76.6988 97.2945 79.536C97.4679 79.6778 97.552 79.93 97.6781 80.1244C97.5625 80.9756 96.8584 81.4852 96.4959 82.1945Z" fill="#FDCD76"/>
<path d="M110.451 81.3436C100.773 81.1597 93.7271 73.6779 93.4329 64.8143C93.0651 53.6809 100.904 46.2569 109.242 45.8261C120.901 45.2271 128.309 52.751 128.598 63.6269C128.856 73.4415 120.612 81.3594 110.451 81.3436ZM119.362 71.6604L119.377 71.6446C120.617 70.8145 120.696 69.5114 120.786 68.2137C120.933 67.7408 121.08 67.268 121.222 66.7951C121.973 65.9387 121.637 65.387 120.691 65.077C120.381 64.9772 120.008 65.0665 119.961 64.5989C120.139 64.5726 120.318 64.5464 120.497 64.5201C120.917 64.9036 121.001 64.5831 121.075 64.2416C121.185 64.1365 121.29 64.0315 121.4 63.9211C121.537 63.8265 121.752 63.7582 121.784 63.6374C121.842 63.4325 121.631 63.3589 121.458 63.3064C121.311 62.7179 121.222 62.14 120.707 61.6671C119.409 60.4692 117.864 60.0121 116.162 59.9543C114.391 59.8965 114.213 59.7073 114.549 57.942C114.617 57.5689 114.707 57.1854 114.875 56.8544C115.616 55.3938 115.453 53.9069 115.043 52.42C114.759 51.3796 113.262 50.1554 112.332 50.1922C111.087 50.2395 110.503 51.0697 110.214 52.152C109.363 55.3307 107.445 57.9472 105.775 60.6951C104.855 62.2083 103.673 63.3642 101.818 63.6269C100.993 63.7425 100.584 64.2784 100.489 65.077C100.216 67.3415 100.321 69.5692 100.972 71.7707C101.34 73.0159 102.17 74.1613 103.374 73.9722C105.008 73.7147 106.043 74.5974 107.314 75.1281C110.798 76.5677 114.271 76.9144 117.644 74.7708C118.227 74.7498 118.395 74.3452 118.547 73.8618C118.779 73.1157 119.088 72.3907 119.367 71.6551L119.362 71.6604Z" fill="#A8E57C"/>
<path d="M109.968 93.0706C109.363 93.1389 108.89 92.7501 108.349 92.603C107.272 92.314 106.253 91.7939 105.039 92.1091C104.251 92.314 103.626 91.7413 103.116 91.1424C103.962 91.1529 103.752 90.2912 104.13 89.9129C105.118 89.9812 106.111 89.7921 107.088 90.1388C107.488 90.2807 107.819 90.1283 107.897 89.6239C108.16 87.9584 108.439 86.2928 108.712 84.6273C109.153 84.4487 109.542 84.7849 109.968 84.7534C110.987 84.6798 111.134 85.1685 110.982 86.0722C110.593 88.3945 110.299 90.7325 109.968 93.0653V93.0706Z" fill="#D2D2CF"/>
<path d="M108.717 84.6326C108.444 86.2981 108.165 87.9584 107.902 89.6292C107.824 90.1336 107.493 90.286 107.093 90.1441C106.121 89.7973 105.123 89.9812 104.135 89.9182C104.356 88.1896 104.592 86.461 104.787 84.7324C104.85 84.1492 104.992 83.918 105.654 84.0809C106.657 84.3331 107.692 84.4539 108.717 84.6326Z" fill="#FCFDFB"/>
<path d="M95.8237 89.3612C97.5576 89.3612 99.2862 88.7097 101.02 89.3454C101.025 89.813 101.031 90.2754 101.036 90.743C99.2126 90.8586 97.3842 90.9742 95.8447 92.1248C95.0251 92.7395 94.5155 92.1984 94.0741 91.6677C93.5382 91.0215 94.0899 90.5486 94.5312 90.1651C94.9095 89.834 95.2405 89.3822 95.8237 89.3612Z" fill="#B586FE"/>
<path d="M113.472 105.003C113.225 107.062 113.152 109.154 112.7 111.166C111.822 115.054 107.535 118.816 103.059 119C100.074 119.121 97.3579 117.817 95.1144 115.889C92.3245 113.499 91.0057 110.288 90.7903 106.642C90.6275 103.863 91.3473 101.278 92.687 98.8608C93.5172 97.3686 94.8465 96.2758 96.3229 95.6295C98.6399 94.6155 101.109 93.7486 103.705 94.2109C106.584 94.7258 109.537 95.6033 111.386 97.8835C112.931 99.796 113.493 102.397 113.477 105.003H113.472Z" fill="#FEFDFD"/>
<path d="M69.6053 101.062C69.6053 101.162 69.6053 101.262 69.6053 101.367C69.4056 101.267 69.2743 101.167 69.6053 101.062Z" fill="#FEF3E0"/>
<path d="M46.1992 28.729C50.2501 28.8709 53.3395 31.4559 54.984 35.1074C55.4464 36.1267 55.977 37.146 56.1399 38.3019C56.5182 40.9552 56.1504 41.6383 53.6442 42.563C51.4585 43.3721 49.1835 43.8345 46.8875 44.1497C45.3901 44.3546 43.5827 42.4894 43.3305 40.4981C43.1413 38.9902 42.8944 37.5033 42.5844 36.0164C42.2271 34.3193 42.6107 32.6065 42.8734 30.941C43.115 29.391 44.4076 28.7027 46.2044 28.729H46.1992Z" fill="#FECE78"/>
<path d="M70.499 39.5948C69.4534 39.7787 68.4026 39.3584 67.3203 39.2796C66.8579 39.2481 66.2957 39.0799 66.0488 38.502C64.6564 35.2444 63.6844 31.8976 64.4463 28.3301C64.998 25.7503 68.2397 24.5997 70.5673 25.8449C72.816 27.0481 74.5131 28.7399 75.7058 30.9309C76.704 32.7645 77.2452 34.7453 76.7566 36.8574C76.62 37.4617 76.2627 38.0922 75.711 38.3181C74.0665 38.9959 72.443 39.847 70.499 39.5948Z" fill="#FECE78"/>
<path d="M64.0945 39.8261C63.7477 40.4986 63.3589 41.1606 62.5656 41.3393C61.5883 41.5547 60.9053 41.0555 60.6583 40.1361C60.217 38.5283 59.4446 37.0782 58.6986 35.6071C57.7528 33.7629 56.7441 31.9555 55.6407 30.1954C55.3044 29.6542 54.5321 28.9712 55.4568 28.2198C56.2817 27.5526 57.012 27.8573 57.5584 28.5193C58.8667 30.1061 60.1907 31.6087 61.0419 33.6105C61.5936 34.9135 62.5446 36.206 63.2591 37.5406C63.6427 38.2551 63.4693 39.1431 64.0998 39.8208L64.0945 39.8261Z" fill="#EBB86E"/>
<path d="M83.0141 53.4285C83.2873 53.6124 83.5815 53.77 83.8232 53.9907C84.5798 54.6737 84.4222 55.6299 83.4607 55.9294C82.5255 56.2184 81.543 56.3707 80.5815 56.5809C78.4693 56.8541 76.8668 58.0468 75.3589 59.4339C75.0437 59.7228 74.823 60.1432 74.203 60.0959C73.4885 60.0433 72.6899 59.9698 72.4272 59.3761C72.2538 58.9925 72.7582 58.3358 73.1785 57.8944C75.8581 55.0677 79.0158 53.3391 83.0141 53.4337V53.4285Z" fill="#0E0E0D"/>
<path d="M68.5178 64.9822C67.5616 65.1871 67.0677 64.5987 67.1045 63.674C67.1517 62.4498 68.2288 62.4287 69.0905 62.3709C69.8471 62.3184 70.425 62.9069 70.3462 63.5794C70.2464 64.4463 69.7105 65.1556 68.5178 64.9822Z" fill="#0E0E0D"/>
<path d="M117.644 74.7759C114.27 76.9196 110.798 76.5728 107.314 75.1332C106.043 74.6078 105.002 73.7251 103.374 73.9773C102.17 74.1664 101.345 73.0263 100.972 71.7758C100.321 69.5744 100.216 67.3414 100.489 65.0821C100.584 64.2888 100.993 63.7528 101.818 63.632C103.673 63.364 104.855 62.2134 105.775 60.7002C107.445 57.9524 109.363 55.3358 110.214 52.1571C110.503 51.0748 111.087 50.2446 112.332 50.1973C113.262 50.1606 114.759 51.3848 115.043 52.4251C115.453 53.912 115.621 55.3989 114.875 56.8595C114.707 57.1905 114.617 57.5741 114.549 57.9471C114.213 59.7125 114.391 59.9016 116.162 59.9594C117.864 60.0172 119.409 60.4743 120.707 61.6722C121.222 62.1451 121.311 62.7178 121.458 63.3115C121.437 63.5164 121.421 63.7213 121.4 63.9262C121.29 64.0313 121.185 64.1364 121.074 64.2415C120.828 64.2257 120.623 64.2888 120.497 64.5199C120.318 64.5462 120.139 64.5725 119.961 64.5988C118.931 64.7038 117.896 64.7774 116.866 64.9245C116.446 64.9876 115.978 65.224 116.015 65.7336C116.057 66.3904 116.635 66.2012 117.013 66.1645C117.859 66.0909 118.742 66.0594 119.535 65.7967C120.586 65.4499 121.053 65.7914 121.222 66.795C121.074 67.2678 120.933 67.7407 120.786 68.2136C119.362 68.2136 117.99 68.5918 116.603 68.8178C116.209 68.8808 115.658 68.9649 115.747 69.5428C115.82 70.0472 116.33 69.9474 116.687 69.9159C117.202 69.8738 117.707 69.6952 118.216 69.6794C118.821 69.6584 119.577 69.1068 119.961 69.5218C120.46 70.0577 119.572 70.5359 119.419 71.0875C119.372 71.2662 119.388 71.4606 119.377 71.6497L119.362 71.6655C118.384 71.76 117.386 71.4921 116.43 71.8336C116.067 71.9597 115.668 72.1068 115.763 72.5902C115.836 72.9737 116.188 73.0788 116.54 73.0263C118.269 72.7636 117.99 73.7461 117.644 74.7811V74.7759Z" fill="#FCFDFB"/>
<path d="M119.377 71.6444C119.388 71.4553 119.367 71.2609 119.42 71.0822C119.572 70.5305 120.455 70.0577 119.961 69.5165C119.577 69.1014 118.821 69.6479 118.216 69.6741C117.707 69.6952 117.197 69.8685 116.687 69.9106C116.335 69.9421 115.826 70.0419 115.747 69.5375C115.658 68.9648 116.209 68.8808 116.603 68.8125C117.996 68.5865 119.362 68.2083 120.786 68.2083C120.696 69.506 120.617 70.809 119.377 71.6392V71.6444Z" fill="#BCEB9B"/>
<path d="M121.222 66.7951C121.059 65.7916 120.591 65.45 119.535 65.7968C118.742 66.0595 117.859 66.091 117.013 66.1646C116.635 66.1961 116.057 66.3853 116.015 65.7338C115.978 65.2241 116.446 64.9877 116.866 64.9246C117.89 64.7775 118.925 64.704 119.961 64.5989C120.008 65.0665 120.381 64.9772 120.691 65.077C121.637 65.387 121.973 65.9387 121.222 66.7951Z" fill="#BCEB9B"/>
<path d="M117.644 74.7758C117.99 73.7407 118.264 72.7582 116.54 73.0209C116.193 73.0734 115.841 72.9631 115.763 72.5848C115.668 72.1014 116.067 71.9596 116.43 71.8282C117.391 71.4867 118.39 71.7547 119.362 71.6601C119.083 72.3957 118.778 73.1207 118.542 73.8668C118.39 74.3554 118.227 74.7548 117.638 74.7758H117.644Z" fill="#BCEB9B"/>
<path d="M120.497 64.5198C120.623 64.2886 120.828 64.2255 121.075 64.2413C121.001 64.5828 120.917 64.8981 120.497 64.5198Z" fill="#BCEB9B"/>
<path d="M121.395 63.9262C121.416 63.7213 121.432 63.5164 121.453 63.3115C121.626 63.3641 121.842 63.4376 121.779 63.6425C121.742 63.7634 121.526 63.8317 121.395 63.9262Z" fill="#BCEB9B"/>
</g>
<circle cx="70" cy="70" r="68.5" stroke="#FFE9BA" stroke-width="3"/>
</svg>
