<svg width="140" height="140" viewBox="0 0 140 140" fill="none" xmlns="http://www.w3.org/2000/svg">
<path d="M70 140C108.66 140 140 108.66 140 70C140 31.3401 108.66 0 70 0C31.3401 0 0 31.3401 0 70C0 108.66 31.3401 140 70 140Z" fill="#F9D8D8"/>
<mask id="mask0_54849_29782" style="mask-type:luminance" maskUnits="userSpaceOnUse" x="0" y="0" width="140" height="140">
<path d="M70 140C108.66 140 140 108.66 140 70C140 31.3401 108.66 0 70 0C31.3401 0 0 31.3401 0 70C0 108.66 31.3401 140 70 140Z" fill="white"/>
</mask>
<g mask="url(#mask0_54849_29782)">
<path d="M25.8919 140.62L21.6991 136.968L19.0405 124.285L21.0318 113.646L26.5329 106.106V103.216L21.1684 99.5226L18.3838 90.6433L19.5712 79.6885L25.3612 71.7391L30.9883 69.6112L36.3317 68.8862L37.2932 66.6637L43.4667 52.4146L52.8873 43.4407L56.4758 29.985L65.765 17.7745L77.8441 12.3313L89.5239 13.2613L94.3051 18.3052L99.4804 16.4453L109.169 18.4366L116.961 26.3492L121.248 35.4019L123.203 45.9153L119.777 58.6144L118.064 63.8212L118.826 74.2348L124.169 76.473L129.345 82.8305L131.599 90.1179L131.036 97.4158L124.926 105.686L116.11 109.532L111.959 119.735L105.055 135.229L101.65 140.667L25.8919 140.62Z" fill="#FEFEFE"/>
<path d="M139.458 103.216C140.031 101.146 139.653 99.0287 139.679 96.9429C139.716 93.927 139.359 90.906 139.28 87.8849C139.243 86.3822 139.448 84.869 139.543 83.3664C140.084 81.2017 138.891 80.1036 136.979 79.5624C138.749 77.0194 139.842 74.4187 139.984 71.5237C140.099 69.1488 139.317 67.126 137.535 65.3764C135.308 63.1855 132.98 62.0926 129.922 63.4061C129.087 63.7634 128.635 63.485 128.015 62.6758C126.171 60.2642 124.253 58.8088 121.616 60.0961C121.563 59.9174 121.411 59.6863 121.469 59.5602C122.383 57.716 122.756 55.7142 123.208 53.7334C124.342 54.7422 125.819 55.1783 127.038 56.0872C128.625 57.2746 130.511 57.9892 132.476 58.3202C133.311 58.4621 134.157 58.2309 134.861 57.6214C137.993 54.9471 139.49 51.6791 138.628 47.5231C138.381 46.3304 137.824 45.3742 136.842 44.5861C134.719 42.8837 132.618 42.9836 130.458 44.4337C130.08 44.6859 129.665 44.8698 129.26 44.6123C127.427 43.4249 125.719 44.0449 124.017 44.9328C124.122 42.227 124.043 39.5579 123.444 36.8836C123.181 35.7172 122.656 34.6559 122.441 33.5105C121.989 31.0936 121.216 28.7713 119.672 26.8851C118.001 24.8518 116.477 22.7028 114.738 20.7116C113.167 18.9094 111.412 17.6905 109.374 16.7185C107.309 15.7307 105.013 15.5048 102.811 14.9794C100.631 14.454 98.4031 14.5801 96.5537 15.9251C95.2244 16.8866 94.5099 16.6396 93.6429 15.4207C91.8776 12.9355 89.6919 11.3751 86.4344 10.8497C82.0367 10.1404 77.8177 10.2665 73.5776 11.4329C69.5845 12.531 66.3113 14.7692 63.3795 17.6484C56.7383 24.1582 52.7242 31.887 52.2146 41.2707C52.1673 42.1377 51.8626 42.7051 51.1427 43.1254C50.6121 43.4354 50.1077 43.8032 49.5928 44.1395C49.0621 42.9153 47.8484 42.4319 46.8764 41.7278C45.2897 40.5825 43.5138 39.7208 41.5068 39.6262C38.617 39.4896 35.7693 39.6682 33.1476 41.1341C31.4925 42.0641 29.8848 42.9783 28.6185 44.5072C27.2682 46.1465 26.0598 47.8015 25.4556 49.8506C25.3558 50.1974 25.1614 50.6335 24.6465 50.2289C23.3907 49.2464 21.8776 48.8156 20.4485 48.1798C17.4274 46.8401 14.4483 46.6562 11.3326 47.7227C9.12068 48.4846 7.15041 49.609 5.18538 50.8857C0.992635 53.6178 -0.909339 57.5584 -1.30339 62.2975C-1.75524 67.746 0.130967 72.4064 4.07677 76.2103C4.67048 76.783 4.78082 77.1508 4.02423 77.7813C2.87885 78.7428 2.05921 80.3348 2.55309 81.5747C3.3307 83.5187 2.28514 84.0546 1.05043 84.8007C0.567055 85.0897 0.136221 85.4838 -0.257834 85.8988C-3.52061 89.335 -4.4716 93.7221 -4.69753 98.1881C-4.9865 103.857 -2.29116 108.612 1.3394 112.637C3.55137 115.096 6.07858 117.381 8.97882 119.42C7.39209 119.746 6.26772 120.612 5.10657 121.437C-0.362916 125.31 -1.74474 133.989 3.44103 139.475C4.09779 140.173 4.86489 140.683 5.92095 140.667C8.73714 140.625 11.5481 140.636 14.3642 140.62C17.1699 140.567 19.9809 140.515 22.7865 140.462C24.6255 140.93 26.5274 140.872 28.3874 141.172C28.8392 141.245 29.2858 141.135 29.4802 140.683C29.7272 140.105 29.1124 140.189 28.876 139.963C28.0879 139.201 26.932 139.175 26.1124 138.613C24.1211 137.247 22.8864 135.15 22.6499 132.854C22.3662 130.08 21.5518 127.411 21.3417 124.627C21.2366 123.24 21.4257 121.91 21.4625 120.555C21.5676 116.604 23.3645 113.294 25.6552 110.246C26.953 108.512 28.6868 107.204 30.4995 105.975C33.2159 104.136 36.0951 103.337 39.3316 103.936C41.9534 104.425 43.5664 106.342 45.2109 108.197C46.0936 109.195 46.7293 110.325 47.1549 111.612C48.211 114.817 48.2478 118.154 48.4369 121.458C48.5683 123.733 47.8012 125.93 47.4491 128.163C47.2495 129.439 47.922 130.049 49.183 129.755C50.7277 129.392 51.7417 128.562 51.8783 126.891C52.9186 126.744 53.8171 127.306 54.7996 127.464C54.8153 127.748 54.8994 128.047 54.8469 128.315C54.0483 132.108 54.7575 135.87 55.0938 139.637C55.1358 140.084 55.0675 140.667 55.7979 140.646C56.4231 140.625 56.98 140.783 57.5685 141.03C58.1097 141.261 58.6771 140.793 59.0554 140.399C59.4284 140.005 58.9503 139.737 58.6771 139.496C58.3513 139.212 58.3303 138.807 58.3041 138.445C58.0203 134.988 57.8102 131.536 58.5037 128.089C58.9976 125.62 60.2586 123.534 61.5038 121.395C63.5739 117.844 66.2535 114.97 69.9156 113.089C71.7755 112.138 73.8403 111.906 75.9052 111.854C79.3834 111.765 82.6829 112.253 84.732 115.511C86.8967 118.952 88.2418 122.641 87.5692 126.818C87.4694 127.427 87.4221 128.01 87.6428 128.641C88.0736 129.881 89.2295 129.203 89.9651 129.607C90.2646 129.77 90.5588 129.639 90.79 129.287C92.2874 127.007 92.3662 124.416 91.7357 122C90.8951 118.81 90.0807 115.495 87.5167 113.068C86.7654 112.358 86.0403 111.623 85.3047 110.898C85.5359 110.787 85.7723 110.561 85.6673 110.351C84.9895 108.948 85.4991 107.719 86.1506 106.495C86.2977 106.222 86.1822 105.954 86.1296 105.67C85.662 103.022 85.4676 100.305 84.5114 97.7678C83.8546 96.0287 83.4133 94.1372 82.1418 92.7186C80.6391 91.0478 79.0629 89.4558 77.287 88.0162C73.8298 85.2211 70.0311 83.6606 65.5967 83.9653C63.6685 84.0967 61.7192 84.3121 59.8382 84.8638C57.6841 85.4943 55.6718 86.4978 53.9222 87.8533C51.5053 89.7238 49.1462 91.6678 47.3756 94.2686C45.7468 96.6644 44.5121 99.1443 44.1758 102.034C41.3912 100.537 38.4909 99.633 35.2649 100.011C32.8165 100.295 30.552 100.999 28.5607 102.465C27.9092 102.943 27.4364 102.948 26.911 102.244C26.0388 101.073 24.9144 100.122 23.9214 99.055C22.9547 98.0147 21.8881 96.6697 21.6096 95.4928C20.8898 92.4769 20.1069 89.4243 20.2908 86.2141C20.4327 83.6764 20.9844 81.1597 22.0194 79.0265C23.3697 76.2366 25.4293 73.7409 28.277 72.0491C30.552 70.6988 32.8481 69.7898 35.5329 70.0998C35.969 70.1524 36.4366 70.0525 36.5522 70.6147C36.7203 71.4606 37.2405 72.2435 36.9935 73.163C36.1476 73.2733 35.6222 72.1647 34.666 72.5955C33.8674 72.958 33.5469 73.5412 33.6099 74.3872C33.7255 75.9686 35.1494 75.769 36.0583 75.9476C36.8096 76.0947 37.335 75.3171 37.3088 74.4292C38.0969 75.6797 38.4804 77.072 38.7431 78.5011C35.6748 76.2629 34.0302 76.6779 32.2649 78.6587C31.172 79.8882 30.6571 81.5957 30.3471 83.277C30.0897 84.6746 30.3261 85.9146 31.2824 87.0285C33.2631 89.335 36.4524 88.9882 37.9498 87.2912C39.5996 85.4207 40.7502 83.2823 40.1145 80.6185C40.6241 80.5554 40.8973 80.9022 41.16 81.2385C42.6574 83.1299 44.654 84.3857 46.7976 85.3472C47.5069 85.6624 48.584 86.0722 49.2723 84.8848C49.9396 83.7341 49.7452 83.0459 48.5683 82.3944C47.7907 81.9635 46.8134 81.7901 46.2144 81.2069C44.1443 79.1946 41.9639 77.2138 41.3597 74.177C41.4963 74.2138 41.6434 74.2243 41.7695 74.2873C45.3843 76.0212 48.9203 75.9371 52.5088 74.0877C54.2269 73.1997 55.7033 72.1437 57.206 70.9037C58.8925 69.5114 59.6964 67.8563 60.1745 66.0437C60.537 64.6671 61.4197 63.1487 60.495 61.6093C61.3199 60.7213 60.6841 59.8386 60.4792 58.9559C62.2131 58.4305 63.9154 58.667 65.5757 59.2344C66.4951 59.5497 67.1361 59.1031 67.3726 58.4253C67.6353 57.6582 67.0678 57.2431 66.2482 56.9857C64.0783 56.3079 61.8768 56.3657 59.6649 56.4603C59.4967 56.392 59.2655 56.3657 59.1605 56.2396C57.4897 54.1642 55.2672 52.9873 52.8818 51.8945C51.3266 51.1799 49.6348 51.1274 48.1269 50.3971C49.5245 48.5792 51.4843 47.3655 53.2549 46.0099C54.6892 44.9118 55.3618 43.7349 55.5141 42.0641C55.9029 37.8136 56.7278 33.7154 58.8978 29.9219C60.7472 26.6854 62.6807 23.5698 65.4496 21.0005C69.1379 17.5749 73.0154 14.7482 78.3273 14.3384C80.2976 14.186 82.3414 14.0021 84.1961 14.2175C87.2435 14.5801 90.2646 15.5415 91.8408 18.7991C92.5553 20.2755 94.6885 20.701 96.2437 20.0233C97.4837 19.4821 98.7236 18.4523 99.9478 18.4733C103.263 18.5259 106.494 19.2772 109.547 20.7326C110.897 21.3788 111.738 22.4927 112.652 23.533C114.922 26.1022 117.129 28.6872 118.137 32.1181C119.004 35.0604 119.824 37.9922 119.834 41.0606C119.85 43.9451 120.339 46.8295 119.792 49.7245C118.978 54.0276 117.749 58.2046 115.999 62.2135C115.432 63.5112 115.463 64.7144 115.831 66.0805C116.283 67.7408 116.761 69.4536 116.477 71.2347C116.214 71.0613 115.978 70.9562 115.883 70.5412C115.074 66.8633 112.321 64.7827 109.263 63.2223C108.307 62.7336 107.304 61.9981 106.095 61.9035C101.146 61.5094 96.9688 63.259 93.2857 66.422C92.8811 66.774 92.445 67.0472 91.9091 67.1155C89.9756 65.0822 87.9318 63.1907 85.4729 61.7826C84.4536 61.1994 83.366 61.0103 82.2521 60.921C81.4009 60.8527 80.7967 61.3623 80.6601 62.2187C80.4973 63.259 81.4115 63.0646 81.9789 63.2433C82.3782 63.3746 82.7933 63.3273 83.2189 63.4639C85.7461 64.3046 87.564 66.0962 89.3241 67.9509C89.8705 68.5236 90.3749 69.0017 91.2261 68.8336C90.5378 70.4361 89.7444 72.0018 89.177 73.6463C88.1577 76.6201 88.4519 79.6202 89.4607 82.531C90.4117 85.2788 91.8566 87.6747 94.9775 88.384C95.8129 88.5732 96.6273 88.7833 97.4206 89.0933C97.4154 90.3753 97.3891 91.6573 97.4101 92.9445C97.4259 93.7221 97.4942 94.6311 98.503 94.6574C99.4434 94.6836 100.5 94.6889 100.71 93.2755C100.846 92.3351 101.046 91.4103 101.109 90.4541C101.183 89.2772 101.298 88.053 101.986 87.06C103.431 84.9741 104.629 82.6938 106.563 80.9915C107.729 79.9617 108.843 78.727 110.22 78.1228C111.601 77.5133 113.094 76.9354 114.675 76.7778C117.081 76.5413 119.561 76.2051 121.836 77.0352C124.731 78.0913 126.544 80.4503 127.695 83.2665C129.292 87.1808 130.6 91.1319 128.688 95.3404C127.195 98.6242 125.63 101.871 122.829 104.278C121.053 105.801 118.999 106.863 116.761 107.603C115.116 108.15 113.866 109.4 113.136 110.866C112.232 112.679 111.691 114.686 111.102 116.64C109.421 122.252 106.689 127.411 104.246 132.697C102.974 135.45 101.314 137.977 99.3384 140.536C101.204 140.72 102.848 140.662 104.498 140.546C108.17 140.137 111.838 140.846 115.495 140.599C116.955 140.499 118.405 140.342 119.877 140.399C124.237 140.573 128.577 141.198 132.97 140.694C134.388 140.531 135.87 140.284 137.325 140.599C137.767 140.783 138.119 141.419 138.691 140.919C139.206 140.468 139.705 140.074 139.616 139.18C139.485 137.872 139.595 136.538 139.6 135.219C139.989 134.793 139.905 134.494 139.359 134.32C139.301 133.769 139.243 133.217 139.185 132.665C139.627 131.993 139.248 131.273 139.254 130.59C139.29 122.388 139.28 114.187 139.28 105.98C139.81 105.087 139.532 104.136 139.485 103.206L139.458 103.216ZM94.016 34.162C92.7025 34.1988 92.6867 34.1672 91.5833 34.7977C87.6008 37.057 84.7846 40.367 83.1243 44.6018C81.7477 48.122 81.7582 48.2692 84.753 50.003C87.2645 51.4584 89.7865 52.0153 92.5553 49.982C94.2892 48.7105 95.692 47.3077 96.7744 45.5423C97.8882 43.7244 98.0143 41.565 98.5292 39.5527C99.2385 36.7627 96.9057 34.0884 94.0107 34.1672L94.016 34.162ZM69.6791 45.1587C70.3044 45.0799 70.9769 45.3952 71.5548 44.8067C74.0032 42.3058 75.2905 39.2111 76.2204 35.9221C76.5725 34.6664 76.1259 33.3318 76.3203 32.1444C76.6723 29.9902 75.6267 28.5611 74.35 27.2897C73.5304 26.4753 72.2011 25.9919 71.0189 26.6749C67.7351 28.5822 65.9225 31.6138 64.7455 35.1287C63.9154 37.6087 63.989 40.1884 63.8366 42.7261C63.7788 43.6929 63.9627 44.9118 65.644 45.0537C66.9943 45.1693 68.3236 45.3059 69.6739 45.1587H69.6791ZM35.1021 113.078C33.5101 112.773 32.4803 113.64 31.5924 114.618C28.4872 118.054 27.883 122.12 28.7762 126.508C29.1755 128.452 30.8936 129.87 32.5223 129.707C34.4663 129.513 35.9217 128.588 36.983 126.938C38.6538 124.322 39.6784 121.627 39.7624 118.39C39.8307 115.705 37.4874 113.026 35.1021 113.073V113.078ZM70.9191 136.364C71.3709 136.285 71.9121 136.464 72.3902 136.133C74.6074 134.62 76.2625 132.728 77.0401 130.065C77.6443 127.994 77.4446 126.014 76.9402 124.007C76.8036 123.46 76.357 123.182 75.8632 122.961C75.3955 122.751 74.8544 122.599 74.4971 122.262C73.089 120.933 71.8018 121.611 70.5723 122.472C67.4619 124.648 66.0958 127.711 65.9277 131.457C65.8174 133.905 67.7771 136.601 70.9243 136.369L70.9191 136.364ZM75.8211 45.4109C75.8421 46.5038 76.4569 46.7823 77.6285 46.3882C79.0103 45.9258 79.5095 45.0379 79.6986 43.7034C79.8195 42.8207 80.1295 41.9433 80.4973 41.1236C81.9579 37.8819 83.9124 34.9343 86.0298 32.0919C87.2277 30.4841 88.4204 28.8921 90.2646 27.8886C90.9161 27.5313 91.515 26.9534 91.9144 26.181C92.2769 25.4823 91.9196 25.0409 91.5203 24.899C90.2961 24.4735 89.0561 23.6486 87.7636 24.9516C87.0701 25.6504 86.2032 26.1863 85.4939 26.8956C82.6462 29.7486 80.7127 33.2425 78.6688 36.6472C77.0874 39.2742 76.2362 42.1849 75.8264 45.4109H75.8211ZM36.2054 110.95C37.9498 110.955 38.6801 110.204 38.7169 108.334C38.7274 107.735 36.983 106.064 36.3841 106.101C35.3438 106.164 33.8358 108.176 33.9462 109.49C34.0618 110.856 35.0233 111.082 36.2054 110.95ZM78.6898 117.586C78.6898 116.851 76.9455 115.19 76.1364 115.159C75.1591 115.122 73.9664 116.809 73.9664 118.232C73.9664 119.446 74.9017 120.087 76.7143 120.129C77.6811 120.15 78.6846 118.863 78.6846 117.591L78.6898 117.586ZM42.5629 113.646C44.0603 113.646 44.7643 112.857 44.7433 111.208C44.738 110.745 42.9779 109.258 42.4683 109.285C41.3859 109.337 40.5505 110.451 40.5611 111.812C40.5768 113.225 41.0287 113.64 42.5576 113.64L42.5629 113.646ZM29.3384 112.458C31.109 112.474 32.5433 111.413 32.5223 110.215C32.5118 109.684 30.9724 108.26 30.4049 108.255C29.1019 108.25 27.6571 109.547 27.7831 110.798C27.8725 111.702 28.6291 112.211 29.3384 112.458ZM69.4847 119.609C70.1993 119.651 71.4445 118.227 71.4077 117.408C71.3919 116.987 69.9733 115.232 69.6581 115.243C68.6808 115.264 66.7263 117.25 66.9207 118.169C67.1992 119.514 68.4129 119.499 69.4847 119.609ZM79.9193 122.236C79.8983 123.497 80.3974 123.828 82.4623 123.928C83.0612 123.959 84.1331 122.504 84.1909 121.584C84.2382 120.849 82.6357 119.42 81.8055 119.451C80.823 119.488 79.9456 120.781 79.9246 122.231L79.9193 122.236ZM25.8181 83.813C27.1684 83.855 28.4662 82.8199 28.5818 81.7586C28.6396 81.2437 26.9688 80.0248 26.1701 80.2349C25.298 80.4661 24.5361 81.0073 24.4888 82.1474C24.4468 83.2613 25.0931 83.6291 25.8181 83.8182V83.813ZM29.1072 75.1122C28.0038 75.5483 27.7464 76.3995 27.8147 77.4082C27.8725 78.2174 28.3086 78.7901 29.1282 78.7901C30.4154 78.7848 31.6081 77.776 31.5346 76.8986C31.503 76.4993 29.5012 75.0702 29.1072 75.1122ZM73.8508 64.1785C73.9454 62.9648 73.1888 62.7126 72.4953 62.618C71.8491 62.534 71.3867 62.9228 71.3184 63.6794C71.2343 64.6566 72.0434 64.9088 72.6214 65.0244C73.1993 65.14 73.7405 64.6303 73.8508 64.1785Z" fill="#FEFEFE"/>
<path d="M51.8837 126.891C51.7471 128.562 50.733 129.397 49.1884 129.755C47.9274 130.049 47.2496 129.445 47.4545 128.163C47.8065 125.93 48.5736 123.733 48.4423 121.458C48.2531 118.154 48.2163 114.817 47.1603 111.612C46.7347 110.325 46.099 109.19 45.2163 108.197C43.5717 106.348 41.964 104.425 39.337 103.936C36.1005 103.332 33.2212 104.136 30.5049 105.975C28.6922 107.204 26.9636 108.512 25.6606 110.246C23.3698 113.294 21.5729 116.604 21.4679 120.555C21.4311 121.91 21.2419 123.24 21.347 124.627C21.5572 127.411 22.3663 130.08 22.6553 132.854C22.8917 135.15 24.1264 137.252 26.1177 138.613C26.9374 139.175 28.0933 139.196 28.8814 139.963C29.1178 140.189 29.7325 140.105 29.4856 140.683C29.2912 141.135 28.8498 141.245 28.3927 141.172C26.5328 140.872 24.6308 140.93 22.7919 140.462C22.1351 139.317 20.8584 138.613 20.4801 137.263C19.8444 134.998 19.1246 132.781 18.7042 130.432C18.0737 126.881 17.3855 123.36 17.5536 119.735L17.5431 119.751C17.8636 119.546 17.8163 119.22 17.8163 118.91C17.8793 118.495 17.9581 118.085 18.0054 117.665C18.1841 116.12 19.1666 114.801 19.2717 113.236C20.8952 110.246 22.5029 107.246 25.3611 105.024C20.5694 102.271 17.8163 98.351 17.0019 93.1127C16.9073 92.5137 16.8863 91.9515 16.1192 91.8675C16.7182 90.6222 16.135 89.4085 16.0352 88.1791C16.2506 86.6659 16.466 85.1527 16.6814 83.6448C16.9704 82.3261 17.2594 81.002 17.5483 79.6833C18.058 78.5589 18.5203 77.4188 19.0825 76.3207C21.4206 71.7391 25.0669 68.7338 29.99 67.2101C31.7238 66.6742 33.4156 66.8581 35.1232 67.0893C35.8115 67.1838 36.0584 66.9894 36.2055 66.3537C36.5155 64.9824 36.9096 63.6321 37.2406 62.2608C38.4228 57.4218 40.8344 53.2395 43.8712 49.3305C44.6909 48.2797 46.0517 47.7648 46.5088 46.425C47.6174 45.7577 48.768 45.1588 49.5982 44.1185C50.1131 43.7769 50.6175 43.4144 51.1481 43.1044C51.8679 42.6841 52.1727 42.1166 52.22 41.2497C52.7296 31.866 56.7384 24.1372 63.3848 17.6274C66.3219 14.7482 69.5952 12.51 73.583 11.4119C77.823 10.2454 82.0421 10.1194 86.4397 10.8287C89.6972 11.3541 91.8829 12.9145 93.6483 15.3997C94.5152 16.6186 95.235 16.8708 96.5591 15.9041C98.4137 14.559 100.636 14.4382 102.817 14.9584C105.018 15.489 107.314 15.7149 109.379 16.6974C111.412 17.6695 113.172 18.8937 114.743 20.6905C116.482 22.6871 118.006 24.8308 119.677 26.8641C121.222 28.745 121.994 31.0673 122.446 33.4895C122.661 34.6348 123.187 35.6962 123.449 36.8626C124.048 39.5369 124.132 42.206 124.022 44.9118C123.565 45.4477 123.744 46.0257 123.907 46.6036C123.996 46.9136 124.248 47.1606 124.169 47.5336C123.733 49.5774 123.392 51.6318 123.202 53.7124C122.756 55.6932 122.383 57.695 121.463 59.5392C121.4 59.6652 121.553 59.8964 121.61 60.0751C121.075 60.1434 120.723 60.4954 120.702 60.984C120.67 61.9665 120.05 62.7021 119.772 63.5743C119.188 63.8475 118.6 64.2048 118.899 64.9456C119.845 67.2679 120.449 69.6638 120.638 72.1647C120.691 72.8425 121.111 73.0421 121.658 73.1419C123.486 73.4835 125.073 74.5973 126.308 75.6954C127.942 77.1508 129.896 78.4485 130.942 80.5239C130.942 81.9215 131.993 82.904 132.36 84.1597C133.401 86.4558 133.59 88.9304 133.784 91.3841C133.852 92.2825 133.889 93.1967 133.611 94.1635C133.07 96.0392 131.966 97.6942 131.593 99.6172C131.073 100.327 130.295 100.899 130.359 101.918C130.227 101.971 130.017 101.992 129.975 102.087C129.055 104.125 127.427 105.47 125.808 106.962C124.132 108.507 122.215 109.453 120.334 110.561C119.525 111.013 118.511 110.861 117.749 111.455C116.546 111.339 116.178 112.18 115.789 113.083C115.5 113.751 115.411 114.476 115.174 115.148C114.833 116.126 114.292 117.134 114.37 118.248C114.066 119.604 113.766 120.959 113.461 122.315C113.514 123.05 112.064 123.045 112.626 124.022C111.759 125.93 110.083 127.474 110.046 129.76C109.39 130.9 108.749 132.035 108.286 133.275C107.325 135.855 105.544 138.019 104.466 140.546C102.822 140.662 101.177 140.72 99.3122 140.536C101.293 137.977 102.948 135.45 104.219 132.697C106.663 127.411 109.395 122.252 111.076 116.64C111.665 114.686 112.206 112.679 113.109 110.866C113.84 109.4 115.09 108.15 116.735 107.603C118.973 106.863 121.027 105.807 122.803 104.278C125.604 101.871 127.169 98.6242 128.661 95.3404C130.579 91.1319 129.266 87.1808 127.668 83.2665C126.518 80.4451 124.705 78.0913 121.81 77.0352C119.535 76.2051 117.055 76.5413 114.649 76.7778C113.067 76.9354 111.575 77.5133 110.193 78.1228C108.817 78.727 107.703 79.9617 106.537 80.9915C104.603 82.6991 103.405 84.9794 101.96 87.06C101.272 88.053 101.162 89.2772 101.083 90.4541C101.02 91.4103 100.82 92.3351 100.684 93.2755C100.473 94.6889 99.4225 94.6836 98.4768 94.6574C97.468 94.6258 97.3997 93.7221 97.384 92.9445C97.3629 91.6625 97.384 90.3806 97.3945 89.0933C98.4085 83.9864 101.372 80.0616 105.26 76.8671C108.202 74.4502 111.649 73.0158 115.595 73.0211C117.118 73.0211 117.255 72.606 116.451 71.2347C116.74 69.4588 116.257 67.746 115.805 66.0805C115.432 64.7144 115.405 63.5112 115.973 62.2135C117.722 58.1994 118.952 54.0276 119.766 49.7245C120.313 46.8296 119.824 43.9451 119.808 41.0606C119.793 37.9922 118.978 35.0552 118.111 32.1181C117.097 28.6872 114.891 26.1022 112.626 23.533C111.707 22.4927 110.871 21.3788 109.521 20.7326C106.473 19.2719 103.242 18.5206 99.9217 18.4733C98.6975 18.4523 97.4575 19.4874 96.2176 20.0233C94.6623 20.7011 92.5292 20.2755 91.8146 18.7991C90.2384 15.5416 87.2173 14.5801 84.17 14.2175C82.3153 13.9969 80.2662 14.186 78.3012 14.3384C72.9945 14.7482 69.1118 17.5801 65.4234 21.0005C62.6545 23.5698 60.7263 26.6854 58.8716 29.9219C56.7017 33.7154 55.8768 37.8136 55.488 42.0641C55.3356 43.7296 54.6631 44.9118 53.2287 46.0099C51.4581 47.3655 49.5036 48.5792 48.1008 50.3971C46.6086 51.947 45.3214 53.6546 44.218 55.504C43.598 56.5391 42.7889 57.5058 42.3948 58.6197C41.8116 60.259 41.3913 62.0033 40.7503 63.59C39.2476 67.2889 40.1356 70.7041 41.3283 74.1717C41.9325 77.2139 44.1129 79.1894 46.183 81.2017C46.782 81.7849 47.7592 81.953 48.5368 82.3891C49.7138 83.0406 49.9082 83.7289 49.2409 84.8795C48.5526 86.0617 47.4755 85.6571 46.7662 85.3419C44.6226 84.3804 42.626 83.1247 41.1286 81.2332C40.8606 80.8969 40.5874 80.5502 40.083 80.6132C39.6522 79.8882 39.3265 79.1001 38.7117 78.4906C38.449 77.0562 38.0602 75.6639 37.2774 74.4187C37.2511 73.9773 36.8045 73.6411 36.9621 73.1577C37.2091 72.2435 36.6889 71.4554 36.5208 70.6095C36.4104 70.0473 35.9376 70.1471 35.5015 70.0946C32.8167 69.7846 30.5206 70.6935 28.2456 72.0438C25.3979 73.7357 23.3383 76.2313 21.988 79.0212C20.953 81.1544 20.4065 83.6711 20.2594 86.2088C20.0808 89.4191 20.8584 92.4769 21.5782 95.4875C21.8567 96.6592 22.9232 98.0095 23.89 99.0498C24.883 100.116 26.0021 101.067 26.8796 102.239C27.405 102.943 27.8778 102.938 28.5293 102.46C30.5259 100.994 32.7851 100.29 35.2335 100.006C38.4595 99.633 41.365 100.531 44.1444 102.029C46.3564 103.852 48.6419 105.628 49.9292 108.281C50.6017 109.668 51.8049 110.913 51.7366 112.537C51.6473 114.597 52.4721 116.478 52.5299 118.542C52.6087 121.38 52.5142 124.133 51.8522 126.875L51.8837 126.891Z" fill="#EBB86E"/>
<path d="M51.8835 126.891C52.5455 124.148 52.6348 121.395 52.5613 118.558C52.5035 116.493 51.6786 114.612 51.7679 112.553C51.8362 110.934 50.633 109.684 49.9605 108.297C48.668 105.644 46.3877 103.868 44.1758 102.045C44.512 99.1549 45.7415 96.6749 47.3755 94.2791C49.1461 91.6731 51.5052 89.7343 53.9221 87.8639C55.6717 86.5083 57.684 85.5048 59.8382 84.8743C61.7139 84.3226 63.6684 84.1124 65.5966 83.9758C70.0311 83.6659 73.8298 85.2263 77.2869 88.0267C79.0628 89.4611 80.639 91.0531 82.1417 92.7291C83.4132 94.1425 83.8545 96.0392 84.5113 97.7783C85.4728 100.316 85.6672 103.027 86.1295 105.68C86.1768 105.964 86.2924 106.232 86.1506 106.505C85.4991 107.73 84.9894 108.959 85.6672 110.362C85.767 110.572 85.5358 110.798 85.3047 110.908C84.3852 110.866 84.07 109.957 83.3606 109.568C80.0348 107.745 76.5304 107.913 72.9576 108.392C70.1782 108.759 67.5617 109.584 65.3865 111.365C60.2007 115.621 56.4861 120.891 54.8153 127.474C53.838 127.317 52.9343 126.754 51.894 126.902L51.8835 126.891Z" fill="#FEF3E0"/>
<path d="M17.5482 79.6885C17.2592 81.0073 16.9703 82.3313 16.6813 83.6501C16.0613 83.3086 15.4623 82.7411 14.8108 82.6623C12.3782 82.3786 10.5708 80.9074 8.67409 79.6255C7.73361 78.9897 7.10838 78.9162 6.48839 79.9827C5.8474 81.0913 5.91045 82.1579 6.76161 82.7201C7.80717 83.4084 9.05764 83.4084 10.2083 83.7079C12.2731 84.249 13.4711 85.8725 14.5009 87.4067C15.0368 88.2054 15.2732 88.3735 16.035 88.1738C16.1349 89.4033 16.7181 90.617 16.1191 91.8622C14.3275 93.1757 12.9824 94.7677 12.809 97.1058C12.7302 98.1723 12.788 99.3545 11.1015 98.8921C11.0069 98.8659 10.8493 98.992 10.7442 99.0813C9.91405 99.7538 9.65135 99.1916 9.50949 98.4928C9.11018 96.5383 9.56728 94.7729 10.6549 93.1074C11.2643 92.1722 12.4255 91.2947 12.2731 90.2282C12.063 88.7465 11.1908 87.3962 9.66185 86.7237C7.15566 85.6203 4.44982 86.2088 2.58462 88.1265C0.777219 89.9865 -0.179022 92.293 -0.573078 94.7309C-0.893576 96.7432 -2.49081 98.8449 -0.662397 100.931C-0.47325 101.146 -0.799003 101.33 -0.935609 101.514C-1.14052 101.782 -1.03018 102.013 -0.87256 102.286C0.346385 104.409 1.51804 106.563 2.77902 108.659C3.01545 109.059 2.60564 109.511 3.18884 109.878C5.41656 111.286 7.30803 113.104 9.1417 114.985C10.6128 116.499 12.0577 116.625 13.8966 115.731C15.331 115.038 16.7443 114.334 18.0368 113.404C18.4309 113.12 18.8407 113.167 19.2663 113.23C19.1612 114.796 18.1787 116.115 18.0001 117.66C17.9528 118.075 17.874 118.49 17.8109 118.905C17.4694 119.105 17.543 119.441 17.5377 119.746L17.5482 119.73C16.7654 120.423 16.345 121.295 16.4186 122.331C16.4764 123.155 16.0771 123.539 15.3888 123.812C14.3065 124.238 13.3555 123.991 12.4413 123.36C11.3904 122.635 8.47443 122.662 7.78615 123.592C6.97177 124.695 5.86841 125.551 5.18539 126.707C4.78608 127.38 3.83509 127.958 3.95593 128.562C4.12406 129.397 3.87187 130.112 3.88763 130.868C3.91915 132.077 3.87712 133.448 4.41829 134.452C5.64774 136.732 7.42887 138.455 10.0717 139.338C11.4903 139.811 13.0455 139.821 14.3537 140.615C11.5376 140.625 8.72663 140.615 5.91045 140.662C4.85963 140.678 4.09254 140.168 3.43053 139.469C-1.75524 133.984 -0.373423 125.304 5.09607 121.432C6.25722 120.612 7.38159 119.746 8.96832 119.415C6.06807 117.376 3.54086 115.085 1.3289 112.632C-2.29116 108.612 -4.9865 103.857 -4.69752 98.1881C-4.4716 93.7221 -3.52061 89.335 -0.247324 85.8883C0.141477 85.4785 0.577564 85.0844 1.06094 84.7902C2.29565 84.0441 3.34121 83.5135 2.5636 81.5642C2.06972 80.3242 2.88936 78.7323 4.03474 77.7708C4.78608 77.1403 4.68099 76.7672 4.08728 76.1998C0.141476 72.4011 -1.74474 67.7355 -1.29289 62.287C-0.89883 57.5426 1.00314 53.602 5.19589 50.8752C7.16092 49.5932 9.13119 48.4688 11.3432 47.7122C14.4536 46.6404 17.4326 46.8295 20.459 48.1693C21.8881 48.8051 23.4013 49.2359 24.657 50.2184C25.1719 50.6177 25.3663 50.1816 25.4661 49.8401C26.0756 47.7858 27.2788 46.136 28.6291 44.4967C29.89 42.9625 31.4978 42.0536 33.1581 41.1236C35.7746 39.6525 38.6276 39.4791 41.5173 39.6157C43.5191 39.7103 45.295 40.5719 46.887 41.7173C47.859 42.4214 49.0779 42.9047 49.6033 44.1289C48.7784 45.1692 47.6225 45.7682 46.5139 46.4355C45.8309 45.9679 45.5367 45.1692 44.7433 44.7332C41.5908 42.9993 38.3648 43.0991 35.2702 44.544C33.9935 45.1377 32.6957 46.0152 31.6764 47.2078C30.3156 48.7998 29.3699 50.5126 28.9285 52.546C28.7551 53.3551 28.9285 53.9698 29.4855 54.5898C30.4942 55.7037 31.503 56.8228 32.1335 58.2466C32.4172 58.8876 32.2386 59.2817 31.8761 59.6285C31.3559 60.1276 29.3173 59.7808 28.9075 59.0978C26.8584 55.7037 23.8006 53.497 20.3329 51.7946C17.853 50.5809 15.2627 50.2342 12.5253 50.9435C11.5796 51.1904 10.8388 51.8839 9.96134 52.0626C7.87022 52.4829 6.8877 54.2851 5.41656 55.4515C4.8859 55.877 4.2344 56.5443 4.03474 57.1801C3.24138 59.6915 2.05396 62.1557 2.65818 64.9246C3.0102 66.5376 2.87885 68.5183 3.7878 69.69C4.9437 71.1769 5.92621 72.874 7.56023 74.0772C8.99459 75.1332 10.4552 76.2734 11.9316 77.1876C13.6287 78.2384 15.6252 78.9687 17.5535 79.6938L17.5482 79.6885Z" fill="#FE9C89"/>
<path d="M116.477 71.2505C117.281 72.6218 117.144 73.0421 115.621 73.0369C111.675 73.0316 108.223 74.466 105.286 76.8829C101.398 80.0773 98.4345 84.0021 97.4205 89.1091C96.6271 88.7991 95.8128 88.5889 94.9774 88.3998C91.8564 87.6957 90.4168 85.2946 89.4606 82.5468C88.4518 79.636 88.1576 76.6359 89.1769 73.6621C89.7391 72.0176 90.5324 70.4519 91.226 68.8494C92.3188 68.6182 91.62 67.6777 91.9142 67.1261C92.4554 67.0525 92.8862 66.7793 93.2908 66.4325C96.9739 63.2696 101.151 61.52 106.1 61.914C107.314 62.0086 108.312 62.7442 109.268 63.2328C112.326 64.7985 115.079 66.8739 115.889 70.5517C115.978 70.9668 116.22 71.0719 116.482 71.2452L116.477 71.2505Z" fill="#FEC6BB"/>
<path d="M41.349 74.1875C40.1564 70.7198 39.2737 67.3047 40.7711 63.6058C41.4121 62.0191 41.8377 60.2747 42.4156 58.6355C42.8097 57.5216 43.6241 56.5548 44.2388 55.5198C45.3421 53.6704 46.6294 51.9628 48.1215 50.4128C49.6242 51.1484 51.316 51.1957 52.8765 51.9102C55.2671 53.0031 57.4896 54.1853 59.1551 56.2554C59.2549 56.3815 59.4861 56.4025 59.6595 56.476C58.4353 57.2694 57.0692 57.8106 55.8976 58.7143C55.1988 59.2502 55.2251 59.9174 55.4878 60.4376C55.7872 61.0418 56.4387 60.7739 57.0009 60.5479C58.1831 60.0698 59.1183 59.0558 60.4739 58.9717C60.6735 59.8544 61.3145 60.7318 60.4896 61.625C61.4144 63.1645 60.5317 64.6829 60.1691 66.0595C59.691 67.8721 58.8871 69.5219 57.2006 70.9195C55.6979 72.1594 54.2215 73.2155 52.5034 74.1034C48.9149 75.9529 45.3789 76.0369 41.7641 74.3031C41.638 74.2453 41.4909 74.2295 41.3543 74.1928L41.349 74.1875Z" fill="#FEC6BB"/>
<path d="M112.631 124.038C112.069 123.056 113.524 123.061 113.466 122.331C114.26 122.32 114.911 122.01 115.5 121.469C116.13 120.886 116.845 120.46 117.733 120.297C120.018 119.882 121.915 120.802 123.938 121.711C126.885 123.035 127.547 125.446 127.815 128.22C127.878 128.846 127.7 129.418 127.106 129.655C125.036 130.469 124.179 132.371 123.15 134.084C122.629 134.946 123.129 135.387 124.116 135.503C125.661 135.686 126.418 134.662 127.174 133.716C128.624 131.888 130.158 131.452 132.423 131.967C134.556 132.45 136.784 135.797 136.957 138.271C137.015 139.065 137.031 139.863 137.315 140.625C135.854 140.31 134.372 140.557 132.954 140.72C128.561 141.224 124.221 140.604 119.86 140.426C118.384 140.368 116.939 140.525 115.479 140.625C111.817 140.877 108.149 140.163 104.477 140.573C105.554 138.045 107.335 135.886 108.296 133.301C108.759 132.061 109.4 130.921 110.056 129.786C112.457 129.581 113.939 127.763 115.71 126.487C116.361 126.019 116.188 125.32 115.421 124.879C114.554 124.38 113.708 123.844 112.636 124.054L112.631 124.038ZM120.234 125.478C121.221 125.693 121.547 124.973 121.673 124.101C121.752 123.555 119.929 121.831 119.298 121.795C118.626 121.758 117.501 122.998 117.507 123.765C117.507 124.726 118.61 125.451 120.234 125.473V125.478Z" fill="#FEE4DF"/>
<path d="M120.339 110.572C122.22 109.463 124.138 108.518 125.814 106.973C127.432 105.481 129.061 104.141 129.98 102.097C130.022 102.003 130.233 101.982 130.364 101.929C131.693 102.129 132.739 102.759 133.501 103.884C134.819 105.822 135.271 108.018 134.856 110.23C134.63 111.449 135.46 111.318 135.928 111.575C136.469 111.875 137.089 112.096 137.599 111.234C138.182 110.251 138.382 109.253 138.382 108.155C138.382 107.325 138.308 106.448 139.254 105.985C139.254 114.187 139.264 122.388 139.228 130.595C139.228 131.283 139.606 131.998 139.159 132.671C138.445 132.639 138.161 132.082 137.793 131.588C136.779 130.212 135.298 129.224 133.737 129.024C132.371 128.846 131.599 128.635 131.347 127.233C131.283 126.896 131.094 126.623 131.1 126.203C131.121 124.648 130.674 123.035 129.639 122.01C128.189 120.576 126.502 119.262 124.453 118.658C121.905 117.901 120.366 115.716 120.597 113.183C120.675 112.337 120.943 111.381 120.334 110.567L120.339 110.572ZM133.889 110.955C133.312 108.99 133.758 106.532 130.895 105.796C130.301 105.644 129.776 105.229 129.24 105.659C128.735 106.059 128.625 106.626 128.851 107.33C129.324 108.817 129.828 110.315 129.844 111.906C129.844 112.09 129.944 112.269 130.012 112.448C130.49 113.73 131.373 113.992 132.229 112.952C132.765 112.301 134.21 112.332 133.889 110.955Z" fill="#FEC5B9"/>
<path d="M54.8048 127.464C56.4809 120.88 60.1903 115.611 65.376 111.355C67.5512 109.568 70.1677 108.749 72.9471 108.381C76.5199 107.908 80.0244 107.74 83.3502 109.558C84.0595 109.947 84.38 110.856 85.2942 110.898C86.0298 111.623 86.7548 112.358 87.5062 113.068C90.0702 115.495 90.8845 118.816 91.7252 122C92.3609 124.411 92.2769 127.001 90.7795 129.287C90.5483 129.639 90.2541 129.77 89.9546 129.607C89.2137 129.203 88.0631 129.881 87.6323 128.641C87.4116 128.01 87.4641 127.422 87.5587 126.818C88.2312 122.641 86.8809 118.952 84.7215 115.511C82.6724 112.253 79.3729 111.759 75.8947 111.854C73.8298 111.906 71.765 112.138 69.905 113.089C66.2429 114.964 63.5634 117.844 61.4933 121.395C60.248 123.534 58.9871 125.625 58.4932 128.089C57.7996 131.536 58.0151 134.988 58.2935 138.445C58.3251 138.807 58.3461 139.212 58.6666 139.496C58.9398 139.737 59.4179 140.011 59.0449 140.399C58.6718 140.793 58.0991 141.261 57.558 141.03C56.9695 140.783 56.4126 140.625 55.7873 140.646C55.057 140.673 55.1253 140.084 55.0833 139.637C54.747 135.87 54.0377 132.108 54.8364 128.315C54.8941 128.047 54.8101 127.748 54.7891 127.464H54.8048Z" fill="#EBB96F"/>
<path d="M14.359 140.62C13.0455 139.827 11.4955 139.816 10.0769 139.343C7.4341 138.466 5.65297 136.742 4.42352 134.457C3.88235 133.453 3.92438 132.082 3.89286 130.874C3.87184 130.117 4.12404 129.403 3.96116 128.567C3.84032 127.963 4.7913 127.385 5.19061 126.712C5.87364 125.557 6.98225 124.7 7.79138 123.597C8.47966 122.662 11.3957 122.635 12.4465 123.366C13.3554 123.996 14.3117 124.243 15.394 123.817C16.0823 123.55 16.4869 123.161 16.4238 122.336C16.3503 121.301 16.7706 120.429 17.5534 119.735C17.3853 123.36 18.0683 126.881 18.7041 130.432C19.1192 132.776 19.8442 134.998 20.48 137.263C20.8583 138.613 22.135 139.317 22.7918 140.462C19.9861 140.515 17.1752 140.567 14.3695 140.62H14.359Z" fill="#FEC5B9"/>
<path d="M94.0164 34.162C96.9114 34.0832 99.2495 36.7627 98.5349 39.5474C98.02 41.5597 97.8992 43.7244 96.7801 45.537C95.6977 47.3024 94.2896 48.7052 92.5611 49.9767C89.7922 52.0101 87.265 51.4479 84.7588 49.9978C81.7639 48.2639 81.7534 48.1168 83.13 44.5966C84.785 40.3618 87.6012 37.0517 91.5891 34.7925C92.6924 34.1672 92.7082 34.1935 94.0217 34.1567L94.0164 34.162Z" fill="#FECE79"/>
<path d="M69.6791 45.1588C68.3236 45.3059 66.9943 45.1693 65.6493 45.0537C63.968 44.9118 63.7841 43.6929 63.8419 42.7261C63.9942 40.1884 63.9207 37.6087 64.7508 35.1287C65.9277 31.6085 67.7404 28.5769 71.0242 26.6749C72.2063 25.9919 73.5356 26.4753 74.3553 27.2897C75.632 28.5559 76.6776 29.9903 76.3255 32.1444C76.1311 33.3318 76.5777 34.6664 76.2257 35.9221C75.2957 39.2112 74.0085 42.3058 71.5601 44.8067C70.9769 45.4004 70.3096 45.0852 69.6844 45.1588H69.6791Z" fill="#FECE79"/>
<path d="M120.339 110.572C120.948 111.386 120.68 112.337 120.602 113.188C120.37 115.721 121.91 117.907 124.458 118.663C126.507 119.273 128.194 120.581 129.644 122.015C130.679 123.04 131.12 124.653 131.104 126.208C131.099 126.628 131.288 126.902 131.351 127.238C131.609 128.641 132.381 128.856 133.742 129.029C135.297 129.229 136.779 130.217 137.798 131.593C138.166 132.093 138.45 132.644 139.164 132.676C139.222 133.228 139.28 133.779 139.338 134.331C138.549 134.867 139.569 134.909 139.579 135.229C139.574 136.553 139.464 137.883 139.595 139.191C139.684 140.079 139.185 140.478 138.67 140.93C138.098 141.429 137.746 140.788 137.304 140.609C137.015 139.853 137.005 139.054 136.947 138.256C136.774 135.781 134.546 132.434 132.413 131.951C130.153 131.441 128.619 131.877 127.164 133.7C126.407 134.651 125.651 135.671 124.106 135.487C123.118 135.371 122.619 134.925 123.139 134.068C124.169 132.355 125.026 130.459 127.096 129.639C127.695 129.403 127.868 128.835 127.805 128.205C127.537 125.43 126.87 123.019 123.927 121.695C121.905 120.786 120.008 119.866 117.722 120.281C116.84 120.444 116.12 120.87 115.489 121.453C114.906 121.994 114.255 122.304 113.456 122.315C113.761 120.959 114.06 119.604 114.365 118.248C115.568 117.854 116.719 117.213 118.059 117.429C118.095 117.476 118.127 117.523 118.164 117.57C118.164 117.544 118.164 117.507 118.148 117.492C118.116 117.465 118.08 117.46 118.043 117.444C118.106 117.055 117.88 116.719 117.833 116.362C117.607 114.733 117.271 113.099 117.749 111.455C118.51 110.861 119.525 111.013 120.334 110.561L120.339 110.572Z" fill="#FE9C88"/>
<path d="M132.365 84.1702C131.998 82.9198 130.942 81.932 130.947 80.5344C131.767 80.0983 132.796 79.8094 133.227 79.0055C134.099 77.3872 135.05 75.811 135.775 74.0982C136.768 71.7549 136.406 69.627 135.208 67.5621C134.225 65.8756 131.488 65.7495 130.579 67.2837C130.154 67.9982 130.369 68.7811 130.379 69.5219C130.39 70.6042 129.754 70.9142 128.866 71.0246C127.994 71.1349 127.574 70.7829 127.437 69.8792C127.174 68.1296 126.507 66.485 125.598 64.9929C124.374 62.9806 123.917 62.4079 121.211 63.4377C120.912 63.5533 120.591 63.5953 120.323 63.858C120.108 64.0682 119.992 63.6268 119.771 63.5848C120.055 62.7126 120.67 61.9718 120.701 60.9945C120.717 60.5059 121.069 60.1539 121.61 60.0856C124.243 58.7983 126.166 60.2537 128.005 62.6653C128.625 63.4745 129.076 63.7582 129.912 63.3957C132.97 62.0874 135.297 63.175 137.525 65.3659C139.306 67.1208 140.094 69.1384 139.973 71.5132C139.832 74.4082 138.739 77.009 136.968 79.5519C138.881 80.0931 140.073 81.1859 139.532 83.3559C138.712 83.4137 137.956 83.2771 137.183 82.9461C135.97 82.4312 134.761 82.0213 133.443 82.9566C132.943 83.3086 133.012 84.0442 132.36 84.1597L132.365 84.1702Z" fill="#FE9C89"/>
<path d="M35.1025 113.078C37.4878 113.026 39.8311 115.71 39.7628 118.395C39.6788 121.632 38.6542 124.327 36.9834 126.944C35.9274 128.599 34.4667 129.518 32.5227 129.713C30.894 129.875 29.1759 128.457 28.7766 126.513C27.8834 122.12 28.4823 118.054 31.5928 114.623C32.4807 113.64 33.5105 112.779 35.1025 113.083V113.078Z" fill="#69502D"/>
<path d="M70.919 136.364C67.7718 136.595 65.8121 133.9 65.9224 131.452C66.0905 127.705 67.4566 124.642 70.567 122.467C71.7964 121.605 73.0837 120.928 74.4918 122.257C74.8491 122.593 75.3902 122.746 75.8578 122.956C76.3517 123.176 76.7983 123.455 76.9349 124.001C77.4393 126.008 77.639 127.989 77.0348 130.059C76.2624 132.728 74.6021 134.615 72.3849 136.128C71.9015 136.459 71.3656 136.28 70.9138 136.359L70.919 136.364Z" fill="#69502D"/>
<path d="M123.202 53.7281C123.391 51.6475 123.733 49.5879 124.169 47.5494C124.248 47.1816 123.996 46.9294 123.906 46.6194C123.738 46.0414 123.565 45.4582 124.022 44.9276C125.719 44.0449 127.426 43.4197 129.265 44.6123C129.67 44.875 130.085 44.6911 130.463 44.4337C132.628 42.9836 134.724 42.8785 136.847 44.5861C137.829 45.3742 138.386 46.3252 138.633 47.5231C139.495 51.6843 137.998 54.9523 134.866 57.6214C134.157 58.2256 133.316 58.4568 132.481 58.3202C130.516 57.9892 128.63 57.2746 127.043 56.0872C125.824 55.1783 124.348 54.7422 123.213 53.7334L123.202 53.7281ZM134.992 49.3095C134.992 48.8471 134.982 48.5108 134.992 48.1798C135.024 47.4705 134.94 46.8085 134.136 46.5668C133.017 46.2253 132.428 47.0397 132.013 47.7963C131.593 48.5634 131.12 48.7736 130.285 48.7683C129.539 48.7683 129.045 48.432 128.782 47.9014C128.377 47.0922 127.637 46.8768 127.022 47.1028C125.672 47.5914 125.446 49.0152 125.004 50.1816C124.747 50.8542 125.183 51.7526 125.698 51.905C127.731 52.5145 129.302 53.8753 131.094 54.8683C131.556 55.1257 132.192 55.2571 132.665 54.7107C134.036 53.1187 135.476 51.5582 134.992 49.3147V49.3095Z" fill="#FE9C89"/>
<path d="M132.365 84.1702C133.017 84.0546 132.954 83.3243 133.447 82.967C134.761 82.0318 135.975 82.4416 137.188 82.9565C137.961 83.2823 138.723 83.4241 139.537 83.3664C139.442 84.8743 139.232 86.3822 139.274 87.8849C139.353 90.9059 139.71 93.927 139.674 96.9429C139.647 99.0287 140.026 101.146 139.458 103.216C139.106 103.085 138.67 102.754 138.413 102.859C137.041 103.416 136.542 102.47 135.791 101.64C134.703 100.437 133.542 99.1391 131.593 99.6277C131.966 97.7047 133.064 96.0497 133.61 94.174C133.889 93.2072 133.852 92.293 133.784 91.3946C133.595 88.9409 133.4 86.4663 132.36 84.1702H132.365Z" fill="#FEE4DE"/>
<path d="M75.8217 45.4109C76.2315 42.1797 77.0826 39.2742 78.6641 36.6472C80.7079 33.2425 82.6467 29.7486 85.4892 26.8956C86.1985 26.1863 87.0654 25.6504 87.7589 24.9516C89.0514 23.6538 90.2914 24.4787 91.5156 24.8991C91.9149 25.0357 92.2722 25.4823 91.9096 26.181C91.5103 26.9534 90.9114 27.5313 90.2599 27.8886C88.4157 28.8921 87.223 30.4894 86.0251 32.0919C83.9077 34.9291 81.9532 37.8819 80.4925 41.1236C80.1247 41.938 79.82 42.8207 79.6939 43.7034C79.51 45.0432 79.0056 45.9258 77.6238 46.3882C76.4522 46.7823 75.8374 46.5091 75.8164 45.4109H75.8217Z" fill="#EBB96F"/>
<path d="M38.7274 78.5064C39.3421 79.1106 39.6678 79.9039 40.0987 80.629C40.7344 83.2928 39.5838 85.426 37.934 87.3017C36.4418 88.9987 33.2526 89.3455 31.2666 87.039C30.3103 85.9251 30.0739 84.6852 30.3313 83.2876C30.6413 81.6063 31.1562 79.8934 32.2491 78.6692C34.0145 76.6884 35.659 76.2786 38.7274 78.5116V78.5064Z" fill="#69502D"/>
<path d="M131.598 99.633C133.548 99.1443 134.709 100.442 135.796 101.645C136.548 102.475 137.047 103.416 138.418 102.864C138.676 102.759 139.112 103.09 139.464 103.221C139.511 104.157 139.789 105.108 139.259 106.001C138.313 106.458 138.387 107.341 138.387 108.171C138.387 109.269 138.187 110.267 137.604 111.25C137.094 112.111 136.474 111.891 135.933 111.591C135.471 111.334 134.635 111.47 134.861 110.246C135.276 108.034 134.824 105.838 133.506 103.899C132.738 102.775 131.698 102.139 130.369 101.945C130.306 100.92 131.089 100.353 131.604 99.6435L131.598 99.633Z" fill="#FE9C88"/>
<path d="M91.9042 67.1313C91.61 67.6777 92.3088 68.6234 91.2159 68.8546C90.3648 69.0228 89.8604 68.5446 89.314 67.9719C87.5539 66.1172 85.7412 64.3256 83.2087 63.485C82.7832 63.3431 82.3733 63.3904 81.9688 63.2643C81.4013 63.0804 80.4871 63.28 80.65 62.2397C80.7814 61.3833 81.3856 60.8737 82.242 60.942C83.3506 61.0313 84.4434 61.2205 85.4627 61.8037C87.9216 63.217 89.9707 65.1032 91.899 67.1365L91.9042 67.1313Z" fill="#090909"/>
<path d="M60.4737 58.9717C59.1181 59.0558 58.1777 60.0645 57.0008 60.5479C56.4386 60.7738 55.7871 61.0418 55.4876 60.4376C55.2301 59.9174 55.1986 59.2502 55.8974 58.7143C57.0691 57.8106 58.4351 57.2694 59.6593 56.476C61.8765 56.3867 64.0727 56.3236 66.2427 57.0014C67.0623 57.2589 67.635 57.6739 67.367 58.441C67.1359 59.1136 66.4896 59.5602 65.5701 59.2502C63.9099 58.6827 62.2023 58.4515 60.4737 58.9717Z" fill="#090909"/>
<path d="M36.2054 110.95C35.0232 111.082 34.0565 110.856 33.9462 109.49C33.8358 108.176 35.3437 106.164 36.3841 106.101C36.983 106.064 38.7274 107.729 38.7169 108.334C38.6801 110.209 37.9498 110.955 36.2054 110.95Z" fill="#6E5633"/>
<path d="M78.6898 117.586C78.6898 118.858 77.6863 120.15 76.7196 120.124C74.9069 120.082 73.9717 119.441 73.9717 118.227C73.9717 116.809 75.1643 115.117 76.1416 115.153C76.9455 115.185 78.6951 116.845 78.6951 117.581L78.6898 117.586Z" fill="#6E5633"/>
<path d="M42.5632 113.646C41.029 113.646 40.5771 113.225 40.5666 111.817C40.5509 110.456 41.3915 109.342 42.4739 109.29C42.9835 109.264 44.7384 110.751 44.7489 111.213C44.7751 112.863 44.0658 113.656 42.5684 113.651L42.5632 113.646Z" fill="#6E5633"/>
<path d="M29.3383 112.458C28.629 112.211 27.8777 111.702 27.7831 110.798C27.657 109.547 29.1019 108.244 30.4049 108.255C30.9671 108.255 32.5118 109.684 32.5223 110.215C32.5433 111.413 31.1089 112.474 29.3383 112.458Z" fill="#6E5633"/>
<path d="M69.4847 119.609C68.4128 119.499 67.1992 119.514 66.9207 118.169C66.7263 117.245 68.6861 115.264 69.6581 115.243C69.9733 115.238 71.3919 116.992 71.4077 117.408C71.4392 118.222 70.1992 119.651 69.4847 119.609Z" fill="#6E5633"/>
<path d="M79.9197 122.236C79.9407 120.786 80.8234 119.488 81.8006 119.457C82.6308 119.425 84.2333 120.854 84.186 121.59C84.1282 122.509 83.0564 123.959 82.4574 123.933C80.3925 123.833 79.8987 123.502 79.9144 122.241L79.9197 122.236Z" fill="#6E5633"/>
<path d="M25.818 83.813C25.093 83.6238 24.4415 83.256 24.4888 82.1422C24.536 81.002 25.2979 80.4609 26.1701 80.2297C26.9687 80.0195 28.6395 81.2385 28.5817 81.7534C28.4661 82.8199 27.1736 83.8497 25.818 83.8077V83.813Z" fill="#6E5633"/>
<path d="M29.1074 75.1122C29.5015 75.0702 31.5033 76.4993 31.5348 76.8986C31.6031 77.7813 30.4104 78.7848 29.1284 78.7901C28.3088 78.7901 27.8727 78.2226 27.8149 77.4083C27.7466 76.3942 28.004 75.5431 29.1074 75.1122Z" fill="#6E5633"/>
<path d="M36.9783 73.1682C36.8206 73.6569 37.2672 73.9931 37.2935 74.4292C37.3198 75.3171 36.7891 76.0895 36.043 75.9476C35.1341 75.7743 33.7155 75.9687 33.5946 74.3872C33.5316 73.5465 33.8521 72.9581 34.6507 72.5955C35.6017 72.1647 36.1324 73.2733 36.9783 73.163V73.1682Z" fill="#6E5633"/>
<path d="M73.8507 64.1785C73.7404 64.6304 73.2045 65.14 72.6213 65.0244C72.0433 64.9141 71.229 64.6566 71.3183 63.6794C71.3866 62.9228 71.849 62.534 72.4952 62.618C73.1887 62.7126 73.9453 62.9648 73.8507 64.1785Z" fill="#090909"/>
<path d="M139.579 135.229C139.568 134.909 138.544 134.867 139.337 134.331C139.889 134.504 139.973 134.804 139.579 135.229Z" fill="#FEC5B9"/>
<path d="M17.548 79.6885C15.6197 78.9635 13.6232 78.2331 11.9261 77.1823C10.4497 76.2681 8.99433 75.1332 7.55472 74.0719C5.92596 72.8687 4.93819 71.1717 3.78229 69.6848C2.87334 68.5131 3.00469 66.5376 2.65267 64.9193C2.04845 62.1504 3.23587 59.6863 4.02924 57.1748C4.22889 56.5338 4.8804 55.8666 5.41106 55.4462C6.8822 54.2798 7.86471 52.4724 9.95583 52.0574C10.8333 51.884 11.5688 51.1852 12.5198 50.9382C15.2572 50.2289 17.8474 50.5757 20.3274 51.7894C23.7951 53.4865 26.8529 55.6984 28.902 59.0926C29.3118 59.7756 31.3504 60.1224 31.8706 59.6232C32.2331 59.2765 32.4065 58.8824 32.128 58.2414C31.4975 56.8123 30.494 55.6984 29.48 54.5846C28.9178 53.9646 28.7444 53.3499 28.923 52.5407C29.3644 50.5074 30.3101 48.7946 31.6709 47.2026C32.6902 46.0099 33.9827 45.1325 35.2647 44.5388C38.3541 43.0992 41.5853 42.9941 44.7378 44.7279C45.5312 45.164 45.8254 45.9679 46.5084 46.4303C46.0513 47.77 44.6905 48.2849 43.8709 49.3358C40.834 53.2448 38.4171 57.4218 37.2402 62.266C36.9092 63.6321 36.5152 64.9876 36.2052 66.3589C36.0581 66.9947 35.8111 67.1891 35.1228 67.0945C33.4153 66.8633 31.7234 66.6742 29.9896 67.2154C25.0665 68.7443 21.4202 71.7444 19.0822 76.3259C18.5252 77.424 18.0576 78.5642 17.548 79.6885ZM12.0995 69.6112H12.1047C12.1258 69.2224 12.0575 68.8651 11.758 68.5709C9.85075 66.7057 9.11518 64.4885 9.74041 61.8562C9.80346 61.5988 9.7299 61.2888 9.50923 61.2415C8.64231 61.0576 7.73861 60.7529 6.89271 60.8579C6.15714 60.9473 5.95223 61.7932 5.7841 62.5287C5.14835 65.2766 5.80511 67.6882 7.39184 69.979C9.09416 72.4379 9.97159 72.8793 12.7405 72.1962C12.8246 72.1752 12.9034 72.1384 12.9822 72.1069C12.814 71.55 12.4988 71.0403 12.6564 70.4098C12.7562 70.0053 12.6144 69.648 12.0942 69.6112H12.0995ZM8.09589 56.8701C8.1064 58.4778 8.78417 58.8561 10.2763 58.3623C10.8228 58.1836 11.842 58.2939 11.8053 57.779C11.7527 57.0803 11.1065 56.4077 10.4602 55.9191C10.3867 55.8613 10.2868 55.835 10.2185 55.7772C9.84024 55.462 9.49873 55.2151 8.98908 55.6406C8.55825 56.0032 7.98555 56.2238 8.09589 56.8753V56.8701Z" fill="#FEC5BA"/>
<path d="M19.2661 113.236C18.8406 113.173 18.4307 113.125 18.0367 113.409C16.7442 114.344 15.3308 115.043 13.8965 115.737C12.0575 116.63 10.6127 116.499 9.14154 114.991C7.30787 113.11 5.4164 111.292 3.18868 109.884C2.60022 109.511 3.01529 109.059 2.77886 108.665C1.51788 106.568 0.351478 104.414 -0.872721 102.292C-1.03034 102.018 -1.14068 101.787 -0.93577 101.519C-0.799164 101.341 -0.473412 101.151 -0.662558 100.936C-2.49098 98.8501 -0.898992 96.7485 -0.573239 94.7362C-0.184438 92.2983 0.777057 89.9918 2.58446 88.1318C4.44965 86.2141 7.1555 85.6204 9.66169 86.729C11.1906 87.4015 12.0575 88.7518 12.273 90.2334C12.4253 91.2948 11.2642 92.1774 10.6547 93.1127C9.57237 94.7782 9.11001 96.5436 9.50932 98.4981C9.65118 99.1969 9.91389 99.7643 10.744 99.0865C10.8491 99.0025 11.0067 98.8711 11.1013 98.8974C12.7879 99.3598 12.7301 98.1723 12.8089 97.111C12.9823 94.7782 14.3221 93.181 16.1189 91.8675C16.8808 91.9515 16.9071 92.5137 17.0016 93.1074C17.816 98.3457 20.5691 102.265 25.3609 105.018C22.5026 107.241 20.8896 110.241 19.2714 113.231L19.2661 113.236ZM12.1784 114.024C14.4061 113.593 16.5077 113.12 17.9579 111.313C18.2363 110.966 18.6619 110.53 18.126 110.078C17.0647 109.185 15.5305 109.279 14.2275 110.167C13.2029 110.866 11.9945 111.25 10.9017 110.498C10.082 109.936 9.58814 110.209 9.08375 110.751C8.47427 111.407 8.75274 111.98 9.26238 112.632C10.0557 113.646 11.2064 113.709 12.1836 114.024H12.1784ZM7.81226 107.173C7.70718 106.143 6.61433 105.933 5.69487 105.791C4.74914 105.644 4.32356 106.521 4.42864 107.267C4.53372 107.992 4.47592 109.048 5.56352 109.248C6.20451 109.369 7.7965 108.024 7.807 107.173H7.81226Z" fill="#FEE4DE"/>
<path d="M119.777 63.59C119.992 63.6321 120.108 64.0734 120.328 63.8633C120.596 63.6005 120.917 63.5585 121.216 63.4429C123.917 62.4131 124.374 62.9858 125.603 64.9981C126.512 66.4903 127.18 68.1348 127.442 69.8844C127.579 70.7934 127.999 71.1401 128.872 71.0298C129.759 70.9195 130.395 70.6042 130.385 69.5271C130.374 68.7811 130.159 68.0035 130.584 67.2889C131.499 65.7547 134.236 65.8808 135.213 67.5674C136.416 69.6322 136.774 71.7601 135.781 74.1034C135.056 75.8163 134.105 77.3872 133.232 79.0107C132.802 79.8146 131.767 80.1036 130.952 80.5397C129.907 78.4643 127.952 77.1666 126.318 75.7112C125.083 74.6131 123.497 73.494 121.668 73.1577C121.122 73.0579 120.701 72.8582 120.649 72.1804C120.46 69.6848 119.856 67.2837 118.91 64.9614C118.61 64.2205 119.199 63.8632 119.782 63.59H119.777ZM125.719 70.5202C125.509 69.7058 125.877 69.2382 125.504 68.7863C124.605 67.704 123.801 66.5376 122.687 65.6444C122.325 65.3554 121.994 64.8668 121.484 65.2451C121.053 65.5656 120.518 65.8966 120.728 66.6269C121.138 68.0613 121.384 69.5534 121.947 70.9247C122.493 72.2435 123.896 71.9125 124.941 71.8284C125.793 71.7601 125.777 70.8669 125.724 70.5149L125.719 70.5202Z" fill="#FEC5B9"/>
<path d="M16.0353 88.1844C15.2787 88.384 15.037 88.2106 14.5011 87.4173C13.4713 85.8831 12.2734 84.2596 10.2085 83.7184C9.05791 83.4137 7.80744 83.4137 6.76188 82.7306C5.91072 82.1685 5.84767 81.1019 6.48867 79.9933C7.10865 78.9267 7.73388 79.0002 8.67436 79.636C10.5763 80.9127 12.3785 82.3891 14.8111 82.6728C15.4626 82.7464 16.0616 83.3191 16.6816 83.6606C16.4661 85.1738 16.2507 86.687 16.0353 88.1949V88.1844Z" fill="#FEE2DD"/>
<path d="M112.632 124.038C113.703 123.828 114.549 124.364 115.416 124.863C116.183 125.304 116.351 126.003 115.705 126.471C113.935 127.753 112.453 129.565 110.052 129.77C110.089 127.49 111.765 125.945 112.632 124.033V124.038Z" fill="#FEC6BB"/>
<path d="M117.754 111.465C117.281 113.11 117.612 114.744 117.838 116.372C117.89 116.73 118.111 117.066 118.048 117.455L118.064 117.439C116.724 117.224 115.573 117.87 114.37 118.259C114.291 117.145 114.832 116.131 115.174 115.154C115.41 114.481 115.5 113.751 115.789 113.089C116.183 112.185 116.545 111.344 117.748 111.46L117.754 111.465Z" fill="#FEF3E0"/>
<path d="M17.5375 119.751C17.5427 119.441 17.4692 119.11 17.8107 118.91C17.8107 119.22 17.858 119.546 17.5375 119.751Z" fill="#FEC5B9"/>
<path d="M120.234 125.478C118.61 125.451 117.512 124.732 117.507 123.77C117.507 122.998 118.631 121.763 119.298 121.8C119.929 121.831 121.757 123.56 121.673 124.106C121.542 124.979 121.221 125.698 120.234 125.483V125.478Z" fill="#FEC6BB"/>
<path d="M133.89 110.956C134.205 112.332 132.765 112.301 132.229 112.952C131.378 113.992 130.49 113.73 130.012 112.448C129.944 112.269 129.844 112.085 129.844 111.906C129.828 110.315 129.324 108.817 128.851 107.33C128.625 106.626 128.741 106.059 129.24 105.659C129.776 105.234 130.301 105.649 130.895 105.796C133.758 106.526 133.312 108.985 133.89 110.956Z" fill="#FEE2DD"/>
<path d="M118.054 117.455C118.09 117.471 118.133 117.481 118.159 117.502C118.175 117.513 118.169 117.555 118.175 117.581C118.138 117.534 118.106 117.486 118.069 117.439L118.054 117.455Z" fill="#FEF3E0"/>
<path d="M134.993 49.3095C135.476 51.553 134.031 53.1134 132.665 54.7054C132.198 55.2518 131.557 55.1152 131.094 54.863C129.303 53.87 127.732 52.5092 125.698 51.8997C125.184 51.7421 124.747 50.8489 125.005 50.1764C125.446 49.01 125.677 47.5914 127.022 47.0975C127.637 46.8768 128.378 47.087 128.783 47.8961C129.051 48.4268 129.539 48.7578 130.285 48.7631C131.121 48.7631 131.594 48.5634 132.014 47.7911C132.424 47.0397 133.017 46.2253 134.136 46.5616C134.935 46.8033 135.019 47.4653 134.993 48.1746C134.977 48.5056 134.993 48.8419 134.993 49.3042V49.3095Z" fill="#FEE2DD"/>
<path d="M12.1002 69.6112C12.6203 69.6427 12.7622 70.0053 12.6624 70.4098C12.5047 71.0456 12.82 71.55 12.9881 72.1069C12.904 72.1384 12.8252 72.1752 12.7464 72.1962C9.97752 72.8793 9.10009 72.4379 7.39777 69.979C5.81104 67.6882 5.15428 65.2766 5.79002 62.5287C5.95815 61.7984 6.16306 60.9473 6.89863 60.8579C7.74454 60.7529 8.64824 61.0576 9.51516 61.2415C9.73058 61.2888 9.80414 61.5988 9.74634 61.8562C9.12111 64.4832 9.85668 66.7057 11.7639 68.5709C12.0634 68.8651 12.1317 69.2224 12.1107 69.6165C12.0897 69.6533 12.0686 69.6953 12.0424 69.7321C12.0634 69.69 12.0844 69.6533 12.1002 69.6112Z" fill="#FEE4DE"/>
<path d="M8.09587 56.8701C7.98553 56.2186 8.55823 56.0032 8.98906 55.6354C9.49345 55.2045 9.83497 55.4567 10.2185 55.772C10.2921 55.8298 10.3866 55.8613 10.4602 55.9138C11.1065 56.4025 11.758 57.0802 11.8052 57.7738C11.842 58.2887 10.8227 58.1731 10.2763 58.357C8.7789 58.8509 8.10638 58.4726 8.09587 56.8648V56.8701Z" fill="#FEE2DD"/>
<path d="M12.1786 114.024C11.2013 113.709 10.0507 113.646 9.25729 112.632C8.74765 111.985 8.46918 111.407 9.07866 110.751C9.58305 110.209 10.0769 109.936 10.8966 110.498C11.9947 111.25 13.1978 110.866 14.2224 110.167C15.5254 109.274 17.0596 109.185 18.1209 110.078C18.6568 110.53 18.226 110.966 17.9528 111.313C16.5027 113.125 14.401 113.598 12.1733 114.024H12.1786Z" fill="#FEC6BB"/>
<path d="M7.81226 107.173C7.80175 108.024 6.20977 109.363 5.56877 109.248C4.48118 109.048 4.53897 107.992 4.43389 107.267C4.32356 106.521 4.75439 105.644 5.70012 105.791C6.61959 105.933 7.71243 106.143 7.81751 107.173H7.81226Z" fill="#FEC6BB"/>
<path d="M125.719 70.5202C125.771 70.8722 125.787 71.7654 124.936 71.8337C123.89 71.9177 122.488 72.2487 121.941 70.93C121.379 69.5639 121.132 68.0665 120.722 66.6321C120.517 65.9018 121.048 65.5708 121.479 65.2503C121.983 64.872 122.319 65.3554 122.682 65.6496C123.796 66.5428 124.6 67.7092 125.498 68.7916C125.871 69.2382 125.503 69.7058 125.714 70.5254L125.719 70.5202Z" fill="#FEE2DD"/>
<path d="M12.0998 69.6112C12.0788 69.6533 12.0578 69.69 12.042 69.7321C12.063 69.6953 12.084 69.6533 12.1103 69.6165L12.105 69.6112H12.0998Z" fill="#FEC5BA"/>
</g>
<circle cx="70" cy="70" r="68.5" stroke="#FFE9BA" stroke-width="3"/>
</svg>
