<svg width="140" height="140" viewBox="0 0 140 140" fill="none" xmlns="http://www.w3.org/2000/svg">
<path d="M70 140C108.66 140 140 108.66 140 70C140 31.3401 108.66 0 70 0C31.3401 0 0 31.3401 0 70C0 108.66 31.3401 140 70 140Z" fill="#E0D9FC"/>
<mask id="mask0_54900_27953" style="mask-type:luminance" maskUnits="userSpaceOnUse" x="0" y="0" width="140" height="140">
<path d="M70 140C108.66 140 140 108.66 140 70C140 31.3401 108.66 0 70 0C31.3401 0 0 31.3401 0 70C0 108.66 31.3401 140 70 140Z" fill="white"/>
</mask>
<g mask="url(#mask0_54900_27953)">
<path d="M21.0482 139.385L19.7872 130.327L24.3057 110.913L22.0465 107.651L13.8396 101.945L7.36133 90.2072L10.0199 80.4451L14.8904 73.121L20.1182 69.7268L21.9939 64.3414L16.7819 57.8421L14.8957 46.6089L17.8905 38.7383L25.5719 31.9185L43.0207 29.7538H50.4815L56.8021 31.8029L69.2806 26.2284L79.3947 23.9744L93.7435 27.0953L99.8067 33.4685L102.728 39.1744L101.667 47.8804L101.257 52.1782L104.451 53.6599L112.816 56.9279L117.25 62.5708L119.672 70.5832V79.7201L111.702 94.2055L107.43 98.9027V103.757L114.723 118.043L117.245 129.565L118.259 137.778L22.0727 139.396H21.0429L21.0482 139.385Z" fill="#FEFEFE"/>
<path d="M43.5723 126.639C44.0767 121.632 44.4234 116.467 46.11 111.46C47.6599 106.857 49.8509 102.701 53.4762 99.4648C56.0665 97.1477 59.1716 95.582 62.3924 94.2843C64.9038 93.2702 67.4941 92.2142 70.1789 92.3613C72.6693 92.5031 75.2964 91.8989 77.6449 92.8552C80.4664 94.0006 83.3456 94.9883 85.5103 97.5523C86.5348 98.7607 87.7432 100.037 88.8203 101.246C89.7608 102.307 90.3966 103.957 91.1952 105.186C92.5034 107.204 92.5455 109.516 93.507 111.602C94.9939 114.817 95.8398 118.411 95.7557 122.136C95.7189 123.691 96.1077 125.341 95.8608 126.86C95.4772 129.198 96.2654 131.772 94.6261 133.858C93.7644 134.956 93.1549 136.254 92.2565 137.252C91.5209 138.066 90.2074 138.387 89.1198 138.849C86.766 139.853 84.2073 140.147 81.7273 140.452C79.2422 140.751 76.715 140.898 74.2035 141.098C72.8847 141.203 71.7814 140.357 70.4101 140.415C69.5326 140.452 68.6447 140.531 67.7673 140.599C63.8477 140.909 59.9229 141.056 55.9824 140.961C54.485 140.925 53.0138 141.282 51.4744 140.93C48.0855 140.147 45.7685 138.445 44.7439 134.909C43.9663 132.224 43.856 129.523 43.5775 126.634L43.5723 126.639Z" fill="#FEF3E0"/>
<path d="M20.7012 71.839C16.8027 72.6638 15.0531 75.8793 13.0671 78.7954C11.6169 80.9233 11.3542 83.4295 10.8341 85.8831C9.8831 90.3701 11.2281 94.3527 13.6135 97.8992C15.6468 100.92 18.3474 103.484 21.6417 105.239C23.2232 106.08 24.4106 107.525 25.0148 108.927C25.8029 110.766 25.7767 113.047 24.8625 115.017C24.2425 116.351 24.2162 117.765 23.9377 119.141C23.1759 122.893 21.8519 126.534 21.6732 130.411C21.5892 132.277 21.2477 134.079 21.9202 135.965C22.6715 138.088 22.0305 138.902 19.787 139.385C17.7905 137.951 18.0322 135.692 17.822 133.679C17.6381 131.914 17.8693 130.107 17.9166 128.32L17.8956 128.304C18.2949 128.115 18.1845 127.753 18.195 127.432C18.2581 126.266 18.9621 125.205 18.7415 123.991L18.731 124.001C18.8045 123.891 18.8833 123.781 18.9569 123.67C19.4613 121.29 20.3019 118.979 20.4596 116.52C20.7643 115.931 21.0112 115.327 21.0428 114.654C21.6732 113.751 21.6575 112.626 21.978 111.623C22.2197 110.856 22.0463 109.511 21.027 109.369C19.8921 109.211 19.1145 108.528 18.1478 108.166C17.2125 107.199 15.9253 106.747 14.885 105.927C13.7238 104.561 12.7361 103.032 11.2649 101.95C9.13177 98.8554 7.16149 95.7135 6.72015 91.8255C6.08441 86.2036 6.99862 80.939 10.1038 76.1683C12.2527 72.874 14.6958 69.8424 18.7047 68.6497C19.4035 68.4396 19.1093 67.7513 19.3614 67.394C20.8378 65.3239 19.4928 64.0524 18.3054 62.5077C16.8553 60.6215 15.0584 58.8929 14.3386 56.5496C12.2264 49.6825 12.8989 43.241 17.1232 37.2094C20.1128 32.9378 24.5472 31.2092 29.1445 29.612C32.7698 28.351 36.5212 28.0253 40.3199 27.731C43.4251 27.4893 46.4567 27.7415 49.5093 28.0568C50.2344 28.1303 50.8859 28.4088 51.5164 28.7608C52.7668 29.4491 54.0751 29.922 55.5042 30.1952C56.4815 30.3791 57.1225 30.1111 57.858 29.6067C61.4466 27.1163 65.3714 25.3299 69.5851 24.2108C76.5415 22.3666 83.5137 22.3614 90.4123 24.4262C93.901 25.4718 96.8117 27.4736 99.4913 30.0165C101.85 32.2495 103.421 34.803 104.325 37.8136C105.176 40.635 104.94 43.5038 104.399 46.3725C104.073 48.1011 103.49 49.6931 102.565 51.18C102.218 51.7369 102.465 51.9208 103.048 51.9681C103.836 52.0311 104.619 51.9418 105.423 52.0259C109.301 52.4304 112.453 54.4532 115.374 56.6967C117.234 58.1206 118.716 59.9595 119.625 62.4604C120.529 64.9509 121.238 67.4308 121.742 70C122.273 72.7006 122.236 75.417 121.648 78.1123C121.527 78.6587 121.185 79.2052 121.774 79.6833L121.811 79.7411C121.128 79.6518 121.022 80.1089 120.791 80.6343C119.662 83.2193 119.184 86.0355 117.833 88.5574C117.46 89.251 116.74 90.0706 117.219 91.0636H117.229C116.872 90.8377 116.698 91.0636 116.546 91.3368C115.49 92.5505 114.497 93.8115 113.935 95.3457L113.94 95.3562C113.677 95.3562 113.504 95.456 113.488 95.745C112.232 96.8536 110.992 97.9727 109.716 99.0603C109.001 99.6645 108.507 100.132 108.644 101.33C108.744 102.229 108.791 103.206 109.222 103.889C110.525 105.975 111.749 108.103 112.91 110.272C113.751 111.849 114.113 113.651 115.19 115.111C116.126 118.521 117.108 121.921 117.975 125.346C118.553 127.627 119.142 129.933 119.373 132.266C119.499 133.58 119.951 135.324 118.101 136.128C116.83 136.485 116.036 135.975 115.921 134.567C115.406 128.031 113.504 121.805 111.481 115.647C110.383 112.306 108.738 109.122 106.794 106.117C105.071 103.453 104.625 100.521 105.791 97.4315C106.148 96.4858 106.936 95.9972 107.646 95.5401C109.532 94.3264 110.661 92.4822 111.744 90.6853C114.35 86.377 115.963 81.6115 117.308 76.7883C118.317 73.1735 117.565 69.5377 116.62 66.0069C116.11 64.105 115.553 62.1977 114.255 60.5637C112.679 58.5724 110.52 57.5794 108.339 56.5706C106.064 55.5198 103.689 55.9191 101.33 56.1293C101.43 55.7825 101.43 55.5251 101.246 55.1205C100.406 53.2973 99.1708 51.7421 98.0097 50.1396C99.5071 48.2587 100.915 46.4145 101.146 43.819C101.341 41.6596 101.278 39.5527 100.574 37.5666C99.6594 34.9816 97.4317 33.3109 95.7136 31.288C95.1094 30.5787 94.1111 30.7784 93.4701 30.0638C92.9237 29.4544 92.1093 28.971 91.3212 28.703C87.1915 27.316 82.9147 26.738 78.5748 26.5541C76.4207 26.4648 74.3873 27.1268 72.3067 27.4893C67.9459 28.2512 63.9528 29.8852 60.2486 32.2916C59.098 33.0429 57.9946 33.5893 56.3869 33.4317C54.4271 33.2373 52.7038 32.591 50.9227 31.9658C50.082 31.6716 49.173 31.2513 48.3377 31.3353C44.8174 31.6768 41.2972 31.3353 37.7612 31.6663C34.2042 31.9973 30.8311 32.8958 27.5578 34.0674C24.4842 35.1708 21.5314 36.7313 19.7397 39.7996C19.2143 40.6981 18.8255 41.6438 18.3632 42.558C16.4192 46.3935 16.4087 50.4444 17.5278 54.469C18.4367 57.7423 21.2372 59.7388 23.3073 62.2293C22.7766 62.8808 22.1881 63.527 21.9885 64.3572C21.3948 66.8266 20.5173 69.2487 20.7012 71.8547V71.839Z" fill="#EAB96F"/>
<path d="M113.951 95.3246C114.513 93.7904 115.506 92.5294 116.562 91.3158C116.84 91.342 117.119 91.3683 117.245 91.032L117.234 91.0373C118.643 90.8954 119.951 90.1809 121.38 90.2282C122.431 90.2649 122.368 89.8919 122.084 89.067C121.023 85.9934 120.392 82.8777 121.821 79.72C121.821 79.72 121.779 79.657 121.785 79.6622C123.077 77.7708 124.448 75.9686 126.587 74.9178C130.48 73.0106 132.913 73.0999 136.948 75.7427C139.533 77.4398 140.142 80.0195 140.694 82.6886C141.051 84.4172 140.169 85.137 138.456 84.6799C138.356 84.6063 138.256 84.5327 138.156 84.4592C138.062 84.4382 137.962 84.4119 137.867 84.3909C137.636 83.3611 137.216 82.3681 137.295 81.2752C137.326 80.8864 137.268 80.5186 136.769 80.4451C136.759 79.967 136.732 79.4993 136.438 79.079C135.182 77.2979 132.214 76.3469 130.049 76.9511C127.916 77.5501 125.977 78.6009 124.932 80.5029C123.434 83.2192 123.813 86.1037 125.032 88.9146C125.378 89.7185 125.841 90.1546 126.687 90.2071C127.732 91.7571 128.835 91.9568 130.202 90.8324C131.673 89.6239 132.498 88.1213 131.284 85.6939C130.627 84.3804 130.517 84.3068 129.277 85.2578C129.177 85.2736 129.072 85.2946 128.972 85.3103C128.326 85.2683 128.037 85.552 128.158 86.2088C128.1 86.5451 128.515 86.9811 128 87.2123C127.18 87.5801 126.44 87.2806 125.741 86.8393C125.053 86.4032 125.2 85.7622 125.462 85.2105C126.708 82.5835 127.89 81.2227 131.568 81.6272C131.888 82.3733 132.75 82.5257 133.202 83.1667C134.484 85.0056 134.825 87.06 134.841 89.2299C134.841 89.5294 134.767 89.7185 134.652 89.9812C133.932 91.631 132.755 92.913 131.336 93.9375C130.632 94.4472 130.627 95.0146 131.026 95.477C132.167 96.801 132.114 98.3615 132.135 99.9324C131.904 101.078 131.583 102.223 132.13 103.369C131.804 103.384 131.441 103.321 131.331 103.768C130.769 106.011 129.314 107.651 127.695 109.195C127.475 109.406 126.96 109.673 127.228 110.099C127.406 110.383 127.842 110.225 128.168 110.204C130.764 109.726 134.484 111.57 135.724 113.871C136.633 115.553 137.673 117.161 137.867 119.131C137.878 119.42 137.888 119.709 137.904 119.998C137.489 120.323 137.547 120.733 137.699 121.164C137.647 121.532 137.599 121.9 137.547 122.267C136.501 122.572 136.669 123.844 135.771 124.374C134.258 125.262 132.676 125.483 130.995 125.441C129.23 124.758 128.037 123.439 127.091 121.873C126.45 120.812 126.466 119.667 127.123 118.621C127.932 117.339 128.788 117.334 129.939 118.285C130.701 118.91 130.123 119.525 130.117 120.113C130.091 121.837 131.163 122.567 132.797 122.063C134.184 121.632 134.699 119.43 134.515 117.812C134.31 115.963 133.06 114.754 131.715 113.819C130.732 113.136 129.476 112.642 128.084 113.372C125.741 114.602 123.991 116.294 123.067 118.795C122.63 120.271 122.825 121.716 123.287 123.145C123.25 123.571 123.287 123.954 123.839 124.001C123.665 125.205 123.45 126.355 124.327 127.49C124.711 127.989 125.236 128.094 125.63 128.499C127.716 130.637 130.27 131.289 133.039 130.217C134.531 129.639 135.771 129.418 136.99 130.606C137.195 130.727 137.221 130.916 137.189 131.126C136.349 130.916 136.638 131.846 136.165 132.15C133.47 133.874 130.601 133.847 127.727 133.075C125.221 132.403 123.44 130.527 121.742 128.667C120.954 127.805 120.639 126.702 120.366 125.551C119.935 123.712 120.187 121.868 120.15 120.035C120.093 117.292 120.881 114.796 123.082 112.957C123.571 112.547 123.555 112.311 123.024 112.027C120.623 110.74 118.238 109.416 116.121 107.677C115.874 107.115 115.627 106.563 115.175 106.122C114.597 105.565 114.46 104.887 114.382 104.083C114.129 101.64 115.369 99.8379 116.657 97.9989C117.723 96.4753 120.413 95.6451 122.457 96.9691C123.981 97.9569 124.701 99.5489 125.263 101.241C125.536 102.06 125.578 102.722 124.879 103.274C124.133 103.868 123.277 103.521 122.578 103.258C121.932 103.017 121.853 102.302 121.989 101.545C122.221 100.253 121.144 99.1181 120.187 99.5069C118.643 100.132 117.608 102.954 118.08 104.561C118.616 106.379 120.271 106.757 121.517 107.672C122.541 108.428 123.382 108.36 124.391 107.404C125.047 106.778 125.51 106.022 126.166 105.407C128.426 103.285 128.772 100.542 128.352 97.6469C128.205 96.6434 127.674 95.7449 126.813 95.1617C124.007 93.265 121.112 92.3456 117.823 94.1214C116.651 94.7519 115.317 95.1512 113.961 95.3404L113.951 95.3246Z" fill="#7BD3F8"/>
<path d="M21.048 114.654C21.0165 115.327 20.7643 115.931 20.4648 116.52C20.1864 116.898 19.9184 117.292 19.6242 117.66C18.0795 119.583 16.8605 121.789 14.0811 122.399C11.1178 123.05 9.13706 122.031 7.79202 119.399C7.26136 118.359 6.97764 117.056 7.3822 115.952C7.73948 114.98 8.71148 114.344 9.74128 113.898C10.4085 113.609 10.2457 112.873 9.93568 112.427C9.33146 111.576 7.28237 111.344 6.52053 112.033C4.71838 113.667 3.46266 115.59 4.15094 118.154C5.01787 121.401 6.77273 124.122 10.0408 125.247C12.4576 126.077 14.9954 125.63 17.2809 124.364C17.7642 124.096 18.2003 123.891 18.7468 123.991C18.9674 125.199 18.2634 126.266 18.2003 127.432C17.8273 127.632 17.8851 127.973 17.9009 128.304L17.9219 128.32C17.3177 127.91 16.6661 127.753 15.9674 128.005C14.8693 128.399 13.9183 128.131 13.1407 127.322C12.8937 127.065 12.4524 127.101 12.4786 127.154C13.0829 128.567 11.7483 128.52 11.1441 129.072C10.1879 129.939 7.97591 130.385 6.88832 129.718C6.20529 129.298 5.32786 129.303 4.75516 128.646C4.56602 128.431 4.27179 128.373 4.13518 128.809C3.80943 129.833 2.95302 130.133 2.07033 130.643C0.861895 131.347 0.010735 130.847 -0.998047 130.59C-0.52518 125.115 -1.35532 119.62 -0.688057 114.15C-0.157395 113.987 0.283947 113.882 0.499364 113.162C0.893419 111.87 1.5817 110.672 2.05457 109.395C2.26473 108.822 2.55371 108.323 3.06335 108.087C4.84974 107.272 6.62036 106.369 8.49606 105.817C9.97771 105.381 11.5224 104.666 13.1617 105.334C13.7239 105.565 14.1494 106.227 14.8955 105.917C15.9358 106.737 17.2231 107.183 18.1583 108.155C18.1478 108.801 18.6732 109.159 19.0042 109.595C20.1443 111.103 20.8169 112.784 21.0533 114.649L21.048 114.654Z" fill="#DDF4FE"/>
<path d="M116.12 107.651C118.238 109.39 120.623 110.714 123.024 112.001C123.55 112.285 123.571 112.521 123.082 112.931C120.88 114.77 120.092 117.266 120.15 120.008C120.187 121.842 119.935 123.681 120.366 125.525C120.639 126.676 120.954 127.779 121.742 128.641C123.439 130.501 125.22 132.376 127.727 133.049C130.6 133.821 133.469 133.847 136.165 132.124C136.637 131.819 136.348 130.889 137.189 131.1C137.956 132.135 137.215 133.18 137.163 134.215C137.095 135.623 137.273 137.016 137.252 138.413C137.226 140.252 136.343 140.541 134.788 141.271C132.786 142.207 130.905 141.35 128.982 141.655C127.758 141.849 126.476 141.303 125.126 141.75C124.474 141.97 123.423 141.644 122.919 140.778C122.798 140.567 122.609 140.494 122.336 140.468C118.674 140.137 118.332 139.779 118.106 136.107C119.956 135.303 119.509 133.553 119.378 132.24C119.152 129.907 118.558 127.6 117.98 125.32C117.113 121.894 116.131 118.495 115.196 115.085C115.374 114.702 115.458 114.092 115.742 113.971C117.513 113.236 116.183 112.469 115.8 111.744C115.653 111.465 115.306 111.302 115.117 111.04C114.47 110.141 114.591 108.833 115.474 108.628C116.225 108.455 115.873 107.94 116.105 107.64L116.12 107.651Z" fill="#A8E0F7"/>
<path d="M-1.01372 130.595C-0.00493872 130.853 0.851475 131.352 2.05466 130.648C2.93209 130.138 3.7885 129.839 4.11951 128.814C4.25611 128.378 4.55034 128.43 4.73949 128.651C5.31218 129.303 6.18961 129.303 6.87264 129.723C7.96023 130.39 10.1722 129.944 11.1284 129.077C11.7327 128.53 13.0672 128.572 12.463 127.159C12.4367 127.101 12.878 127.07 13.125 127.327C13.9078 128.136 14.8536 128.409 15.9517 128.01C16.6557 127.758 17.302 127.916 17.9062 128.325C17.8589 130.112 17.6277 131.919 17.8116 133.685C18.0218 135.697 17.7801 137.956 19.7766 139.39C19.6768 139.821 19.5455 140.2 19.0148 140.289C17.365 140.567 15.689 140.751 14.0812 141.193C11.8377 141.813 9.56798 141.66 7.29822 141.734C7.15636 141.734 6.97247 141.776 6.8779 141.702C5.42777 140.599 4.06697 141.65 2.92683 142.159C0.157937 143.405 -1.38676 141.109 -1.21338 139.138C-0.96118 136.285 -1.15558 133.443 -1.02423 130.6L-1.01372 130.595Z" fill="#A9E1F8"/>
<path d="M81.2127 59.5812C81.0918 60.8527 79.6417 61.0786 79.1163 61.1259C78.1443 61.2152 77.5558 62.1925 76.2686 61.7721C74.3351 61.1364 72.223 60.8737 70.2895 60.2012C68.0197 59.413 65.9286 59.8702 63.8217 60.5374C62.5187 60.9525 61.4626 61.8614 60.3435 62.639C58.347 64.0261 56.2926 65.3344 54.233 66.6216C53.5027 67.0787 50.8914 66.1645 50.1033 65.3659C49.5832 64.8353 49.3835 63.9841 48.5376 63.7792C50.1401 62.2292 52.226 61.4148 54.0176 60.1644C55.3574 59.2239 55.2628 57.7265 53.8967 56.828C54.7427 55.8245 55.8513 55.2833 57.0965 54.9103C60.932 53.7597 64.8778 53.0924 68.8131 52.4567C70.8674 52.1256 73.0741 51.9418 74.8657 53.539C74.7134 53.849 74.3614 53.7544 74.1354 53.9068C73.6573 54.2273 72.8587 54.3113 72.948 55.11C73.0268 55.8298 73.5049 56.3657 74.1459 56.7125C74.3929 56.8438 74.6714 56.9121 74.9288 57.0277C76.9937 57.9472 79.2476 58.4148 81.2074 59.5917L81.2127 59.5812ZM63.5064 58.1258C63.1912 59.2712 64.2683 59.3553 64.7622 59.4498C65.5293 59.5917 66.2123 59.0768 66.3121 58.1783C66.4277 57.1696 65.5818 56.828 64.9145 56.7335C64.0319 56.6021 63.6851 57.385 63.5012 58.1311L63.5064 58.1258Z" fill="#DBF2FB"/>
<path d="M20.7012 71.839C20.5174 69.233 21.3895 66.8108 21.9885 64.3414C22.1881 63.5113 22.7766 62.865 23.3073 62.2135C24.8572 61.3361 26.5963 61.1732 28.2934 61.1575C30.6052 61.1365 32.8119 61.7985 34.8872 62.844C35.1867 63.7425 36.0379 63.7582 36.7472 63.9999C37.7034 65.655 38.4653 67.373 38.4758 69.3381C38.3917 70.8355 38.3076 72.3381 38.2236 73.8355C37.1833 74.424 37.3409 75.7848 36.2533 76.4994C29.5859 80.8813 22.9605 78.1334 20.7065 71.839H20.7012ZM34.7664 70.3153C34.8767 69.9318 34.5457 69.5114 34.5037 69.0386C34.3408 67.2102 33.5317 65.8809 31.7243 65.2084C30.0482 64.5831 28.4352 63.9159 27.0009 65.6602C26.8695 65.8178 26.57 65.8914 26.3441 65.9071C24.9203 65.9755 24.6786 66.979 24.4474 68.1086C24.1952 69.3276 24.6103 70.5412 24.3266 71.7602C24.2477 72.107 24.4474 72.748 24.7259 72.9108C26.0341 73.6832 26.8748 75.1175 28.6454 75.2804C31.4248 75.5326 34.7611 74.2664 34.7769 70.3258L34.7664 70.3153Z" fill="#7CD2F7"/>
<path d="M98.0253 50.1187C99.1865 51.7264 100.421 53.2764 101.262 55.0996C101.451 55.5041 101.446 55.7668 101.346 56.1083C102.276 58.4149 100.973 60.2801 99.8537 61.9719C98.1567 64.5411 95.5034 65.2767 92.5033 64.7933C91.8045 64.683 91.1005 64.6147 90.3964 64.5306C89.5295 63.7267 88.2843 63.4798 87.4962 62.5603C87.1074 61.6461 86.7186 60.7319 86.3298 59.8177C86.2299 58.8142 86.1301 57.8107 86.0303 56.8071C86.1564 55.956 86.6765 55.1468 86.3087 54.2431C87.6328 52.5934 88.8937 50.9488 90.7852 49.8035C91.9096 49.1204 92.7397 48.5372 94.2109 48.7894C95.6032 49.0258 96.7328 49.7457 98.0201 50.1134L98.0253 50.1187ZM89.7502 57.6005C89.8605 60.4535 90.9218 61.5831 93.7327 61.4885C94.752 61.4517 95.7871 61.1733 96.4438 60.0121C98.2197 56.8859 98.2092 56.1819 96.0918 53.2449C95.5139 52.4462 94.8414 52.2624 94.006 52.3779C91.1162 52.7825 89.6346 54.6267 89.7502 57.6005Z" fill="#7CD2F7"/>
<path d="M38.2185 73.8302C38.3026 72.3328 38.3866 70.8302 38.4707 69.3328C41.7335 71.3766 44.3132 73.9353 45.6846 77.6867C46.3833 79.6045 46.7354 81.5537 47.245 83.4767C47.8125 85.6099 47.6338 87.6485 47.7757 89.7238C47.9491 92.167 47.0664 94.3842 46.1679 96.5804C45.8264 97.4158 43.9507 98.0305 43.1048 97.6627C41.8753 97.1268 41.7808 96.1548 42.2274 95.0514C44.0348 90.617 43.4936 86.046 42.7633 81.559C42.2694 78.5221 41.061 75.6166 38.208 73.8302H38.2185Z" fill="#EAB96F"/>
<path d="M36.7471 63.9946C36.0378 63.7529 35.1867 63.7371 34.8872 62.8387C36.7577 60.6582 39.3742 59.6862 41.8856 58.5566C45.7211 56.828 49.7089 56.103 53.9069 56.8175C55.2783 57.716 55.3728 59.2134 54.0278 60.1538C52.2362 61.4096 50.145 62.2187 48.5478 63.7686C46.504 65.4079 44.7123 67.2836 43.3936 69.5586C42.8944 70.4256 42.3427 70.373 41.5231 70.1103C40.4828 69.7741 40.798 69.1593 41.0713 68.5499C41.8699 66.7687 42.8419 65.1084 44.3708 63.8317C45.7106 62.7178 47.0136 61.5567 48.3534 60.4376C48.5793 60.2484 48.8683 60.1433 48.6686 59.7966C48.5215 59.5496 48.2588 59.6022 48.0276 59.6652C47.2238 59.8911 46.4094 60.096 45.616 60.3588C42.5792 61.3675 39.5266 62.3448 36.7524 63.9998L36.7471 63.9946Z" fill="#0A0A0A"/>
<path d="M87.4964 62.5654C88.2845 63.4849 89.5297 63.7318 90.3966 64.5357C88.8519 67.3309 87.5857 70.2206 87.3282 73.4676C87.1128 76.163 87.055 78.8425 88.1006 81.4118C88.4631 82.305 88.9517 83.2507 87.8274 83.939C86.6715 84.6483 85.8939 84.3908 85.0164 82.9933C83.9499 81.2962 83.6556 79.3627 83.5085 77.4187C83.1565 72.6848 83.766 68.1453 86.2827 63.9998C86.4245 63.7686 86.4455 63.4639 86.5191 63.1907C86.8449 62.9858 87.1653 62.7756 87.4911 62.5707L87.4964 62.5654Z" fill="#EAB96F"/>
<path d="M132.13 99.9273C132.109 98.3563 132.161 96.7959 131.021 95.4718C130.622 95.0095 130.627 94.442 131.331 93.9324C132.75 92.9079 133.927 91.6311 134.647 89.9761C134.762 89.7134 134.836 89.5242 134.836 89.2248C134.82 87.0548 134.478 85.0005 133.196 83.1615C132.75 82.5153 131.883 82.3682 131.562 81.6168C131.909 80.7342 132.724 80.7342 133.38 80.876C134.594 81.1335 135.708 81.1492 136.764 80.4399C137.258 80.5135 137.316 80.8813 137.289 81.2701C137.205 82.3629 137.694 83.3192 137.925 84.349C138.246 84.5066 138.902 84.9059 139.748 84.6852C140.379 84.5171 140.647 85.8674 140.762 86.2037C141.235 87.575 138.114 89.871 138.603 91.2371C137.599 92.8816 136.69 94.2371 136.564 96.0498C136.401 98.3301 136.086 98.9553 133.9 99.486C133.307 99.6278 132.718 99.7802 132.125 99.9273H132.13Z" fill="#A9E1F8"/>
<path d="M87.4965 62.5655C87.1707 62.7705 86.845 62.9806 86.5245 63.1855C84.8432 61.8562 83.2512 60.3851 81.2126 59.5812C79.2528 58.4043 76.9988 57.942 74.934 57.0172C74.6765 56.9017 74.3981 56.8333 74.1511 56.702C73.5101 56.3552 73.032 55.8193 72.9532 55.0995C72.8639 54.3009 73.6625 54.2168 74.1406 53.8963C74.3665 53.744 74.7238 53.8385 74.8709 53.5285C78.7327 52.9874 82.5629 52.9716 86.309 54.2483C86.6716 55.152 86.1514 55.9612 86.0306 56.8123C83.95 56.4971 81.8694 56.1766 79.7887 55.8613C79.7415 55.9822 79.6994 56.103 79.6521 56.2239C82.1846 56.8911 84.1811 58.4884 86.3301 59.8229C86.7189 60.7371 87.1077 61.6513 87.4965 62.5655Z" fill="#0A0A0A"/>
<path d="M130.99 125.425C132.671 125.467 134.252 125.247 135.766 124.359C136.669 123.828 136.496 122.556 137.541 122.252C137.557 122.641 137.573 123.024 137.589 123.413C137.552 124.196 137.163 125.021 137.893 125.698C137.767 126.744 138.482 127.963 137.583 128.814C136.99 129.376 137.042 129.949 136.984 130.585C135.766 129.397 134.526 129.623 133.033 130.201C130.259 131.273 127.711 130.621 125.625 128.483C125.231 128.084 124.706 127.973 124.322 127.474C123.445 126.339 123.66 125.194 123.834 123.986C124.564 123.87 125.242 123.707 125.788 124.521C126.734 125.93 128.557 126.471 130.186 125.945C130.49 125.846 131.011 126.04 130.984 125.425H130.99Z" fill="#A8E0F7"/>
<path d="M14.885 105.927C14.1389 106.237 13.7186 105.57 13.1512 105.344C11.5119 104.677 9.96195 105.391 8.48555 105.828C6.61511 106.379 4.83923 107.283 3.05284 108.097C2.5432 108.329 2.25948 108.828 2.04406 109.406C1.5712 110.677 0.882913 111.88 0.488858 113.173C0.268186 113.893 -0.167902 113.998 -0.698563 114.161C-0.887709 114.087 -1.07686 114.013 -1.266 113.945C-1.30278 113.556 -1.23448 113.047 -1.89649 113.435C-2.05937 108.66 0.331235 105.328 4.85499 103.668C6.95137 102.901 9.03198 102.171 11.265 101.955C12.7361 103.043 13.7239 104.567 14.885 105.933V105.927Z" fill="#7ED4F8"/>
<path d="M11.3492 61.3939C13.4981 61.3467 15.7468 63.2329 15.8046 65.1348C15.8782 67.6988 14.097 69.6744 11.6592 69.7269C9.51024 69.7742 7.36658 67.7409 7.36133 65.6497C7.36133 63.4903 9.27906 61.4412 11.3492 61.3939Z" fill="#7ED4F8"/>
<path d="M111.607 51.1642C109.526 51.2535 107.955 50.3078 107.556 48.7315C107.104 46.9294 107.861 45.6999 109.647 44.4915C112.647 42.4634 113.625 43.7402 115.506 45.4688C116.152 46.0625 115.984 46.714 115.831 47.4338C115.311 49.9347 114.071 51.0591 111.607 51.1642Z" fill="#7ED4F8"/>
<path d="M128.168 110.199C127.843 110.22 127.406 110.377 127.228 110.094C126.96 109.673 127.475 109.405 127.695 109.19C129.314 107.645 130.764 106.006 131.331 103.763C131.442 103.321 131.804 103.379 132.13 103.363C133.007 103.694 133.948 103.542 134.82 103.7C136.165 103.936 136.564 103.337 136.711 102.228C136.764 101.855 136.848 101.488 136.869 101.115C136.911 100.463 137.342 100.521 137.783 100.573C137.542 102.207 137.442 103.852 137.752 105.481C137.941 106.463 137.62 107.383 137.494 108.297C137.258 110.02 137.295 111.696 137.563 113.393C136.859 113.404 136.88 112.768 136.585 112.369C135.902 111.434 135.844 110.067 134.478 109.553C134.006 109.374 133.675 110.351 133.212 109.463C132.351 107.819 129.519 108.328 128.163 110.204L128.168 110.199Z" fill="#A9E1F8"/>
<path d="M137.783 100.568C137.341 100.521 136.911 100.458 136.869 101.109C136.842 101.482 136.758 101.855 136.711 102.223C136.564 103.332 136.159 103.936 134.82 103.694C133.942 103.542 133.002 103.694 132.129 103.358C131.583 102.213 131.904 101.067 132.135 99.9219C132.728 99.7748 133.317 99.6225 133.911 99.4806C136.096 98.9552 136.412 98.33 136.574 96.0445C136.7 94.2318 136.779 92.3403 137.783 90.6958C137.783 93.9848 137.783 97.2739 137.788 100.563L137.783 100.568Z" fill="#DBF2FB"/>
<path d="M121.558 50.8963C121.543 49.4357 122.62 48.2272 123.954 48.222C125.998 48.2115 127.375 49.3726 127.443 51.1643C127.49 52.3569 126.024 53.6337 124.59 53.6547C122.641 53.681 121.579 52.7142 121.553 50.9016L121.558 50.8963Z" fill="#7ED4F8"/>
<path d="M128.168 110.199C129.529 108.329 132.355 107.814 133.217 109.458C133.685 110.346 134.01 109.369 134.483 109.548C135.844 110.062 135.902 111.428 136.59 112.364C136.879 112.763 136.863 113.393 137.567 113.388C137.851 115.29 138.54 117.171 137.867 119.12C137.678 117.155 136.632 115.542 135.723 113.861C134.483 111.565 130.763 109.716 128.168 110.194V110.199Z" fill="#DBF2FB"/>
<path d="M3.63593 72.6428C2.53783 72.6691 1.43447 71.7391 1.38193 70.7461C1.31888 69.5167 2.24885 68.4974 3.43102 68.5079C4.47133 68.5131 5.9162 69.6743 5.89518 70.4939C5.86366 71.8863 5.07029 72.4327 3.63593 72.6428Z" fill="#7ED4F8"/>
<path d="M137.893 125.704C137.168 125.026 137.552 124.196 137.589 123.418C138.618 124.059 138.161 124.895 137.893 125.704Z" fill="#DBF2FB"/>
<path d="M137.694 121.154C137.542 120.728 137.489 120.318 137.899 119.987C138.272 120.455 138.309 120.859 137.694 121.154Z" fill="#DBF2FB"/>
<path d="M138.156 84.4592C138.256 84.5328 138.356 84.6063 138.456 84.6799C138.282 84.7062 138.188 84.6221 138.156 84.4592Z" fill="#A9E1F8"/>
<path d="M86.3144 54.2484C82.5682 52.9716 78.738 52.9874 74.8762 53.5285C73.0846 51.9261 70.8779 52.1152 68.8236 52.4462C64.8882 53.0819 60.9424 53.7492 57.107 54.8999C55.8618 55.2729 54.7532 55.8141 53.9072 56.8176C49.7145 56.103 45.7266 56.8281 41.8859 58.5567C39.3745 59.6863 36.7579 60.6583 34.8875 62.8388C32.8121 61.7932 30.6054 61.1312 28.2936 61.1522C26.5966 61.168 24.8575 61.3256 23.3075 62.2083C21.2374 59.7231 18.437 57.7213 17.528 54.4533C16.4089 50.4286 16.4194 46.3778 18.3634 42.5423C18.8258 41.6281 19.2146 40.6823 19.74 39.7839C21.5369 36.7155 24.4844 35.1551 27.5581 34.0517C30.8314 32.88 34.1992 31.9763 37.7615 31.6506C41.2975 31.3248 44.8229 31.6611 48.3379 31.3196C49.1733 31.2408 50.0823 31.6558 50.9229 31.9501C52.7093 32.5753 54.4274 33.2216 56.3872 33.416C58.0002 33.5736 59.0983 33.0272 60.2489 32.2758C63.953 29.8695 67.9461 28.2354 72.307 27.4736C74.3929 27.1111 76.4209 26.4438 78.5751 26.5384C82.915 26.7223 87.1918 27.3002 91.3215 28.6873C92.1096 28.95 92.924 29.4386 93.4704 30.0481C94.1114 30.7626 95.1097 30.563 95.7139 31.2723C97.432 33.2951 99.6597 34.9659 100.574 37.5509C101.278 39.5422 101.341 41.6438 101.147 43.8033C100.915 46.3935 99.5073 48.2429 98.0099 50.1239C96.7227 49.7509 95.593 49.0363 94.2007 48.7999C92.7296 48.5477 91.8994 49.1309 90.7751 49.8139C88.8836 50.9593 87.6174 52.6038 86.2986 54.2536L86.3144 54.2484ZM47.2766 48.6423C49.6357 48.5477 51.6532 47.707 53.3451 46.0205C54.5115 44.8541 54.8477 42.2743 53.8442 41.0028C53.5027 40.572 52.9037 40.283 52.7146 39.8102C52.2785 38.7016 51.4378 38.1289 50.4606 37.614C48.0437 36.3425 45.5112 35.3652 42.8106 34.9922C38.4287 34.388 36.8052 36.0115 37.1888 39.9415C37.6196 44.3497 42.7896 48.595 47.2766 48.6423ZM71.5924 44.1343C73.5312 43.9714 75.3754 44.2656 76.5418 42.6316C77.5401 41.234 78.3334 39.7103 79.0007 38.1131C79.4263 37.1043 79.4998 36.1796 79.2424 35.0868C78.8168 33.2951 77.6924 31.9606 76.4577 30.8204C75.8588 30.274 74.9918 29.549 73.8097 29.7959C68.8288 30.8415 64.3471 36.4476 64.51 41.5177C64.5362 42.3058 64.8042 42.8365 65.5713 43.1833C67.5888 44.1027 69.7798 43.7244 71.5977 44.1238L71.5924 44.1343ZM62.8865 43.1518C62.0038 40.882 61.5834 38.3495 59.3347 36.8206C58.8513 36.4896 58.3522 36.1008 57.8215 36.6314C57.3487 37.1096 57.086 37.6455 57.3959 38.4178C58.6727 41.5808 59.6867 44.8331 60.5642 48.1274C60.6692 48.5162 60.9162 48.7368 61.2052 49.01C62.1088 49.8665 62.897 49.0205 63.5117 48.7263C64.3839 48.306 64.3734 47.2762 64.2105 46.32C64.0108 45.1536 63.2175 44.2656 62.8917 43.157L62.8865 43.1518Z" fill="#FEFDFC"/>
<path d="M116.121 107.651C115.89 107.95 116.242 108.465 115.49 108.638C114.608 108.843 114.487 110.152 115.133 111.05C115.322 111.313 115.669 111.476 115.816 111.754C116.199 112.479 117.524 113.246 115.758 113.982C115.469 114.103 115.385 114.712 115.212 115.096C114.135 113.63 113.772 111.833 112.931 110.257C111.77 108.087 110.546 105.959 109.243 103.873C108.818 103.19 108.77 102.213 108.665 101.314C108.529 100.116 109.028 99.6487 109.737 99.0445C111.014 97.9621 112.254 96.8378 113.509 95.7292C113.662 95.5978 113.809 95.4717 113.961 95.3456L113.956 95.3351C115.312 95.146 116.646 94.7467 117.818 94.1162C121.107 92.3403 124.002 93.2598 126.807 95.1565C127.669 95.7397 128.2 96.6381 128.347 97.6416C128.762 100.537 128.42 103.279 126.161 105.402C125.504 106.017 125.047 106.773 124.385 107.398C123.382 108.349 122.536 108.418 121.511 107.666C120.266 106.747 118.611 106.374 118.075 104.556C117.602 102.954 118.637 100.127 120.182 99.5016C121.144 99.1128 122.215 100.248 121.984 101.54C121.848 102.297 121.926 103.011 122.573 103.253C123.266 103.51 124.123 103.857 124.874 103.269C125.573 102.717 125.525 102.055 125.258 101.235C124.701 99.5436 123.981 97.9516 122.452 96.9639C120.408 95.6398 117.723 96.47 116.651 97.9937C115.364 99.8273 114.124 101.635 114.376 104.078C114.46 104.882 114.597 105.56 115.17 106.116C115.622 106.553 115.874 107.109 116.115 107.672L116.121 107.651Z" fill="#DBF2FB"/>
<path d="M18.7413 123.991C18.1949 123.891 17.7588 124.101 17.2754 124.364C14.9899 125.63 12.4522 126.077 10.0353 125.246C6.76728 124.122 5.01242 121.401 4.14549 118.153C3.46246 115.59 4.71819 113.667 6.51508 112.032C7.27692 111.339 9.32601 111.575 9.93023 112.427C10.2455 112.868 10.4031 113.603 9.73583 113.898C8.70603 114.35 7.73402 114.98 7.37675 115.952C6.97218 117.055 7.25065 118.353 7.78657 119.399C9.13161 122.036 11.1124 123.05 14.0757 122.399C16.8551 121.789 18.074 119.588 19.6187 117.66C19.913 117.292 20.1809 116.903 20.4594 116.519C20.3018 118.973 19.4611 121.285 18.9567 123.67C18.8832 123.781 18.8044 123.891 18.7308 124.001L18.7413 123.991Z" fill="#7ED4F8"/>
<path d="M121.821 79.7253C120.392 82.883 121.023 85.9987 122.084 89.0723C122.368 89.8972 122.431 90.2703 121.38 90.2335C119.945 90.1809 118.642 90.9008 117.234 91.0426C116.756 90.0496 117.476 89.23 117.849 88.5364C119.199 86.0197 119.672 83.1983 120.807 80.6133C121.038 80.0879 121.143 79.636 121.826 79.7201L121.821 79.7253Z" fill="#E0D9FC"/>
<path d="M21.048 114.654C20.8063 112.789 20.139 111.108 18.9989 109.6C18.6679 109.164 18.1425 108.807 18.153 108.16C19.1197 108.523 19.8973 109.206 21.0322 109.364C22.0515 109.505 22.2301 110.856 21.9832 111.618C21.6627 112.621 21.6785 113.745 21.048 114.649V114.654Z" fill="#7CD2F7"/>
<path d="M17.8956 128.305C17.8798 127.974 17.822 127.627 18.1951 127.432C18.1846 127.753 18.2949 128.121 17.8956 128.305Z" fill="#A9E1F8"/>
<path d="M117.245 91.0374C117.119 91.3684 116.84 91.3421 116.562 91.3211C116.714 91.0426 116.888 90.822 117.245 91.0374Z" fill="#E0D9FC"/>
<path d="M113.956 95.3351C113.803 95.4612 113.656 95.5926 113.504 95.7187C113.52 95.435 113.693 95.3299 113.956 95.3351Z" fill="#7BD3F8"/>
<path d="M130.99 125.425C131.016 126.04 130.49 125.845 130.191 125.945C128.562 126.476 126.744 125.935 125.793 124.521C125.242 123.702 124.569 123.87 123.839 123.986C123.287 123.938 123.25 123.555 123.287 123.129C123.618 121.658 123.86 120.192 123.066 118.779C123.991 116.278 125.746 114.586 128.084 113.357C129.482 112.621 130.737 113.12 131.715 113.803C133.06 114.738 134.305 115.942 134.515 117.796C134.694 119.415 134.184 121.621 132.797 122.047C131.163 122.551 130.091 121.826 130.117 120.098C130.128 119.509 130.701 118.894 129.939 118.269C128.783 117.318 127.926 117.323 127.123 118.605C126.466 119.646 126.45 120.796 127.091 121.858C128.037 123.423 129.229 124.742 130.995 125.425H130.99Z" fill="#DBF4FE"/>
<path d="M136.769 80.4451C135.713 81.1544 134.594 81.1386 133.385 80.8812C132.728 80.7393 131.909 80.7393 131.567 81.622C127.895 81.2227 126.713 82.5835 125.462 85.2105C125.199 85.7622 125.052 86.4032 125.741 86.8393C126.439 87.2806 127.18 87.5801 128 87.2123C128.515 86.9812 128.105 86.5451 128.157 86.2088C128.693 86.151 128.788 85.6887 128.972 85.3104C129.072 85.2946 129.177 85.2736 129.277 85.2578C130.627 86.2246 130.359 87.2806 129.361 88.2737C128.578 89.0513 127.695 89.729 126.686 90.2124C125.84 90.1599 125.378 89.7238 125.031 88.9199C123.807 86.109 123.434 83.2245 124.931 80.5081C125.977 78.6062 127.916 77.5554 130.049 76.9564C132.214 76.3522 135.177 77.3084 136.438 79.0843C136.732 79.4994 136.758 79.9722 136.769 80.4504V80.4451Z" fill="#DBF4FE"/>
<path d="M126.692 90.2071C127.706 89.729 128.583 89.046 129.366 88.2684C130.364 87.2754 130.632 86.2245 129.282 85.2525C130.522 84.3015 130.638 84.3751 131.289 85.6886C132.498 88.116 131.673 89.6187 130.207 90.8271C128.841 91.9515 127.737 91.7518 126.692 90.2019V90.2071Z" fill="#A9E1F8"/>
<path d="M123.061 118.779C123.854 120.192 123.613 121.658 123.282 123.129C122.819 121.7 122.625 120.255 123.061 118.779Z" fill="#A8E0F7"/>
<path d="M128.982 85.3105C128.798 85.6887 128.704 86.1459 128.168 86.2089C128.047 85.5521 128.336 85.2684 128.982 85.3105Z" fill="#A9E1F8"/>
<path d="M63.5061 58.1257C63.69 57.3797 64.0316 56.5968 64.9195 56.7282C65.592 56.828 66.4327 57.1695 66.3171 58.173C66.212 59.0715 65.5342 59.5864 64.7671 59.4445C64.2732 59.3499 63.1962 59.2659 63.5114 58.1205L63.5061 58.1257Z" fill="#0A0A0A"/>
<path d="M34.7662 70.3152C34.7505 74.2557 31.4194 75.5219 28.6347 75.2697C26.8641 75.1121 26.0234 73.6725 24.7152 72.9002C24.442 72.7373 24.2371 72.0963 24.3159 71.7495C24.6048 70.5306 24.1898 69.3169 24.4367 68.0979C24.6679 66.9683 24.9148 65.9648 26.3334 65.8965C26.5594 65.886 26.8588 65.8072 26.9902 65.6495C28.4246 63.9052 30.0428 64.5724 31.7136 65.1977C33.521 65.8755 34.3354 67.1995 34.493 69.0279C34.535 69.5008 34.8661 69.9211 34.7557 70.3046L34.7662 70.3152Z" fill="#A8DEF5"/>
<path d="M89.7504 57.6005C89.6348 54.6267 91.1217 52.7877 94.0062 52.3779C94.8416 52.2623 95.5141 52.4462 96.0921 53.2448C98.2095 56.1819 98.22 56.8859 96.4441 60.0121C95.7873 61.1732 94.7523 61.4517 93.733 61.4885C90.9221 61.5831 89.8607 60.4587 89.7504 57.6005Z" fill="#A8DEF5"/>
<path d="M86.3351 59.8175C84.1915 58.483 82.1949 56.8805 79.6572 56.2185C79.7045 56.0976 79.7465 55.9768 79.7938 55.856C81.8744 56.1712 83.9551 56.4917 86.0357 56.8069C86.1355 57.8105 86.2353 58.814 86.3351 59.8175Z" fill="#DBF2FB"/>
<path d="M47.2764 48.6423C42.7895 48.595 37.6194 44.3497 37.1886 39.9416C36.8051 36.0063 38.4286 34.3828 42.8105 34.9922C45.5058 35.3653 48.0435 36.3425 50.4604 37.614C51.4324 38.1289 52.2783 38.7016 52.7144 39.8102C52.8983 40.2831 53.5025 40.5721 53.844 41.0029C54.8475 42.2744 54.5165 44.8541 53.3449 46.0205C51.6531 47.7071 49.6355 48.5477 47.2764 48.6423Z" fill="#FECF79"/>
<path d="M71.592 44.1342C69.7741 43.7296 67.5832 44.1132 65.5656 43.1937C64.8038 42.8469 64.5306 42.3163 64.5043 41.5282C64.3414 36.458 68.8284 30.8466 73.804 29.8063C74.9809 29.5594 75.8531 30.2844 76.4521 30.8309C77.692 31.971 78.8111 33.3055 79.2367 35.0972C79.4942 36.19 79.4206 37.1095 78.995 38.1235C78.3278 39.7155 77.5344 41.2392 76.5361 42.642C75.375 44.276 73.5255 43.9818 71.5868 44.1447L71.592 44.1342Z" fill="#FECF79"/>
<path d="M62.8863 43.1518C63.2173 44.2604 64.0054 45.1483 64.205 46.3148C64.3679 47.271 64.3784 48.3008 63.5062 48.7211C62.8915 49.0153 62.1034 49.8612 61.1997 49.0048C60.916 48.7316 60.6638 48.511 60.5587 48.1221C59.676 44.8278 58.6672 41.5756 57.3905 38.4126C57.0805 37.6455 57.3432 37.1044 57.8161 36.6262C58.3467 36.0956 58.8459 36.4844 59.3293 36.8154C61.5727 38.3496 61.9983 40.8768 62.881 43.1465L62.8863 43.1518Z" fill="#ECBB73"/>
</g>
<circle cx="70" cy="70" r="68.5" stroke="#FFE9BA" stroke-width="3"/>
</svg>
