<svg width="28" height="28" viewBox="0 0 28 28" fill="none" xmlns="http://www.w3.org/2000/svg">
<path fill-rule="evenodd" clip-rule="evenodd" d="M4.06708 22.7804L4.0651 22.7723C4.12969 22.594 4.2314 22.6198 4.32115 22.6607C4.38612 22.6903 4.38415 22.7653 4.38258 22.8252C4.38235 22.834 4.38213 22.8425 4.38213 22.8505C4.38213 22.9577 4.4431 23.0514 4.53795 23.0334C5.01673 22.943 5.41194 23.2107 5.6502 23.5133C5.79957 23.7027 5.9878 23.78 6.16726 23.8537L6.16728 23.8537C6.24558 23.8858 6.3222 23.9173 6.3932 23.9571C6.74284 24.1524 7.13979 24.2643 7.53598 24.3761L7.53607 24.3761C7.67342 24.4148 7.81067 24.4535 7.94583 24.4957C8.00533 24.5142 8.06649 24.5352 8.12831 24.5565L8.12844 24.5566C8.34933 24.6326 8.57847 24.7115 8.76901 24.6876C9.04611 24.6539 9.2993 24.7164 9.54234 24.7764L9.54235 24.7764C9.61623 24.7946 9.68917 24.8127 9.76156 24.8277C10.091 24.896 10.4209 24.9296 10.7503 24.9631L10.7504 24.9632C10.911 24.9795 11.0715 24.9959 11.2318 25.0162C11.6085 25.0633 11.989 25.0847 12.3691 25.1061C12.4994 25.1135 12.6296 25.1208 12.7595 25.1291C12.8432 25.1348 12.9293 25.1247 13.0126 25.115L13.0126 25.115C13.1305 25.1012 13.2425 25.0881 13.3332 25.1212C13.5796 25.2107 13.8127 25.1625 14.0409 25.1153L14.0409 25.1153C14.1441 25.094 14.2463 25.0729 14.3483 25.0648C14.3826 25.0619 14.4175 25.0593 14.4528 25.0567C14.6955 25.0388 14.9605 25.0192 15.2178 24.892C15.4274 24.7887 15.6829 24.7612 15.9385 24.7337L15.9386 24.7337C16.0574 24.7209 16.1762 24.7081 16.2905 24.6876C16.5958 24.6334 16.8879 24.541 17.18 24.4487C17.4292 24.3699 17.6784 24.2911 17.9357 24.236C18.5399 24.106 19.119 23.8312 19.6852 23.5624L19.7865 23.5144C19.8804 23.4698 19.9747 23.4259 20.0692 23.3818C20.6903 23.0922 21.3152 22.801 21.8337 22.3344C21.9051 22.2696 21.986 22.2123 22.0653 22.1561L22.0653 22.1561L22.0653 22.1561C22.1628 22.0871 22.2578 22.0198 22.3294 21.9426C22.4369 21.8266 22.5482 21.7145 22.6598 21.6022L22.6598 21.6022C22.9067 21.3536 23.1545 21.104 23.3637 20.81C23.5763 20.5113 23.7568 20.1974 23.937 19.884L23.9371 19.884L23.9371 19.8839C24.0594 19.6713 24.1815 19.4589 24.3134 19.2517C24.4953 18.9657 24.5778 18.6489 24.6602 18.332L24.6602 18.332C24.6949 18.1986 24.7297 18.0651 24.7718 17.934C24.861 17.6585 24.9412 17.375 24.9728 17.0894C25.0071 16.7789 25.0012 16.4661 24.9954 16.1535V16.1534C24.9931 16.034 24.9909 15.9146 24.9909 15.7953C24.9898 14.8874 24.8915 14.001 24.5482 13.1541C24.3602 12.69 24.0435 12.3137 23.7264 11.9369C23.6894 11.8929 23.6524 11.8489 23.6155 11.8048C22.9211 10.9726 22.1803 10.2341 21.0715 9.93935C20.7824 9.86257 20.4504 9.60285 20.3014 9.26523C20.1357 8.89117 19.9796 8.51278 19.8235 8.13415L19.8233 8.13384C19.74 7.93194 19.6567 7.72997 19.5719 7.52854C19.5463 7.46819 19.5168 7.40913 19.4873 7.3501L19.4873 7.35007C19.444 7.26332 19.4007 7.17661 19.3698 7.0859C19.2095 6.60825 18.9351 6.19836 18.6336 5.80202C18.5727 5.72225 18.5068 5.64552 18.4409 5.56877C18.2904 5.39344 18.1398 5.21799 18.0487 5.00594C17.9486 4.7714 17.7624 4.62911 17.582 4.49119L17.5552 4.47071C17.463 4.39996 17.3706 4.3296 17.2781 4.25923L17.278 4.25914L17.278 4.25911C17.0931 4.11836 16.9081 3.97761 16.7252 3.83385C16.4802 3.64076 16.2013 3.48267 15.9235 3.32684C15.7373 3.22158 15.5423 3.19221 15.3486 3.16303C15.2098 3.14212 15.0716 3.12132 14.9377 3.07278C14.4691 2.9034 14.0005 3.05358 13.6189 3.27829C13.1437 3.55808 12.7084 3.90956 12.2754 4.25914L12.2753 4.25919C12.1928 4.32579 12.1104 4.39233 12.0278 4.45829C11.6496 4.76091 11.4181 4.7993 10.9867 4.61524C10.8555 4.55923 10.7546 4.47352 10.6537 4.38788C10.6184 4.35784 10.583 4.32781 10.5463 4.29907C10.0066 3.87788 9.43297 3.53687 8.76675 3.33588C8.60302 3.28633 8.44843 3.29477 8.29542 3.30314C8.20783 3.30792 8.12075 3.31268 8.03278 3.30652C7.81824 3.29184 7.50997 3.30652 7.36995 3.40588C7.21032 3.51901 7.03669 3.59366 6.86426 3.66779C6.72688 3.72686 6.59027 3.7856 6.46208 3.8632C6.4223 3.8873 6.35776 3.90027 6.30256 3.91137C6.24653 3.92263 6.20012 3.93196 6.19898 3.94902C6.18205 4.17599 5.96637 4.34198 5.867 4.40521C5.31664 4.75209 4.99663 5.2742 4.67627 5.7969L4.60796 5.90816C4.52983 6.03525 4.47289 6.17602 4.41595 6.31675C4.35604 6.46483 4.29615 6.61287 4.21162 6.74488C4.18865 6.78075 4.18509 6.82782 4.18161 6.87401C4.1758 6.95091 4.17017 7.02533 4.07543 7.04137L4.07273 7.03734C4.072 7.03978 4.06926 7.04154 4.0657 7.04278C4.06074 7.04337 4.05556 7.04382 4.05014 7.04412C4.0289 7.045 4.05277 7.04728 4.0657 7.04278L4.07543 7.04137C4.13251 7.12865 4.06854 7.18334 4.01575 7.22845C3.9782 7.26055 3.94631 7.28781 3.96771 7.31851C4.03172 7.40974 3.99458 7.46694 3.95905 7.52165C3.94006 7.5509 3.92152 7.57944 3.91916 7.6121C3.90773 7.76442 3.82327 7.88625 3.73766 8.00971C3.6202 8.17913 3.50058 8.35164 3.56459 8.6103C3.63235 8.88695 3.47765 9.21103 3.30488 9.45719C3.27826 9.49527 3.29204 9.55221 3.30544 9.60761C3.32899 9.70496 3.35139 9.79752 3.15131 9.77449C3.16464 9.80669 3.17894 9.83866 3.19325 9.87066C3.2226 9.93627 3.25201 10.002 3.27327 10.0703C3.31758 10.211 3.2914 10.3466 3.26463 10.4854C3.24022 10.6119 3.21532 10.741 3.24278 10.8788C3.27675 11.0476 3.25993 11.2273 3.24317 11.4064C3.22539 11.5963 3.20767 11.7856 3.25068 11.9606C3.30813 12.1935 3.29292 12.4203 3.27771 12.6471C3.26512 12.8349 3.25253 13.0227 3.28117 13.214C3.33791 13.5943 3.13611 13.925 2.93925 14.2476C2.87365 14.3551 2.80859 14.4618 2.75384 14.569C2.55849 14.9518 2.40153 15.3301 2.30668 15.7445C2.26152 15.9421 2.19263 16.142 2.12714 16.3238C2.02349 16.6081 2.00473 16.8924 1.98587 17.1781L1.98587 17.1781C1.98234 17.2317 1.9788 17.2853 1.9747 17.3389C1.96506 17.4589 1.97209 17.5812 1.97909 17.7031C1.9885 17.8668 1.99786 18.0298 1.9668 18.1858C1.91031 18.4682 1.99053 18.7378 2.06357 18.9832L2.06359 18.9833C2.0796 19.0371 2.09527 19.0897 2.10908 19.1411C2.18473 19.4222 2.33604 19.7418 2.49864 20.0252C2.54496 20.1059 2.58482 20.1905 2.62487 20.2754C2.67954 20.3914 2.73457 20.5081 2.80691 20.6169C2.8599 20.6966 2.90138 20.7832 2.94296 20.87C2.99975 20.9885 3.05671 21.1074 3.14341 21.2097C3.24649 21.3325 3.32468 21.4753 3.40074 21.6143L3.40074 21.6143L3.40076 21.6144C3.42967 21.6672 3.45827 21.7194 3.48781 21.7698C3.53479 21.8504 3.6073 21.9133 3.67781 21.9746C3.78523 22.0679 3.88799 22.1572 3.88867 22.2983C3.8898 22.5015 3.944 22.5512 4.12354 22.5772C4.14085 22.5795 4.13432 22.586 4.12018 22.6C4.09443 22.6255 4.04346 22.676 4.0651 22.7723L4.06144 22.7827L4.06708 22.7804ZM8.56576 14.2845C8.46025 14.4239 8.34458 14.4991 8.23855 14.568C8.1789 14.6068 8.12231 14.6436 8.0723 14.6887C7.91597 14.8288 7.74524 14.9514 7.57462 15.0738C7.3287 15.2503 7.08301 15.4266 6.88101 15.6553C6.56597 16.0132 6.56032 16.3667 6.8573 16.5293C7.10798 16.6659 7.35414 16.667 7.62176 16.5293C7.87481 16.3996 8.09988 16.2297 8.32466 16.0599C8.54221 15.8957 8.75949 15.7316 9.00162 15.6045C9.26006 15.4684 9.48261 15.284 9.70475 15.0999C9.88444 14.951 10.0639 14.8024 10.2618 14.6797C10.5396 14.508 10.7959 14.3138 11.0409 14.1004C11.3176 13.8588 11.3424 13.6894 11.1629 13.363C11.0488 13.1541 10.6581 12.9825 10.3566 13.0435C9.77963 13.1609 9.19132 13.179 8.60979 13.1959C7.90292 13.2162 7.21412 13.31 6.52984 13.4669C6.26109 13.529 6.02057 13.8599 6.11994 14.1117C6.20011 14.3149 6.39095 14.4324 6.65066 14.4098C7.07101 14.3742 7.4919 14.3492 7.93624 14.3228C8.14003 14.3107 8.34876 14.2983 8.56463 14.2845H8.56576ZM18.6449 11.597L18.6347 11.5349C18.7577 11.4481 18.8811 11.3617 19.0044 11.2754C19.3463 11.0361 19.688 10.7969 20.0225 10.548C20.1964 10.4181 20.3838 10.2713 20.2596 9.99242C20.1659 9.78126 19.9107 9.66044 19.6385 9.7169C19.6111 9.72259 19.5844 9.72974 19.5585 9.73812C19.5844 9.72977 19.6109 9.72266 19.6383 9.71698C19.9105 9.66052 20.1657 9.78135 20.2594 9.9925C20.3836 10.2714 20.1962 10.4182 20.0223 10.5481C19.6878 10.797 19.3461 11.0362 19.0042 11.2755L19.0041 11.2755C18.8808 11.3619 18.7575 11.4482 18.6345 11.535L18.6446 11.5971L18.6448 11.5971L18.6449 11.597ZM21.1627 11.6716L21.1628 11.6715L21.1629 11.6715C21.3759 11.7216 21.3706 11.8988 21.3654 12.072C21.3631 12.1486 21.3609 12.2244 21.3775 12.2881C21.4078 12.4056 21.3021 12.5351 21.1663 12.6079C21.302 12.5351 21.4076 12.4056 21.3773 12.2881C21.3607 12.2245 21.3629 12.1487 21.3652 12.0721C21.3704 11.8989 21.3757 11.7217 21.1627 11.6716ZM14.1923 14.1997C13.9331 14.145 13.6982 13.9385 13.7002 13.7458C13.7036 13.4082 14.074 13.039 14.3935 13.0536C14.3988 13.0539 14.4041 13.0542 14.4094 13.0547C14.404 13.0542 14.3988 13.0539 14.3935 13.0536C14.0739 13.039 13.7035 13.4082 13.7002 13.7458C13.6982 13.9385 13.9331 14.145 14.1923 14.1997Z" fill="#FFDEE4"/>
<path d="M25.0326 14.107C25.0273 14.1038 25.0209 14.1006 25.0156 14.0974C25.022 14.0889 25.0273 14.0793 25.0337 14.0708C25.039 14.0772 25.0497 14.0836 25.0497 14.0889C25.0497 14.0953 25.039 14.1006 25.0326 14.107Z" fill="#FFDEE4"/>
<path d="M10.3563 13.0435C9.77924 13.1609 9.19094 13.179 8.60941 13.1959C7.90254 13.2162 7.21374 13.31 6.52945 13.4669C6.2607 13.529 6.02019 13.8599 6.11956 14.1117C6.19973 14.3149 6.39056 14.4324 6.65027 14.4098C7.26342 14.3578 7.8777 14.3285 8.56424 14.2844C8.39938 14.5024 8.20968 14.5634 8.07079 14.6887C7.68912 15.0308 7.22164 15.268 6.8795 15.6553C6.56445 16.0132 6.55881 16.3667 6.85578 16.5293C7.10646 16.6659 7.35262 16.667 7.62024 16.5293C8.11821 16.2741 8.50778 15.863 9.00011 15.6045C9.46759 15.3583 9.81764 14.9541 10.2603 14.6797C10.5381 14.508 10.7944 14.3138 11.0394 14.1004C11.3161 13.8587 11.3409 13.6894 11.1614 13.363C11.0473 13.1541 10.6566 12.9825 10.3551 13.0435H10.3563Z" fill="#FFDEE4"/>
<path d="M13.6933 14.0004C13.3738 13.9857 13.0034 14.355 13 14.6926C12.9978 14.9128 13.3049 15.1511 13.6041 15.1601C13.9847 15.1714 14.232 14.9422 14.2523 14.5582C14.2658 14.3143 13.9632 14.0128 13.6933 14.0004Z" fill="#EA5C83"/>
<path d="M21.2309 9.75967C21.4096 9.82455 21.5723 9.74265 21.7298 9.76073C22.0872 9.80115 22.4754 9.81498 22.7509 10.0681C22.9179 10.2213 23.0828 10.3756 23.2562 10.5255C23.4519 10.6947 23.3487 11.1797 23.0668 11.3488C22.9307 11.4307 22.97 11.4637 23.0488 11.5158C23.2402 11.6424 23.3806 11.8116 23.6242 11.9073C23.9359 12.0296 24.3263 12.1838 24.3965 12.6551C24.4252 12.8497 24.6581 13.0061 24.7666 13.1976C24.9677 13.5518 25.0709 13.9464 25.1592 14.34C25.2049 14.5421 25.2177 14.7676 25.2783 14.9548C25.4059 15.3548 25.1772 15.6707 25.1177 16.0228C25.0932 16.1642 24.8549 16.1313 24.8294 16.3376C24.7975 16.6003 24.9347 16.8067 25.1677 16.6929C25.4602 16.5514 25.4889 16.8152 25.5942 16.9163C25.7676 17.0854 25.6431 17.3311 25.6548 17.5417C25.6591 17.6204 25.574 17.6992 25.6197 17.8077C25.6474 17.8725 25.5102 18.0034 25.4272 18.0502C25.2262 18.1651 25.1049 18.3714 24.9517 18.531C24.7135 18.7799 24.4241 18.8682 24.1327 18.8916C23.5445 18.9384 22.9583 19.0596 22.3648 19.0107C21.5415 18.9426 20.7565 18.765 20.0427 18.3055C19.4822 17.9438 18.9758 17.5439 18.6248 16.9684C18.3504 16.5184 18.1749 16.0259 18.0536 15.5186C17.9047 14.8952 17.8398 14.257 17.9717 13.6241C18.1217 12.905 18.4153 12.236 18.8003 11.6126C19.0556 11.1999 19.2545 10.7447 19.6417 10.4224C19.8747 10.2288 20.1332 10.0905 20.4214 10.0033C20.6948 9.92135 20.9692 9.83838 21.2309 9.75967ZM25.0326 14.107C25.039 14.1006 25.0485 14.0953 25.0496 14.0889C25.0496 14.0826 25.039 14.0762 25.0336 14.0709C25.0273 14.0794 25.0219 14.0889 25.0156 14.0975C25.0209 14.1006 25.0273 14.1038 25.0326 14.107Z" fill="#FFACBC"/>
<path d="M2.22852 17.5735C2.23596 17.266 2.27213 16.964 2.33382 16.6619C2.37531 16.4598 2.20405 16.2864 2.14236 16.096C2.06151 15.8428 2.1264 15.6013 2.26255 15.5003C2.63485 15.2237 2.85078 14.8025 3.22308 14.5387C4.10063 13.9164 5.07605 13.6314 6.15358 13.6697C6.79181 13.692 7.4045 13.8143 7.99379 14.0505C8.79476 14.3717 9.46277 14.8961 10.0159 15.5386C10.418 16.0056 10.6999 16.5555 10.8339 17.1873C10.9413 17.6936 11.0509 18.1947 11.0636 18.7106C11.0785 19.2658 10.9062 19.786 10.7307 20.304C10.4488 21.1358 10.0148 21.8687 9.33299 22.4346C8.98516 22.7239 8.60542 22.9643 8.17356 23.1175C7.79913 23.2504 7.46619 23.5387 7.06199 23.5387C6.45142 23.5387 5.82703 23.611 5.23242 23.3834C5.08775 23.3281 4.95692 23.2398 4.93564 23.1005C4.88246 22.7569 4.63142 22.5888 4.36443 22.4995C3.8847 22.3399 3.62729 21.9719 3.4539 21.5634C3.18266 20.9262 2.81142 20.3359 2.58379 19.6796C2.34659 18.9967 2.21362 18.2978 2.22852 17.5735Z" fill="#FFACBC"/>
<path d="M25.9984 16.2821C26.0165 14.7706 25.8899 13.1761 25.1006 11.8539C24.8698 11.4529 24.6209 11.0529 24.3444 10.6913C24.054 10.3168 23.7253 10.0552 23.3966 9.73179C23.036 9.37226 22.602 8.99996 22.0978 8.83934C21.4213 8.6415 21.2022 8.35855 21.0203 7.6948C20.732 6.80661 20.2278 6.01627 19.7045 5.25254C19.4215 4.83875 19.0843 4.46433 18.712 4.12714C17.9696 3.40701 17.1473 2.7624 16.1613 2.42627C15.2518 2.12205 14.2328 1.7689 13.3084 2.20183C12.8638 2.38798 12.4362 2.6071 12.0511 2.8943C11.6171 3.25171 11.3002 3.34212 10.813 3.07726C10.1524 2.79432 9.43441 2.47201 8.72386 2.38373C7.8963 2.36883 7.04321 2.56562 6.28691 2.88367C5.76463 3.12938 5.29873 3.49636 4.87325 3.87929C3.57021 5.11957 2.56289 7.74373 2.2576 9.50416C2.14698 10.2328 2.16931 10.9806 2.20123 11.7103C2.20867 12.1815 2.37035 12.6602 2.281 13.1261C2.17463 13.6164 1.78532 14.0749 1.60662 14.5706C1.21092 15.4843 1.03009 16.481 1.012 17.4702C0.883296 19.2987 1.80978 21.0166 2.8203 22.4728C3.20855 23.0419 3.78614 23.4174 4.35097 23.794C4.66796 24.0163 4.97856 24.2492 5.31256 24.4449C6.07417 24.896 6.87089 25.2725 7.74525 25.4767C8.29731 25.6044 8.85469 25.7012 9.40782 25.8224C10.7055 26.1139 12.0437 26.1905 13.3701 26.1777C15.0125 26.1086 16.6155 25.7022 18.1621 25.1693C19.2471 24.8172 20.2885 24.3226 21.2607 23.7291C21.6819 23.4663 22.0382 23.1174 22.4191 22.7983C22.8382 22.4473 23.2892 22.1239 23.6615 21.7208C24.3943 20.89 24.9592 19.9061 25.4378 18.9137C25.8006 18.0968 25.9984 17.1947 25.9995 16.3023V16.281L25.9984 16.2821ZM4.5786 7.43313C4.58392 7.43313 4.58818 7.43207 4.5935 7.431C4.5818 7.43526 4.55839 7.43419 4.5786 7.43313ZM24.2837 16.9139C24.1391 17.8819 23.8061 18.8222 23.2711 19.6466C22.7009 20.6624 21.8936 21.5102 20.9341 22.1697C20.2746 22.6154 19.5353 22.926 18.8142 23.2579C18.1834 23.5451 17.5154 23.7014 16.8516 23.8971C16.5591 23.9833 16.2634 24.0535 15.9634 24.1056C15.3252 24.2099 14.7295 24.4141 14.0977 24.4811C12.6883 24.5737 11.231 24.4301 9.84181 24.195C9.22167 24.0939 8.58558 24.0429 7.97927 23.8344C7.39423 23.6536 6.79643 23.4653 6.305 23.1228C5.96036 22.8526 5.53807 22.6175 5.14875 22.4558C4.51691 22.242 4.35629 21.707 3.98931 21.2177C3.5032 20.4954 3.05325 19.6976 2.75542 18.8658C2.53948 18.1574 2.59161 17.3777 2.66926 16.6416C2.80328 15.9279 3.01496 15.2194 3.33513 14.5663C3.54362 14.1642 3.77657 13.7558 3.81274 13.2973C3.87975 12.5368 3.77232 11.7677 3.81593 11.0082C3.82657 10.6647 3.79465 10.3094 3.84465 9.97857C3.91911 9.60628 4.04569 9.25844 4.12015 8.87445C4.2212 8.40323 4.40948 8.0054 4.5669 7.57354C4.80943 6.9034 5.14556 6.13966 5.64337 5.52803C6.21671 4.87598 6.86025 4.27499 7.70377 4.00162C8.6728 3.64741 9.71736 4.08246 10.5034 4.67069C11.2895 5.27806 11.7544 5.26317 12.5085 4.62282C13.1829 4.09948 13.9094 3.48253 14.8104 3.65379C15.4582 3.73782 16.0592 4.01438 16.5729 4.41008C16.9697 4.70473 17.3782 4.99406 17.6834 5.38337C17.9377 5.70461 18.1717 6.04287 18.4174 6.37049C18.8344 6.93 19.0843 7.58098 19.3556 8.21389C19.6726 8.93082 19.8938 9.8254 20.6884 10.1434C21.9521 10.6051 22.8903 11.6188 23.637 12.7229C24.3795 13.9632 24.3731 15.4928 24.2859 16.8916L24.2837 16.9118V16.9139Z" fill="#EA5C83"/>
<path d="M10.945 13.8646C9.99996 13.4999 9.50004 13.5001 9 13.5C8.5 13.5 7.82078 13.518 7.11873 13.5205C6.8429 13.5219 6.53547 13.7917 6.57699 14.0592C6.61047 14.2752 6.77078 14.4317 7.0291 14.4668C7.63864 14.5511 8.24432 14.6576 8.92373 14.7658C8.71495 14.9421 8.51648 14.9598 8.35341 15.0515C7.90581 15.3013 7.3976 15.4297 6.97861 15.7322C6.59252 16.0121 6.50923 16.3556 6.76314 16.5796C6.97761 16.768 7.21749 16.8233 7.50886 16.7478C8.05078 16.6085 8.52125 16.2932 9.05842 16.1493C9.56861 16.0121 9.99904 15.6948 10.4912 15.5245C10.8 15.4182 11.0927 15.2852 11.3787 15.1309C11.7018 14.9561 11.7633 14.7963 11.66 14.4385C11.5947 14.2096 11.2714 13.9745 10.945 13.8646Z" fill="#EA5C83"/>
<path d="M19.423 11.9154C19.3196 11.4965 19.2651 11.0632 19.0497 10.6809C18.8937 10.3987 18.6944 10.167 18.4639 9.95288C18.2585 9.76576 17.9954 9.68642 17.7477 9.61571C17.4166 9.52603 17.0505 9.41637 16.707 9.46061C16.2131 9.53187 15.9004 10.005 15.6498 10.4151C15.2902 10.9996 15.1065 11.673 15.1871 12.3797C15.2382 13.0653 15.2491 13.8102 15.6241 14.4089C15.9871 15.0608 16.406 15.4055 17.1144 15.5169C17.3082 15.5586 17.5027 15.5989 17.6954 15.5842C17.9807 15.5636 18.242 15.387 18.5083 15.249C18.9948 15.041 19.261 14.5937 19.3965 14.0766C19.6424 13.3823 19.6295 12.6486 19.4278 11.9324L19.423 11.9106L19.423 11.9154Z" fill="#EA5C83"/>
<path d="M16.6563 13.7913C16.6539 13.7736 16.6448 13.7595 16.6261 13.7487C16.4913 13.6696 16.3928 13.5732 16.4171 13.4202C16.4226 13.1475 16.369 12.8833 16.3399 12.6159C16.2869 12.111 16.3772 11.6021 16.7874 11.1558C17.0812 10.8358 17.4248 10.8576 17.7407 11.118C18.2525 11.5392 18.3976 12.0708 18.4225 12.6643C18.4362 12.9969 18.3419 13.3051 18.2046 13.6205C17.9651 14.1736 17.9132 14.208 17.1615 14.1831C16.8847 14.1408 16.7327 13.9968 16.6553 13.7938L16.6563 13.7913Z" fill="#FFDEE4"/>
</svg>
