<svg width="28" height="28" viewBox="0 0 28 28" fill="none" xmlns="http://www.w3.org/2000/svg">
<g clip-path="url(#clip0_54849_24980)">
<path d="M9.93999 3.85414C10.7975 3.65966 11.2508 4.58986 11.483 5.26899C11.6682 5.76599 11.9333 6.23932 12.0878 6.75072C12.2412 7.23126 12.3292 7.73134 12.451 8.22011C12.5308 8.53395 12.6475 8.85088 12.8797 9.08137C13.1478 9.37257 13.6247 9.31495 13.8293 8.98979C14.037 8.59878 14.0718 8.11721 14.1465 7.68195C14.1813 7.34856 14.2683 7.02752 14.3327 6.69927C14.4177 6.08188 14.5978 5.47067 14.9068 4.93148C15.1657 4.52812 15.4307 4.07331 15.8052 3.77696C16.8049 3.11224 17.5774 3.24704 18.1535 4.34496C18.6641 5.01997 18.9731 5.8267 19.1194 6.654C19.2044 7.25801 19.2535 7.87231 19.3435 8.47839C19.3865 8.73254 19.4325 9.0042 19.5635 9.22234C19.9247 9.78519 20.728 9.64319 21.2826 9.88398C21.7543 10.0929 22.2567 10.2843 22.6731 10.5888C23.3536 11.1908 23.945 11.9553 24.208 12.8433C24.2499 12.9966 24.2919 13.1551 24.3543 13.3023C24.5262 13.6531 24.5835 14.0297 24.6285 14.4166C24.8066 15.1781 24.8178 15.9663 24.7943 16.7473C24.779 17.2782 24.6224 17.7876 24.3901 18.2599C24.254 18.5521 24.1538 18.8639 24.0453 19.1685C23.944 19.435 23.7885 19.6778 23.635 19.9238C23.46 20.2921 23.194 20.5617 22.8983 20.8396C22.5217 21.2594 22.0991 21.6525 21.6857 22.0332C21.2856 22.3388 20.7986 22.6485 20.3432 22.9088C19.7313 23.2546 19.1225 23.6518 18.4441 23.8699C17.5733 24.2033 16.6248 24.4245 15.6875 24.5521C15.135 24.6478 14.5845 24.7806 14.0237 24.8042C13.2972 24.8258 12.5728 24.7065 11.8504 24.6499C11.2303 24.617 10.601 24.477 10.0024 24.2959C9.63916 24.2126 9.26875 24.1323 8.92085 23.9872C8.56886 23.8514 8.25063 23.6374 7.89659 23.4954C7.72571 23.4233 7.55585 23.3492 7.39418 23.2587C6.94498 22.9768 6.48555 22.6681 6.03328 22.3799C5.59022 22.0177 5.24129 21.5691 4.80028 21.174C4.28252 20.7017 4.13722 19.9732 3.76988 19.4062C3.63891 19.1829 3.53556 18.9431 3.48235 18.688C3.34933 18.0592 3.21119 17.3986 3.29919 16.7493C3.41993 15.282 4.31731 14.0287 5.24436 12.9411C5.5718 12.5953 5.91663 12.2846 6.29011 11.979C6.56434 11.7145 6.90098 11.4511 7.04321 11.091C7.19874 10.5744 7.08209 10.0003 7.16907 9.46312C7.25195 8.88278 7.33893 8.30346 7.48013 7.73855C7.63362 7.24978 7.80041 6.77748 7.99687 6.3062C8.19128 5.91313 8.45323 5.57254 8.67834 5.19387C9.04364 4.71745 9.29842 4.03832 9.92055 3.85928L9.93897 3.85414H9.93999Z" fill="#FEACAE"/>
<path d="M24.9052 12.1037C24.7343 11.1467 23.9055 10.2618 23.0183 9.86154C22.5241 9.62384 21.9224 9.4839 21.4302 9.24621C20.76 8.93854 20.3415 8.3088 20.1297 7.61012C19.9496 7.0483 19.8442 6.47104 19.8064 5.91951C19.7685 5.20642 19.6846 4.40073 19.1709 3.90167C17.895 2.54238 15.8495 2.74406 14.6186 4.07248C14.1233 4.64151 13.8542 5.36797 13.6496 6.10472C12.8381 9.33161 13.0469 5.96581 11.6471 4.48305C10.9994 3.67941 9.8994 2.96632 8.92528 3.55902C8.36864 3.89755 8.01869 4.52215 7.70456 5.08912C6.87369 6.74063 6.1124 8.58869 6.2577 10.4635C6.30375 11.3556 5.98348 11.9267 5.29688 12.5071C4.67373 13.0648 4.04751 13.6667 3.53692 14.3294C2.55461 15.5477 2.95879 16.5108 4.26649 17.2465C5.15158 17.7518 6.15436 17.9977 7.15917 18.1109C8.72472 18.3301 10.2688 18.2776 11.8425 18.1747C13.0858 18.1006 14.3392 18.0728 15.5579 17.8022C16.4256 17.6016 17.3895 17.5203 18.1927 17.3577C18.4854 17.297 18.777 17.2105 19.0471 17.0901C20.0571 16.6014 20.9954 15.9078 21.948 15.3265C22.9835 14.599 25.163 13.5895 24.9072 12.1202L24.9052 12.1047V12.1037Z" fill="#EF667A"/>
<path d="M11.7738 15.4705C11.9846 15.3368 11.9784 14.9838 11.9242 14.7379C11.8546 14.4889 11.6326 14.3088 11.4678 14.1195C11.2509 13.888 11.0279 13.6626 10.815 13.427C10.3607 12.9361 9.99132 12.3043 9.35589 12.042C8.99162 11.9329 8.7399 12.3548 8.7706 12.6902C8.78083 12.8466 8.85246 12.9824 8.93738 13.11C9.35691 13.7387 9.84806 14.317 10.3535 14.8778C10.6974 15.2586 11.2161 15.7998 11.7584 15.4798L11.7738 15.4705Z" fill="#9A1918"/>
<path d="M19.1208 11.267C18.8261 11.3082 18.6511 11.5541 18.5048 11.7897C17.9522 12.6613 17.192 13.3785 16.6589 14.2655C16.2946 14.7964 16.7243 15.3171 17.3045 15.0969C17.5041 15.0033 17.6463 14.8016 17.7834 14.6308C18.3615 13.8652 19.0143 13.1655 19.5352 12.3639C19.7961 11.941 19.8186 11.196 19.1412 11.265L19.1218 11.2681L19.1208 11.267Z" fill="#9A1918"/>
<path d="M19.2753 17.4193C18.9693 17.1116 18.6992 16.733 18.3206 16.5138C17.2216 15.8892 15.915 15.8635 14.6769 15.9324C14.2072 15.9664 13.7621 16.1269 13.319 16.2679C13.0642 16.3553 12.7921 16.3934 12.5557 16.5076C11.3554 17.2248 10.6289 17.9616 10.5931 19.4299C10.4959 20.9559 11.91 21.8635 13.2965 21.7277C14.1161 21.7019 14.7894 21.1555 15.5783 20.9899C16.5709 20.8016 17.6821 20.8232 18.5426 20.2274C19.3827 19.6656 20.0018 18.3094 19.2896 17.4317L19.2773 17.4193H19.2753Z" fill="#9A1918"/>
<path d="M25.8185 14.2048L25.8145 14.1852C25.2629 11.3504 24.3389 9.45808 21.436 8.54743C20.6215 8.30047 20.7883 7.45465 20.6471 6.7786C20.5867 6.48123 20.4803 6.17974 20.3933 5.91426C20.2521 5.31539 19.9994 4.70932 19.6484 4.19277C19.1378 3.2389 18.0031 2.03602 16.8703 2.00001C15.58 1.99692 14.4627 2.94564 13.8272 4.01373C13.6226 4.32963 13.4302 4.92129 13.2235 5.09107C12.9063 5.31436 12.7088 4.67433 12.5707 4.46545C12.1676 3.70812 11.4697 3.07427 10.69 2.73367C8.8052 2.02882 7.70932 4.50558 7.00942 5.85767C6.47836 6.93501 6.22767 8.12246 6.15604 9.31916C6.12637 9.84189 6.17958 10.4233 5.82042 10.8462C5.69047 11.0108 5.52266 11.1487 5.35997 11.2825C4.9169 11.6406 4.49021 12.0244 4.10957 12.4576C1.01019 15.9098 1.39697 19.7994 4.79821 22.8534C5.31392 23.3545 5.93809 23.7157 6.55511 24.0799C7.56197 24.7025 8.66911 25.1604 9.80286 25.4649C11.9731 26.0792 14.2017 26.2017 16.4007 25.643C18.8145 25.1655 21.1362 24.1334 23.0364 22.5519C25.6119 20.5505 26.3997 17.3308 25.8185 14.2048ZM24.7933 16.7495C24.7779 17.2804 24.6214 17.7898 24.3891 18.2621C24.253 18.5543 24.1527 18.8661 24.0443 19.1706C23.943 19.4372 23.7874 19.68 23.6339 19.9259C23.459 20.2943 23.1929 20.5639 22.8972 20.8417C22.5207 21.2615 22.0981 21.6546 21.6847 22.0353C21.2846 22.3409 20.7975 22.6507 20.3422 22.911C19.7303 23.2567 19.1215 23.6539 18.4431 23.8721C17.5723 24.2055 16.6237 24.4267 15.6865 24.5543C15.1339 24.65 14.5834 24.7827 14.0227 24.8064C13.2962 24.828 12.5717 24.7086 11.8493 24.652C11.2292 24.6191 10.6 24.4792 10.0014 24.2981C9.63811 24.2147 9.2677 24.1345 8.9198 23.9894C8.56781 23.8535 8.24958 23.6395 7.89554 23.4975C7.72466 23.4255 7.55481 23.3514 7.39314 23.2609C6.94393 22.9789 6.4845 22.6702 6.03223 22.3821C5.58917 22.0199 5.24025 21.5713 4.79923 21.1761C4.28147 20.7038 4.13617 19.9753 3.76883 19.4083C3.63786 19.1851 3.53451 18.9453 3.4813 18.6901C3.34828 18.0614 3.21015 17.4008 3.29814 16.7515C3.41889 15.2842 4.31626 14.0309 5.24332 12.9432C5.57075 12.5975 5.91558 12.2868 6.28906 11.9811C6.56329 11.7167 6.89994 11.4533 7.04217 11.0931C7.1977 10.5766 7.08105 10.0024 7.16802 9.46528C7.25091 8.88493 7.33788 8.30562 7.47909 7.7407C7.63257 7.25194 7.79936 6.77963 7.99582 6.30836C8.19024 5.91529 8.45218 5.57469 8.6773 5.19603C9.04259 4.71961 9.29738 4.04048 9.91951 3.86144L9.93792 3.85629C10.7954 3.66182 11.2487 4.59202 11.481 5.27114C11.6662 5.76814 11.9312 6.24148 12.0857 6.75288C12.2392 7.23342 12.3272 7.7335 12.4489 8.22227C12.5288 8.53611 12.6454 8.85303 12.8777 9.08353C13.1458 9.37473 13.6226 9.31711 13.8272 8.99195C14.035 8.60093 14.0698 8.11937 14.1444 7.68411C14.1792 7.35072 14.2662 7.02968 14.3307 6.70143C14.4156 6.08404 14.5957 5.47283 14.9047 4.93364C15.1636 4.53028 15.4286 4.07547 15.8031 3.77912C16.8028 3.1144 17.5754 3.24919 18.1514 4.34712C18.662 5.02213 18.9711 5.82885 19.1174 6.65616C19.2023 7.26017 19.2514 7.87447 19.3415 8.48054C19.3844 8.7347 19.4305 9.00635 19.5615 9.2245C19.9227 9.78735 20.7259 9.64535 21.2805 9.88613C21.7522 10.095 22.2546 10.2864 22.6711 10.591C23.3515 11.1929 23.943 11.9575 24.2059 12.8455C24.2479 12.9988 24.2898 13.1573 24.3522 13.3044C24.5242 13.6553 24.5815 14.0319 24.6265 14.4188C24.8045 15.1803 24.8158 15.9685 24.7922 16.7495H24.7933Z" fill="#9A1918"/>
</g>
<defs>
<clipPath id="clip0_54849_24980">
<rect width="24" height="24" fill="white" transform="translate(2 2)"/>
</clipPath>
</defs>
</svg>
