<svg width="28" height="28" viewBox="0 0 28 28" fill="none" xmlns="http://www.w3.org/2000/svg">
<path d="M17.1838 2.54998C17.496 2.57937 17.8081 2.60767 18.1212 2.63706C18.8978 2.71 19.4389 3.20746 19.9492 3.73322C20.1707 3.96182 20.2858 4.30144 20.5137 4.52132C20.9473 4.93824 21.1262 5.49339 21.384 6.00609C21.6834 6.60152 21.9294 7.22526 22.1041 7.86641C22.3055 8.60226 22.4897 9.34682 22.5909 10.1077C22.6378 10.4615 22.7433 10.787 23.0085 11.0384C23.278 11.2626 23.4538 11.5718 23.6892 11.8265C23.8064 12.0137 23.964 12.1607 24.1121 12.3196C24.2708 12.4905 24.3699 12.7463 24.4828 12.9727C24.6554 13.3222 24.8556 13.6607 25.0559 13.996C25.1549 14.1625 25.188 14.4063 25.2274 14.6241C25.2742 14.8842 25.3733 15.1324 25.4266 15.3969C25.4862 15.6952 25.499 15.9989 25.5661 16.2906C25.6268 16.554 25.5821 16.8088 25.5714 17.0602C25.5533 17.4782 25.4884 17.8897 25.3414 18.2979C25.1848 18.7333 24.9621 19.1676 24.943 19.6357C24.9291 19.9731 24.7171 20.1538 24.5637 20.3857C24.4849 20.5043 24.3443 20.586 24.3869 20.7623C24.3475 20.869 24.2293 20.9452 24.2665 21.0824C23.9097 21.1629 23.8436 21.5308 23.6338 21.7562C23.5166 21.8813 23.4378 22.0414 23.2951 22.1437C23.2237 22.3353 23.0351 22.4321 22.9403 22.6052C22.9233 22.6107 22.9062 22.6161 22.8881 22.6205C22.7284 22.8708 22.4418 22.9971 22.2937 23.2583C21.874 23.4423 21.5907 23.8287 21.1848 24.0334C20.7065 24.275 20.2655 24.5875 19.7681 24.7943C19.163 25.0457 18.5345 25.2166 17.8933 25.32C17.3063 25.4147 16.7141 25.4855 16.1165 25.4572C16.0547 25.4539 16.0025 25.4474 15.9716 25.5138C15.6872 25.5737 15.4006 25.5944 15.1109 25.5715L15.113 25.5682C14.9628 25.4626 14.7945 25.5127 14.6326 25.5084C13.9892 25.4724 13.3522 25.3734 12.7109 25.3146C12.32 25.2787 11.9291 25.2384 11.5413 25.1807C10.8106 25.0719 10.1001 24.8759 9.39596 24.6528C8.62367 24.4078 7.84073 24.188 7.12063 23.7994C6.54541 23.4891 6.01386 23.1147 5.55155 22.6411C5.43438 22.5214 5.29057 22.43 5.16061 22.3233C4.76967 22.0022 4.52574 21.545 4.17421 21.1901C3.8099 20.8222 3.60112 20.3509 3.37955 19.91C3.07703 19.307 2.76065 18.6843 2.72444 17.9713C2.71165 17.7144 2.58596 17.4619 2.59022 17.2082C2.59554 16.8338 2.39528 16.5094 2.39848 16.1437C2.46132 15.7703 2.36332 15.3882 2.45387 15.0148C2.5508 14.7558 2.54974 14.4782 2.59554 14.2104C2.77131 13.1894 3.12816 12.2434 3.83014 11.4727C4.26795 10.9916 4.79098 10.6041 5.28631 10.1883C5.51959 9.99232 5.8072 9.84319 5.87644 9.49922C5.89881 9.29784 6.01599 9.11496 5.98829 8.9027C6.08203 8.34645 6.07245 7.74231 6.29401 7.24485C6.57523 6.61132 6.70732 5.8918 7.18774 5.35188C7.23887 5.29419 7.23994 5.1886 7.26444 5.10478C7.44127 4.95892 7.42529 4.66284 7.66816 4.56922C7.70331 4.42118 7.82901 4.33518 7.90357 4.21436C8.08679 4.00645 8.24551 3.77568 8.45004 3.58736C8.59597 3.22923 8.97093 3.17263 9.23298 2.96689C9.44496 2.74265 9.81033 2.6142 9.97544 2.51406C10.0074 2.49447 10.0884 2.49338 10.1214 2.47161C10.2481 2.38997 10.4154 2.41391 10.5485 2.37581C10.8298 2.29417 10.9533 2.3301 11.1195 2.34751C12.0633 2.44766 12.8611 2.82538 13.3373 3.74193C13.4843 4.02495 13.6494 4.30144 13.8071 4.58011C13.9626 4.85551 14.3972 4.8849 14.6497 4.66283C14.9277 4.41791 15.1386 4.12401 15.308 3.79527C15.3463 3.72016 15.4049 3.6788 15.4603 3.62763C15.4603 3.46109 15.6414 3.41646 15.6861 3.28039C15.7437 3.19548 15.8587 3.22052 15.9237 3.15085C15.9588 3.12908 15.995 3.10622 16.0302 3.08445C16.06 3.05942 16.0302 3.0986 16.0536 3.06813C16.3402 2.6904 16.7492 2.59243 17.1817 2.54998H17.1838Z" fill="#CCFFFB"/>
<path d="M21.0938 14.9528C21.1386 14.4663 21.0118 14.0243 20.8914 13.5791C20.8573 13.4528 20.8211 13.2144 20.5846 13.2155C20.6656 13.1263 20.6858 13.0261 20.6102 12.9271C20.4334 12.6952 20.2821 12.434 19.9796 12.3436C19.9093 12.2293 19.8038 12.1607 19.6856 12.1107C19.2936 11.9267 18.9495 11.6415 18.4947 11.5914C17.9109 11.5272 17.2963 11.4597 16.786 11.746C15.8295 12.2816 15.0454 13.0261 14.712 14.1462C14.4702 14.9572 14.3797 15.7627 14.76 16.5693C14.9421 16.9558 15.2223 17.2453 15.4875 17.5653C15.9402 18.1107 16.5549 18.3055 17.1674 18.4808C17.5935 18.6027 18.0696 18.582 18.5042 18.459C18.86 18.3589 19.2254 18.2685 19.545 18.0476C19.7303 17.9202 19.8826 17.7351 20.0712 17.6437C20.3663 17.5011 20.5516 17.3052 20.656 16.9982C20.6784 16.9318 20.6496 16.8643 20.7167 16.7903C20.9852 16.4909 21.0288 16.086 21.0853 15.7126C21.1215 15.4721 21.0714 15.1912 21.0938 14.9518V14.9528Z" fill="#3CA7A7"/>
<path d="M12.1419 13.9437C12.1227 13.345 11.9001 12.9074 11.4697 12.5678C11.0564 12.2412 10.6548 11.9103 10.1563 11.6893C9.49051 11.3943 8.86096 11.1069 8.13874 11.4509C7.71052 11.6545 7.22797 11.7579 6.89988 12.1476C6.56327 12.5482 6.25435 12.9662 6.06368 13.4658C5.89644 13.9056 5.73985 14.353 5.72067 14.8232C5.6983 15.3642 5.83465 15.8813 6.00189 16.3983C6.19044 16.9818 6.60801 17.3486 7.0863 17.5968C7.40373 17.7623 7.82024 17.7808 8.17496 17.8918C9.00371 18.1498 9.7238 17.8809 10.4524 17.5576C10.7762 17.5859 10.9797 17.3933 11.1576 17.1549C11.2769 16.9099 11.5485 16.7739 11.6167 16.4919C11.9831 16.1186 12.144 15.6614 12.1504 15.1389C12.0993 14.7416 12.1557 14.3432 12.1429 13.9437H12.1419Z" fill="#3CA7A7"/>
<path d="M13.6877 18.1193C13.61 18.5547 13.6899 19.0848 13.4907 19.5888C13.2872 20.1048 12.63 20.2006 12.1836 19.7804C11.7565 19.3787 11.7394 18.8965 11.895 18.3882C11.9674 18.1509 12.0217 17.9016 12.1709 17.6871C12.3573 17.4183 12.6076 17.2778 12.9176 17.2637C13.2915 17.2474 13.6515 17.6262 13.6888 18.1193H13.6877Z" fill="#3CA7A7"/>
<path d="M17.3778 15.043C16.9634 15.0278 16.5533 14.9853 16.1485 14.8852C15.9376 14.8329 15.9163 14.7458 15.9567 14.5412C16.0654 14.0013 16.4244 13.6595 16.8079 13.3318C17.1253 13.0619 17.5088 12.9334 17.8944 12.805C18.0723 12.7451 18.2395 12.7995 18.3919 12.8376C18.901 12.9672 19.2952 13.2861 19.5636 13.7466C19.6723 13.9327 19.6882 14.109 19.4688 14.281C18.8478 14.7698 18.1745 15.0746 17.3778 15.043Z" fill="#CCFFFB"/>
<path d="M16.3773 16.4952C16.8385 16.2111 17.3562 16.0902 17.8707 15.9759C18.3756 15.8638 18.8891 15.891 19.3983 15.9955C19.5208 16.0206 19.6219 16.0521 19.5666 16.1958C19.4877 16.4016 19.4121 16.6214 19.2172 16.7455C18.92 16.9349 18.6281 17.1516 18.3032 17.2757C17.94 17.415 17.5522 17.3181 17.1922 17.1929C17.0313 17.1374 16.8811 17.0438 16.7075 17.0296C16.6297 17.0231 16.6116 16.9807 16.6042 16.9175C16.5083 16.8631 16.389 16.8522 16.3272 16.7347C16.275 16.6345 16.2548 16.554 16.3762 16.4963L16.3773 16.4952Z" fill="#CCFFFB"/>
<path d="M9.13068 12.594C9.64199 12.6256 10.0244 12.9369 10.4239 13.2123C10.4313 13.2177 10.4356 13.2286 10.442 13.2351C10.9277 13.6989 10.932 13.7076 10.3333 14.0102C10.0212 14.168 9.7368 14.4249 9.37781 14.4402C8.88461 14.4608 8.38076 14.574 7.89821 14.4336C7.62764 14.3552 7.39116 14.155 7.13871 14.0102C6.99703 13.7968 7.1909 13.6836 7.27399 13.5367C7.34642 13.5018 7.38797 13.4452 7.3901 13.3614C7.42738 13.1927 7.61699 13.1502 7.67558 13C7.9046 12.8825 8.13363 12.7649 8.36265 12.6473C8.61618 12.5951 8.86544 12.4841 9.12962 12.594H9.13068Z" fill="#CCFFFB"/>
<path d="M9.27234 15.4121C9.59936 15.5416 10.0372 15.4687 10.4153 15.6777C10.6316 15.7975 10.6571 15.9346 10.4782 16.1197C9.82306 16.8 9.05077 17.0297 8.13894 16.775C7.79913 16.6803 7.47317 16.5823 7.28249 16.2525C7.22284 16.1491 7.12271 15.9825 7.29421 15.9172C7.91311 15.6799 8.52988 15.4208 9.27128 15.4121H9.27234Z" fill="#CCFFFB"/>
<path d="M4.48617 17.1821C4.88669 17.2093 5.11998 17.5555 5.03476 17.9506C4.94422 18.373 4.67684 18.7072 4.47125 19.0675C4.25288 19.4506 4.14423 19.8969 3.8417 20.2322C3.81933 20.2573 3.81614 20.3313 3.80336 20.3313C3.53918 20.3367 3.28672 20.2398 3.03959 20.1756C2.91283 20.143 2.77541 19.9176 2.82867 19.6716C2.92561 19.2264 3.17487 18.8617 3.37727 18.4731C3.56155 18.1172 3.7991 17.7906 4.00788 17.4477C4.12825 17.2496 4.30508 17.1789 4.48617 17.1832V17.1821Z" fill="#50E1D5"/>
<path d="M21.6351 18.103C21.617 18.5112 21.3464 18.791 21.1323 19.0903C20.8894 19.4288 20.6125 19.7413 20.3888 20.0961C20.2929 20.2485 20.1523 20.3519 20 20.4368C19.756 20.5729 19.4961 20.5533 19.299 20.3791C19.0934 20.1984 19.0689 19.9383 19.1914 19.6749C19.4056 19.2144 19.7496 18.8541 20.0692 18.4753C20.3376 18.1585 20.5592 17.7895 20.9693 17.6262C21.3155 17.4891 21.6543 17.7285 21.6351 18.103Z" fill="#50E1D5"/>
<path d="M23.1574 17.7111C23.4578 17.7176 23.6804 18.0158 23.6165 18.3152C23.5398 18.6733 23.38 18.9966 23.1936 19.3058C22.9933 19.6399 22.792 19.973 22.5821 20.3007C22.3861 20.6087 21.9441 20.7274 21.6639 20.5587C21.4349 20.4204 21.3923 20.0939 21.5414 19.739C21.7257 19.3003 22.0612 18.9629 22.2913 18.5547C22.4192 18.3283 22.5342 18.0888 22.7355 17.9092C22.8655 17.7927 23.0136 17.7404 23.1552 17.71L23.1574 17.7111Z" fill="#50E1D5"/>
<path d="M23.5274 20.0722C23.6115 19.7271 23.8065 19.3505 23.9854 18.9717C24.1388 18.6451 24.3433 18.3436 24.5191 18.029C24.5894 17.9038 24.6874 17.8156 24.8046 17.7438C24.942 17.6589 25.1071 17.5696 25.2317 17.6959C25.3723 17.8363 25.5577 17.9811 25.5044 18.2391C25.4703 18.4024 25.4362 18.5624 25.3723 18.7202C25.2711 18.9738 25.1678 19.2231 25.1337 19.5061C25.0815 19.9415 24.4392 20.562 24.0461 20.6143C23.7202 20.6567 23.5252 20.4815 23.5274 20.0733V20.0722Z" fill="#50E1D5"/>
<path d="M5.09773 19.8753C5.37575 19.2145 5.61543 18.5276 6.14485 18.0139C6.23965 17.9224 6.40157 17.7896 6.55602 17.9485C6.70196 18.0998 6.91181 18.1771 6.87666 18.4906C6.79783 19.1797 6.44098 19.712 6.04045 20.2214C5.89132 20.4108 5.63567 20.4674 5.40025 20.3825C5.18934 20.3063 5.08494 20.13 5.09773 19.8753Z" fill="#50E1D5"/>
<path d="M7.25913 19.8588C7.29002 19.6117 7.36139 19.3755 7.4775 19.1578C7.63409 18.865 7.80133 18.5765 7.97815 18.2957C8.15072 18.0225 8.41916 17.9691 8.68227 18.1335C8.92514 18.2859 9.03593 18.595 8.88679 18.8432C8.67481 19.197 8.56616 19.6074 8.2924 19.9274C8.11557 20.1342 7.8972 20.242 7.63835 20.2583C7.38163 20.2746 7.23889 20.1157 7.25806 19.8577L7.25913 19.8588Z" fill="#50E1D5"/>
<path d="M26.8322 16.589C26.746 14.4751 25.9087 12.3296 24.3907 10.8644C24.2011 10.6913 23.9923 10.515 23.9018 10.2657C23.8144 9.98161 23.824 9.67464 23.7697 9.38944C23.7314 9.1565 23.6611 8.92899 23.6067 8.69496C23.4778 7.884 23.2723 7.08609 22.9314 6.33609C22.632 5.44349 22.2677 4.55851 21.6819 3.82157C21.4944 3.52657 21.2409 3.30669 20.9948 3.0868C20.8158 2.88433 20.656 2.63288 20.4206 2.47831C20.0744 2.22359 19.7314 1.94384 19.3458 1.75987C18.3914 1.27221 17.2867 1.19819 16.2599 1.48774C15.7091 1.63142 15.2266 1.96561 14.842 2.38687C14.6823 2.55777 14.4894 2.79398 14.2306 2.74173C13.9536 2.6688 13.7843 2.30196 13.5435 2.12889C12.3547 1.12852 10.6536 0.880332 9.24533 1.51604C7.63896 2.18985 6.54817 3.74537 5.77268 5.28347C5.25818 6.27622 5.00785 7.37782 4.87576 8.48705C4.84913 8.95185 4.51997 9.22616 4.16206 9.48524C3.5421 9.96528 2.92533 10.4486 2.45663 11.0974C1.83986 11.9704 1.50857 13.0088 1.27849 14.0277C1.14746 14.5491 1.15598 15.0782 1.18262 15.6137C1.10805 16.5553 1.35838 17.4762 1.52029 18.3971C1.99645 21.0118 3.6891 23.3696 5.95271 24.6834C7.12233 25.3692 8.41338 25.7513 9.69698 26.1497C12.1683 26.8572 14.776 26.9073 17.3272 26.7767C18.9283 26.609 20.4409 25.9222 21.8193 25.0818C22.8685 24.4407 23.7175 23.5307 24.4685 22.5542C25.7702 20.842 26.8259 18.8162 26.8344 16.6097V16.589H26.8322ZM25.5806 17.0745C25.5604 17.375 25.5231 17.6776 25.4464 17.9693C25.3249 18.4581 25.0757 18.9131 24.9883 19.4116C24.951 19.6076 24.9148 19.8111 24.8275 19.9907C24.7295 20.2008 24.5718 20.3695 24.4717 20.5655C24.3961 20.7037 24.3428 20.8539 24.2555 20.9846C23.7963 21.5212 23.3724 22.1515 22.8834 22.6609C22.2241 23.351 21.4518 23.9204 20.6166 24.3656C19.9935 24.7444 19.3085 25.0176 18.6002 25.1885C17.8247 25.3801 17.0258 25.465 16.2268 25.4868C15.9211 25.5107 15.6165 25.6043 15.3065 25.5804C14.7387 25.5151 14.1635 25.4987 13.5947 25.4269C12.7819 25.3246 11.9819 25.2832 11.1798 25.133C10.2381 24.9566 9.32628 24.6508 8.41232 24.3547C7.96066 24.2023 7.5154 24.027 7.09463 23.7984C6.4001 23.4458 5.82914 22.9233 5.24859 22.4095C4.92476 22.1515 4.67124 21.8173 4.41239 21.4929C3.95966 21.0096 3.59749 20.4414 3.32798 19.8405C3.06381 19.3115 2.80709 18.7607 2.73146 18.1544C2.70802 17.9954 2.68352 17.8365 2.65476 17.6798C2.56209 16.9983 2.3533 16.3278 2.40337 15.6355C2.49711 14.3075 2.74424 12.8913 3.54529 11.8125C3.99375 11.2073 4.58069 10.761 5.1442 10.294C5.41583 10.0698 5.72049 9.86296 5.84299 9.51245C6.0539 8.91158 6.01023 8.23559 6.16788 7.62166C6.21582 7.4279 6.28506 7.24284 6.35749 7.05888C6.5503 6.57775 6.69517 6.06396 6.97852 5.62528C7.25868 5.17897 7.4632 4.70546 7.82112 4.30597C8.13323 3.93695 8.41232 3.51133 8.80113 3.21851C9.43707 2.79398 10.0613 2.3368 10.856 2.33136C11.7571 2.34224 12.6498 2.67969 13.176 3.4765C13.4455 3.84769 13.5904 4.33427 13.927 4.64341C14.3755 4.98957 14.8676 4.49319 15.1083 4.11438C15.2362 3.92824 15.3512 3.73557 15.4833 3.55379C15.6718 3.28927 15.9435 3.11946 16.2023 2.91481C16.4963 2.67098 16.867 2.55451 17.2484 2.55777C18.0122 2.56975 18.8302 2.67751 19.4236 3.22505C19.8135 3.53093 20.1128 3.91736 20.3834 4.32774C20.5357 4.53238 20.7157 4.72288 20.8552 4.94167C21.4401 5.98123 21.9311 7.09154 22.2177 8.25736C22.3657 8.82232 22.4936 9.39489 22.582 9.97399C22.6331 10.4257 22.811 10.8416 23.138 11.1551C23.5141 11.5926 23.873 12.0281 24.2235 12.4776C24.5037 12.9501 24.738 13.4551 25.015 13.9232C25.1194 14.1224 25.1811 14.3401 25.228 14.56C25.3047 14.9268 25.4219 15.2839 25.4762 15.6573C25.5497 16.121 25.6328 16.5901 25.5827 17.056V17.0767L25.5806 17.0745Z" fill="#3CA7A7"/>
</svg>
