<svg width="28" height="28" viewBox="0 0 28 28" fill="none" xmlns="http://www.w3.org/2000/svg">
<path d="M22.7503 10.4638C23.0292 10.5843 23.1924 10.8691 23.4804 10.9907C23.6325 11.0542 23.7694 11.0905 23.8752 11.2288C24.0041 11.3982 24.1068 11.4855 24.1712 11.5863C24.278 11.7526 24.3012 11.7797 24.3858 11.9574C24.4613 12.0166 24.564 12.3129 24.6113 12.3586C24.7835 12.5259 24.7463 12.5738 24.9366 12.9563C24.9437 12.9708 25.0303 13.2171 25.0323 13.2265C25.1149 13.6048 25.3042 14.0144 25.3938 14.5528C25.5036 15.2159 25.5368 15.8603 25.3112 16.51C25.1632 16.9361 24.9396 17.33 24.8349 17.7749C24.8057 17.8996 24.6919 18.0036 24.6164 18.1179C24.6859 18.3757 24.4955 18.4879 24.3495 18.6241C24.3283 18.8237 24.1853 18.9598 24.0867 19.1126C23.9316 19.3548 23.7372 19.572 23.5499 19.7913C23.1068 20.3079 22.6264 20.7725 22.0403 21.129C21.1329 21.682 20.1621 22.0676 19.1661 22.3992C18.7774 22.5281 18.3907 22.6653 17.9999 22.7869C17.9284 22.8097 17.8398 22.7765 17.7592 22.7682C17.5639 22.9303 17.3272 22.9303 17.0956 22.9459C16.6374 23.053 16.1731 23.1517 15.7048 23.1309C15.1408 23.107 14.591 23.2796 14.028 23.2162C13.6282 23.1704 13.2294 23.1153 12.8286 23.081C12.3603 23.0415 11.9021 22.9314 11.4308 22.9054C11.1881 22.8919 10.9524 22.7682 10.7097 22.712C10.3986 22.6393 10.0783 22.605 9.77316 22.5156C9.36026 22.394 8.96348 22.2131 8.54857 22.1019C8.35924 22.051 8.20113 21.9335 8.00878 21.8982C7.64724 21.8317 7.33605 21.6467 7.02789 21.4461C6.67542 21.2174 6.26453 21.101 5.92515 20.839C5.66029 20.6343 5.39644 20.4316 5.15776 20.1905C5.02886 20.0605 4.83449 19.9961 4.69753 19.8599C4.58776 19.7498 4.49309 19.6281 4.45684 19.4702C4.45281 19.4535 4.4518 19.4213 4.44778 19.4213C4.12753 19.3995 4.27154 19.045 4.0953 18.9016C3.87576 18.7239 3.93316 18.3767 3.75592 18.1543C3.74686 18.1428 3.79117 17.9817 3.75894 17.8882C3.71564 17.7021 3.63809 17.5202 3.70355 17.3238C3.68643 17.2126 3.66931 17.1003 3.65219 16.9891C3.65823 16.7958 3.62601 16.6066 3.59277 16.4174C3.59479 16.1462 3.70053 15.8894 3.71765 15.6254C3.74786 15.1722 3.92209 14.7679 4.1094 14.3833C4.30477 13.9832 4.56862 13.6111 4.86269 13.2701C4.99059 13.1215 5.10942 12.9646 5.23631 12.8139C5.48405 12.5176 5.76704 12.2671 6.11347 12.1008C6.29273 11.974 6.47098 11.8462 6.616 11.6757C7.02789 11.5874 7.21621 11.2475 7.12759 10.8317C7.05709 10.5033 7.04702 10.1592 6.7872 9.90874C6.85367 9.76946 6.69656 9.77881 6.66333 9.70813C6.58377 9.53559 6.51932 9.35682 6.5022 9.16453L6.33503 8.59909C6.15778 8.46917 6.18195 8.24778 6.11246 8.069C5.99363 7.88191 5.90803 7.68858 6.01075 7.46303C6.10239 7.26139 5.97248 7.04208 6.0611 6.84147C6.15677 6.61177 6.10441 6.34048 6.24439 6.11597C6.25245 6.1035 6.19605 5.97254 6.2595 5.88107C6.55557 5.4466 6.96646 5.55886 7.3431 5.66799C7.87383 5.82078 8.33809 6.13676 8.82551 6.39557C9.58182 6.79678 10.316 7.23644 11.0491 7.68027C11.2475 7.7998 11.4378 7.91621 11.6654 7.95779C12.0471 8.02847 12.4177 7.60543 12.3503 7.20942C12.2848 6.8238 12.1065 6.48808 11.9635 6.13572C11.882 5.93616 11.7883 5.72828 11.8608 5.49649C11.9716 5.13998 12.2052 4.99758 12.6483 4.96952C13.1761 4.93522 13.6766 5.06202 14.172 5.21689C14.7028 5.38216 15.1821 5.68462 15.7058 5.86236C16.5447 6.14715 17.2497 6.69804 18.0432 7.07118C18.301 7.19175 18.5176 7.40483 18.7512 7.57841C19.1611 7.88191 19.5659 8.19165 19.9788 8.48996C20.2014 8.65106 20.3514 8.88493 20.5538 9.06786C20.8157 9.30485 21.1319 9.43581 21.4199 9.61563C21.7412 9.81727 22.0423 10.0501 22.3706 10.2393C22.4975 10.3162 22.6637 10.3235 22.7513 10.47L22.7503 10.4638Z" fill="#EEFFC0"/>
<path d="M26.6437 13.8771C26.4655 13.0768 26.2036 12.2515 25.7374 11.5717C24.8713 10.3151 23.7605 9.31209 22.4302 8.6344C21.984 8.3839 21.6275 8.00764 21.2821 7.6293C20.3083 6.60445 19.0988 5.88207 17.9004 5.20334C17.2226 4.80422 16.4834 4.54125 15.7523 4.27412C15.005 3.9675 14.2598 3.59955 13.4451 3.52679C12.1721 3.35114 11.0301 4.05273 10.5014 5.23245C10.3725 5.52972 10.1822 5.47359 9.94652 5.34054C9.19424 4.93934 8.39563 4.46641 7.56983 4.32401C6.84172 4.20656 5.98571 4.35312 5.46707 4.93102C5.17703 5.26987 5.05719 5.72304 4.96555 6.15751C4.68156 7.51912 5.07633 8.93271 5.6987 10.1353C6.09447 10.8078 5.64029 10.9523 5.15891 11.2714C4.64731 11.6154 4.25556 12.106 3.86281 12.5872C3.46904 13.0695 3.09542 13.5788 2.83761 14.1526C2.51736 14.8375 2.41867 15.6025 2.35724 16.3602C2.25754 17.4173 2.47607 18.5004 2.93328 19.4462C3.12261 19.8641 3.38546 20.2414 3.70168 20.5656C4.86585 21.8358 5.91219 22.3929 7.45704 23.0384C8.40671 23.4666 9.40874 23.7046 10.4178 23.951C10.9294 24.0788 11.4561 24.188 11.9778 24.2618C13.2729 24.4291 14.57 24.5902 15.8792 24.4426C16.4995 24.3719 17.0494 24.322 17.6456 24.2275C18.2166 24.1194 18.7735 23.9302 19.3354 23.7815C20.4764 23.4739 21.5923 23.0082 22.6114 22.4023C22.9236 22.2173 23.2147 21.9938 23.4755 21.7371C24.5168 20.7153 25.4242 19.5356 26.0425 18.1865C26.4937 17.2801 26.7867 16.275 26.8331 15.2574C26.8371 14.7939 26.7404 14.3334 26.6488 13.8958L26.6447 13.8761L26.6437 13.8771ZM25.3215 16.5172C24.973 17.4558 24.6387 18.4141 24.0344 19.2176C23.0143 20.6488 21.7665 21.4512 20.1653 22.0551C19.0615 22.4781 17.9598 22.8482 16.7875 23.029C16.286 23.1361 15.7775 23.1402 15.2689 23.1662C14.9285 23.1901 14.5911 23.239 14.2507 23.2296C13.148 23.1413 12.0332 23.0363 10.9516 22.8004C10.5427 22.685 10.1197 22.6205 9.71187 22.502C8.98074 22.2609 8.24658 22.0198 7.52955 21.735C7.01997 21.4699 6.50939 21.1997 6.01693 20.9066C5.66748 20.681 5.36636 20.3921 5.03907 20.1353C4.83463 19.9722 4.64027 19.7903 4.47712 19.5845C3.9333 18.8725 3.67146 18.015 3.64729 17.1086C3.55867 16.4361 3.6342 15.7564 3.81245 15.0995C4.00984 14.427 4.38749 13.822 4.83362 13.2826C5.18509 12.8315 5.57281 12.4074 6.05621 12.106C6.71181 11.6299 7.32411 11.394 7.01896 10.4284C6.87697 9.94716 6.56981 9.57817 6.45803 9.07614C6.34523 8.64375 6.10958 8.25398 6.027 7.81431C5.95147 7.33411 6.05822 6.81025 6.15389 6.33629C6.27071 5.71057 6.69872 5.45904 7.29188 5.65132C7.60508 5.73759 7.90619 5.87999 8.19522 6.03486C9.00793 6.47765 9.81862 6.92251 10.6102 7.40271C11.0291 7.62618 11.5397 8.07624 12.0201 7.79041C12.6888 7.27279 11.9727 6.43503 11.8972 5.80204C11.8025 4.74497 13.1691 4.91023 13.8278 5.10044C14.5216 5.2761 15.1541 5.63469 15.8238 5.88727C16.6737 6.23755 17.4532 6.7375 18.2528 7.1886C19.0373 7.7613 19.84 8.31115 20.5359 8.99715C20.8823 9.31416 21.3043 9.51061 21.69 9.7715C22.122 10.075 22.6004 10.3099 23.0163 10.629C23.3516 10.8972 23.7534 11.0843 24.0415 11.4127C24.265 11.6694 24.4332 11.9896 24.6014 12.2671C24.9065 12.7546 25.0838 13.294 25.2399 13.8501C25.4937 14.7118 25.6135 15.6483 25.3305 16.4974L25.3245 16.5162L25.3215 16.5172Z" fill="#63A720"/>
<path d="M21.873 17.2072C22.0257 16.6064 21.6067 15.8209 21.1145 15.4081C20.5417 14.9386 19.6728 14.9103 18.9938 14.5752C17.0104 13.6657 14.5296 13.8821 12.6226 14.8914C12.1169 15.1655 11.635 15.4827 11.1562 15.803C10.442 16.3271 9.60204 16.7881 9.1521 17.5811C8.58556 18.6797 9.71349 19.2573 10.6959 19.0483C11.6794 18.8729 12.4678 18.0999 13.2809 17.5464C14.0085 17.0686 14.8578 16.7797 15.706 16.6075C16.9743 16.346 17.4232 17.4351 18.4066 17.9067C19.4974 18.4444 21.3673 18.6282 21.8688 17.223L21.873 17.2061V17.2072Z" fill="#C6E473"/>
<path d="M13.3845 13.8822C12.7098 13.2138 11.9635 12.8043 11.0038 12.876C10.2354 12.9332 9.50728 13.1089 8.82146 13.4903C8.17492 13.851 7.98257 14.4642 7.86475 15.1076C7.90604 15.5753 8.07522 15.9194 8.33505 16.2925C8.9121 17.1199 9.73185 17.282 10.5889 17.3673C11.034 17.4109 11.4962 17.3226 11.9464 17.2644C12.9202 17.1386 13.7491 16.7966 14.173 15.7656C14.3392 15.3623 14.2476 15.0411 14.0592 14.7199C13.877 14.4091 13.6453 14.1399 13.3845 13.8822Z" fill="#63A720"/>
<path d="M23.1169 13.8948C22.9286 13.1817 22.3898 12.7909 21.841 12.449C21.0877 11.9781 20.272 11.8232 19.422 12.2328C19.2155 12.3325 19.0514 12.4905 18.857 12.6028C18.4371 12.845 18.0212 13.1381 17.7865 13.5486C17.5055 14.0392 17.3353 14.6161 17.6062 15.2075C17.8026 15.6378 18.0896 15.985 18.4874 16.223C18.9527 16.5016 19.4965 16.407 19.995 16.539C20.4532 16.6606 20.9175 16.5265 21.3777 16.4673C21.6124 16.4361 21.7332 16.3997 21.9296 16.3051C22.1663 16.2365 22.3143 16.0463 22.4905 15.8873C22.9246 15.4934 23.1018 14.9737 23.1693 14.4124C23.1884 14.2544 23.1643 14.0715 23.1179 13.8948H23.1169Z" fill="#63A720"/>
<path d="M16.4502 16.4142C16.1591 16.4007 15.9144 16.6003 15.8973 16.8653C15.8782 17.1553 16.0725 17.3549 16.3837 17.3653C16.6808 17.3746 16.9185 17.1615 16.9356 16.8684C16.9507 16.6231 16.7412 16.4277 16.4502 16.4142Z" fill="#63A720"/>
<path d="M16.1319 10.8858C16.1289 10.629 16.2064 10.4648 16.3666 10.3765C16.5166 10.2933 16.6496 10.3775 16.7875 10.4731C17.1178 10.7007 17.4723 10.8899 17.848 11.024C18.0031 11.0801 18.1843 11.0541 18.3525 11.0801C18.5771 11.1155 18.8107 11.3732 18.8319 11.5926C18.8581 11.8514 18.6083 12.1476 18.3485 12.1621C17.5952 12.2037 16.9275 12.0104 16.3988 11.419C16.2457 11.2475 16.1359 11.0614 16.1319 10.8858Z" fill="#63A720"/>
<path d="M11.2756 14.0384C11.4679 14.159 11.6895 14.1704 11.8949 14.2317C12.1729 14.3159 12.4246 14.5176 12.6573 14.7182C12.6845 14.7421 12.6996 14.7868 12.7288 14.7992C12.9111 14.8782 13.0561 15.0092 12.9987 15.2181C12.9302 15.4676 12.8758 15.7513 12.5566 15.823C12.2283 15.8968 11.9382 16.1193 11.5868 16.0933C11.6049 15.4489 11.6693 14.8003 11.2141 14.2619C11.188 14.1735 11.1215 14.0727 11.2756 14.0374V14.0384Z" fill="#EEFFC0"/>
<path d="M20.3777 13.1268C20.5247 13.1247 20.699 13.1642 20.848 13.2848C20.8923 13.3211 20.9346 13.3534 20.993 13.3492C21.3828 13.3274 21.5781 13.6163 21.7544 13.8938C21.9699 14.2306 21.8994 14.6495 21.6406 14.9551C21.3596 15.2856 20.9538 15.3511 20.5882 15.4945C20.4361 15.5538 20.414 15.4207 20.4482 15.2939C20.5519 14.9125 20.6164 14.5393 20.4603 14.1454C20.3576 13.8866 20.1954 13.6829 20.0222 13.4843C19.8208 13.2536 19.8137 13.2754 20.1018 13.1517C20.1894 13.1143 20.2599 13.1476 20.3767 13.1257L20.3777 13.1268Z" fill="#EEFFC0"/>
</svg>
