<svg width="28" height="28" viewBox="0 0 28 28" fill="none" xmlns="http://www.w3.org/2000/svg">
<path d="M3.40058 13.578C3.5503 13.3852 3.75484 13.245 3.95622 13.107C4.30838 12.8616 4.63734 12.5944 4.98738 12.3567C5.87198 11.8572 7.06762 10.9886 6.14401 9.88337C5.94684 9.67854 5.70013 9.54162 5.46606 9.39155C5.05275 9.14729 4.72168 8.77596 4.36953 8.44626C3.69263 7.90296 3.58509 7.61597 3.65679 6.73531C3.7443 5.83054 4.68162 5.25986 5.40807 4.91701C5.81821 4.77023 6.28002 4.70342 6.73339 4.76147C6.90314 4.78338 7.0729 4.80419 7.2437 4.80748C7.91111 4.83376 8.59222 4.86443 9.23116 5.07912C10.0641 5.39787 10.8517 5.7922 11.7215 5.97403C12.0568 6.06714 12.3826 6.19968 12.7253 6.20077C13.1555 6.18872 13.6236 6.19639 14.0253 6.04633C14.7159 5.77796 15.1566 5.09555 15.8325 4.80309C16.327 4.52159 16.8478 4.39453 17.4045 4.24118C17.7788 4.10316 18.1426 3.96624 18.5285 3.87752C18.9449 3.76469 19.3783 3.81837 19.8053 3.80194C20.2987 3.74717 20.8059 3.63325 21.3004 3.70116C21.7295 3.74498 22.1586 3.71102 22.5793 3.81508C23.1233 3.93228 23.3395 4.33319 23.3627 4.87648C23.4059 5.35077 23.4428 5.86012 23.2815 6.31578C23.0611 6.92261 22.6141 7.39471 22.225 7.88981C21.6799 8.5306 21.7316 9.03665 22.3168 9.60843C22.9915 10.3303 23.6083 11.1474 24.0079 12.0686C24.1935 12.4279 24.2473 12.8332 24.2726 13.2341C24.3011 13.624 24.4339 13.9997 24.4898 14.3809C24.5277 14.6131 24.5499 14.8497 24.6153 15.0765C24.7397 15.5518 25.1256 15.9122 25.3153 16.3668C25.4292 16.6352 25.4861 16.9189 25.5072 17.2124C25.5336 18.7262 25.4682 20.2794 24.9168 21.6957C24.7829 22.0594 24.5994 22.4077 24.3095 22.6618C23.6157 23.2172 22.7554 23.4373 21.9657 23.7846C21.7 23.8996 21.4322 24.0113 21.1559 24.0956C20.5528 24.2895 19.9076 24.2698 19.2876 24.2994C18.8258 24.3158 18.3555 24.3607 17.9011 24.2512C17.0524 24.0409 16.2405 23.6805 15.3875 23.4866C14.9004 23.3891 14.4038 23.3672 13.9093 23.3804C13.4444 23.388 12.9984 23.5348 12.5608 23.6849C10.7579 24.283 8.82418 24.387 6.95164 24.1121C6.38862 24.0223 5.8393 23.801 5.34797 23.5184C5.03061 23.3201 4.78178 23.0255 4.45282 22.779C4.1207 22.5205 3.77066 22.2806 3.48914 21.9728C3.16335 21.5708 2.74266 21.2795 2.39894 20.8972C2.16698 20.6234 2.051 20.2783 1.90234 19.953C1.78109 19.6759 1.64508 19.3987 1.53648 19.1085C1.32455 18.6583 1.29925 18.1665 1.45002 17.6933C1.60923 17.0886 1.83275 16.5114 2.12375 15.9659C2.50016 15.1542 2.8734 14.3152 3.39003 13.5912L3.40058 13.578Z" fill="#D4CCFF"/>
<path d="M26.826 17.012V16.9912C26.8207 16.0021 26.1554 15.2682 25.9203 14.3525C25.7558 13.5134 25.6229 12.6821 25.2655 11.8945C25.1147 11.5834 24.9302 11.2932 24.7531 10.9985C24.421 10.4289 24.092 9.85933 23.6407 9.38832C23.2327 8.96661 23.5448 8.46822 23.8284 8.07718C24.1774 7.56126 24.5612 6.98401 24.6297 6.35746C24.6635 5.94671 24.694 5.58524 24.6782 5.17338C24.5781 4.35734 24.4231 3.37918 23.7251 2.86218C22.8405 2.27287 21.4846 2.30792 20.4619 2.35941C19.6036 2.45799 18.7285 2.48099 17.8871 2.68801C16.5903 3.05715 15.2734 3.52925 14.2412 4.4614C13.4493 5.25006 12.9622 5.18543 11.9711 4.84477C10.9178 4.57313 10.0143 3.92139 8.95569 3.65412C8.35681 3.50625 7.74001 3.46024 7.12849 3.43176C6.56652 3.41314 5.99611 3.37152 5.44152 3.49967C4.3218 3.77351 3.31594 4.53588 2.67068 5.5228C2.40498 5.96861 2.37335 6.52505 2.36597 7.07383C2.35648 7.52621 2.4461 7.98298 2.68333 8.36635C3.10191 9.08381 3.83152 9.54934 4.39982 10.1321C4.57379 10.3095 4.92489 10.499 4.88271 10.7652C4.83632 10.9547 4.6012 11.096 4.44305 11.2066C4.00127 11.4925 3.54157 11.7565 3.12194 12.0741C2.20992 12.7138 1.69013 13.7544 1.21672 14.7545C0.804467 15.6045 0.373236 16.4183 0.147604 17.3549C-5.8571e-06 17.8741 -0.0516693 18.4349 0.0611467 18.9629C0.23617 19.7899 0.655803 20.5643 1.03959 21.3102C1.84722 22.5764 3.05551 23.4922 4.23745 24.3564C4.63388 24.6401 5.09886 24.7792 5.55012 24.9337C6.34405 25.2535 7.18753 25.4485 8.03523 25.4561C8.94936 25.4945 9.82975 25.6402 10.7281 25.4353C11.2004 25.3477 11.6591 25.3006 12.1398 25.1976C12.918 25.0081 13.694 24.7387 14.4984 24.7825C15.1448 24.7573 15.771 24.9227 16.3889 25.1429C17.031 25.3357 17.6752 25.5723 18.3416 25.6391C18.8297 25.7103 19.3253 25.6303 19.7997 25.6029C20.1835 25.5942 20.6358 25.6259 21.0333 25.5427C21.6891 25.4299 22.3249 25.1527 22.9322 24.8537C23.4826 24.5295 24.0161 24.1888 24.5886 23.9084C25.0156 23.6751 25.3372 23.3147 25.6482 22.9456C25.8707 22.6805 26.0858 22.399 26.2028 22.066C26.5497 21.0375 26.769 19.941 26.7827 18.8413C26.7964 18.2312 26.8586 17.609 26.826 17.0131V17.012ZM24.9176 21.6958C24.7837 22.0594 24.6002 22.4078 24.3103 22.6619C23.6165 23.2172 22.7561 23.4374 21.9664 23.7846C21.7007 23.8996 21.4329 24.0114 21.1567 24.0957C20.5536 24.2896 19.9083 24.2699 19.2884 24.2994C18.8266 24.3159 18.3563 24.3608 17.9019 24.2512C17.0531 24.0409 16.2413 23.6806 15.3883 23.4867C14.9012 23.3892 14.4046 23.3673 13.9101 23.3804C13.4451 23.3881 12.9991 23.5349 12.5616 23.6849C10.7586 24.283 8.82495 24.3871 6.95241 24.1121C6.38939 24.0223 5.84007 23.8011 5.34874 23.5185C5.03138 23.3202 4.78255 23.0255 4.45359 22.7791C4.12147 22.5206 3.77142 22.2807 3.48991 21.9729C3.16411 21.5709 2.74343 21.2795 2.39971 20.8973C2.16775 20.6234 2.05177 20.2784 1.90311 19.9531C1.78185 19.6759 1.64584 19.3988 1.53724 19.1085C1.32532 18.6583 1.30001 18.1665 1.45079 17.6933C1.60999 17.0887 1.83352 16.5114 2.12452 15.966C2.50092 15.1543 2.87417 14.3152 3.3908 13.5912L3.40134 13.5781C3.55106 13.3853 3.75561 13.2451 3.95699 13.1071C4.30914 12.8617 4.6381 12.5944 4.98815 12.3567C5.87275 11.8573 7.06839 10.9886 6.14477 9.88342C5.94761 9.67859 5.70089 9.54167 5.46683 9.39161C5.05352 9.14734 4.72245 8.77602 4.3703 8.44631C3.6934 7.90302 3.58586 7.61603 3.65755 6.73536C3.74506 5.8306 4.68238 5.25992 5.40884 4.91707C5.81898 4.77029 6.28079 4.70347 6.73416 4.76153C6.90391 4.78343 7.07366 4.80425 7.24447 4.80753C7.91187 4.83382 8.59299 4.86449 9.23193 5.07918C10.0649 5.39793 10.8525 5.79226 11.7223 5.97409C12.0576 6.06719 12.3834 6.19973 12.7261 6.20083C13.1562 6.18878 13.6244 6.19645 14.0261 6.04638C14.7167 5.77802 15.1574 5.09561 15.8332 4.80315C16.3277 4.52164 16.8486 4.39458 17.4053 4.24123C17.7796 4.10322 18.1433 3.9663 18.5292 3.87757C18.9457 3.76475 19.379 3.81842 19.8061 3.80199C20.2995 3.74722 20.8066 3.63331 21.3011 3.70122C21.7303 3.74503 22.1594 3.71108 22.5801 3.81514C23.1241 3.93234 23.3403 4.33324 23.3634 4.87654C23.4067 5.35083 23.4436 5.86017 23.2823 6.31584C23.0619 6.92267 22.6149 7.39477 22.2258 7.88987C21.6807 8.53066 21.7324 9.03671 22.3175 9.60849C22.9923 10.3303 23.6091 11.1475 24.0087 12.0687C24.1943 12.4279 24.2481 12.8332 24.2734 13.2341C24.3018 13.6241 24.4347 13.9998 24.4906 14.381C24.5285 14.6132 24.5507 14.8498 24.616 15.0765C24.7404 15.5519 25.1263 15.9123 25.3161 16.3669C25.43 16.6352 25.4869 16.9189 25.5091 17.2125C25.5354 18.7263 25.47 20.2795 24.9186 21.6958H24.9176Z" fill="#7536AB"/>
<path d="M20.3701 17.6123C20.5335 17.1961 20.3406 16.8214 20.1118 16.4633C19.9674 16.1993 19.8377 15.9178 19.6163 15.7129C19.3316 15.403 18.9204 15.2408 18.5007 15.277C18.1897 15.2858 17.9103 15.1455 17.6404 14.9999C17.0352 14.6592 16.4036 14.3876 15.7099 14.347C14.3772 14.1849 13.0054 14.3131 11.7413 14.8235C10.5614 15.3427 9.5092 16.1412 8.47172 16.9222C8.0679 17.2421 7.63878 17.5312 7.40155 18.0165C7.06626 18.6606 7.29717 19.3408 8.01413 19.4854C8.47172 19.5587 8.94829 19.6573 9.38268 19.4602C9.90142 19.2269 10.4128 18.9311 10.8662 18.5598C11.2278 18.2717 11.5431 17.9146 11.9574 17.7043C12.2569 17.5608 12.5352 17.3834 12.8599 17.3056C13.0276 17.2651 13.1994 17.2377 13.3629 17.1785C13.7277 17.0416 14.0851 16.8247 14.4805 16.8434C14.9318 16.8718 15.4505 17.0153 15.7299 17.4042C15.8438 17.5663 15.9281 17.7645 16.0715 17.8949C16.2497 18.057 16.4817 18.1578 16.6989 18.2827C17.1195 18.516 17.6509 18.6255 18.0938 18.735C18.5956 18.7537 19.1703 18.8194 19.6036 18.5006C19.9252 18.2728 20.2647 18.0395 20.3617 17.6287L20.367 17.6101L20.3701 17.6123Z" fill="#B094E0"/>
<path d="M14.9951 16.3669C13.9049 16.0766 12.5912 15.9145 11.5727 16.4206C10.8515 16.9168 10.4772 17.8566 10.4656 18.7252C10.4298 19.9224 11.6381 21.583 12.8 21.7966C14.0852 22.008 15.7279 21.7484 16.4407 20.5085C16.8824 19.6541 16.9299 18.6299 16.5735 17.7175C16.311 16.9934 15.7406 16.5783 15.0152 16.3724L14.9941 16.3658L14.9951 16.3669Z" fill="#7536AB"/>
<path d="M11.328 15.9779C11.4345 15.9002 11.5611 15.8618 11.6855 15.7271C11.7656 15.6384 11.8331 15.5365 11.9132 15.4467C12.1051 15.2364 12.3255 15.0348 12.4277 14.7599C12.5859 14.3108 12.4868 13.6262 12.2411 13.222C12.1684 13.1223 12.0872 13.0906 11.9881 13.0522C11.9195 13.0281 11.831 12.9602 11.7677 12.8945C11.4725 12.567 11.1003 12.3183 10.6775 12.1924C9.98796 11.8156 9.73492 11.7444 8.95469 11.9021C8.42752 11.9711 7.89718 12.1135 7.45856 12.4388C6.94298 12.8167 6.57923 13.3567 6.342 13.9548C6.1111 14.4904 6.15011 15.0786 6.55604 15.4861C7.16651 16.1806 7.98152 16.5924 8.87562 16.679C9.5968 16.8016 10.2906 16.5344 10.94 16.2397C11.0803 16.1806 11.2131 16.0491 11.3154 15.9845L11.327 15.9768L11.328 15.9779Z" fill="#7536AB"/>
<path d="M24.2146 14.094C23.9489 13.8399 23.7211 14.0272 23.6589 14.3361C23.5735 14.829 23.7633 15.4281 23.2593 15.7326C22.7374 16.0777 22.2925 15.6625 22.2588 15.0667C22.2039 14.5518 22.3515 14.0469 22.3399 13.543C22.3579 13.1794 22.0437 12.819 21.7231 13.1191C21.5987 13.2265 21.526 13.462 21.3678 13.2933C21.1675 13.0392 20.9914 12.7062 20.7574 12.4696C20.4358 12.1256 20.0246 11.8397 19.586 11.6897C18.8648 11.4279 18.0867 11.3808 17.3644 11.6831C16.91 11.8507 16.4313 12.1508 16.1403 12.5638C15.688 13.1837 15.591 14.0074 15.8609 14.7326C16.3902 16.1237 18.0487 16.4884 19.354 16.3154C19.6967 16.2201 20.0383 16.0974 20.3483 15.9123C20.5338 15.7797 20.6867 15.5848 20.8491 15.4073C20.9777 15.266 21.0905 15.1116 21.1907 14.9506C21.2466 14.864 21.2887 14.806 21.3183 14.8071C21.3625 14.8027 21.3731 14.9484 21.3826 15.1258C21.3931 15.3131 21.4205 15.4982 21.4849 15.6757C22.0036 17.0975 23.8909 17.1369 24.4328 15.7096C24.6405 15.1609 24.7186 14.5256 24.2315 14.1071L24.2156 14.0929L24.2146 14.094Z" fill="#7536AB"/>
<path d="M8.35069 18.7263C7.85303 18.6912 7.90259 19.4514 7.70437 19.7756C7.49772 20.2072 7.15505 20.5632 6.64896 20.366C5.62307 20.0714 6.31262 19.3572 6.01635 18.7339C5.92884 18.5937 5.74222 18.5433 5.6062 18.6288C5.30044 18.8533 5.27619 19.3999 5.27197 19.7734C5.28357 20.1919 5.39322 20.6125 5.72745 20.8425C5.93833 20.9926 6.19453 21.066 6.43914 21.1284C6.7196 21.1985 7.00322 21.2675 7.29317 21.2182C7.74654 21.1448 8.08394 20.8852 8.318 20.5281C8.55523 20.1535 8.78192 19.745 8.72077 19.2619C8.69757 19.0319 8.55945 18.7734 8.36756 18.7306L8.35069 18.7263Z" fill="#7536AB"/>
<path d="M21.3015 21.8184C21.1475 21.7177 20.9651 21.8108 20.9198 21.986C20.8565 22.181 20.8924 22.4209 20.7764 22.5797C20.5529 22.8645 20.323 22.5983 20.3062 22.273C20.2482 21.9619 20.3968 21.6147 20.303 21.3277C20.2387 21.1426 20.0362 21.0002 19.8654 21.0331C19.2919 21.205 19.4743 22.8075 19.7547 23.2139C20.109 23.801 21.1338 23.6104 21.4628 23.0923C21.6947 22.6399 21.8023 22.1558 21.3194 21.8283L21.3025 21.8184H21.3015Z" fill="#7536AB"/>
<path d="M18.1447 10.0137C18.6497 9.84613 18.9966 9.42223 19.0072 8.85264C19.0346 8.5328 18.8996 8.0596 18.5401 8.04427C18.2375 8.10889 18.3798 8.52403 18.344 8.77816C18.3355 8.91946 18.3039 9.052 18.2396 9.15715C18.1405 9.32036 17.9296 9.47042 17.7504 9.46385C17.4119 9.41456 17.3624 8.8143 17.4077 8.51417C17.4288 8.35863 17.4541 8.20309 17.3908 8.09027C17.3213 7.95554 17.1241 7.88544 17.0007 7.94897C16.7582 8.11327 16.8363 8.54813 16.8204 8.81978C16.8384 9.67087 17.2569 10.3445 18.1236 10.0214L18.1458 10.0137H18.1447Z" fill="#7536AB"/>
<path d="M21.5838 17.7655C21.3265 17.8521 21.434 18.2727 21.2738 18.4622C21.1989 18.5695 21.0766 18.5608 21.0091 18.4205C20.9459 18.2957 20.9132 18.1237 20.8193 18.0175C20.6886 17.8367 20.3807 17.8477 20.3565 18.1018C20.3111 18.644 20.7909 19.5181 21.3813 19.2092C21.7535 19.0077 22.0719 18.6046 21.9528 18.1566C21.9148 17.9627 21.7872 17.7469 21.5985 17.7633L21.5827 17.7666L21.5838 17.7655Z" fill="#7536AB"/>
<path d="M9.36608 13.0293C9.6866 13.0216 10.0472 13.2363 10.4204 13.4039C10.5712 13.4718 10.7167 13.5572 10.8538 13.6525C11.2091 13.9001 11.2281 14.2539 10.935 14.5682C10.432 15.105 9.77938 15.3722 9.10881 15.4642C8.54895 15.5409 7.99858 15.2912 7.58738 14.8333C7.49881 14.7347 7.47562 14.6099 7.53045 14.4762C7.6886 14.0885 7.86995 13.6887 8.18414 13.4411C8.48253 13.2056 8.84733 13.015 9.36713 13.0303L9.36608 13.0293Z" fill="#D4CCFF"/>
<path d="M18.8477 15.1445C18.4217 15.1215 18.0295 15.1324 17.6405 14.9582C17.3431 14.8246 17.1555 14.588 17.0173 14.3459C16.9604 14.2452 16.9678 13.9571 17.0068 13.7479C17.0743 13.3809 17.3157 13.1159 17.5603 12.934C17.768 12.7796 18.0886 12.6449 18.3743 12.7139C18.7043 12.7927 19.0586 12.807 19.3538 13.0326C19.4603 13.1137 19.6205 13.1137 19.7534 13.1608C20.0591 13.2703 20.2447 13.5332 20.1762 13.8443C20.0064 14.6088 19.7144 15.1017 18.8477 15.1445Z" fill="#D4CCFF"/>
</svg>
