<svg width="28" height="28" viewBox="0 0 28 28" fill="none" xmlns="http://www.w3.org/2000/svg">
<path d="M6.95155 7.04625C7.16162 6.38573 7.53029 5.80975 7.85274 5.18191C8.30963 4.4301 8.79698 3.68504 9.51121 3.19247C10.2265 2.65481 11.2033 2.34597 12.0541 2.65143C12.7452 2.98394 13.284 3.63094 13.723 4.2768C14.0623 4.90012 14.8259 5.07596 15.3311 4.59466C15.6735 4.23171 16.0747 3.88793 16.4707 3.58585C17.0547 3.11131 17.6964 2.76415 18.4411 2.62438C19.5923 2.46207 20.8684 2.77993 21.6814 3.71773C22.5416 4.70851 23.2222 5.88188 23.5216 7.20292C23.8766 8.36165 23.9722 9.58124 23.7778 10.7839C23.6802 11.5166 23.9585 12.2177 24.2337 12.8681C24.8051 14.0437 25.3985 15.3185 25.4174 16.6767C25.4143 17.2437 25.4867 17.8174 25.3596 18.3743C25.1286 19.4653 24.8271 20.5903 24.1864 21.4909C23.6613 22.1469 23.1193 22.8175 22.4817 23.3586C22.2139 23.5648 21.9114 23.7091 21.6257 23.8827C21.3085 24.0642 21.0029 24.2828 20.6647 24.4215C20.1216 24.6379 19.5524 24.7732 18.9915 24.9231C18.4117 25.0527 17.8361 25.1913 17.2511 25.2793C16.4865 25.3311 15.7176 25.4337 14.9519 25.4438C13.3691 25.4585 11.7736 25.3007 10.2611 24.772C9.87147 24.6537 9.4734 24.5906 9.10683 24.4328C8.64994 24.2186 8.1962 23.9965 7.7288 23.8049C7.39479 23.6505 7.11226 23.4048 6.81186 23.1951C6.21422 22.822 5.71111 22.3283 5.20381 21.8279C4.78577 21.3883 4.48748 20.8427 4.17553 20.3231C3.9287 19.9241 3.85833 19.5093 3.71969 19.028C3.4487 18.31 3.54743 17.5356 3.59785 16.7804C3.69343 15.2498 4.3856 13.8352 5.29623 12.6764C6.28565 11.4873 5.99365 10.8448 6.25519 9.45049C6.39278 8.62428 6.63435 7.82737 6.9442 7.0609L6.9505 7.04174L6.95155 7.04625Z" fill="#FFFFD1"/>
<path d="M9.90518 16.164C8.26036 13.5185 4.61467 13.7067 3.05703 16.3544C2.01195 18.0136 3.05072 19.8983 3.88048 21.3816C4.82368 23.1355 6.33616 23.6743 8.0629 22.8199C8.79183 22.4558 9.43043 21.8787 9.90098 21.2035C11.0154 19.7055 10.9082 17.7465 9.91778 16.182L9.90623 16.1628L9.90518 16.164Z" fill="#FFDE7A"/>
<path d="M26.6432 17.4264C26.5351 16.3082 25.8072 15.2847 24.9322 14.6152C23.4093 13.4835 21.1269 13.842 19.7741 15.1506C18.6912 16.2282 18.0841 17.8637 18.2679 19.4372C18.4622 20.9713 19.6207 22.2213 20.9074 22.8198C22.5354 23.5773 24.4071 22.6665 25.4973 21.2903C26.2767 20.2059 26.7262 18.8128 26.6443 17.4466L26.6422 17.4264H26.6432Z" fill="#FFDE7A"/>
<path d="M16.2871 15.661C15.6496 15.4232 14.9784 15.3589 14.3062 15.3262C13.7516 15.3048 13.217 15.4243 12.6824 15.5697C11.9419 15.7703 11.3411 16.1953 10.8191 16.7836C10.4504 17.1984 10.1616 17.6561 10.2372 18.2411C10.3464 19.091 10.7582 19.7977 11.3537 20.3466C11.9745 20.9192 12.7013 21.3115 13.5048 21.5211C14.0804 21.671 14.6675 21.7127 15.241 21.5797C16.0497 21.3915 16.7776 21.0263 17.3773 20.3714C17.9225 19.7751 18.4109 19.171 18.5191 18.3042C18.5905 17.7305 18.4991 17.1951 18.1199 16.7859C17.6116 16.2381 16.9583 15.9146 16.2861 15.6632L16.2871 15.661Z" fill="#F1A436"/>
<path d="M21.9094 14.091C21.5922 13.8182 21.2256 13.5961 20.8548 13.4124C20.1375 13.0574 19.3749 12.8252 18.604 12.6538C18.0946 12.5411 17.5715 12.5186 17.1052 12.8601C16.7417 13.1272 16.7606 13.5759 17.1451 13.8407C17.3541 14.0402 17.5925 13.9343 17.8236 13.9185C18.2185 13.9489 18.6145 13.9095 19.0063 14.065C19.1564 14.1248 19.2783 14.2341 19.4369 14.2871C19.7551 14.3919 20.0954 14.4257 20.3948 14.6117C20.7687 14.845 21.1342 15.1009 21.5523 15.2463C21.8117 15.3376 22.1551 15.1573 22.214 14.9003C22.2948 14.5486 22.1215 14.2713 21.9115 14.0898L21.9094 14.091Z" fill="#F1A436"/>
<path d="M10.9923 13.8012C10.9692 13.4304 10.6436 13.1204 10.1815 13.1283C10.026 13.1599 9.79179 13.1971 9.56177 13.2534C8.67424 13.4699 7.9159 13.9681 7.19748 14.5395C6.84142 14.8236 6.53682 15.1629 6.34251 15.6115C6.23538 15.8594 6.27109 16.033 6.44019 16.21C6.71538 16.4974 6.9601 16.5064 7.30881 16.2325C7.61026 15.9958 7.82558 15.6599 8.11652 15.4131C8.44002 15.1392 8.8465 15.0287 9.20361 14.8191C9.45674 14.6703 9.71407 14.5373 10.0103 14.5012C10.2256 14.4753 10.4377 14.4065 10.6478 14.3434C10.8999 14.2679 11.0091 14.0875 10.9913 13.8001L10.9923 13.8012Z" fill="#F1A436"/>
<path d="M26.825 16.5178V16.4952C26.8061 14.9206 26.2021 13.4316 25.4123 12.1275C25.1381 11.707 25.0468 11.2021 25.178 10.7084C25.3787 9.54287 25.2442 8.30976 24.8955 7.18259C24.6676 6.32595 24.4638 5.48395 23.9786 4.75581C23.3988 3.91607 22.7927 3.06731 22.0533 2.37861C21.5492 1.92775 20.9106 1.65385 20.2877 1.43631C19.2164 1.08463 18.0305 1.31344 16.9802 1.67977C16.4992 1.86125 16.057 2.15205 15.6557 2.49359C15.3449 2.7472 15.0434 3.11465 14.7084 3.10113C14.3176 3.07408 14.0761 2.6311 13.7715 2.37861C13.6213 2.2411 13.4648 2.10246 13.3009 1.97622C12.6833 1.51972 11.9796 1.1579 11.2244 1.16691C8.34755 1.19847 6.68068 4.21138 5.73853 6.76554C5.31315 7.89045 5.01696 9.10553 5.0138 10.3229C5.0117 10.6892 4.96024 11.0544 4.77328 11.3644C4.33739 11.9967 3.81958 12.5783 3.46142 13.2693C3.05389 13.9974 2.70098 14.7921 2.52662 15.6284C1.96995 18.2175 2.61695 21.1313 4.46448 22.9663C5.92864 24.4417 7.78352 25.4235 9.68777 26.0446C11.1425 26.4222 12.6276 26.722 14.1254 26.8099C14.9037 26.8685 15.6925 26.7941 16.4677 26.7817C17.2764 26.7772 18.0747 26.651 18.8666 26.474C19.6554 26.2576 20.4726 26.1223 21.232 25.8011C22.1289 25.3897 22.9125 24.7314 23.6645 24.0732C25.7169 22.2415 26.9573 19.3796 26.8229 16.5166L26.825 16.5178ZM25.3597 18.3753C25.1287 19.4664 24.8272 20.5913 24.1865 21.4919C23.6614 22.148 23.1194 22.8186 22.4818 23.3597C22.214 23.5659 21.9115 23.7102 21.6258 23.8838C21.3086 24.0653 21.003 24.2839 20.6648 24.4226C20.1218 24.639 19.5525 24.7743 18.9916 24.9242C18.4118 25.0538 17.8362 25.1924 17.2512 25.2803C16.4866 25.3322 15.7177 25.4348 14.952 25.4449C13.3692 25.4596 11.7737 25.3018 10.2613 24.7731C9.87158 24.6548 9.47351 24.5916 9.10694 24.4338C8.65005 24.2197 8.1963 23.9976 7.72891 23.806C7.3949 23.6516 7.11236 23.4059 6.81197 23.1962C6.21433 22.8231 5.71122 22.3294 5.20391 21.829C4.78588 21.3894 4.48759 20.8438 4.17564 20.3242C3.92881 19.9252 3.85844 19.5104 3.7198 19.0291C3.44881 18.3111 3.54754 17.5367 3.59796 16.7815C3.69354 15.2508 4.38571 13.8362 5.29634 12.6775C6.28575 11.4884 5.99376 10.8459 6.25529 9.45157C6.39289 8.62536 6.63446 7.82846 6.94431 7.06198L6.95061 7.04282C7.16068 6.3823 7.52934 5.80632 7.8518 5.17849C8.30869 4.42667 8.79604 3.68162 9.51027 3.18905C10.2255 2.65139 11.2023 2.34255 12.0531 2.64801C12.7442 2.98052 13.2831 3.62751 13.7221 4.27338C14.0613 4.8967 14.8249 5.07254 15.3301 4.59124C15.6726 4.22829 16.0738 3.88451 16.4698 3.58243C17.0537 3.10789 17.6955 2.76072 18.4402 2.62096C19.5913 2.45864 20.8675 2.7765 21.6804 3.71431C22.5407 4.70508 23.2213 5.87846 23.5206 7.1995C23.8756 8.35822 23.9712 9.57782 23.7769 10.7805C23.6792 11.5132 23.9576 12.2143 24.2327 12.8646C24.8041 14.0403 25.3976 15.3151 25.4165 16.6733C25.4133 17.2403 25.4858 17.814 25.3587 18.3708L25.3597 18.3753Z" fill="#F1A436"/>
</svg>
