<svg width="28" height="28" viewBox="0 0 28 28" fill="none" xmlns="http://www.w3.org/2000/svg">
<path d="M16.8972 23.1366C16.4502 23.1819 16.0023 23.1956 15.5553 23.2167C15.1253 23.2367 14.6942 23.2273 14.2641 23.242C13.7739 23.2599 13.2754 23.2483 12.7947 23.1935C11.9757 23.0997 11.1757 22.8656 10.3725 22.6642C9.71577 22.4997 9.10968 22.1971 8.4572 22.0242C8.3012 21.9831 8.14098 21.9757 7.9892 21.9251C7.86692 21.8934 7.74465 21.8597 7.64873 21.769C7.31037 21.6952 7.0321 21.4812 6.71166 21.3694C5.88632 21.0826 5.23385 20.4995 4.48968 20.0725C4.32946 19.9808 4.25462 19.7889 4.12707 19.6507C3.88885 19.3913 3.66434 19.1214 3.39133 18.8958C3.26695 18.765 3.12887 18.6417 3.16154 18.4329H3.16471C3.10462 18.3306 2.92649 18.3148 2.95178 18.1482C2.80738 17.718 2.67035 17.2847 2.51434 16.8587C2.46902 16.7353 2.58707 16.6668 2.55545 16.5402C2.40577 15.9413 2.48167 15.3266 2.59656 14.7414C2.6714 14.3587 2.79789 13.9675 2.95389 13.589C3.11727 13.1925 3.28065 12.8098 3.52204 12.4565C3.58634 12.1972 3.84037 12.0822 3.96896 11.8724C4.19243 11.6078 4.43065 11.3547 4.63514 11.0763C4.87547 10.7484 5.20539 10.5228 5.50264 10.2613C5.90635 9.9049 6.37963 9.6297 6.74961 9.2343C6.98783 8.98019 7.23764 8.73241 7.40208 8.41609C7.46743 8.29167 7.51065 8.17463 7.48851 8.03545C7.69827 7.84882 7.693 7.53566 7.89538 7.34376C8.01344 7.23199 7.9386 7.04747 8.04717 6.93149C8.26642 6.57299 8.4962 6.21977 8.7028 5.85389C8.95683 5.40366 9.22141 4.9566 9.5682 4.57596C9.69574 4.43572 9.8549 4.31974 9.98666 4.16791C10.3798 3.71557 10.9227 3.58271 11.4982 3.56479C12.3257 3.53948 13.0024 3.96862 13.6643 4.36719C13.9974 4.56752 14.2346 4.94711 14.4739 5.27608C14.6446 5.51227 14.7679 5.7843 14.9471 6.01943C15.1 6.22082 15.2728 6.33259 15.549 6.25456C15.724 6.20501 15.9084 6.29463 16.1034 6.18287C16.4176 6.00362 16.6252 5.75689 16.7781 5.44373C16.8023 5.39523 16.855 5.36043 16.894 5.31931C17.1491 5.17697 17.2808 4.89755 17.5307 4.74888C17.693 4.4431 17.9723 4.30287 18.2906 4.23539C18.3802 4.21641 18.473 4.19743 18.5405 4.14893C18.8598 3.91485 19.233 3.90114 19.603 3.87056C19.876 3.88111 20.1321 3.75774 20.4125 3.79887C20.9553 3.88005 21.3348 4.20376 21.6932 4.58123C22.6303 5.5671 23.1478 6.79336 23.5663 8.04599C23.794 8.72819 23.9405 9.46522 23.8414 10.217C23.7919 10.5934 24.0406 10.8781 24.2651 11.1354C24.6646 11.5919 25.0357 12.0569 25.2201 12.6463C25.3392 13.028 25.412 13.4129 25.4204 13.8167C25.4299 14.2448 25.4489 14.6666 25.4088 15.0989C25.3308 15.9413 25.1484 16.7469 24.8522 17.5419C24.5497 18.3549 24.0933 19.0539 23.5494 19.7161C23.0877 20.2781 22.509 20.722 21.9451 21.148C21.1693 21.7342 20.3693 22.3373 19.3785 22.5598C19.3342 22.5704 19.2952 22.6052 19.253 22.6284C18.8008 22.795 18.3507 22.9679 17.8659 23.0174C17.811 23.0195 17.7552 23.0216 17.7004 23.0238C17.4305 23.0554 17.1596 23.0817 16.8929 23.1345L16.8972 23.1366Z" fill="#EBEBEB"/>
<path d="M26.5955 12.4407C26.4732 11.67 26.0821 11.0574 25.553 10.5122C25.3401 10.294 24.9437 10.1495 25.2241 9.72248C25.2336 9.70772 25.2051 9.66976 25.202 9.64235C25.1725 9.36293 25.1777 9.07297 25.1039 8.80515C25.046 8.59427 25.0776 8.37496 24.9785 8.16408C24.9269 8.05337 24.7593 7.89415 24.9153 7.72439C24.929 7.70963 24.8984 7.6548 24.8879 7.61895C24.7698 7.2225 24.6191 6.84081 24.4293 6.47387C24.3703 6.4433 24.3376 6.39268 24.3239 6.33258C24.3619 6.37792 24.3977 6.42537 24.4293 6.47387C24.404 6.35473 24.3714 6.22609 24.3218 6.12592C24.2122 5.90239 24.1637 5.62824 23.9149 5.49117C23.9149 5.4743 23.9139 5.45638 23.9128 5.43951C23.858 5.26026 23.7431 5.11897 23.6177 4.98506C23.5355 4.60548 23.1381 4.47684 22.9673 4.16684C22.9652 4.16368 22.9494 4.16895 22.9399 4.17001C22.9273 3.87372 22.4445 3.39608 22.0703 3.30856C21.8627 3.08925 21.5475 3.03547 21.3325 2.82881C21.1649 2.66749 20.9551 2.64429 20.738 2.61793C20.1066 2.54201 19.4826 2.61055 18.8712 2.74762C18.2598 2.88469 17.6759 3.08819 17.1478 3.4625C16.6524 3.81257 16.1991 4.19637 15.8007 4.64976C15.7617 4.69405 15.7048 4.80159 15.65 4.73517C15.5351 4.59704 15.3622 4.52007 15.26 4.38932C14.9184 3.95069 14.52 3.56478 14.0583 3.27904C13.4838 2.92371 12.8546 2.6464 12.2 2.46715C11.889 2.38174 11.5675 2.29739 11.2186 2.34906C10.8972 2.39651 10.5925 2.49984 10.2816 2.55677C9.81778 2.64113 9.46045 2.85728 9.15582 3.17782C8.61719 3.74614 8.11229 4.33977 7.71912 5.02724C7.28274 5.79062 6.86321 6.55612 6.58178 7.39331C6.42788 7.85198 6.17701 8.25265 5.75855 8.53101C5.47289 8.72186 5.18408 8.91376 4.92794 9.14151C4.23752 9.75517 3.55659 10.372 2.94628 11.0774C2.28538 11.8408 1.8374 12.6875 1.55596 13.6354C1.31247 14.4662 1.15647 15.3034 1.16701 16.1912C1.18176 17.3215 1.50958 18.3274 2.06824 19.2764C2.34335 19.7435 2.74074 20.1231 3.0928 20.5333C3.54605 21.0594 4.10471 21.4622 4.72872 21.7616C4.98697 21.885 5.241 22.0126 5.48765 22.1581C5.80809 22.3458 6.12853 22.5387 6.46478 22.6916C7.4282 23.1292 8.41903 23.4856 9.44991 23.7428C11.0152 24.133 12.5763 24.5263 14.2059 24.4989C15.3011 24.4799 16.3984 24.5083 17.4883 24.3903C18.2272 24.3101 18.9682 24.1868 19.6713 23.9421C20.3385 23.7102 20.9709 23.3738 21.5454 22.9668C22.4603 22.3194 23.3816 21.6804 24.1816 20.878C24.7656 20.2918 25.281 19.6602 25.7016 18.9569C26.5185 17.5925 26.723 16.0647 26.8242 14.5137C26.8695 13.8093 26.703 13.1303 26.5944 12.4428L26.5955 12.4407ZM25.4117 15.0989C25.3337 15.9413 25.1514 16.7469 24.8552 17.5419C24.5527 18.3549 24.0962 19.0539 23.5523 19.7161C23.0907 20.2781 22.512 20.722 21.948 21.148C21.1722 21.7342 20.3722 22.3373 19.3814 22.5598C19.3371 22.5704 19.2981 22.6052 19.2559 22.6283C18.8037 22.7949 18.3537 22.9679 17.8688 23.0174C17.814 23.0195 17.7581 23.0216 17.7033 23.0237C17.4335 23.0554 17.1626 23.0817 16.8959 23.1345C16.449 23.1798 16.001 23.1935 15.554 23.2146C15.124 23.2346 14.6929 23.2251 14.2628 23.2399C13.7727 23.2578 13.273 23.2462 12.7934 23.1914C11.9744 23.0976 11.1744 22.8635 10.3712 22.6621C9.71448 22.4976 9.10839 22.195 8.45592 22.0221C8.29992 21.9809 8.1397 21.9736 7.98791 21.923C7.86564 21.8913 7.74337 21.8576 7.64744 21.7669C7.30909 21.6931 7.03081 21.4791 6.71037 21.3673C5.88504 21.0805 5.23256 20.4974 4.48839 20.0704C4.32817 19.9786 4.25333 19.7867 4.12579 19.6486C3.88757 19.3892 3.66305 19.1193 3.39005 18.8937C3.26567 18.7629 3.12758 18.6395 3.16026 18.4308H3.16342C3.10334 18.3285 2.9252 18.3127 2.9505 18.1461C2.80609 17.7159 2.66906 17.2825 2.51306 16.8566C2.46773 16.7332 2.58579 16.6647 2.55417 16.5381C2.40449 15.9392 2.48038 15.3245 2.59528 14.7393C2.67011 14.3566 2.7966 13.9654 2.95261 13.5869C3.11599 13.1904 3.27937 12.8077 3.52075 12.4544C3.58505 12.1951 3.83908 12.0801 3.96768 11.8703C4.19114 11.6056 4.42936 11.3526 4.63385 11.0742C4.87418 10.7463 5.2041 10.5207 5.50135 10.2592C5.90506 9.90279 6.37834 9.62759 6.74832 9.23219C6.98654 8.97808 7.23636 8.73029 7.40079 8.41397C7.46614 8.28955 7.50936 8.17251 7.48723 8.03333C7.69699 7.8467 7.69172 7.53355 7.8941 7.34165C8.01215 7.22988 7.93731 7.04536 8.04588 6.92937C8.26513 6.57088 8.49492 6.21765 8.70152 5.85178C8.95555 5.40155 9.22012 4.95448 9.56691 4.57384C9.69445 4.43361 9.85362 4.31762 9.98538 4.16579C10.3785 3.71345 10.9214 3.5806 11.4969 3.56267C12.3244 3.53737 13.0011 3.96651 13.663 4.36507C13.9961 4.56541 14.2333 4.94499 14.4726 5.27397C14.6433 5.51015 14.7667 5.78219 14.9458 6.01732C15.0987 6.21871 15.2716 6.33048 15.5477 6.25245C15.7227 6.20289 15.9072 6.29252 16.1022 6.18075C16.4163 6.0015 16.6239 5.75477 16.7768 5.44162C16.801 5.39311 16.8537 5.35832 16.8927 5.3172C17.1478 5.17485 17.2796 4.89544 17.5294 4.74677C17.6917 4.44099 17.971 4.30075 18.2894 4.23327C18.379 4.21429 18.4717 4.19531 18.5392 4.14681C18.8586 3.91273 19.2317 3.89903 19.6017 3.86845C19.8747 3.87899 20.1308 3.75563 20.4112 3.79675C20.9541 3.87794 21.3335 4.20164 21.6919 4.57912C22.629 5.56498 23.1465 6.79125 23.565 8.04388C23.7927 8.72607 23.9392 9.4631 23.8401 10.2149C23.7906 10.5913 24.0393 10.876 24.2638 11.1333C24.6633 11.5898 25.0344 12.0548 25.2188 12.6442C25.3379 13.0259 25.4107 13.4108 25.4191 13.8146C25.4286 14.2427 25.4476 14.6645 25.4075 15.0968L25.4117 15.0989Z" fill="#848484"/>
<path d="M17.7921 13.6977C17.1924 13.7146 16.6379 13.9624 16.0497 14.0288C15.3024 14.1131 14.5614 14.2818 13.8014 14.2059C12.9065 14.1163 12.0632 13.8569 11.2843 13.4035C11.064 13.2749 10.8953 13.3845 10.7298 13.4879C10.5675 13.5902 10.5833 13.7578 10.6276 13.9265C10.7088 14.2291 10.9723 14.3546 11.1989 14.5001C12.2034 15.1475 13.3134 15.3963 14.4423 15.3426C15.7124 15.3869 16.9014 15.2909 18.0282 14.7816C18.3792 14.6224 18.4889 14.4421 18.3919 14.0319C18.3445 13.8306 18.0725 13.6914 17.7911 13.6988L17.7921 13.6977Z" fill="#848484"/>
<path d="M9.78423 10.8338C9.62823 10.8823 9.47012 10.9245 9.32993 11.0078C8.5067 11.4981 7.63709 11.9178 6.94035 12.5989C6.70634 12.8277 6.5261 13.0829 6.43018 13.3275C6.43966 13.7999 6.50185 13.8568 6.90451 13.9222C7.34511 13.9939 7.59703 13.6607 7.83631 13.4255C8.16202 13.1061 8.51829 12.8509 8.90303 12.6305C9.38369 12.3564 9.85697 12.0791 10.2291 11.6594C10.364 11.5065 10.5137 11.3463 10.3893 11.127C10.2607 10.8981 10.0846 10.7389 9.78318 10.8338H9.78423Z" fill="#848484"/>
<path d="M22.0832 12.9036C21.7354 12.5683 21.3063 12.3511 20.8932 12.116C20.2112 11.729 19.4702 11.5203 18.745 11.4443C18.5457 11.4486 18.4055 11.4812 18.2748 11.5413C18.0134 11.6615 17.9186 12.0411 18.1188 12.2046C18.2791 12.3353 18.4456 12.4587 18.6564 12.5209C19.1128 12.6548 19.5819 12.7528 20.0162 12.9574C20.5147 13.1915 20.9227 13.55 21.3548 13.88C21.4982 13.9897 21.6679 14.0445 21.8576 14.016C22.0885 13.9812 22.2244 13.8262 22.2645 13.6238C22.3151 13.3686 22.2887 13.1029 22.0832 12.9057V12.9036Z" fill="#848484"/>
</svg>
