<svg width="28" height="28" viewBox="0 0 28 28" fill="none" xmlns="http://www.w3.org/2000/svg">
<path d="M24.3916 19.6088C24.1315 19.8819 23.8601 20.1823 23.5671 20.4323C23.1347 20.7568 22.6992 21.0855 22.2451 21.3827C20.9862 22.1316 19.5744 22.5611 18.1493 22.8605C17.33 23.1073 16.4693 23.186 15.6221 23.2848C14.2135 23.3488 12.8203 23.2963 11.4097 23.2449C10.4799 23.1692 9.55524 23.0915 8.62339 22.9665C7.9681 22.85 7.28392 22.7019 6.64308 22.5622C6.14155 22.4225 5.64828 22.2471 5.17461 22.015C4.80827 21.8249 4.48011 21.5697 4.12718 21.3628C3.12929 20.7452 2.64324 19.5038 2.45336 18.3706C2.35739 17.272 2.59061 16.1566 3.07563 15.1704C3.22113 14.8554 3.38418 14.5476 3.57922 14.2609C3.93214 13.7358 4.47495 13.302 4.5348 12.6435C4.62046 12.047 4.02296 11.777 3.70924 11.3853C3.59263 11.2435 3.50801 11.0797 3.43784 10.9106C3.04157 10.1407 3.27273 9.36668 3.75568 8.70712C4.19942 8.02025 4.87535 7.54133 5.55643 7.11912C6.36755 6.6444 7.25606 6.35873 8.16108 6.14658C8.68221 6.03735 9.20438 5.87876 9.73377 5.95648C10.1682 6.05415 10.5903 6.16233 11.032 6.2453C11.743 6.39444 12.52 6.67591 13.2486 6.50157C13.7078 6.38604 14.1433 6.11612 14.5654 5.89136C15.2671 5.50172 16.0194 5.20764 16.7995 5.00809C18.5683 4.49767 21.1389 4.67936 22.6724 5.76533C23.2441 6.21169 23.8818 6.85446 23.7673 7.64845C23.6403 9.45596 21.853 9.94433 23.2884 11.5166C24.793 13.1644 26.0262 15.4866 25.3286 17.7688C25.115 18.4231 24.8869 19.0953 24.4029 19.5941L24.3895 19.6088H24.3916Z" fill="#C5FAFF"/>
<path d="M26.8116 15.8909V15.8709C26.7486 15.1851 26.5928 14.4699 26.3462 13.8198C25.8715 12.7559 25.2017 11.8001 24.4216 10.9463C23.9778 10.4526 24.2627 10.168 24.5103 9.68594C24.8117 9.03267 25.0882 8.42457 25.0583 7.70619C24.9334 6.40177 24.0274 5.27378 23.013 4.5302C21.1875 3.47994 18.9306 3.25833 16.9038 3.7488C16.2155 3.90844 15.5365 4.12585 14.9122 4.46823C14.2693 4.77911 13.6749 5.25278 12.9855 5.44183C12.6553 5.5164 12.3178 5.42817 12 5.32315C11.1992 5.06373 10.3912 4.77386 9.55118 4.66148C8.91447 4.58691 8.27982 4.71715 7.67303 4.90724C5.63286 5.46808 3.43171 6.38916 2.39048 8.38676C1.67843 9.57356 1.66811 10.8412 2.45858 12.0039C2.6206 12.2958 3.00861 12.5584 2.9725 12.9197C2.94154 13.156 2.75166 13.3503 2.62886 13.5488C2.03342 14.431 1.59071 15.413 1.37607 16.4601C1.07061 17.7782 1.07267 18.672 1.55872 19.946C1.77543 20.6622 2.22124 21.2861 2.70316 21.8417C3.13038 22.2975 3.65977 22.6315 4.20671 22.9371C4.93527 23.3541 5.75257 23.5725 6.53995 23.8193C7.02806 23.9895 7.53784 24.0294 8.04763 24.0945C10.6533 24.4894 13.2982 24.564 15.939 24.46C17.974 24.3329 19.9171 23.6229 21.8304 22.9581C23.4505 22.3826 24.8973 21.3008 25.8612 19.8525C26.6785 18.694 26.9106 17.2877 26.8136 15.894L26.8116 15.8909ZM25.3307 17.7688C25.1171 18.4231 24.8891 19.0952 24.4051 19.5941L24.3917 19.6088C24.1316 19.8819 23.8602 20.1823 23.5671 20.4322C23.1347 20.7568 22.6993 21.0855 22.2452 21.3827C20.9862 22.1315 19.5745 22.5611 18.1494 22.8604C17.33 23.1072 16.4694 23.186 15.6221 23.2847C14.2135 23.3488 12.8204 23.2963 11.4097 23.2448C10.4799 23.1692 9.55531 23.0915 8.62346 22.9665C7.96817 22.8499 7.28398 22.7018 6.64314 22.5622C6.14162 22.4225 5.64834 22.2471 5.17468 22.015C4.80834 21.8249 4.48018 21.5697 4.12725 21.3628C3.12935 20.7452 2.6433 19.5038 2.45342 18.3706C2.35745 17.272 2.59067 16.1566 3.07569 15.1704C3.2212 14.8553 3.38424 14.5476 3.57928 14.2609C3.93221 13.7357 4.47502 13.302 4.53487 12.6435C4.62052 12.0469 4.02302 11.777 3.70931 11.3853C3.5927 11.2435 3.50808 11.0796 3.43791 10.9105C3.04164 10.1407 3.27279 9.36666 3.75575 8.70709C4.19948 8.02022 4.87541 7.5413 5.5565 7.1191C6.36761 6.64438 7.25612 6.35871 8.16114 6.14655C8.68228 6.03733 9.20444 5.87874 9.73383 5.95646C10.1683 6.05413 10.5904 6.16231 11.032 6.24528C11.743 6.39441 12.5201 6.67589 13.2487 6.50154C13.7079 6.38601 14.1434 6.1161 14.5654 5.89134C15.2672 5.50169 16.0194 5.20762 16.7996 5.00807C18.5684 4.49764 21.1389 4.67934 22.6724 5.76531C23.2441 6.21167 23.8819 6.85443 23.7673 7.64843C23.6404 9.45593 21.8531 9.9443 23.2885 11.5165C24.7931 13.1644 26.0263 15.4865 25.3287 17.7688H25.3307Z" fill="#2A93C9"/>
<path d="M20.1698 14.7282C20.3226 14.1274 19.9036 13.3418 19.4113 12.9291C18.8386 12.4596 17.9697 12.4313 17.2907 12.0962C15.3073 11.1867 12.8265 11.4031 10.9194 12.4124C10.4138 12.6865 9.93185 13.0037 9.45303 13.324C8.73892 13.8481 7.89891 14.3091 7.44898 15.1021C6.88244 16.2007 8.01036 16.7783 8.99278 16.5693C9.97623 16.3939 10.7646 15.6209 11.5778 15.0674C12.3053 14.5896 13.1546 14.3007 14.0029 14.1285C15.2712 13.867 15.7201 14.9561 16.7035 15.4277C17.7943 15.9654 19.6642 16.1492 20.1657 14.7439L20.1698 14.7271V14.7282Z" fill="#95D3E1"/>
<path d="M16.0598 14.1695C15.0877 13.5656 14.3788 13.1927 13.2292 13.5141C12.0817 13.7767 10.7546 14.724 10.6875 16.0873C10.7216 16.8666 11.5069 17.3854 12.2251 17.2016C12.74 17.1333 13.1281 16.7227 13.6172 16.5767C14.321 16.3572 14.9949 16.8666 15.7028 16.8476C16.2415 16.8645 16.7791 16.457 16.9122 15.9339C17.1062 15.247 16.5768 14.5623 16.0743 14.1789L16.0588 14.1684L16.0598 14.1695Z" fill="#2A93C9"/>
<path d="M22.1171 14.221C22.113 13.7358 21.984 13.2495 21.5217 13.0058C21.2627 12.8966 21.0129 12.759 20.757 12.8472C20.563 12.9596 20.6064 13.2306 20.7766 13.364C21.3143 13.7085 21.5888 14.535 21.2328 15.0791C21.0501 15.3553 20.7622 15.6199 20.4113 15.558C20.1141 15.5034 19.7808 15.391 19.5744 15.1914C19.4145 15.036 19.2947 14.8228 19.2504 14.6106C19.2143 14.4457 19.1864 14.2651 19.0533 14.1506C18.9284 14.0382 18.7509 14.0351 18.6446 14.1569C18.4661 14.3565 18.5136 14.6926 18.5961 14.9383C18.8386 15.7229 19.6704 16.2154 20.4299 16.2112C21.5269 16.2364 22.1615 15.2975 22.1171 14.2441V14.2231V14.221Z" fill="#2A93C9"/>
<path d="M10.6863 11.8633C10.5646 11.6038 10.2354 11.5009 9.97634 11.5986C9.56047 11.7614 9.44386 12.3033 9.12602 12.6005C8.94439 12.7959 8.73594 12.9629 8.52439 13.1215C8.21171 13.3578 7.61524 13.6939 7.82886 14.1633C8.52336 15.0287 9.67708 13.8209 10.2023 13.278C10.3994 13.0732 10.4727 12.7959 10.5904 12.5438C10.6925 12.3422 10.8019 12.1017 10.6946 11.8811L10.6863 11.8643V11.8633Z" fill="#2A93C9"/>
<path d="M7.10645 15.9035C6.9465 15.8794 6.81132 16.0611 6.76797 16.227C6.63898 16.6681 6.47387 17.1943 6.01362 17.377C5.55027 17.606 5.03223 17.1869 5.08486 16.6828C5.10963 16.2837 5.25514 15.9203 5.56575 15.6567C5.65347 15.5769 5.7773 15.4782 5.80413 15.3742C5.86708 15.14 5.51209 14.9394 5.30776 15.0791C4.39862 15.6882 4.00751 17.0641 4.91975 17.8371C5.36349 18.1532 5.94757 18.1868 6.42124 17.9284C6.71844 17.8171 6.94857 17.5829 7.09613 17.2867C7.23442 16.9958 7.40675 16.7164 7.42739 16.395C7.42945 16.1892 7.29014 15.9361 7.12193 15.9067L7.10542 15.9046L7.10645 15.9035Z" fill="#2A93C9"/>
<path d="M19.1914 12.757C19.1934 12.3652 18.7228 12.2403 18.4339 12.1037C18.2368 12.0166 18.05 11.9094 17.8767 11.7813C17.566 11.5702 17.37 11.2425 17.0222 11.0776C16.6208 10.877 16.207 11.1144 16.2565 11.5901C16.4061 12.4461 17.2647 12.9429 18.016 13.2023C18.2017 13.2664 18.3978 13.3357 18.5949 13.2947C18.8642 13.2422 19.1759 13.0857 19.1903 12.7769V12.758L19.1914 12.757Z" fill="#2A93C9"/>
<path d="M5.48623 19.3044C5.08893 19.3149 5.14362 19.902 4.9104 20.0974C4.80205 20.2003 4.60907 20.2129 4.51826 20.0816C4.316 19.8044 4.5905 19.4683 4.55644 19.1837C4.52652 18.9652 4.27678 18.8014 4.09826 18.9537C3.78042 19.1994 3.67206 19.671 3.75462 20.0606C3.8671 20.7622 4.64209 21.0783 5.23547 20.8116C5.46249 20.654 5.68127 20.3705 5.71635 20.0753C5.75866 19.8201 5.82265 19.3717 5.50274 19.3065L5.48623 19.3044Z" fill="#2A93C9"/>
<path d="M23.9065 16.997C23.8621 16.8647 23.8291 16.7176 23.7239 16.6241C23.6537 16.5601 23.5577 16.5233 23.4597 16.4813C23.2822 16.4099 23.1099 16.3175 22.987 16.4204C22.9035 16.4897 22.8704 16.6126 22.9024 16.7176C22.9468 16.8647 23.0748 16.977 23.1449 17.1125C23.2739 17.3761 23.374 17.7647 23.1852 17.9958C22.9066 18.3392 22.3318 18.3298 22.1078 17.9338C22.0036 17.7679 22.0438 17.5295 21.9231 17.3509C21.8323 17.1986 21.6238 17.0453 21.499 17.1556C21.2926 17.3278 21.306 17.6629 21.3947 17.9013C21.5495 18.4201 21.9056 18.7688 22.4246 18.8591C23.1233 19.0198 23.7249 18.7163 23.9323 18.0683C24.0004 17.7332 23.9911 17.3341 23.9117 17.0148L23.9065 16.9959V16.997Z" fill="#2A93C9"/>
</svg>
