<svg width="28" height="28" viewBox="0 0 28 28" fill="none" xmlns="http://www.w3.org/2000/svg">
<g clip-path="url(#clip0_54849_24987)">
<path d="M15.2119 5.31541C15.3673 5.03798 15.5496 4.77816 15.732 4.51614C16.0406 4.04826 16.3359 3.56606 16.8155 3.28202C17.1024 3.10808 17.4018 2.94404 17.7208 2.84826C18.534 2.61487 19.4621 3.07395 19.9945 3.74661C20.6803 4.71871 21.1174 5.89118 21.4189 7.05925C21.6395 7.9587 21.7244 8.89447 21.9264 9.80382C22.0362 10.2794 22.1108 10.7627 22.2123 11.2416C22.3035 11.6754 22.5179 12.02 22.8898 12.2071C23.1487 12.3425 23.4367 12.4361 23.6946 12.577C24.1453 12.806 24.5275 13.1737 24.8268 13.6009C25.8016 15.0067 25.6659 16.9047 25.4007 18.5374C25.1967 19.5205 24.7875 20.4629 24.1763 21.2291C23.3197 22.4093 22.262 23.4375 21.0377 24.1597C20.7507 24.3205 20.4514 24.4449 20.1396 24.5373C19.6258 24.6838 19.1047 24.861 18.5816 24.9854C18.0347 25.1021 17.4784 25.1693 16.9284 25.2628C15.4699 25.5623 13.9824 25.5722 12.5073 25.4247C11.8381 25.2859 11.1514 25.2133 10.4843 25.0504C9.89589 24.883 9.32824 24.6166 8.74608 24.4041C7.87388 24.0794 6.98822 23.8008 6.19578 23.2878C5.11019 22.5139 4.04947 21.6221 3.30675 20.4772C2.63551 19.4192 2.33925 18.5891 2.44388 17.2878C2.4677 15.3865 3.29329 13.5822 4.52182 12.2236C5.26868 11.3803 6.22893 10.8486 7.07005 10.1363C7.3777 9.86327 7.57866 9.49557 7.71021 9.09814C7.97954 8.22622 8.36695 7.34439 8.69014 6.47577C8.85174 6.01008 9.06409 5.57963 9.27023 5.13926C9.54577 4.51835 9.85342 3.89083 10.246 3.34918C10.8841 2.45524 11.6683 1.89707 12.2007 3.2534C12.6917 4.41376 12.8533 5.68641 13.0553 6.92934C13.1205 7.27943 13.2158 7.7187 13.5452 7.86732C13.885 8.01264 14.2186 7.75943 14.375 7.42365C14.5169 7.1198 14.5749 6.77411 14.6899 6.45375C14.8225 6.06733 14.9986 5.68641 15.2016 5.33412L15.2119 5.31541Z" fill="#F5F0FF"/>
<path d="M9.83393 16.2721C9.72604 13.1588 6.47137 11.5055 3.80157 13.0249C2.06872 13.9427 2.03028 16.0943 2.01057 17.7938C1.95441 19.7844 2.99727 21.0052 4.92011 21.1249C5.73352 21.1724 6.57476 20.9903 7.31916 20.6393C9.03179 19.8958 9.91504 18.144 9.83587 16.294L9.8354 16.2716L9.83393 16.2721Z" fill="#F5CBFB"/>
<path d="M26.4899 16.4889C26.3817 15.3707 25.6539 14.3472 24.7789 13.6777C23.2559 12.546 20.9736 12.9045 19.6208 14.2131C18.5379 15.2907 17.9308 16.9262 18.1146 18.4997C18.3089 20.0338 19.4674 21.2838 20.7541 21.8823C22.3821 22.6398 24.2538 21.729 25.344 20.3528C26.1233 19.2684 26.5729 17.8753 26.491 16.5091L26.4889 16.4889H26.4899Z" fill="#F5CBFB"/>
<path d="M21.3019 14.8261C21.289 14.3211 21.3356 13.8119 21.1854 13.3206C21.0779 12.9587 20.9083 12.6436 20.6986 12.3408C20.5108 12.0752 20.2298 11.9183 19.9644 11.7752C19.6083 11.5895 19.2173 11.372 18.8133 11.3362C18.2306 11.2936 17.7541 11.756 17.3644 12.1619C16.8063 12.7399 16.4269 13.4638 16.3414 14.2922C16.2275 15.089 16.0527 15.9436 16.3311 16.7225C16.5823 17.5591 16.9746 18.0587 17.7567 18.3642C17.9678 18.4605 18.1801 18.5555 18.4041 18.5871C18.7356 18.6353 19.0787 18.4991 19.418 18.4082C20.0265 18.2926 20.4435 17.8481 20.7283 17.2908C21.1841 16.5587 21.3537 15.7165 21.3032 14.8468V14.8206L21.3019 14.8261Z" fill="#7C429D"/>
<path d="M12.5537 13.4988C12.5291 12.896 12.2702 12.3428 11.8196 11.9671C11.1981 11.3988 10.3253 10.9075 9.49923 11.0148C8.49056 11.1965 7.79135 12.1859 7.33945 13.1011C6.82152 14.3134 6.79821 16.0887 7.96874 16.8992C8.5061 17.3148 9.17682 17.4854 9.83848 17.44C10.1661 17.418 10.4613 17.2776 10.7708 17.2336C11.1463 17.1854 11.4285 16.9061 11.6849 16.6364C12.063 16.2469 12.3893 15.7144 12.5032 15.146C12.5408 14.9644 12.5641 14.7634 12.5524 14.5818C12.511 14.2832 12.5991 13.8689 12.5537 13.5249L12.5511 13.4988H12.5537Z" fill="#7C429D"/>
<path d="M14.0036 16C13.4925 16.0506 13.0416 17.0349 13.0077 17.7971C12.9251 18.6605 13.5207 19.0486 14.0694 18.9952C14.6181 19.012 15.0803 18.0249 14.9882 17.2796C14.883 16.6862 14.4208 16.0675 14.0337 16H14.0036Z" fill="#7C429D"/>
<path d="M17.8756 16.2341C17.8769 16.212 17.8717 16.1928 17.8575 16.1749C17.7552 16.0441 17.6878 15.9024 17.7383 15.7249C17.7953 15.3987 17.7992 15.0671 17.8251 14.7382C17.8756 14.1175 18.0517 13.5299 18.4945 13.102C18.8118 12.7951 19.107 12.912 19.3323 13.3084C19.6974 13.9497 19.722 14.6267 19.6301 15.3464C19.5783 15.7497 19.4372 16.0951 19.2572 16.4377C18.9425 17.0391 18.8907 17.0666 18.2407 16.8382C18.0077 16.7143 17.9028 16.501 17.8743 16.2368L17.8756 16.2341Z" fill="#F5F0FF"/>
<path d="M10.9753 14.2078C11.0115 14.7597 10.9028 15.2633 10.4509 15.6418C9.81124 16.1785 9.12627 16.0601 8.62388 15.4422C8.47368 15.2592 8.60575 14.9661 8.55266 14.7225C8.4439 14.2243 8.65366 13.7922 8.85954 13.3656C8.92298 13.2349 9.01492 13.1165 9.06024 12.9803C9.17548 12.6349 9.42538 12.5055 9.73484 12.5248C10.1337 12.5496 10.5286 12.6363 10.8251 12.9569C11.0284 13.1757 10.9753 13.4785 11.0103 13.7482C11.0284 13.8913 10.9908 14.0427 10.9766 14.2064L10.9753 14.2078Z" fill="#F5F0FF"/>
<path d="M26.7907 15.3422L26.7886 15.3191C26.6229 13.6017 25.7248 11.8798 24.1492 11.271C23.6313 11.0585 23.3972 10.6215 23.3174 10.0611C22.9424 8.32168 22.8544 6.47434 22.0651 4.88793C21.7667 4.28243 21.5565 3.60096 21.0965 3.11216C20.5921 2.69822 20.1342 2.1995 19.5697 1.87363C19.1574 1.65785 18.6747 1.54116 18.2303 1.53675C16.5429 1.53455 15.1403 2.90409 14.2743 4.34848C14.0143 4.76243 13.9056 4.51142 13.8165 4.16463C13.7616 3.94995 13.6694 3.75069 13.5824 3.54922C13.4166 3.18482 13.3275 2.73675 13.1028 2.38996C12.6314 1.75033 11.9996 1.12391 11.2227 1.16905C9.08464 1.35731 7.41897 6.43141 6.72183 8.68828C6.63068 9.10773 6.33545 9.43139 5.96876 9.61415C5.0458 10.1272 4.14978 10.7217 3.43296 11.5286C1.67717 13.5334 0.73971 16.4882 1.35605 19.18C1.60259 20.2985 2.1806 21.3378 2.94714 22.148C9.40161 29.6012 27.8214 28.7447 26.7917 15.3422H26.7907ZM25.4006 18.537C25.1965 19.5202 24.7873 20.4625 24.1762 21.2288C23.3195 22.4089 22.2619 23.4372 21.0375 24.1594C20.7506 24.3201 20.4512 24.4445 20.1394 24.537C19.6256 24.6834 19.1046 24.8607 18.5815 24.9851C18.0345 25.1018 17.4783 25.1689 16.9282 25.2625C15.4697 25.562 13.9822 25.5719 12.5071 25.4243C11.838 25.2856 11.1512 25.213 10.4841 25.05C9.89572 24.8827 9.32807 24.6163 8.74591 24.4038C7.87371 24.079 6.98805 23.8005 6.19561 23.2875C5.11002 22.5135 4.0493 21.6218 3.30658 20.4768C2.63534 19.4189 2.33909 18.5888 2.44371 17.2875C2.46753 15.3862 3.29312 13.5818 4.52165 12.2233C5.26851 11.38 6.22876 10.8483 7.06988 10.136C7.37753 9.86295 7.57849 9.49525 7.71005 9.09782C7.97937 8.2259 8.36679 7.34406 8.68997 6.47545C8.85157 6.00976 9.06392 5.5793 9.27006 5.13894C9.5456 4.51802 9.85325 3.8905 10.2458 3.34885C10.8839 2.45491 11.6681 1.89675 12.2005 3.25308C12.6915 4.41344 12.8531 5.68609 13.0551 6.92902C13.1204 7.27911 13.2157 7.71838 13.5451 7.867C13.8848 8.01232 14.2184 7.75911 14.3748 7.42333C14.5167 7.11948 14.5747 6.77379 14.6897 6.45343C14.8223 6.06701 14.9984 5.68609 15.2014 5.3338L15.2118 5.31508C15.3672 5.03765 15.5495 4.77784 15.7318 4.51582C16.0405 4.04793 16.3357 3.56573 16.8153 3.2817C17.1022 3.10776 17.4016 2.94372 17.7206 2.84794C18.5338 2.61455 19.4619 3.07363 19.9944 3.74628C20.6801 4.71839 21.1172 5.89086 21.4187 7.05893C21.6393 7.95837 21.7243 8.89415 21.9263 9.8035C22.0361 10.2791 22.1106 10.7624 22.2122 11.2413C22.3033 11.6751 22.5177 12.0196 22.8896 12.2068C23.1486 12.3422 23.4366 12.4358 23.6945 12.5767C24.1451 12.8057 24.5273 13.1734 24.8267 13.6005C25.8014 15.0064 25.6657 16.9044 25.4006 18.537Z" fill="#7C429D"/>
</g>
<defs>
<clipPath id="clip0_54849_24987">
<rect width="28" height="28" fill="white"/>
</clipPath>
</defs>
</svg>
