<svg width="33" height="33" viewBox="0 0 33 33" fill="none" xmlns="http://www.w3.org/2000/svg">
<circle cx="16.5" cy="16.5" r="16.5" fill="#C9B9EF"/>
<path fill-rule="evenodd" clip-rule="evenodd" d="M7.06708 24.7804L7.0651 24.7723C7.12969 24.594 7.2314 24.6198 7.32115 24.6607C7.38612 24.6903 7.38415 24.7653 7.38258 24.8252C7.38235 24.834 7.38213 24.8425 7.38213 24.8505C7.38213 24.9577 7.4431 25.0514 7.53795 25.0334C8.01673 24.943 8.41194 25.2107 8.6502 25.5133C8.79957 25.7027 8.9878 25.78 9.16726 25.8537L9.16728 25.8537C9.24558 25.8858 9.3222 25.9173 9.3932 25.9571C9.74284 26.1524 10.1398 26.2643 10.536 26.3761L10.5361 26.3761C10.6734 26.4148 10.8107 26.4535 10.9458 26.4957C11.0053 26.5142 11.0665 26.5352 11.1283 26.5565L11.1284 26.5566C11.3493 26.6326 11.5785 26.7115 11.769 26.6876C12.0461 26.6539 12.2993 26.7164 12.5423 26.7764L12.5424 26.7764C12.6162 26.7946 12.6892 26.8127 12.7616 26.8277C13.091 26.896 13.4209 26.9296 13.7503 26.9631L13.7504 26.9632C13.911 26.9795 14.0715 26.9959 14.2318 27.0162C14.6085 27.0633 14.989 27.0847 15.3691 27.1061L15.3694 27.1061C15.4996 27.1135 15.6297 27.1208 15.7595 27.1291C15.8432 27.1348 15.9293 27.1247 16.0126 27.115L16.0126 27.115C16.1305 27.1012 16.2425 27.0881 16.3332 27.1212C16.5796 27.2107 16.8127 27.1625 17.0409 27.1153L17.0409 27.1153C17.1441 27.094 17.2463 27.0729 17.3483 27.0648C17.3668 27.0632 17.3854 27.0618 17.4042 27.0603C17.4203 27.0591 17.4365 27.0579 17.4528 27.0567C17.6955 27.0388 17.9605 27.0192 18.2178 26.892C18.4274 26.7887 18.6829 26.7612 18.9385 26.7337L18.9386 26.7337C19.0574 26.7209 19.1762 26.7081 19.2905 26.6876C19.5958 26.6334 19.8879 26.541 20.18 26.4487L20.18 26.4487L20.1801 26.4486C20.4293 26.3699 20.6784 26.2911 20.9357 26.236C21.5399 26.106 22.119 25.8312 22.6852 25.5624L22.7865 25.5144C22.8804 25.4698 22.9747 25.4259 23.0692 25.3818C23.6903 25.0922 24.3152 24.801 24.8337 24.3344C24.9051 24.2696 24.986 24.2123 25.0653 24.1561L25.0653 24.1561L25.0653 24.1561C25.1628 24.0871 25.2578 24.0198 25.3294 23.9426C25.4369 23.8266 25.5482 23.7145 25.6598 23.6022L25.6598 23.6022C25.9067 23.3536 26.1545 23.104 26.3637 22.81C26.5763 22.5113 26.7568 22.1974 26.937 21.884L26.9371 21.884L26.9371 21.8839C27.0594 21.6713 27.1815 21.4589 27.3134 21.2517C27.4953 20.9657 27.5778 20.6489 27.6602 20.332L27.6602 20.332C27.6949 20.1986 27.7297 20.0651 27.7718 19.934C27.861 19.6585 27.9412 19.375 27.9728 19.0894C28.0071 18.7789 28.0012 18.4661 27.9954 18.1535V18.1534C27.9931 18.034 27.9909 17.9146 27.9909 17.7953C27.9898 16.8874 27.8915 16.001 27.5482 15.1541C27.3602 14.69 27.0435 14.3137 26.7264 13.9369C26.6894 13.8929 26.6524 13.8489 26.6155 13.8048C25.9211 12.9726 25.1803 12.2341 24.0715 11.9394C23.7824 11.8626 23.4504 11.6029 23.3014 11.2652C23.1357 10.8912 22.9796 10.5128 22.8235 10.1342L22.8233 10.1338C22.74 9.93194 22.6567 9.72997 22.5719 9.52854C22.5463 9.46819 22.5168 9.40913 22.4873 9.3501L22.4873 9.35007C22.444 9.26332 22.4007 9.17661 22.3698 9.0859C22.2095 8.60825 21.9351 8.19836 21.6336 7.80202C21.5727 7.72225 21.5068 7.64552 21.4409 7.56877C21.2904 7.39344 21.1398 7.21799 21.0487 7.00594C20.9486 6.7714 20.7624 6.62912 20.582 6.49119L20.5552 6.47071C20.463 6.39994 20.3705 6.32955 20.278 6.25916L20.278 6.25915C20.0931 6.11838 19.9082 5.97762 19.7252 5.83385C19.4802 5.64076 19.2013 5.48267 18.9235 5.32684C18.7373 5.22158 18.5423 5.19221 18.3486 5.16303C18.2098 5.14212 18.0716 5.12132 17.9377 5.07278C17.4691 4.9034 17.0005 5.05358 16.6189 5.27829C16.1437 5.55807 15.7084 5.90956 15.2754 6.25913L15.2754 6.25914L15.2754 6.25915C15.1929 6.32577 15.1104 6.39232 15.0278 6.45829C14.6496 6.76091 14.4181 6.7993 13.9867 6.61524C13.8555 6.55923 13.7546 6.47352 13.6537 6.38788C13.6184 6.35784 13.583 6.32781 13.5463 6.29907C13.0066 5.87788 12.433 5.53687 11.7668 5.33588C11.603 5.28633 11.4484 5.29477 11.2954 5.30314C11.2078 5.30792 11.1208 5.31268 11.0328 5.30652C10.8182 5.29184 10.51 5.30652 10.3699 5.40588C10.2103 5.51901 10.0367 5.59366 9.86426 5.66779C9.72688 5.72686 9.59027 5.7856 9.46208 5.8632C9.4223 5.8873 9.35776 5.90027 9.30256 5.91137C9.24653 5.92263 9.20012 5.93196 9.19898 5.94902C9.18205 6.17599 8.96637 6.34198 8.867 6.40521C8.31664 6.75209 7.99663 7.2742 7.67627 7.7969L7.60796 7.90816C7.52983 8.03525 7.47288 8.17602 7.41595 8.31675C7.35604 8.46483 7.29615 8.61288 7.21162 8.74488C7.18865 8.78075 7.18509 8.82782 7.18161 8.87401C7.1758 8.95091 7.17017 9.02533 7.07543 9.04137L7.07273 9.03734C7.072 9.03978 7.06926 9.04154 7.0657 9.04278C7.06074 9.04337 7.05556 9.04382 7.05014 9.04412C7.0289 9.045 7.05277 9.04728 7.0657 9.04278L7.07543 9.04137C7.13251 9.12865 7.06854 9.18334 7.01575 9.22845C6.9782 9.26055 6.94631 9.28781 6.96771 9.31851C7.03172 9.40974 6.99458 9.46694 6.95905 9.52165C6.94006 9.5509 6.92152 9.57944 6.91916 9.6121C6.90773 9.76442 6.82327 9.88625 6.73766 10.0097C6.6202 10.1791 6.50058 10.3516 6.56459 10.6103C6.63235 10.8869 6.47765 11.211 6.30488 11.4572C6.27826 11.4953 6.29204 11.5522 6.30544 11.6076C6.32899 11.705 6.35139 11.7975 6.15131 11.7745C6.16464 11.8067 6.17893 11.8386 6.19324 11.8706L6.19325 11.8707C6.2226 11.9363 6.25201 12.002 6.27327 12.0703C6.31758 12.211 6.2914 12.3466 6.26463 12.4854C6.24022 12.6119 6.21532 12.741 6.24278 12.8788C6.27675 13.0476 6.25993 13.2273 6.24317 13.4064C6.22539 13.5963 6.20767 13.7856 6.25068 13.9606C6.30813 14.1935 6.29292 14.4203 6.27771 14.6471C6.26512 14.8349 6.25253 15.0227 6.28117 15.214C6.33791 15.5943 6.13611 15.925 5.93925 16.2476C5.87365 16.3551 5.80859 16.4618 5.75384 16.569C5.55849 16.9518 5.40153 17.3301 5.30668 17.7445C5.26152 17.9421 5.19263 18.142 5.12714 18.3238C5.02349 18.6081 5.00473 18.8924 4.98587 19.1781C4.98234 19.2317 4.9788 19.2852 4.9747 19.3389C4.96506 19.4589 4.97209 19.5812 4.97909 19.7031C4.9885 19.8668 4.99786 20.0298 4.9668 20.1858C4.91031 20.4682 4.99053 20.7378 5.06357 20.9832L5.06358 20.9832C5.07959 21.037 5.09527 21.0897 5.10908 21.1411C5.18473 21.4222 5.33604 21.7418 5.49864 22.0252C5.54496 22.1059 5.58481 22.1904 5.62486 22.2754L5.62487 22.2754C5.67954 22.3914 5.73457 22.5081 5.80691 22.6169C5.8599 22.6966 5.90138 22.7832 5.94296 22.87C5.99975 22.9885 6.05671 23.1074 6.14341 23.2097C6.24649 23.3325 6.32468 23.4753 6.40074 23.6143L6.40074 23.6143L6.40076 23.6143C6.42966 23.6672 6.45827 23.7194 6.48781 23.7698C6.53479 23.8504 6.6073 23.9133 6.67781 23.9746C6.78523 24.0679 6.88799 24.1572 6.88867 24.2983C6.8898 24.5015 6.944 24.5512 7.12354 24.5772C7.14085 24.5795 7.13432 24.586 7.12018 24.6C7.09443 24.6255 7.04346 24.676 7.0651 24.7723L7.06144 24.7827L7.06708 24.7804ZM11.5658 16.2845C11.4603 16.4239 11.3446 16.4991 11.2386 16.568C11.1789 16.6068 11.1223 16.6436 11.0723 16.6887C10.916 16.8288 10.7452 16.9514 10.5746 17.0738C10.3287 17.2503 10.083 17.4266 9.88101 17.6553C9.56597 18.0132 9.56032 18.3667 9.8573 18.5293C10.108 18.6659 10.3541 18.667 10.6218 18.5293C10.8748 18.3996 11.0999 18.2297 11.3247 18.0599C11.5422 17.8957 11.7595 17.7316 12.0016 17.6045C12.2601 17.4684 12.4826 17.284 12.7048 17.0999C12.8844 16.951 13.0639 16.8024 13.2618 16.6797C13.5396 16.508 13.7959 16.3138 14.0409 16.1004C14.3176 15.8588 14.3424 15.6894 14.1629 15.363C14.0488 15.1541 13.6581 14.9825 13.3566 15.0435C12.7796 15.1609 12.1913 15.179 11.6098 15.1959C10.9029 15.2162 10.2141 15.31 9.52984 15.4669C9.26109 15.529 9.02057 15.8599 9.11994 16.1117C9.20011 16.3149 9.39095 16.4324 9.65066 16.4098C10.071 16.3742 10.4919 16.3492 10.9362 16.3228C11.14 16.3107 11.3488 16.2983 11.5646 16.2845H11.5658ZM21.6449 13.597L21.6347 13.5349C21.7577 13.4481 21.8811 13.3617 22.0044 13.2754C22.3463 13.0361 22.688 12.7969 23.0225 12.548C23.1964 12.4181 23.3838 12.2713 23.2596 11.9924C23.1659 11.7813 22.9107 11.6604 22.6385 11.7169C22.6111 11.7226 22.5844 11.7297 22.5585 11.7381C22.5844 11.7298 22.6109 11.7227 22.6383 11.717C22.9105 11.6605 23.1657 11.7813 23.2594 11.9925C23.3836 12.2714 23.1962 12.4182 23.0223 12.5481C22.6878 12.797 22.3461 13.0362 22.0042 13.2755L22.0041 13.2755C21.8808 13.3619 21.7575 13.4482 21.6345 13.535L21.6446 13.5971L21.6448 13.5971L21.6449 13.597ZM24.1627 13.6716L24.1628 13.6715L24.1629 13.6715C24.3759 13.7216 24.3706 13.8988 24.3654 14.072C24.3631 14.1486 24.3609 14.2244 24.3775 14.2881C24.4078 14.4056 24.3021 14.5351 24.1663 14.6079C24.302 14.5351 24.4076 14.4056 24.3773 14.2881C24.3607 14.2245 24.3629 14.1487 24.3652 14.0721C24.3704 13.8989 24.3757 13.7217 24.1627 13.6716ZM17.1923 16.1997C16.9331 16.145 16.6982 15.9385 16.7002 15.7458C16.7036 15.4082 17.074 15.039 17.3935 15.0536C17.3988 15.0539 17.4041 15.0542 17.4094 15.0547C17.404 15.0542 17.3988 15.0539 17.3935 15.0536C17.0739 15.039 16.7035 15.4082 16.7002 15.7458C16.6982 15.9385 16.9331 16.145 17.1923 16.1997Z" fill="#FFDEE4"/>
<path d="M28.0326 16.107C28.0273 16.1038 28.0209 16.1006 28.0156 16.0974C28.022 16.0889 28.0273 16.0793 28.0337 16.0708C28.039 16.0772 28.0497 16.0836 28.0497 16.0889C28.0497 16.0953 28.039 16.1006 28.0326 16.107Z" fill="#FFDEE4"/>
<path d="M13.3563 15.0435C12.7792 15.1609 12.1909 15.179 11.6094 15.1959C10.9025 15.2162 10.2137 15.31 9.52945 15.4669C9.2607 15.529 9.02019 15.8599 9.11956 16.1117C9.19973 16.3149 9.39056 16.4324 9.65027 16.4098C10.2634 16.3578 10.8777 16.3285 11.5642 16.2844C11.3994 16.5024 11.2097 16.5634 11.0708 16.6887C10.6891 17.0308 10.2216 17.268 9.8795 17.6553C9.56445 18.0132 9.55881 18.3667 9.85578 18.5293C10.1065 18.6659 10.3526 18.667 10.6202 18.5293C11.1182 18.2741 11.5078 17.863 12.0001 17.6045C12.4676 17.3583 12.8176 16.9541 13.2603 16.6797C13.5381 16.508 13.7944 16.3138 14.0394 16.1004C14.3161 15.8587 14.3409 15.6894 14.1614 15.363C14.0473 15.1541 13.6566 14.9825 13.3551 15.0435H13.3563Z" fill="#FFDEE4"/>
<path d="M16.6933 16.0004C16.3738 15.9857 16.0034 16.355 16 16.6926C15.9978 16.9128 16.3049 17.1511 16.6041 17.1601C16.9847 17.1714 17.232 16.9422 17.2523 16.5582C17.2658 16.3143 16.9632 16.0128 16.6933 16.0004Z" fill="#EA5C83"/>
<path d="M24.2309 11.7597C24.4096 11.8246 24.5723 11.7426 24.7298 11.7607C25.0872 11.8012 25.4754 11.815 25.7509 12.0681C25.9179 12.2213 26.0828 12.3756 26.2562 12.5255C26.4519 12.6947 26.3487 13.1797 26.0668 13.3488C25.9307 13.4307 25.97 13.4637 26.0488 13.5158C26.2402 13.6424 26.3806 13.8116 26.6242 13.9073C26.9359 14.0296 27.3263 14.1838 27.3965 14.6551C27.4252 14.8497 27.6581 15.0061 27.7666 15.1976C27.9677 15.5518 28.0709 15.9464 28.1592 16.34C28.2049 16.5421 28.2177 16.7676 28.2783 16.9548C28.4059 17.3548 28.1772 17.6707 28.1177 18.0228C28.0932 18.1642 27.8549 18.1313 27.8294 18.3376C27.7975 18.6003 27.9347 18.8067 28.1677 18.6929C28.4602 18.5514 28.4889 18.8152 28.5942 18.9163C28.7676 19.0854 28.6431 19.3311 28.6548 19.5417C28.6591 19.6204 28.574 19.6992 28.6197 19.8077C28.6474 19.8725 28.5102 20.0034 28.4272 20.0502C28.2262 20.1651 28.1049 20.3714 27.9517 20.531C27.7135 20.7799 27.4241 20.8682 27.1327 20.8916C26.5445 20.9384 25.9583 21.0596 25.3648 21.0107C24.5415 20.9426 23.7565 20.765 23.0427 20.3055C22.4822 19.9438 21.9758 19.5439 21.6248 18.9684C21.3504 18.5184 21.1749 18.0259 21.0536 17.5186C20.9047 16.8952 20.8398 16.257 20.9717 15.6241C21.1217 14.905 21.4153 14.236 21.8003 13.6126C22.0556 13.1999 22.2545 12.7447 22.6417 12.4224C22.8747 12.2288 23.1332 12.0905 23.4214 12.0033C23.6948 11.9214 23.9692 11.8384 24.2309 11.7597ZM28.0326 16.107C28.039 16.1006 28.0485 16.0953 28.0496 16.0889C28.0496 16.0826 28.039 16.0762 28.0336 16.0709C28.0273 16.0794 28.0219 16.0889 28.0156 16.0975C28.0209 16.1006 28.0273 16.1038 28.0326 16.107Z" fill="#FFACBC"/>
<path d="M5.22852 19.5735C5.23596 19.266 5.27213 18.964 5.33382 18.6619C5.37531 18.4598 5.20405 18.2864 5.14236 18.096C5.06151 17.8428 5.1264 17.6013 5.26255 17.5003C5.63485 17.2237 5.85078 16.8025 6.22308 16.5387C7.10063 15.9164 8.07605 15.6314 9.15358 15.6697C9.79181 15.692 10.4045 15.8143 10.9938 16.0505C11.7948 16.3717 12.4628 16.8961 13.0159 17.5386C13.418 18.0056 13.6999 18.5555 13.8339 19.1873C13.9413 19.6936 14.0509 20.1947 14.0636 20.7106C14.0785 21.2658 13.9062 21.786 13.7307 22.304C13.4488 23.1358 13.0148 23.8687 12.333 24.4346C11.9852 24.7239 11.6054 24.9643 11.1736 25.1175C10.7991 25.2504 10.4662 25.5387 10.062 25.5387C9.45142 25.5387 8.82703 25.611 8.23242 25.3834C8.08775 25.3281 7.95692 25.2398 7.93564 25.1005C7.88246 24.7569 7.63142 24.5888 7.36443 24.4995C6.8847 24.3399 6.62729 23.9719 6.4539 23.5634C6.18266 22.9262 5.81142 22.3359 5.58379 21.6796C5.34659 20.9967 5.21362 20.2978 5.22852 19.5735Z" fill="#FFACBC"/>
<path d="M28.9984 18.2821C29.0165 16.7706 28.8899 15.1761 28.1006 13.8539C27.8698 13.4529 27.6209 13.0529 27.3444 12.6913C27.054 12.3168 26.7253 12.0552 26.3966 11.7318C26.036 11.3723 25.602 11 25.0978 10.8393C24.4213 10.6415 24.2022 10.3586 24.0203 9.6948C23.732 8.80661 23.2278 8.01627 22.7045 7.25254C22.4215 6.83875 22.0843 6.46433 21.712 6.12714C20.9696 5.40701 20.1473 4.7624 19.1613 4.42627C18.2518 4.12205 17.2328 3.7689 16.3084 4.20183C15.8638 4.38798 15.4362 4.6071 15.0511 4.8943C14.6171 5.25171 14.3002 5.34212 13.813 5.07726C13.1524 4.79432 12.4344 4.47201 11.7239 4.38373C10.8963 4.36883 10.0432 4.56562 9.28691 4.88367C8.76463 5.12938 8.29873 5.49636 7.87325 5.87929C6.57021 7.11957 5.56289 9.74373 5.2576 11.5042C5.14698 12.2328 5.16931 12.9806 5.20123 13.7103C5.20867 14.1815 5.37035 14.6602 5.281 15.1261C5.17463 15.6164 4.78532 16.0749 4.60662 16.5706C4.21092 17.4843 4.03009 18.481 4.012 19.4702C3.8833 21.2987 4.80978 23.0166 5.8203 24.4728C6.20855 25.0419 6.78614 25.4174 7.35097 25.794C7.66796 26.0163 7.97856 26.2492 8.31256 26.4449C9.07417 26.896 9.87089 27.2725 10.7453 27.4767C11.2973 27.6044 11.8547 27.7012 12.4078 27.8224C13.7055 28.1139 15.0437 28.1905 16.3701 28.1777C18.0125 28.1086 19.6155 27.7022 21.1621 27.1693C22.2471 26.8172 23.2885 26.3226 24.2607 25.7291C24.6819 25.4663 25.0382 25.1174 25.4191 24.7983C25.8382 24.4473 26.2892 24.1239 26.6615 23.7208C27.3943 22.89 27.9592 21.9061 28.4378 20.9137C28.8006 20.0968 28.9984 19.1947 28.9995 18.3023V18.281L28.9984 18.2821ZM7.5786 9.43313C7.58392 9.43313 7.58818 9.43207 7.5935 9.431C7.5818 9.43526 7.55839 9.43419 7.5786 9.43313ZM27.2837 18.9139C27.1391 19.8819 26.8061 20.8222 26.2711 21.6466C25.7009 22.6624 24.8936 23.5102 23.9341 24.1697C23.2746 24.6154 22.5353 24.926 21.8142 25.2579C21.1834 25.5451 20.5154 25.7014 19.8516 25.8971C19.5591 25.9833 19.2634 26.0535 18.9634 26.1056C18.3252 26.2099 17.7295 26.4141 17.0977 26.4811C15.6883 26.5737 14.231 26.4301 12.8418 26.195C12.2217 26.0939 11.5856 26.0429 10.9793 25.8344C10.3942 25.6536 9.79643 25.4653 9.305 25.1228C8.96036 24.8526 8.53807 24.6175 8.14875 24.4558C7.51691 24.242 7.35629 23.707 6.98931 23.2177C6.5032 22.4954 6.05325 21.6976 5.75542 20.8658C5.53948 20.1574 5.59161 19.3777 5.66926 18.6416C5.80328 17.9279 6.01496 17.2194 6.33513 16.5663C6.54362 16.1642 6.77657 15.7558 6.81274 15.2973C6.87975 14.5368 6.77232 13.7677 6.81593 13.0082C6.82657 12.6647 6.79465 12.3094 6.84465 11.9786C6.91911 11.6063 7.04569 11.2584 7.12015 10.8744C7.2212 10.4032 7.40948 10.0054 7.5669 9.57354C7.80943 8.9034 8.14556 8.13966 8.64337 7.52803C9.21671 6.87598 9.86025 6.27499 10.7038 6.00162C11.6728 5.64741 12.7174 6.08246 13.5034 6.67069C14.2895 7.27806 14.7544 7.26317 15.5085 6.62282C16.1829 6.09948 16.9094 5.48253 17.8104 5.65379C18.4582 5.73782 19.0592 6.01438 19.5729 6.41008C19.9697 6.70473 20.3782 6.99406 20.6834 7.38337C20.9377 7.70461 21.1717 8.04287 21.4174 8.37049C21.8344 8.93 22.0843 9.58098 22.3556 10.2139C22.6726 10.9308 22.8938 11.8254 23.6884 12.1434C24.9521 12.6051 25.8903 13.6188 26.637 14.7229C27.3795 15.9632 27.3731 17.4928 27.2859 18.8916L27.2837 18.9118V18.9139Z" fill="#EA5C83"/>
<path d="M13.945 15.8646C13 15.4999 12.5 15.5001 12 15.5C11.5 15.5 10.8208 15.518 10.1187 15.5205C9.8429 15.5219 9.53547 15.7917 9.57699 16.0592C9.61047 16.2752 9.77078 16.4317 10.0291 16.4668C10.6386 16.5511 11.2443 16.6576 11.9237 16.7658C11.7149 16.9421 11.5165 16.9598 11.3534 17.0515C10.9058 17.3013 10.3976 17.4297 9.97861 17.7322C9.59252 18.0121 9.50923 18.3556 9.76314 18.5796C9.97761 18.768 10.2175 18.8233 10.5089 18.7478C11.0508 18.6085 11.5213 18.2932 12.0584 18.1493C12.5686 18.0121 12.999 17.6948 13.4912 17.5245C13.8 17.4182 14.0927 17.2852 14.3787 17.1309C14.7018 16.9561 14.7633 16.7963 14.66 16.4385C14.5947 16.2096 14.2714 15.9745 13.945 15.8646Z" fill="#EA5C83"/>
<path d="M22.423 13.9154C22.3196 13.4965 22.2651 13.0632 22.0497 12.6809C21.8937 12.3987 21.6944 12.167 21.4639 11.9529C21.2585 11.7658 20.9954 11.6864 20.7477 11.6157C20.4166 11.526 20.0505 11.4164 19.707 11.4606C19.2131 11.5319 18.9004 12.005 18.6498 12.4151C18.2902 12.9996 18.1065 13.673 18.1871 14.3797C18.2382 15.0653 18.2491 15.8102 18.6241 16.4089C18.9871 17.0608 19.406 17.4055 20.1144 17.5169C20.3082 17.5586 20.5027 17.5989 20.6954 17.5842C20.9807 17.5636 21.242 17.387 21.5083 17.249C21.9948 17.041 22.261 16.5937 22.3965 16.0766C22.6424 15.3823 22.6295 14.6486 22.4278 13.9324L22.423 13.9106L22.423 13.9154Z" fill="#EA5C83"/>
<path d="M19.6563 15.7913C19.6539 15.7736 19.6448 15.7595 19.6261 15.7487C19.4913 15.6696 19.3928 15.5732 19.4171 15.4202C19.4226 15.1475 19.369 14.8833 19.3399 14.6159C19.2869 14.111 19.3772 13.6021 19.7874 13.1558C20.0812 12.8358 20.4248 12.8576 20.7407 13.118C21.2525 13.5392 21.3976 14.0708 21.4225 14.6643C21.4362 14.9969 21.3419 15.3051 21.2046 15.6205C20.9651 16.1736 20.9132 16.208 20.1615 16.1831C19.8847 16.1408 19.7327 15.9968 19.6553 15.7938L19.6563 15.7913Z" fill="#FFDEE4"/>
</svg>
