<svg width="33" height="33" viewBox="0 0 33 33" fill="none" xmlns="http://www.w3.org/2000/svg">
<circle cx="16.5" cy="16.5" r="16.5" fill="#A8A8A8"/>
<g clip-path="url(#clip0_54849_27610)">
<path d="M12.94 5.85414C13.7975 5.65966 14.2508 6.58986 14.483 7.26899C14.6682 7.76599 14.9333 8.23932 15.0878 8.75072C15.2412 9.23126 15.3292 9.73134 15.451 10.2201C15.5308 10.534 15.6475 10.8509 15.8797 11.0814C16.1478 11.3726 16.6247 11.3149 16.8293 10.9898C17.037 10.5988 17.0718 10.1172 17.1465 9.68195C17.1813 9.34856 17.2683 9.02752 17.3327 8.69927C17.4177 8.08188 17.5978 7.47067 17.9068 6.93148C18.1657 6.52812 18.4307 6.07331 18.8052 5.77696C19.8049 5.11224 20.5774 5.24704 21.1535 6.34496C21.6641 7.01997 21.9731 7.8267 22.1194 8.654C22.2044 9.25801 22.2535 9.87231 22.3435 10.4784C22.3865 10.7325 22.4325 11.0042 22.5635 11.2223C22.9247 11.7852 23.728 11.6432 24.2826 11.884C24.7543 12.0929 25.2567 12.2843 25.6731 12.5888C26.3536 13.1908 26.945 13.9553 27.208 14.8433C27.2499 14.9966 27.2919 15.1551 27.3543 15.3023C27.5262 15.6531 27.5835 16.0297 27.6285 16.4166C27.8066 17.1781 27.8178 17.9663 27.7943 18.7473C27.779 19.2782 27.6224 19.7876 27.3901 20.2599C27.254 20.5521 27.1538 20.8639 27.0453 21.1685C26.944 21.435 26.7885 21.6778 26.635 21.9238C26.46 22.2921 26.194 22.5617 25.8983 22.8396C25.5217 23.2594 25.0991 23.6525 24.6857 24.0332C24.2856 24.3388 23.7986 24.6485 23.3432 24.9088C22.7313 25.2546 22.1225 25.6518 21.4441 25.8699C20.5733 26.2033 19.6248 26.4245 18.6875 26.5521C18.135 26.6478 17.5845 26.7806 17.0237 26.8042C16.2972 26.8258 15.5728 26.7065 14.8504 26.6499C14.2303 26.617 13.601 26.477 13.0024 26.2959C12.6392 26.2126 12.2687 26.1323 11.9208 25.9872C11.5689 25.8514 11.2506 25.6374 10.8966 25.4954C10.7257 25.4233 10.5559 25.3492 10.3942 25.2587C9.94498 24.9768 9.48555 24.6681 9.03328 24.3799C8.59022 24.0177 8.24129 23.5691 7.80028 23.174C7.28252 22.7017 7.13722 21.9732 6.76988 21.4062C6.63891 21.1829 6.53556 20.9431 6.48235 20.688C6.34933 20.0592 6.21119 19.3986 6.29919 18.7493C6.41993 17.282 7.31731 16.0287 8.24436 14.9411C8.5718 14.5953 8.91663 14.2846 9.29011 13.979C9.56434 13.7145 9.90098 13.4511 10.0432 13.091C10.1987 12.5744 10.0821 12.0003 10.1691 11.4631C10.252 10.8828 10.3389 10.3035 10.4801 9.73855C10.6336 9.24978 10.8004 8.77748 10.9969 8.3062C11.1913 7.91313 11.4532 7.57254 11.6783 7.19387C12.0436 6.71745 12.2984 6.03832 12.9206 5.85928L12.939 5.85414H12.94Z" fill="#FEACAE"/>
<path d="M27.9052 14.1037C27.7343 13.1467 26.9055 12.2618 26.0183 11.8615C25.5241 11.6238 24.9224 11.4839 24.4302 11.2462C23.76 10.9385 23.3415 10.3088 23.1297 9.61012C22.9496 9.0483 22.8442 8.47104 22.8064 7.91951C22.7685 7.20642 22.6846 6.40073 22.1709 5.90167C20.895 4.54238 18.8495 4.74406 17.6186 6.07248C17.1233 6.64151 16.8542 7.36797 16.6496 8.10472C15.8381 11.3316 16.0469 7.96581 14.6471 6.48305C13.9994 5.67941 12.8994 4.96632 11.9253 5.55902C11.3686 5.89755 11.0187 6.52215 10.7046 7.08912C9.87369 8.74063 9.1124 10.5887 9.2577 12.4635C9.30375 13.3556 8.98348 13.9267 8.29688 14.5071C7.67373 15.0648 7.04751 15.6667 6.53692 16.3294C5.55461 17.5477 5.95879 18.5108 7.26649 19.2465C8.15158 19.7518 9.15436 19.9977 10.1592 20.1109C11.7247 20.3301 13.2688 20.2776 14.8425 20.1747C16.0858 20.1006 17.3392 20.0728 18.5579 19.8022C19.4256 19.6016 20.3895 19.5203 21.1927 19.3577C21.4854 19.297 21.777 19.2105 22.0471 19.0901C23.0571 18.6014 23.9954 17.9078 24.948 17.3265C25.9835 16.599 28.163 15.5895 27.9072 14.1202L27.9052 14.1047V14.1037Z" fill="#EF667A"/>
<path d="M14.7738 17.4705C14.9846 17.3368 14.9784 16.9838 14.9242 16.7379C14.8546 16.4889 14.6326 16.3088 14.4678 16.1195C14.2509 15.888 14.0279 15.6626 13.815 15.427C13.3607 14.9361 12.9913 14.3043 12.3559 14.042C11.9916 13.9329 11.7399 14.3548 11.7706 14.6902C11.7808 14.8466 11.8525 14.9824 11.9374 15.11C12.3569 15.7387 12.8481 16.317 13.3535 16.8778C13.6974 17.2586 14.2161 17.7998 14.7584 17.4798L14.7738 17.4705Z" fill="#9A1918"/>
<path d="M22.1208 13.267C21.8261 13.3082 21.6511 13.5541 21.5048 13.7897C20.9522 14.6613 20.192 15.3785 19.6589 16.2655C19.2946 16.7964 19.7243 17.3171 20.3045 17.0969C20.5041 17.0033 20.6463 16.8016 20.7834 16.6308C21.3615 15.8652 22.0143 15.1655 22.5352 14.3639C22.7961 13.941 22.8186 13.196 22.1412 13.265L22.1218 13.2681L22.1208 13.267Z" fill="#9A1918"/>
<path d="M22.2753 19.4193C21.9693 19.1116 21.6992 18.733 21.3206 18.5138C20.2216 17.8892 18.915 17.8635 17.6769 17.9324C17.2072 17.9664 16.7621 18.1269 16.319 18.2679C16.0642 18.3553 15.7921 18.3934 15.5557 18.5076C14.3554 19.2248 13.6289 19.9616 13.5931 21.4299C13.4959 22.9559 14.91 23.8635 16.2965 23.7277C17.1161 23.7019 17.7894 23.1555 18.5783 22.9899C19.5709 22.8016 20.6821 22.8232 21.5426 22.2274C22.3827 21.6656 23.0018 20.3094 22.2896 19.4317L22.2773 19.4193H22.2753Z" fill="#9A1918"/>
<path d="M28.8185 16.2048L28.8145 16.1852C28.2629 13.3504 27.3389 11.4581 24.436 10.5474C23.6215 10.3005 23.7883 9.45465 23.6471 8.7786C23.5867 8.48123 23.4803 8.17974 23.3933 7.91426C23.2521 7.31539 22.9994 6.70932 22.6484 6.19277C22.1378 5.2389 21.0031 4.03602 19.8703 4.00001C18.58 3.99692 17.4627 4.94564 16.8272 6.01373C16.6226 6.32963 16.4302 6.92129 16.2235 7.09107C15.9063 7.31436 15.7088 6.67433 15.5707 6.46545C15.1676 5.70812 14.4697 5.07427 13.69 4.73367C11.8052 4.02882 10.7093 6.50558 10.0094 7.85767C9.47836 8.93501 9.22767 10.1225 9.15604 11.3192C9.12637 11.8419 9.17958 12.4233 8.82042 12.8462C8.69047 13.0108 8.52266 13.1487 8.35997 13.2825C7.9169 13.6406 7.49021 14.0244 7.10957 14.4576C4.01019 17.9098 4.39697 21.7994 7.79821 24.8534C8.31392 25.3545 8.93809 25.7157 9.55511 26.0799C10.562 26.7025 11.6691 27.1604 12.8029 27.4649C14.9731 28.0792 17.2017 28.2017 19.4007 27.643C21.8145 27.1655 24.1362 26.1334 26.0364 24.5519C28.6119 22.5505 29.3997 19.3308 28.8185 16.2048ZM27.7933 18.7495C27.7779 19.2804 27.6214 19.7898 27.3891 20.2621C27.253 20.5543 27.1527 20.8661 27.0443 21.1706C26.943 21.4372 26.7874 21.68 26.6339 21.9259C26.459 22.2943 26.1929 22.5639 25.8972 22.8417C25.5207 23.2615 25.0981 23.6546 24.6847 24.0353C24.2846 24.3409 23.7975 24.6507 23.3422 24.911C22.7303 25.2567 22.1215 25.6539 21.4431 25.8721C20.5723 26.2055 19.6237 26.4267 18.6865 26.5543C18.1339 26.65 17.5834 26.7827 17.0227 26.8064C16.2962 26.828 15.5717 26.7086 14.8493 26.652C14.2292 26.6191 13.6 26.4792 13.0014 26.2981C12.6381 26.2147 12.2677 26.1345 11.9198 25.9894C11.5678 25.8535 11.2496 25.6395 10.8955 25.4975C10.7247 25.4255 10.5548 25.3514 10.3931 25.2609C9.94393 24.9789 9.4845 24.6702 9.03223 24.3821C8.58917 24.0199 8.24025 23.5713 7.79923 23.1761C7.28147 22.7038 7.13617 21.9753 6.76883 21.4083C6.63786 21.1851 6.53451 20.9453 6.4813 20.6901C6.34828 20.0614 6.21015 19.4008 6.29814 18.7515C6.41889 17.2842 7.31626 16.0309 8.24332 14.9432C8.57075 14.5975 8.91558 14.2868 9.28906 13.9811C9.56329 13.7167 9.89994 13.4533 10.0422 13.0931C10.1977 12.5766 10.081 12.0024 10.168 11.4653C10.2509 10.8849 10.3379 10.3056 10.4791 9.7407C10.6326 9.25194 10.7994 8.77963 10.9958 8.30836C11.1902 7.91529 11.4522 7.57469 11.6773 7.19603C12.0426 6.71961 12.2974 6.04048 12.9195 5.86144L12.9379 5.85629C13.7954 5.66182 14.2487 6.59202 14.481 7.27114C14.6662 7.76814 14.9312 8.24148 15.0857 8.75288C15.2392 9.23342 15.3272 9.7335 15.4489 10.2223C15.5288 10.5361 15.6454 10.853 15.8777 11.0835C16.1458 11.3747 16.6226 11.3171 16.8272 10.9919C17.035 10.6009 17.0698 10.1194 17.1444 9.68411C17.1792 9.35072 17.2662 9.02968 17.3307 8.70143C17.4156 8.08404 17.5957 7.47283 17.9047 6.93364C18.1636 6.53028 18.4286 6.07547 18.8031 5.77912C19.8028 5.1144 20.5754 5.24919 21.1514 6.34712C21.662 7.02213 21.9711 7.82885 22.1174 8.65616C22.2023 9.26017 22.2514 9.87447 22.3415 10.4805C22.3844 10.7347 22.4305 11.0064 22.5615 11.2245C22.9227 11.7874 23.7259 11.6454 24.2805 11.8861C24.7522 12.095 25.2546 12.2864 25.6711 12.591C26.3515 13.1929 26.943 13.9575 27.2059 14.8455C27.2479 14.9988 27.2898 15.1573 27.3522 15.3044C27.5242 15.6553 27.5815 16.0319 27.6265 16.4188C27.8045 17.1803 27.8158 17.9685 27.7922 18.7495H27.7933Z" fill="#9A1918"/>
</g>
<defs>
<clipPath id="clip0_54849_27610">
<rect width="24" height="24" fill="white" transform="translate(5 4)"/>
</clipPath>
</defs>
</svg>
