<svg width="33" height="33" viewBox="0 0 33 33" fill="none" xmlns="http://www.w3.org/2000/svg">
<circle cx="16.5" cy="16.5" r="16.5" fill="#FFCE8A"/>
<path d="M20.1838 4.54998C20.496 4.57937 20.8081 4.60767 21.1212 4.63706C21.8978 4.71 22.4389 5.20746 22.9492 5.73322C23.1707 5.96182 23.2858 6.30144 23.5137 6.52132C23.9473 6.93824 24.1262 7.49339 24.384 8.00609C24.6834 8.60152 24.9294 9.22526 25.1041 9.86641C25.3055 10.6023 25.4897 11.3468 25.5909 12.1077C25.6378 12.4615 25.7433 12.787 26.0085 13.0384C26.278 13.2626 26.4538 13.5718 26.6892 13.8265C26.8064 14.0137 26.964 14.1607 27.1121 14.3196C27.2708 14.4905 27.3699 14.7463 27.4828 14.9727C27.6554 15.3222 27.8556 15.6607 28.0559 15.996C28.1549 16.1625 28.188 16.4063 28.2274 16.6241C28.2742 16.8842 28.3733 17.1324 28.4266 17.3969C28.4862 17.6952 28.499 17.9989 28.5661 18.2906C28.6268 18.554 28.5821 18.8088 28.5714 19.0602C28.5533 19.4782 28.4884 19.8897 28.3414 20.2979C28.1848 20.7333 27.9621 21.1676 27.943 21.6357C27.9291 21.9731 27.7171 22.1538 27.5637 22.3857C27.4849 22.5043 27.3443 22.586 27.3869 22.7623C27.3475 22.869 27.2293 22.9452 27.2665 23.0824C26.9097 23.1629 26.8436 23.5308 26.6338 23.7562C26.5166 23.8813 26.4378 24.0414 26.2951 24.1437C26.2237 24.3353 26.0351 24.4321 25.9403 24.6052C25.9233 24.6107 25.9062 24.6161 25.8881 24.6205C25.7284 24.8708 25.4418 24.9971 25.2937 25.2583C24.874 25.4423 24.5907 25.8287 24.1848 26.0334C23.7065 26.275 23.2655 26.5875 22.7681 26.7943C22.163 27.0457 21.5345 27.2166 20.8933 27.32C20.3063 27.4147 19.7141 27.4855 19.1165 27.4572C19.0547 27.4539 19.0025 27.4474 18.9716 27.5138C18.6872 27.5737 18.4006 27.5944 18.1109 27.5715L18.113 27.5682C17.9628 27.4626 17.7945 27.5127 17.6326 27.5084C16.9892 27.4724 16.3522 27.3734 15.7109 27.3146C15.32 27.2787 14.9291 27.2384 14.5413 27.1807C13.8106 27.0719 13.1001 26.8759 12.396 26.6528C11.6237 26.4078 10.8407 26.188 10.1206 25.7994C9.54541 25.4891 9.01386 25.1147 8.55155 24.6411C8.43438 24.5214 8.29057 24.43 8.16061 24.3233C7.76967 24.0022 7.52574 23.545 7.17421 23.1901C6.8099 22.8222 6.60112 22.3509 6.37955 21.91C6.07703 21.307 5.76065 20.6843 5.72444 19.9713C5.71165 19.7144 5.58596 19.4619 5.59022 19.2082C5.59554 18.8338 5.39528 18.5094 5.39848 18.1437C5.46132 17.7703 5.36332 17.3882 5.45387 17.0148C5.5508 16.7558 5.54974 16.4782 5.59554 16.2104C5.77131 15.1894 6.12816 14.2434 6.83014 13.4727C7.26795 12.9916 7.79098 12.6041 8.28631 12.1883C8.51959 11.9923 8.8072 11.8432 8.87644 11.4992C8.89881 11.2978 9.01599 11.115 8.98829 10.9027C9.08203 10.3465 9.07245 9.74231 9.29401 9.24485C9.57523 8.61132 9.70732 7.8918 10.1877 7.35188C10.2389 7.29419 10.2399 7.1886 10.2644 7.10478C10.4413 6.95892 10.4253 6.66284 10.6682 6.56922C10.7033 6.42118 10.829 6.33518 10.9036 6.21436C11.0868 6.00645 11.2455 5.77568 11.45 5.58736C11.596 5.22923 11.9709 5.17263 12.233 4.96689C12.445 4.74265 12.8103 4.6142 12.9754 4.51406C13.0074 4.49447 13.0884 4.49338 13.1214 4.47161C13.2481 4.38997 13.4154 4.41391 13.5485 4.37581C13.8298 4.29417 13.9533 4.3301 14.1195 4.34751C15.0633 4.44766 15.8611 4.82538 16.3373 5.74193C16.4843 6.02495 16.6494 6.30144 16.8071 6.58011C16.9626 6.85551 17.3972 6.8849 17.6497 6.66283C17.9277 6.41791 18.1386 6.12401 18.308 5.79527C18.3463 5.72016 18.4049 5.6788 18.4603 5.62763C18.4603 5.46109 18.6414 5.41646 18.6861 5.28039C18.7437 5.19548 18.8587 5.22052 18.9237 5.15085C18.9588 5.12908 18.995 5.10622 19.0302 5.08445C19.06 5.05942 19.0302 5.0986 19.0536 5.06813C19.3402 4.6904 19.7492 4.59243 20.1817 4.54998H20.1838Z" fill="#CCFFFB"/>
<path d="M24.0938 16.9528C24.1386 16.4663 24.0118 16.0243 23.8914 15.5791C23.8573 15.4528 23.8211 15.2144 23.5846 15.2155C23.6656 15.1263 23.6858 15.0261 23.6102 14.9271C23.4334 14.6952 23.2821 14.434 22.9796 14.3436C22.9093 14.2293 22.8038 14.1607 22.6856 14.1107C22.2936 13.9267 21.9495 13.6415 21.4947 13.5914C20.9109 13.5272 20.2963 13.4597 19.786 13.746C18.8295 14.2816 18.0454 15.0261 17.712 16.1462C17.4702 16.9572 17.3797 17.7627 17.76 18.5693C17.9421 18.9558 18.2223 19.2453 18.4875 19.5653C18.9402 20.1107 19.5549 20.3055 20.1674 20.4808C20.5935 20.6027 21.0696 20.582 21.5042 20.459C21.86 20.3589 22.2254 20.2685 22.545 20.0476C22.7303 19.9202 22.8826 19.7351 23.0712 19.6437C23.3663 19.5011 23.5516 19.3052 23.656 18.9982C23.6784 18.9318 23.6496 18.8643 23.7167 18.7903C23.9852 18.4909 24.0288 18.086 24.0853 17.7126C24.1215 17.4721 24.0714 17.1912 24.0938 16.9518V16.9528Z" fill="#3CA7A7"/>
<path d="M15.1419 15.9437C15.1227 15.345 14.9001 14.9074 14.4697 14.5678C14.0564 14.2412 13.6548 13.9103 13.1563 13.6893C12.4905 13.3943 11.861 13.1069 11.1387 13.4509C10.7105 13.6545 10.228 13.7579 9.89988 14.1476C9.56327 14.5482 9.25435 14.9662 9.06368 15.4658C8.89644 15.9056 8.73985 16.353 8.72067 16.8232C8.6983 17.3642 8.83465 17.8813 9.00189 18.3983C9.19044 18.9818 9.60801 19.3486 10.0863 19.5968C10.4037 19.7623 10.8202 19.7808 11.175 19.8918C12.0037 20.1498 12.7238 19.8809 13.4524 19.5576C13.7762 19.5859 13.9797 19.3933 14.1576 19.1549C14.2769 18.9099 14.5485 18.7739 14.6167 18.4919C14.9831 18.1186 15.144 17.6614 15.1504 17.1389C15.0993 16.7416 15.1557 16.3432 15.1429 15.9437H15.1419Z" fill="#3CA7A7"/>
<path d="M16.6877 20.1193C16.61 20.5547 16.6899 21.0848 16.4907 21.5888C16.2872 22.1048 15.63 22.2006 15.1836 21.7804C14.7565 21.3787 14.7394 20.8965 14.895 20.3882C14.9674 20.1509 15.0217 19.9016 15.1709 19.6871C15.3573 19.4183 15.6076 19.2778 15.9176 19.2637C16.2915 19.2474 16.6515 19.6262 16.6888 20.1193H16.6877Z" fill="#3CA7A7"/>
<path d="M20.3778 17.043C19.9634 17.0278 19.5533 16.9853 19.1485 16.8852C18.9376 16.8329 18.9163 16.7458 18.9567 16.5412C19.0654 16.0013 19.4244 15.6595 19.8079 15.3318C20.1253 15.0619 20.5088 14.9334 20.8944 14.805C21.0723 14.7451 21.2395 14.7995 21.3919 14.8376C21.901 14.9672 22.2952 15.2861 22.5636 15.7466C22.6723 15.9327 22.6882 16.109 22.4688 16.281C21.8478 16.7698 21.1745 17.0746 20.3778 17.043Z" fill="#CCFFFB"/>
<path d="M19.3773 18.4952C19.8385 18.2111 20.3562 18.0902 20.8707 17.9759C21.3756 17.8638 21.8891 17.891 22.3983 17.9955C22.5208 18.0206 22.6219 18.0521 22.5666 18.1958C22.4877 18.4016 22.4121 18.6214 22.2172 18.7455C21.92 18.9349 21.6281 19.1516 21.3032 19.2757C20.94 19.415 20.5522 19.3181 20.1922 19.1929C20.0313 19.1374 19.8811 19.0438 19.7075 19.0296C19.6297 19.0231 19.6116 18.9807 19.6042 18.9175C19.5083 18.8631 19.389 18.8522 19.3272 18.7347C19.275 18.6345 19.2548 18.554 19.3762 18.4963L19.3773 18.4952Z" fill="#CCFFFB"/>
<path d="M12.1307 14.594C12.642 14.6256 13.0244 14.9369 13.4239 15.2123C13.4313 15.2177 13.4356 15.2286 13.442 15.2351C13.9277 15.6989 13.932 15.7076 13.3333 16.0102C13.0212 16.168 12.7368 16.4249 12.3778 16.4402C11.8846 16.4608 11.3808 16.574 10.8982 16.4336C10.6276 16.3552 10.3912 16.155 10.1387 16.0102C9.99703 15.7968 10.1909 15.6836 10.274 15.5367C10.3464 15.5018 10.388 15.4452 10.3901 15.3614C10.4274 15.1927 10.617 15.1502 10.6756 15C10.9046 14.8825 11.1336 14.7649 11.3627 14.6473C11.6162 14.5951 11.8654 14.4841 12.1296 14.594H12.1307Z" fill="#CCFFFB"/>
<path d="M12.2723 17.4121C12.5994 17.5416 13.0372 17.4687 13.4153 17.6777C13.6316 17.7975 13.6571 17.9346 13.4782 18.1197C12.8231 18.8 12.0508 19.0297 11.1389 18.775C10.7991 18.6803 10.4732 18.5823 10.2825 18.2525C10.2228 18.1491 10.1227 17.9825 10.2942 17.9172C10.9131 17.6799 11.5299 17.4208 12.2713 17.4121H12.2723Z" fill="#CCFFFB"/>
<path d="M7.48617 19.1821C7.88669 19.2093 8.11998 19.5555 8.03476 19.9506C7.94422 20.373 7.67684 20.7072 7.47125 21.0675C7.25288 21.4506 7.14423 21.8969 6.8417 22.2322C6.81933 22.2573 6.81614 22.3313 6.80336 22.3313C6.53918 22.3367 6.28672 22.2398 6.03959 22.1756C5.91283 22.143 5.77541 21.9176 5.82867 21.6716C5.92561 21.2264 6.17487 20.8617 6.37727 20.4731C6.56155 20.1172 6.7991 19.7906 7.00788 19.4477C7.12825 19.2496 7.30508 19.1789 7.48617 19.1832V19.1821Z" fill="#50E1D5"/>
<path d="M24.6351 20.103C24.617 20.5112 24.3464 20.791 24.1323 21.0903C23.8894 21.4288 23.6125 21.7413 23.3888 22.0961C23.2929 22.2485 23.1523 22.3519 23 22.4368C22.756 22.5729 22.4961 22.5533 22.299 22.3791C22.0934 22.1984 22.0689 21.9383 22.1914 21.6749C22.4056 21.2144 22.7496 20.8541 23.0692 20.4753C23.3376 20.1585 23.5592 19.7895 23.9693 19.6262C24.3155 19.4891 24.6543 19.7285 24.6351 20.103Z" fill="#50E1D5"/>
<path d="M26.1574 19.7111C26.4578 19.7176 26.6804 20.0158 26.6165 20.3152C26.5398 20.6733 26.38 20.9966 26.1936 21.3058C25.9933 21.6399 25.792 21.973 25.5821 22.3007C25.3861 22.6087 24.9441 22.7274 24.6639 22.5587C24.4349 22.4204 24.3923 22.0939 24.5414 21.739C24.7257 21.3003 25.0612 20.9629 25.2913 20.5547C25.4192 20.3283 25.5342 20.0888 25.7355 19.9092C25.8655 19.7927 26.0136 19.7404 26.1552 19.71L26.1574 19.7111Z" fill="#50E1D5"/>
<path d="M26.5274 22.0722C26.6115 21.7271 26.8065 21.3505 26.9854 20.9717C27.1388 20.6451 27.3433 20.3436 27.5191 20.029C27.5894 19.9038 27.6874 19.8156 27.8046 19.7438C27.942 19.6589 28.1071 19.5696 28.2317 19.6959C28.3723 19.8363 28.5577 19.9811 28.5044 20.2391C28.4703 20.4024 28.4362 20.5624 28.3723 20.7202C28.2711 20.9738 28.1678 21.2231 28.1337 21.5061C28.0815 21.9415 27.4392 22.562 27.0461 22.6143C26.7202 22.6567 26.5252 22.4815 26.5274 22.0733V22.0722Z" fill="#50E1D5"/>
<path d="M8.09773 21.8753C8.37575 21.2145 8.61543 20.5276 9.14485 20.0139C9.23965 19.9224 9.40157 19.7896 9.55602 19.9485C9.70196 20.0998 9.91181 20.1771 9.87666 20.4906C9.79783 21.1797 9.44098 21.712 9.04045 22.2214C8.89132 22.4108 8.63567 22.4674 8.40025 22.3825C8.18934 22.3063 8.08494 22.13 8.09773 21.8753Z" fill="#50E1D5"/>
<path d="M10.2591 21.8588C10.29 21.6117 10.3614 21.3755 10.4775 21.1578C10.6341 20.865 10.8013 20.5765 10.9782 20.2957C11.1507 20.0225 11.4192 19.9691 11.6823 20.1335C11.9251 20.2859 12.0359 20.595 11.8868 20.8432C11.6748 21.197 11.5662 21.6074 11.2924 21.9274C11.1156 22.1342 10.8972 22.242 10.6383 22.2583C10.3816 22.2746 10.2389 22.1157 10.2581 21.8577L10.2591 21.8588Z" fill="#50E1D5"/>
<path d="M29.8322 18.589C29.746 16.4751 28.9087 14.3296 27.3907 12.8644C27.2011 12.6913 26.9923 12.515 26.9018 12.2657C26.8144 11.9816 26.824 11.6746 26.7697 11.3894C26.7314 11.1565 26.6611 10.929 26.6067 10.695C26.4778 9.884 26.2723 9.08609 25.9314 8.33609C25.632 7.44349 25.2677 6.55851 24.6819 5.82157C24.4944 5.52657 24.2409 5.30669 23.9948 5.0868C23.8158 4.88433 23.656 4.63288 23.4206 4.47831C23.0744 4.22359 22.7314 3.94384 22.3458 3.75987C21.3914 3.27221 20.2867 3.19819 19.2599 3.48774C18.7091 3.63142 18.2266 3.96561 17.842 4.38687C17.6823 4.55777 17.4894 4.79398 17.2306 4.74173C16.9536 4.6688 16.7843 4.30196 16.5435 4.12889C15.3547 3.12852 13.6536 2.88033 12.2453 3.51604C10.639 4.18985 9.54817 5.74537 8.77268 7.28347C8.25818 8.27622 8.00785 9.37782 7.87576 10.487C7.84913 10.9519 7.51997 11.2262 7.16206 11.4852C6.5421 11.9653 5.92533 12.4486 5.45663 13.0974C4.83986 13.9704 4.50857 15.0088 4.27849 16.0277C4.14746 16.5491 4.15598 17.0782 4.18262 17.6137C4.10805 18.5553 4.35838 19.4762 4.52029 20.3971C4.99645 23.0118 6.6891 25.3696 8.95271 26.6834C10.1223 27.3692 11.4134 27.7513 12.697 28.1497C15.1683 28.8572 17.776 28.9073 20.3272 28.7767C21.9283 28.609 23.4409 27.9222 24.8193 27.0818C25.8685 26.4407 26.7175 25.5307 27.4685 24.5542C28.7702 22.842 29.8259 20.8162 29.8344 18.6097V18.589H29.8322ZM28.5806 19.0745C28.5604 19.375 28.5231 19.6776 28.4464 19.9693C28.3249 20.4581 28.0757 20.9131 27.9883 21.4116C27.951 21.6076 27.9148 21.8111 27.8275 21.9907C27.7295 22.2008 27.5718 22.3695 27.4717 22.5655C27.3961 22.7037 27.3428 22.8539 27.2555 22.9846C26.7963 23.5212 26.3724 24.1515 25.8834 24.6609C25.2241 25.351 24.4518 25.9204 23.6166 26.3656C22.9935 26.7444 22.3085 27.0176 21.6002 27.1885C20.8247 27.3801 20.0258 27.465 19.2268 27.4868C18.9211 27.5107 18.6165 27.6043 18.3065 27.5804C17.7387 27.5151 17.1635 27.4987 16.5947 27.4269C15.7819 27.3246 14.9819 27.2832 14.1798 27.133C13.2381 26.9566 12.3263 26.6508 11.4123 26.3547C10.9607 26.2023 10.5154 26.027 10.0946 25.7984C9.4001 25.4458 8.82914 24.9233 8.24859 24.4095C7.92476 24.1515 7.67124 23.8173 7.41239 23.4929C6.95966 23.0096 6.59749 22.4414 6.32798 21.8405C6.06381 21.3115 5.80709 20.7607 5.73146 20.1544C5.70802 19.9954 5.68352 19.8365 5.65476 19.6798C5.56209 18.9983 5.3533 18.3278 5.40337 17.6355C5.49711 16.3075 5.74424 14.8913 6.54529 13.8125C6.99375 13.2073 7.58069 12.761 8.1442 12.294C8.41583 12.0698 8.72049 11.863 8.84299 11.5124C9.0539 10.9116 9.01023 10.2356 9.16788 9.62166C9.21582 9.4279 9.28506 9.24284 9.35749 9.05888C9.5503 8.57775 9.69517 8.06396 9.97852 7.62528C10.2587 7.17897 10.4632 6.70546 10.8211 6.30597C11.1332 5.93695 11.4123 5.51133 11.8011 5.21851C12.4371 4.79398 13.0613 4.3368 13.856 4.33136C14.7571 4.34224 15.6498 4.67969 16.176 5.4765C16.4455 5.84769 16.5904 6.33427 16.927 6.64341C17.3755 6.98957 17.8676 6.49319 18.1083 6.11438C18.2362 5.92824 18.3512 5.73557 18.4833 5.55379C18.6718 5.28927 18.9435 5.11946 19.2023 4.91481C19.4963 4.67098 19.867 4.55451 20.2484 4.55777C21.0122 4.56975 21.8302 4.67751 22.4236 5.22505C22.8135 5.53093 23.1128 5.91736 23.3834 6.32774C23.5357 6.53238 23.7157 6.72288 23.8552 6.94167C24.4401 7.98123 24.9311 9.09154 25.2177 10.2574C25.3657 10.8223 25.4936 11.3949 25.582 11.974C25.6331 12.4257 25.811 12.8416 26.138 13.1551C26.5141 13.5926 26.873 14.0281 27.2235 14.4776C27.5037 14.9501 27.738 15.4551 28.015 15.9232C28.1194 16.1224 28.1811 16.3401 28.228 16.56C28.3047 16.9268 28.4219 17.2839 28.4762 17.6573C28.5497 18.121 28.6328 18.5901 28.5827 19.056V19.0767L28.5806 19.0745Z" fill="#3CA7A7"/>
</svg>
