<svg width="33" height="33" viewBox="0 0 33 33" fill="none" xmlns="http://www.w3.org/2000/svg">
<circle cx="16.5" cy="16.5" r="16.5" fill="#C9D5FF"/>
<path d="M25.7503 12.4638C26.0292 12.5843 26.1924 12.8691 26.4804 12.9907C26.6325 13.0542 26.7694 13.0905 26.8752 13.2288C27.0041 13.3982 27.1068 13.4855 27.1712 13.5863C27.278 13.7526 27.3012 13.7797 27.3858 13.9574C27.4613 14.0166 27.564 14.3129 27.6113 14.3586C27.7835 14.5259 27.7463 14.5738 27.9366 14.9563C27.9437 14.9708 28.0303 15.2171 28.0323 15.2265C28.1149 15.6048 28.3042 16.0144 28.3938 16.5528C28.5036 17.2159 28.5368 17.8603 28.3112 18.51C28.1632 18.9361 27.9396 19.33 27.8349 19.7749C27.8057 19.8996 27.6919 20.0036 27.6164 20.1179C27.6859 20.3757 27.4955 20.4879 27.3495 20.6241C27.3283 20.8237 27.1853 20.9598 27.0867 21.1126C26.9316 21.3548 26.7372 21.572 26.5499 21.7913C26.1068 22.3079 25.6264 22.7725 25.0403 23.129C24.1329 23.682 23.1621 24.0676 22.1661 24.3992C21.7774 24.5281 21.3907 24.6653 20.9999 24.7869C20.9284 24.8097 20.8398 24.7765 20.7592 24.7682C20.5639 24.9303 20.3272 24.9303 20.0956 24.9459C19.6374 25.053 19.1731 25.1517 18.7048 25.1309C18.1408 25.107 17.591 25.2796 17.028 25.2162C16.6282 25.1704 16.2294 25.1153 15.8286 25.081C15.3603 25.0415 14.9021 24.9314 14.4308 24.9054C14.1881 24.8919 13.9524 24.7682 13.7097 24.712C13.3986 24.6393 13.0783 24.605 12.7732 24.5156C12.3603 24.394 11.9635 24.2131 11.5486 24.1019C11.3592 24.051 11.2011 23.9335 11.0088 23.8982C10.6472 23.8317 10.3361 23.6467 10.0279 23.4461C9.67542 23.2174 9.26453 23.101 8.92515 22.839C8.66029 22.6343 8.39644 22.4316 8.15776 22.1905C8.02886 22.0605 7.83449 21.9961 7.69753 21.8599C7.58776 21.7498 7.49309 21.6281 7.45684 21.4702C7.45281 21.4535 7.4518 21.4213 7.44778 21.4213C7.12753 21.3995 7.27154 21.045 7.0953 20.9016C6.87576 20.7239 6.93316 20.3767 6.75592 20.1543C6.74686 20.1428 6.79117 19.9817 6.75894 19.8882C6.71564 19.7021 6.63809 19.5202 6.70355 19.3238C6.68643 19.2126 6.66931 19.1003 6.65219 18.9891C6.65823 18.7958 6.62601 18.6066 6.59277 18.4174C6.59479 18.1462 6.70053 17.8894 6.71765 17.6254C6.74786 17.1722 6.92209 16.7679 7.1094 16.3833C7.30477 15.9832 7.56862 15.6111 7.86269 15.2701C7.99059 15.1215 8.10942 14.9646 8.23631 14.8139C8.48405 14.5176 8.76704 14.2671 9.11347 14.1008C9.29273 13.974 9.47098 13.8462 9.616 13.6757C10.0279 13.5874 10.2162 13.2475 10.1276 12.8317C10.0571 12.5033 10.047 12.1592 9.7872 11.9087C9.85367 11.7695 9.69656 11.7788 9.66333 11.7081C9.58377 11.5356 9.51932 11.3568 9.5022 11.1645L9.33503 10.5991C9.15778 10.4692 9.18195 10.2478 9.11246 10.069C8.99363 9.88191 8.90803 9.68858 9.01075 9.46303C9.10239 9.26139 8.97248 9.04208 9.0611 8.84147C9.15677 8.61177 9.10441 8.34048 9.24439 8.11597C9.25245 8.1035 9.19605 7.97254 9.2595 7.88107C9.55557 7.4466 9.96646 7.55886 10.3431 7.66799C10.8738 7.82078 11.3381 8.13676 11.8255 8.39557C12.5818 8.79678 13.316 9.23644 14.0491 9.68027C14.2475 9.7998 14.4378 9.91621 14.6654 9.95779C15.0471 10.0285 15.4177 9.60543 15.3503 9.20942C15.2848 8.8238 15.1065 8.48808 14.9635 8.13572C14.882 7.93616 14.7883 7.72828 14.8608 7.49649C14.9716 7.13998 15.2052 6.99758 15.6483 6.96952C16.1761 6.93522 16.6766 7.06202 17.172 7.21689C17.7028 7.38216 18.1821 7.68462 18.7058 7.86236C19.5447 8.14715 20.2497 8.69804 21.0432 9.07118C21.301 9.19175 21.5176 9.40483 21.7512 9.57841C22.1611 9.88191 22.5659 10.1917 22.9788 10.49C23.2014 10.6511 23.3514 10.8849 23.5538 11.0679C23.8157 11.3048 24.1319 11.4358 24.4199 11.6156C24.7412 11.8173 25.0423 12.0501 25.3706 12.2393C25.4975 12.3162 25.6637 12.3235 25.7513 12.47L25.7503 12.4638Z" fill="#EEFFC0"/>
<path d="M29.6437 15.8771C29.4655 15.0768 29.2036 14.2515 28.7374 13.5717C27.8713 12.3151 26.7605 11.3121 25.4302 10.6344C24.984 10.3839 24.6275 10.0076 24.2821 9.6293C23.3083 8.60445 22.0988 7.88207 20.9004 7.20334C20.2226 6.80422 19.4834 6.54125 18.7523 6.27412C18.005 5.9675 17.2598 5.59955 16.4451 5.52679C15.1721 5.35114 14.0301 6.05273 13.5014 7.23245C13.3725 7.52972 13.1822 7.47359 12.9465 7.34054C12.1942 6.93934 11.3956 6.46641 10.5698 6.32401C9.84172 6.20656 8.98571 6.35312 8.46707 6.93102C8.17703 7.26987 8.05719 7.72304 7.96555 8.15751C7.68156 9.51912 8.07633 10.9327 8.6987 12.1353C9.09447 12.8078 8.64029 12.9523 8.15891 13.2714C7.64731 13.6154 7.25556 14.106 6.86281 14.5872C6.46904 15.0695 6.09542 15.5788 5.83761 16.1526C5.51736 16.8375 5.41867 17.6025 5.35724 18.3602C5.25754 19.4173 5.47607 20.5004 5.93328 21.4462C6.12261 21.8641 6.38546 22.2414 6.70168 22.5656C7.86585 23.8358 8.91219 24.3929 10.457 25.0384C11.4067 25.4666 12.4087 25.7046 13.4178 25.951C13.9294 26.0788 14.4561 26.188 14.9778 26.2618C16.2729 26.4291 17.57 26.5902 18.8792 26.4426C19.4995 26.3719 20.0494 26.322 20.6456 26.2275C21.2166 26.1194 21.7735 25.9302 22.3354 25.7815C23.4764 25.4739 24.5923 25.0082 25.6114 24.4023C25.9236 24.2173 26.2147 23.9938 26.4755 23.7371C27.5168 22.7153 28.4242 21.5356 29.0425 20.1865C29.4937 19.2801 29.7867 18.275 29.8331 17.2574C29.8371 16.7939 29.7404 16.3334 29.6488 15.8958L29.6447 15.8761L29.6437 15.8771ZM28.3215 18.5172C27.973 19.4558 27.6387 20.4141 27.0344 21.2176C26.0143 22.6488 24.7665 23.4512 23.1653 24.0551C22.0615 24.4781 20.9598 24.8482 19.7875 25.029C19.286 25.1361 18.7775 25.1402 18.2689 25.1662C17.9285 25.1901 17.5911 25.239 17.2507 25.2296C16.148 25.1413 15.0332 25.0363 13.9516 24.8004C13.5427 24.685 13.1197 24.6205 12.7119 24.502C11.9807 24.2609 11.2466 24.0198 10.5295 23.735C10.02 23.4699 9.50939 23.1997 9.01693 22.9066C8.66748 22.681 8.36636 22.3921 8.03907 22.1353C7.83463 21.9722 7.64027 21.7903 7.47712 21.5845C6.9333 20.8725 6.67146 20.015 6.64729 19.1086C6.55867 18.4361 6.6342 17.7564 6.81245 17.0995C7.00984 16.427 7.38749 15.822 7.83362 15.2826C8.18509 14.8315 8.57281 14.4074 9.05621 14.106C9.71181 13.6299 10.3241 13.394 10.019 12.4284C9.87697 11.9472 9.56981 11.5782 9.45803 11.0761C9.34523 10.6438 9.10958 10.254 9.027 9.81431C8.95147 9.33411 9.05822 8.81025 9.15389 8.33629C9.27071 7.71057 9.69872 7.45904 10.2919 7.65132C10.6051 7.73759 10.9062 7.87999 11.1952 8.03486C12.0079 8.47765 12.8186 8.92251 13.6102 9.40271C14.0291 9.62618 14.5397 10.0762 15.0201 9.79041C15.6888 9.27279 14.9727 8.43503 14.8972 7.80204C14.8025 6.74497 16.1691 6.91023 16.8278 7.10044C17.5216 7.2761 18.1541 7.63469 18.8238 7.88727C19.6737 8.23755 20.4532 8.7375 21.2528 9.1886C22.0373 9.7613 22.84 10.3111 23.5359 10.9971C23.8823 11.3142 24.3043 11.5106 24.69 11.7715C25.122 12.075 25.6004 12.3099 26.0163 12.629C26.3516 12.8972 26.7534 13.0843 27.0415 13.4127C27.265 13.6694 27.4332 13.9896 27.6014 14.2671C27.9065 14.7546 28.0838 15.294 28.2399 15.8501C28.4937 16.7118 28.6135 17.6483 28.3305 18.4974L28.3245 18.5162L28.3215 18.5172Z" fill="#63A720"/>
<path d="M24.873 19.2072C25.0257 18.6064 24.6067 17.8209 24.1145 17.4081C23.5417 16.9386 22.6728 16.9103 21.9938 16.5752C20.0104 15.6657 17.5296 15.8821 15.6226 16.8914C15.1169 17.1655 14.635 17.4827 14.1562 17.803C13.442 18.3271 12.602 18.7881 12.1521 19.5811C11.5856 20.6797 12.7135 21.2573 13.6959 21.0483C14.6794 20.8729 15.4678 20.0999 16.2809 19.5464C17.0085 19.0686 17.8578 18.7797 18.706 18.6075C19.9743 18.346 20.4232 19.4351 21.4066 19.9067C22.4974 20.4444 24.3673 20.6282 24.8688 19.223L24.873 19.2061V19.2072Z" fill="#C6E473"/>
<path d="M16.3845 15.8822C15.7098 15.2138 14.9635 14.8043 14.0038 14.876C13.2354 14.9332 12.5073 15.1089 11.8215 15.4903C11.1749 15.851 10.9826 16.4642 10.8647 17.1076C10.906 17.5753 11.0752 17.9194 11.335 18.2925C11.9121 19.1199 12.7319 19.282 13.5889 19.3673C14.034 19.4109 14.4962 19.3226 14.9464 19.2644C15.9202 19.1386 16.7491 18.7966 17.173 17.7656C17.3392 17.3623 17.2476 17.0411 17.0592 16.7199C16.877 16.4091 16.6453 16.1399 16.3845 15.8822Z" fill="#63A720"/>
<path d="M26.1169 15.8948C25.9286 15.1817 25.3898 14.7909 24.841 14.449C24.0877 13.9781 23.272 13.8232 22.422 14.2328C22.2155 14.3325 22.0514 14.4905 21.857 14.6028C21.4371 14.845 21.0212 15.1381 20.7865 15.5486C20.5055 16.0392 20.3353 16.6161 20.6062 17.2075C20.8026 17.6378 21.0896 17.985 21.4874 18.223C21.9527 18.5016 22.4965 18.407 22.995 18.539C23.4532 18.6606 23.9175 18.5265 24.3777 18.4673C24.6124 18.4361 24.7332 18.3997 24.9296 18.3051C25.1663 18.2365 25.3143 18.0463 25.4905 17.8873C25.9246 17.4934 26.1018 16.9737 26.1693 16.4124C26.1884 16.2544 26.1643 16.0715 26.1179 15.8948H26.1169Z" fill="#63A720"/>
<path d="M19.4502 18.4142C19.1591 18.4007 18.9144 18.6003 18.8973 18.8653C18.8782 19.1553 19.0725 19.3549 19.3837 19.3653C19.6808 19.3746 19.9185 19.1615 19.9356 18.8684C19.9507 18.6231 19.7412 18.4277 19.4502 18.4142Z" fill="#63A720"/>
<path d="M19.1319 12.8858C19.1289 12.629 19.2064 12.4648 19.3666 12.3765C19.5166 12.2933 19.6496 12.3775 19.7875 12.4731C20.1178 12.7007 20.4723 12.8899 20.848 13.024C21.0031 13.0801 21.1843 13.0541 21.3525 13.0801C21.5771 13.1155 21.8107 13.3732 21.8319 13.5926C21.8581 13.8514 21.6083 14.1476 21.3485 14.1621C20.5952 14.2037 19.9275 14.0104 19.3988 13.419C19.2457 13.2475 19.1359 13.0614 19.1319 12.8858Z" fill="#63A720"/>
<path d="M14.2756 16.0384C14.4679 16.159 14.6895 16.1704 14.8949 16.2317C15.1729 16.3159 15.4246 16.5176 15.6573 16.7182C15.6845 16.7421 15.6996 16.7868 15.7288 16.7992C15.9111 16.8782 16.0561 17.0092 15.9987 17.2181C15.9302 17.4676 15.8758 17.7513 15.5566 17.823C15.2283 17.8968 14.9382 18.1193 14.5868 18.0933C14.6049 17.4489 14.6693 16.8003 14.2141 16.2619C14.188 16.1735 14.1215 16.0727 14.2756 16.0374V16.0384Z" fill="#EEFFC0"/>
<path d="M23.3777 15.1268C23.5247 15.1247 23.699 15.1642 23.848 15.2848C23.8923 15.3211 23.9346 15.3534 23.993 15.3492C24.3828 15.3274 24.5781 15.6163 24.7544 15.8938C24.9699 16.2306 24.8994 16.6495 24.6406 16.9551C24.3596 17.2856 23.9538 17.3511 23.5882 17.4945C23.4361 17.5538 23.414 17.4207 23.4482 17.2939C23.5519 16.9125 23.6164 16.5393 23.4603 16.1454C23.3576 15.8866 23.1954 15.6829 23.0222 15.4843C22.8208 15.2536 22.8137 15.2754 23.1018 15.1517C23.1894 15.1143 23.2599 15.1476 23.3767 15.1257L23.3777 15.1268Z" fill="#EEFFC0"/>
</svg>
