<svg width="33" height="33" viewBox="0 0 33 33" fill="none" xmlns="http://www.w3.org/2000/svg">
<circle cx="16.5" cy="16.5" r="16.5" fill="#E4E4E4"/>
<path d="M9.71017 10.7878C9.88272 10.2452 10.1856 9.77206 10.4504 9.25635C10.8257 8.63878 11.2261 8.02677 11.8127 7.62216C12.4003 7.18051 13.2027 6.92682 13.9015 7.17773C14.4692 7.45087 14.9118 7.98233 15.2725 8.51286C15.5511 9.02487 16.1784 9.16931 16.5934 8.77396C16.8746 8.47582 17.2042 8.19343 17.5295 7.94529C18.0092 7.55549 18.5363 7.27032 19.148 7.15551C20.0936 7.02218 21.1419 7.28328 21.8097 8.05362C22.5163 8.86747 23.0754 9.83132 23.3212 10.9165C23.6129 11.8683 23.6914 12.8701 23.5318 13.858C23.4515 14.4598 23.6802 15.0357 23.9062 15.57C24.3756 16.5357 24.863 17.5828 24.8786 18.6985C24.876 19.1642 24.9355 19.6355 24.8311 20.0929C24.6413 20.9892 24.3937 21.9132 23.8674 22.653C23.436 23.1918 22.9908 23.7427 22.4671 24.1872C22.2471 24.3566 21.9986 24.4751 21.7639 24.6177C21.5034 24.7668 21.2523 24.9464 20.9745 25.0603C20.5285 25.2381 20.0608 25.3492 19.6001 25.4723C19.1239 25.5788 18.6511 25.6927 18.1705 25.7649C17.5424 25.8075 16.9109 25.8917 16.2819 25.9001C14.9817 25.9121 13.6712 25.7825 12.4288 25.3482C12.1087 25.251 11.7817 25.1992 11.4806 25.0695C11.1053 24.8936 10.7326 24.7112 10.3486 24.5538C10.0743 24.427 9.84217 24.2251 9.59542 24.0529C9.10451 23.7464 8.69124 23.3409 8.27452 22.9298C7.93114 22.5687 7.68611 22.1206 7.42987 21.6938C7.22712 21.366 7.16931 21.0253 7.05542 20.6299C6.83283 20.0401 6.91393 19.404 6.95534 18.7837C7.03385 17.5264 7.60242 16.3644 8.35044 15.4126C9.16317 14.4357 8.92332 13.908 9.13815 12.7627C9.25118 12.084 9.44961 11.4294 9.70413 10.7998L9.70931 10.7841L9.71017 10.7878Z" fill="#C9C9C9"/>
<path d="M12.136 18.2772C10.7849 16.1042 7.7902 16.2588 6.51071 18.4337C5.65225 19.7966 6.50553 21.3447 7.18712 22.5632C7.96189 24.0038 9.20428 24.4464 10.6227 23.7446C11.2214 23.4455 11.746 22.9715 12.1325 22.4169C13.0479 21.1864 12.9599 19.5772 12.1463 18.292L12.1368 18.2763L12.136 18.2772Z" fill="#C9C9C9"/>
<path d="M25.885 19.3143C25.7961 18.3959 25.1982 17.5551 24.4795 17.0052C23.2285 16.0756 21.3537 16.37 20.2425 17.445C19.353 18.3301 18.8543 19.6736 19.0053 20.9661C19.1649 22.2262 20.1165 23.253 21.1734 23.7447C22.5107 24.3669 24.0482 23.6188 24.9437 22.4883C25.5839 21.5976 25.9531 20.4532 25.8859 19.331L25.8841 19.3143H25.885Z" fill="#C9C9C9"/>
<path d="M17.3784 17.8644C16.8547 17.6691 16.3034 17.6163 15.7512 17.5895C15.2957 17.5719 14.8566 17.67 14.4174 17.7894C13.8091 17.9542 13.3156 18.3033 12.8868 18.7866C12.584 19.1273 12.3468 19.5033 12.4089 19.9838C12.4986 20.6819 12.8368 21.2624 13.326 21.7133C13.8359 22.1837 14.4329 22.5059 15.093 22.6781C15.5658 22.8013 16.048 22.8355 16.5191 22.7263C17.1834 22.5716 17.7813 22.2717 18.274 21.7337C18.7218 21.2439 19.123 20.7476 19.2118 20.0356C19.2705 19.5644 19.1954 19.1246 18.884 18.7885C18.4664 18.3385 17.9297 18.0728 17.3776 17.8663L17.3784 17.8644Z" fill="#C9C9C9"/>
<path d="M21.9966 16.5747C21.736 16.3506 21.4349 16.1682 21.1304 16.0173C20.5411 15.7257 19.9147 15.5349 19.2814 15.3942C18.863 15.3016 18.4333 15.2831 18.0503 15.5636C17.7517 15.7831 17.7673 16.1516 18.083 16.3692C18.2547 16.533 18.4506 16.446 18.6404 16.433C18.9648 16.458 19.2901 16.4256 19.6119 16.5534C19.7353 16.6025 19.8353 16.6923 19.9656 16.7358C20.227 16.8219 20.5066 16.8497 20.7525 17.0025C21.0596 17.1941 21.3599 17.4043 21.7032 17.5237C21.9163 17.5987 22.1985 17.4506 22.2468 17.2395C22.3132 16.9506 22.1709 16.7228 21.9983 16.5738L21.9966 16.5747Z" fill="#C9C9C9"/>
<path d="M13.0291 16.3368C13.0101 16.0322 12.7426 15.7776 12.363 15.7841C12.2353 15.81 12.0429 15.8405 11.854 15.8868C11.1249 16.0646 10.502 16.4738 9.91188 16.9433C9.6194 17.1766 9.3692 17.4553 9.20959 17.8238C9.12158 18.0275 9.15092 18.1701 9.28982 18.3154C9.51587 18.5515 9.7169 18.5589 10.0033 18.3339C10.251 18.1395 10.4278 17.8636 10.6668 17.6608C10.9325 17.4358 11.2664 17.3451 11.5598 17.1729C11.7677 17.0507 11.9791 16.9414 12.2224 16.9118C12.3993 16.8905 12.5735 16.834 12.7461 16.7822C12.9532 16.7201 13.0429 16.572 13.0282 16.3359L13.0291 16.3368Z" fill="#C9C9C9"/>
<path d="M26.0345 18.568V18.5495C26.019 17.256 25.5229 16.0329 24.8741 14.9617C24.6489 14.6163 24.5738 14.2015 24.6817 13.796C24.8465 12.8386 24.736 11.8257 24.4496 10.8998C24.2624 10.1962 24.095 9.50453 23.6964 8.90641C23.2201 8.21662 22.7223 7.51943 22.1149 6.95371C21.7008 6.58336 21.1762 6.35837 20.6646 6.17967C19.7846 5.8908 18.8105 6.07875 17.9477 6.37967C17.5526 6.52873 17.1894 6.76761 16.8598 7.04815C16.6044 7.25648 16.3568 7.55832 16.0816 7.54721C15.7606 7.52499 15.5622 7.16111 15.312 6.95371C15.1886 6.84076 15.06 6.72687 14.9255 6.62317C14.4181 6.24819 13.8401 5.95098 13.2198 5.95839C10.8566 5.98431 9.4874 8.4592 8.7135 10.5573C8.36408 11.4813 8.12077 12.4794 8.11819 13.4794C8.11646 13.7803 8.07418 14.0803 7.92061 14.3349C7.56256 14.8543 7.13721 15.332 6.84301 15.8996C6.50825 16.4977 6.21836 17.1505 6.07514 17.8375C5.61787 19.9643 6.14934 22.3577 7.66696 23.865C8.86966 25.077 10.3933 25.8834 11.9575 26.3936C13.1525 26.7038 14.3724 26.9501 15.6027 27.0223C16.242 27.0704 16.89 27.0093 17.5267 26.9991C18.191 26.9954 18.8467 26.8917 19.4973 26.7464C20.1452 26.5686 20.8165 26.4575 21.4402 26.1936C22.177 25.8557 22.8207 25.3149 23.4384 24.7742C25.1243 23.2697 26.1432 20.9188 26.0328 18.5671L26.0345 18.568ZM24.8309 20.0939C24.6411 20.9901 24.3935 21.9142 23.8672 22.6539C23.4358 23.1928 22.9906 23.7437 22.4669 24.1881C22.2469 24.3576 21.9984 24.4761 21.7638 24.6187C21.5032 24.7677 21.2522 24.9474 20.9743 25.0613C20.5283 25.239 20.0607 25.3501 19.5999 25.4733C19.1237 25.5797 18.6509 25.6936 18.1703 25.7658C17.5422 25.8084 16.9107 25.8927 16.2817 25.901C14.9815 25.9131 13.671 25.7834 12.4286 25.3492C12.1085 25.252 11.7815 25.2001 11.4804 25.0705C11.1051 24.8946 10.7324 24.7122 10.3484 24.5548C10.0741 24.4279 9.842 24.2261 9.59525 24.0539C9.10433 23.7474 8.69107 23.3419 8.27435 22.9308C7.93096 22.5697 7.68594 22.1216 7.42969 21.6947C7.22694 21.367 7.16914 21.0262 7.05525 20.6309C6.83266 20.0411 6.91376 19.405 6.95517 18.7847C7.03368 17.5273 7.60225 16.3653 8.35027 15.4135C9.163 14.4367 8.92315 13.909 9.13798 12.7636C9.251 12.085 9.44944 11.4304 9.70396 10.8008L9.70914 10.785C9.88169 10.2425 10.1845 9.76933 10.4494 9.25361C10.8247 8.63605 11.225 8.02404 11.8117 7.61943C12.3993 7.17778 13.2016 6.92409 13.9005 7.175C14.4682 7.44814 14.9108 7.97959 15.2714 8.51013C15.5501 9.02214 16.1773 9.16658 16.5923 8.77123C16.8736 8.47309 17.2032 8.1907 17.5284 7.94256C18.0081 7.55276 18.5353 7.26759 19.147 7.15278C20.0926 7.01945 21.1409 7.28055 21.8086 8.05089C22.5152 8.86474 23.0743 9.82859 23.3202 10.9137C23.6118 11.8655 23.6903 12.8673 23.5307 13.8553C23.4505 14.4571 23.6791 15.033 23.9052 15.5672C24.3745 16.5329 24.862 17.5801 24.8775 18.6958C24.8749 19.1615 24.9345 19.6328 24.8301 20.0902L24.8309 20.0939Z" fill="#C9C9C9"/>
</svg>
