<svg width="33" height="33" viewBox="0 0 33 33" fill="none" xmlns="http://www.w3.org/2000/svg">
<circle cx="16.5" cy="16.5" r="16.5" fill="#C0EEF7"/>
<path d="M6.40058 15.578C6.5503 15.3852 6.75484 15.245 6.95622 15.107C7.30838 14.8616 7.63734 14.5944 7.98738 14.3567C8.87198 13.8572 10.0676 12.9886 9.14401 11.8834C8.94684 11.6785 8.70013 11.5416 8.46606 11.3916C8.05275 11.1473 7.72168 10.776 7.36953 10.4463C6.69263 9.90296 6.58509 9.61597 6.65679 8.73531C6.7443 7.83054 7.68162 7.25986 8.40807 6.91701C8.81821 6.77023 9.28002 6.70342 9.73339 6.76147C9.90314 6.78338 10.0729 6.80419 10.2437 6.80748C10.9111 6.83376 11.5922 6.86443 12.2312 7.07912C13.0641 7.39787 13.8517 7.7922 14.7215 7.97403C15.0568 8.06714 15.3826 8.19968 15.7253 8.20077C16.1555 8.18872 16.6236 8.19639 17.0253 8.04633C17.7159 7.77796 18.1566 7.09555 18.8325 6.80309C19.327 6.52159 19.8478 6.39453 20.4045 6.24118C20.7788 6.10316 21.1426 5.96624 21.5285 5.87752C21.9449 5.76469 22.3783 5.81837 22.8053 5.80194C23.2987 5.74717 23.8059 5.63325 24.3004 5.70116C24.7295 5.74498 25.1586 5.71102 25.5793 5.81508C26.1233 5.93228 26.3395 6.33319 26.3627 6.87648C26.4059 7.35077 26.4428 7.86012 26.2815 8.31578C26.0611 8.92261 25.6141 9.39471 25.225 9.88981C24.6799 10.5306 24.7316 11.0367 25.3168 11.6084C25.9915 12.3303 26.6083 13.1474 27.0079 14.0686C27.1935 14.4279 27.2473 14.8332 27.2726 15.2341C27.3011 15.624 27.4339 15.9997 27.4898 16.3809C27.5277 16.6131 27.5499 16.8497 27.6153 17.0765C27.7397 17.5518 28.1256 17.9122 28.3153 18.3668C28.4292 18.6352 28.4861 18.9189 28.5072 19.2124C28.5336 20.7262 28.4682 22.2794 27.9168 23.6957C27.7829 24.0594 27.5994 24.4077 27.3095 24.6618C26.6157 25.2172 25.7554 25.4373 24.9657 25.7846C24.7 25.8996 24.4322 26.0113 24.1559 26.0956C23.5528 26.2895 22.9076 26.2698 22.2876 26.2994C21.8258 26.3158 21.3555 26.3607 20.9011 26.2512C20.0524 26.0409 19.2405 25.6805 18.3875 25.4866C17.9004 25.3891 17.4038 25.3672 16.9093 25.3804C16.4444 25.388 15.9984 25.5348 15.5608 25.6849C13.7579 26.283 11.8242 26.387 9.95164 26.1121C9.38862 26.0223 8.8393 25.801 8.34797 25.5184C8.03061 25.3201 7.78178 25.0255 7.45282 24.779C7.1207 24.5205 6.77066 24.2806 6.48914 23.9728C6.16335 23.5708 5.74266 23.2795 5.39894 22.8972C5.16698 22.6234 5.051 22.2783 4.90234 21.953C4.78109 21.6759 4.64508 21.3987 4.53648 21.1085C4.32455 20.6583 4.29925 20.1665 4.45002 19.6933C4.60923 19.0886 4.83275 18.5114 5.12375 17.9659C5.50016 17.1542 5.8734 16.3152 6.39003 15.5912L6.40058 15.578Z" fill="#D4CCFF"/>
<path d="M29.826 19.012V18.9912C29.8207 18.0021 29.1554 17.2682 28.9203 16.3525C28.7558 15.5134 28.6229 14.6821 28.2655 13.8945C28.1147 13.5834 27.9302 13.2932 27.7531 12.9985C27.421 12.4289 27.092 11.8593 26.6407 11.3883C26.2327 10.9666 26.5448 10.4682 26.8284 10.0772C27.1774 9.56126 27.5612 8.98401 27.6297 8.35746C27.6635 7.94671 27.694 7.58524 27.6782 7.17338C27.5781 6.35734 27.4231 5.37918 26.7251 4.86218C25.8405 4.27287 24.4846 4.30792 23.4619 4.35941C22.6036 4.45799 21.7285 4.48099 20.8871 4.68801C19.5903 5.05715 18.2734 5.52925 17.2412 6.4614C16.4493 7.25006 15.9622 7.18543 14.9711 6.84477C13.9178 6.57313 13.0143 5.92139 11.9557 5.65412C11.3568 5.50625 10.74 5.46024 10.1285 5.43176C9.56652 5.41314 8.99611 5.37152 8.44152 5.49967C7.3218 5.77351 6.31594 6.53588 5.67068 7.5228C5.40498 7.96861 5.37335 8.52505 5.36597 9.07383C5.35648 9.52621 5.4461 9.98298 5.68333 10.3664C6.10191 11.0838 6.83152 11.5493 7.39982 12.1321C7.57379 12.3095 7.92489 12.499 7.88271 12.7652C7.83632 12.9547 7.6012 13.096 7.44305 13.2066C7.00127 13.4925 6.54157 13.7565 6.12194 14.0741C5.20992 14.7138 4.69013 15.7544 4.21672 16.7545C3.80447 17.6045 3.37324 18.4183 3.1476 19.3549C2.99999 19.8741 2.94833 20.4349 3.06115 20.9629C3.23617 21.7899 3.6558 22.5643 4.03959 23.3102C4.84722 24.5764 6.05551 25.4922 7.23745 26.3564C7.63388 26.6401 8.09886 26.7792 8.55012 26.9337C9.34405 27.2535 10.1875 27.4485 11.0352 27.4561C11.9494 27.4945 12.8297 27.6402 13.7281 27.4353C14.2004 27.3477 14.6591 27.3006 15.1398 27.1976C15.918 27.0081 16.694 26.7387 17.4984 26.7825C18.1448 26.7573 18.771 26.9227 19.3889 27.1429C20.031 27.3357 20.6752 27.5723 21.3416 27.6391C21.8297 27.7103 22.3253 27.6303 22.7997 27.6029C23.1835 27.5942 23.6358 27.6259 24.0333 27.5427C24.6891 27.4299 25.3249 27.1527 25.9322 26.8537C26.4826 26.5295 27.0161 26.1888 27.5886 25.9084C28.0156 25.6751 28.3372 25.3147 28.6482 24.9456C28.8707 24.6805 29.0858 24.399 29.2028 24.066C29.5497 23.0375 29.769 21.941 29.7827 20.8413C29.7964 20.2312 29.8586 19.609 29.826 19.0131V19.012ZM27.9176 23.6958C27.7837 24.0594 27.6002 24.4078 27.3103 24.6619C26.6165 25.2172 25.7561 25.4374 24.9664 25.7846C24.7007 25.8996 24.4329 26.0114 24.1567 26.0957C23.5536 26.2896 22.9083 26.2699 22.2884 26.2994C21.8266 26.3159 21.3563 26.3608 20.9019 26.2512C20.0531 26.0409 19.2413 25.6806 18.3883 25.4867C17.9012 25.3892 17.4046 25.3673 16.9101 25.3804C16.4451 25.3881 15.9991 25.5349 15.5616 25.6849C13.7586 26.283 11.8249 26.3871 9.95241 26.1121C9.38939 26.0223 8.84007 25.8011 8.34874 25.5185C8.03138 25.3202 7.78255 25.0255 7.45359 24.7791C7.12147 24.5206 6.77142 24.2807 6.48991 23.9729C6.16411 23.5709 5.74343 23.2795 5.39971 22.8973C5.16775 22.6234 5.05177 22.2784 4.90311 21.9531C4.78185 21.6759 4.64584 21.3988 4.53724 21.1085C4.32532 20.6583 4.30001 20.1665 4.45079 19.6933C4.60999 19.0887 4.83352 18.5114 5.12452 17.966C5.50092 17.1543 5.87417 16.3152 6.3908 15.5912L6.40134 15.5781C6.55106 15.3853 6.75561 15.2451 6.95699 15.1071C7.30914 14.8617 7.6381 14.5944 7.98815 14.3567C8.87275 13.8573 10.0684 12.9886 9.14477 11.8834C8.94761 11.6786 8.70089 11.5417 8.46683 11.3916C8.05352 11.1473 7.72245 10.776 7.3703 10.4463C6.6934 9.90302 6.58586 9.61603 6.65755 8.73536C6.74506 7.8306 7.68238 7.25992 8.40884 6.91707C8.81898 6.77029 9.28079 6.70347 9.73416 6.76153C9.90391 6.78343 10.0737 6.80425 10.2445 6.80753C10.9119 6.83382 11.593 6.86449 12.2319 7.07918C13.0649 7.39793 13.8525 7.79226 14.7223 7.97409C15.0576 8.06719 15.3834 8.19973 15.7261 8.20083C16.1562 8.18878 16.6244 8.19645 17.0261 8.04638C17.7167 7.77802 18.1574 7.09561 18.8332 6.80315C19.3277 6.52164 19.8486 6.39458 20.4053 6.24123C20.7796 6.10322 21.1433 5.9663 21.5292 5.87757C21.9457 5.76475 22.379 5.81842 22.8061 5.80199C23.2995 5.74722 23.8066 5.63331 24.3011 5.70122C24.7303 5.74503 25.1594 5.71108 25.5801 5.81514C26.1241 5.93234 26.3403 6.33324 26.3634 6.87654C26.4067 7.35083 26.4436 7.86017 26.2823 8.31584C26.0619 8.92267 25.6149 9.39477 25.2258 9.88987C24.6807 10.5307 24.7324 11.0367 25.3175 11.6085C25.9923 12.3303 26.6091 13.1475 27.0087 14.0687C27.1943 14.4279 27.2481 14.8332 27.2734 15.2341C27.3018 15.6241 27.4347 15.9998 27.4906 16.381C27.5285 16.6132 27.5507 16.8498 27.616 17.0765C27.7404 17.5519 28.1263 17.9123 28.3161 18.3669C28.43 18.6352 28.4869 18.9189 28.5091 19.2125C28.5354 20.7263 28.47 22.2795 27.9186 23.6958H27.9176Z" fill="#7536AB"/>
<path d="M23.3701 19.6123C23.5335 19.1961 23.3406 18.8214 23.1118 18.4633C22.9674 18.1993 22.8377 17.9178 22.6163 17.7129C22.3316 17.403 21.9204 17.2408 21.5007 17.277C21.1897 17.2858 20.9103 17.1455 20.6404 16.9999C20.0352 16.6592 19.4036 16.3876 18.7099 16.347C17.3772 16.1849 16.0054 16.3131 14.7413 16.8235C13.5614 17.3427 12.5092 18.1412 11.4717 18.9222C11.0679 19.2421 10.6388 19.5312 10.4015 20.0165C10.0663 20.6606 10.2972 21.3408 11.0141 21.4854C11.4717 21.5587 11.9483 21.6573 12.3827 21.4602C12.9014 21.2269 13.4128 20.9311 13.8662 20.5598C14.2278 20.2717 14.5431 19.9146 14.9574 19.7043C15.2569 19.5608 15.5352 19.3834 15.8599 19.3056C16.0276 19.2651 16.1994 19.2377 16.3629 19.1785C16.7277 19.0416 17.0851 18.8247 17.4805 18.8434C17.9318 18.8718 18.4505 19.0153 18.7299 19.4042C18.8438 19.5663 18.9281 19.7645 19.0715 19.8949C19.2497 20.057 19.4817 20.1578 19.6989 20.2827C20.1195 20.516 20.6509 20.6255 21.0938 20.735C21.5956 20.7537 22.1703 20.8194 22.6036 20.5006C22.9252 20.2728 23.2647 20.0395 23.3617 19.6287L23.367 19.6101L23.3701 19.6123Z" fill="#B094E0"/>
<path d="M17.9951 18.3669C16.9049 18.0766 15.5912 17.9145 14.5727 18.4206C13.8515 18.9168 13.4772 19.8566 13.4656 20.7252C13.4298 21.9224 14.6381 23.583 15.8 23.7966C17.0852 24.008 18.7279 23.7484 19.4407 22.5085C19.8824 21.6541 19.9299 20.6299 19.5735 19.7175C19.311 18.9934 18.7406 18.5783 18.0152 18.3724L17.9941 18.3658L17.9951 18.3669Z" fill="#7536AB"/>
<path d="M14.328 17.9779C14.4345 17.9002 14.5611 17.8618 14.6855 17.7271C14.7656 17.6384 14.8331 17.5365 14.9132 17.4467C15.1051 17.2364 15.3255 17.0348 15.4277 16.7599C15.5859 16.3108 15.4868 15.6262 15.2411 15.222C15.1684 15.1223 15.0872 15.0906 14.9881 15.0522C14.9195 15.0281 14.831 14.9602 14.7677 14.8945C14.4725 14.567 14.1003 14.3183 13.6775 14.1924C12.988 13.8156 12.7349 13.7444 11.9547 13.9021C11.4275 13.9711 10.8972 14.1135 10.4586 14.4388C9.94298 14.8167 9.57923 15.3567 9.342 15.9548C9.1111 16.4904 9.15011 17.0786 9.55604 17.4861C10.1665 18.1806 10.9815 18.5924 11.8756 18.679C12.5968 18.8016 13.2906 18.5344 13.94 18.2397C14.0803 18.1806 14.2131 18.0491 14.3154 17.9845L14.327 17.9768L14.328 17.9779Z" fill="#7536AB"/>
<path d="M27.2146 16.094C26.9489 15.8399 26.7211 16.0272 26.6589 16.3361C26.5735 16.829 26.7633 17.4281 26.2593 17.7326C25.7374 18.0777 25.2925 17.6625 25.2588 17.0667C25.2039 16.5518 25.3515 16.0469 25.3399 15.543C25.3579 15.1794 25.0437 14.819 24.7231 15.1191C24.5987 15.2265 24.526 15.462 24.3678 15.2933C24.1675 15.0392 23.9914 14.7062 23.7574 14.4696C23.4358 14.1256 23.0246 13.8397 22.586 13.6897C21.8648 13.4279 21.0867 13.3808 20.3644 13.6831C19.91 13.8507 19.4313 14.1508 19.1403 14.5638C18.688 15.1837 18.591 16.0074 18.8609 16.7326C19.3902 18.1237 21.0487 18.4884 22.354 18.3154C22.6967 18.2201 23.0383 18.0974 23.3483 17.9123C23.5338 17.7797 23.6867 17.5848 23.8491 17.4073C23.9777 17.266 24.0905 17.1116 24.1907 16.9506C24.2466 16.864 24.2887 16.806 24.3183 16.8071C24.3625 16.8027 24.3731 16.9484 24.3826 17.1258C24.3931 17.3131 24.4205 17.4982 24.4849 17.6757C25.0036 19.0975 26.8909 19.1369 27.4328 17.7096C27.6405 17.1609 27.7186 16.5256 27.2315 16.1071L27.2156 16.0929L27.2146 16.094Z" fill="#7536AB"/>
<path d="M11.3507 20.7263C10.853 20.6912 10.9026 21.4514 10.7044 21.7756C10.4977 22.2072 10.1551 22.5632 9.64896 22.366C8.62307 22.0714 9.31262 21.3572 9.01635 20.7339C8.92884 20.5937 8.74222 20.5433 8.6062 20.6288C8.30044 20.8533 8.27619 21.3999 8.27197 21.7734C8.28357 22.1919 8.39322 22.6125 8.72745 22.8425C8.93833 22.9926 9.19453 23.066 9.43914 23.1284C9.7196 23.1985 10.0032 23.2675 10.2932 23.2182C10.7465 23.1448 11.0839 22.8852 11.318 22.5281C11.5552 22.1535 11.7819 21.745 11.7208 21.2619C11.6976 21.0319 11.5595 20.7734 11.3676 20.7306L11.3507 20.7263Z" fill="#7536AB"/>
<path d="M24.3015 23.8184C24.1475 23.7177 23.9651 23.8108 23.9198 23.986C23.8565 24.181 23.8924 24.4209 23.7764 24.5797C23.5529 24.8645 23.323 24.5983 23.3062 24.273C23.2482 23.9619 23.3968 23.6147 23.303 23.3277C23.2387 23.1426 23.0362 23.0002 22.8654 23.0331C22.2919 23.205 22.4743 24.8075 22.7547 25.2139C23.109 25.801 24.1338 25.6104 24.4628 25.0923C24.6947 24.6399 24.8023 24.1558 24.3194 23.8283L24.3025 23.8184H24.3015Z" fill="#7536AB"/>
<path d="M21.1447 12.0137C21.6497 11.8461 21.9966 11.4222 22.0072 10.8526C22.0346 10.5328 21.8996 10.0596 21.5401 10.0443C21.2375 10.1089 21.3798 10.524 21.344 10.7782C21.3355 10.9195 21.3039 11.052 21.2396 11.1572C21.1405 11.3204 20.9296 11.4704 20.7504 11.4639C20.4119 11.4146 20.3624 10.8143 20.4077 10.5142C20.4288 10.3586 20.4541 10.2031 20.3908 10.0903C20.3213 9.95554 20.1241 9.88544 20.0007 9.94897C19.7582 10.1133 19.8363 10.5481 19.8204 10.8198C19.8384 11.6709 20.2569 12.3445 21.1236 12.0214L21.1458 12.0137H21.1447Z" fill="#7536AB"/>
<path d="M24.5838 19.7655C24.3265 19.8521 24.434 20.2727 24.2738 20.4622C24.1989 20.5695 24.0766 20.5608 24.0091 20.4205C23.9459 20.2957 23.9132 20.1237 23.8193 20.0175C23.6886 19.8367 23.3807 19.8477 23.3565 20.1018C23.3111 20.644 23.7909 21.5181 24.3813 21.2092C24.7535 21.0077 25.0719 20.6046 24.9528 20.1566C24.9148 19.9627 24.7872 19.7469 24.5985 19.7633L24.5827 19.7666L24.5838 19.7655Z" fill="#7536AB"/>
<path d="M12.3661 15.0293C12.6866 15.0216 13.0472 15.2363 13.4204 15.4039C13.5712 15.4718 13.7167 15.5572 13.8538 15.6525C14.2091 15.9001 14.2281 16.2539 13.935 16.5682C13.432 17.105 12.7794 17.3722 12.1088 17.4642C11.549 17.5409 10.9986 17.2912 10.5874 16.8333C10.4988 16.7347 10.4756 16.6099 10.5304 16.4762C10.6886 16.0885 10.8699 15.6887 11.1841 15.4411C11.4825 15.2056 11.8473 15.015 12.3671 15.0303L12.3661 15.0293Z" fill="#D4CCFF"/>
<path d="M21.8477 17.1445C21.4217 17.1215 21.0295 17.1324 20.6405 16.9582C20.3431 16.8246 20.1555 16.588 20.0173 16.3459C19.9604 16.2452 19.9678 15.9571 20.0068 15.7479C20.0743 15.3809 20.3157 15.1159 20.5603 14.934C20.768 14.7796 21.0886 14.6449 21.3743 14.7139C21.7043 14.7927 22.0586 14.807 22.3538 15.0326C22.4603 15.1137 22.6205 15.1137 22.7534 15.1608C23.0591 15.2703 23.2447 15.5332 23.1762 15.8443C23.0064 16.6088 22.7144 17.1017 21.8477 17.1445Z" fill="#D4CCFF"/>
</svg>
