<svg width="33" height="33" viewBox="0 0 33 33" fill="none" xmlns="http://www.w3.org/2000/svg">
<circle cx="16.5" cy="16.5" r="16.5" fill="#FFD7D7"/>
<path d="M8.95155 9.04625C9.16162 8.38573 9.53029 7.80975 9.85274 7.18191C10.3096 6.4301 10.797 5.68504 11.5112 5.19247C12.2265 4.65481 13.2033 4.34597 14.0541 4.65143C14.7452 4.98394 15.284 5.63094 15.723 6.2768C16.0623 6.90012 16.8259 7.07596 17.3311 6.59466C17.6735 6.23171 18.0747 5.88793 18.4707 5.58585C19.0547 5.11131 19.6964 4.76415 20.4411 4.62438C21.5923 4.46207 22.8684 4.77993 23.6814 5.71773C24.5416 6.70851 25.2222 7.88188 25.5216 9.20292C25.8766 10.3616 25.9722 11.5812 25.7778 12.7839C25.6802 13.5166 25.9585 14.2177 26.2337 14.8681C26.8051 16.0437 27.3985 17.3185 27.4174 18.6767C27.4143 19.2437 27.4867 19.8174 27.3596 20.3743C27.1286 21.4653 26.8271 22.5903 26.1864 23.4909C25.6613 24.1469 25.1193 24.8175 24.4817 25.3586C24.2139 25.5648 23.9114 25.7091 23.6257 25.8827C23.3085 26.0642 23.0029 26.2828 22.6647 26.4215C22.1216 26.6379 21.5524 26.7732 20.9915 26.9231C20.4117 27.0527 19.8361 27.1913 19.2511 27.2793C18.4865 27.3311 17.7176 27.4337 16.9519 27.4438C15.3691 27.4585 13.7736 27.3007 12.2611 26.772C11.8715 26.6537 11.4734 26.5906 11.1068 26.4328C10.6499 26.2186 10.1962 25.9965 9.7288 25.8049C9.39479 25.6505 9.11226 25.4048 8.81186 25.1951C8.21422 24.822 7.71111 24.3283 7.20381 23.8279C6.78577 23.3883 6.48748 22.8427 6.17553 22.3231C5.9287 21.9241 5.85833 21.5093 5.71969 21.028C5.4487 20.31 5.54743 19.5356 5.59785 18.7804C5.69343 17.2498 6.3856 15.8352 7.29623 14.6764C8.28565 13.4873 7.99365 12.8448 8.25519 11.4505C8.39278 10.6243 8.63435 9.82737 8.9442 9.0609L8.9505 9.04174L8.95155 9.04625Z" fill="#FFFFD1"/>
<path d="M11.9052 18.164C10.2604 15.5185 6.61467 15.7067 5.05703 18.3544C4.01195 20.0136 5.05072 21.8983 5.88048 23.3816C6.82368 25.1355 8.33616 25.6743 10.0629 24.8199C10.7918 24.4558 11.4304 23.8787 11.901 23.2035C13.0154 21.7055 12.9082 19.7465 11.9178 18.182L11.9062 18.1628L11.9052 18.164Z" fill="#FFDE7A"/>
<path d="M28.6432 19.4264C28.5351 18.3082 27.8072 17.2847 26.9322 16.6152C25.4093 15.4835 23.1269 15.842 21.7741 17.1506C20.6912 18.2282 20.0841 19.8637 20.2679 21.4372C20.4622 22.9713 21.6207 24.2213 22.9074 24.8198C24.5354 25.5773 26.4071 24.6665 27.4973 23.2903C28.2767 22.2059 28.7262 20.8128 28.6443 19.4466L28.6422 19.4264H28.6432Z" fill="#FFDE7A"/>
<path d="M18.2871 17.661C17.6496 17.4232 16.9784 17.3589 16.3062 17.3262C15.7516 17.3048 15.217 17.4243 14.6824 17.5697C13.9419 17.7703 13.3411 18.1953 12.8191 18.7836C12.4504 19.1984 12.1616 19.6561 12.2372 20.2411C12.3464 21.091 12.7582 21.7977 13.3537 22.3466C13.9745 22.9192 14.7013 23.3115 15.5048 23.5211C16.0804 23.671 16.6675 23.7127 17.241 23.5797C18.0497 23.3915 18.7776 23.0263 19.3773 22.3714C19.9225 21.7751 20.4109 21.171 20.5191 20.3042C20.5905 19.7305 20.4991 19.1951 20.1199 18.7859C19.6116 18.2381 18.9583 17.9146 18.2861 17.6632L18.2871 17.661Z" fill="#F1A436"/>
<path d="M23.9094 16.091C23.5922 15.8182 23.2256 15.5961 22.8548 15.4124C22.1375 15.0574 21.3749 14.8252 20.604 14.6538C20.0946 14.5411 19.5715 14.5186 19.1052 14.8601C18.7417 15.1272 18.7606 15.5759 19.1451 15.8407C19.3541 16.0402 19.5925 15.9343 19.8236 15.9185C20.2185 15.9489 20.6145 15.9095 21.0063 16.065C21.1564 16.1248 21.2783 16.2341 21.4369 16.2871C21.7551 16.3919 22.0954 16.4257 22.3948 16.6117C22.7687 16.845 23.1342 17.1009 23.5523 17.2463C23.8117 17.3376 24.1551 17.1573 24.214 16.9003C24.2948 16.5486 24.1215 16.2713 23.9115 16.0898L23.9094 16.091Z" fill="#F1A436"/>
<path d="M12.9923 15.8012C12.9692 15.4304 12.6436 15.1204 12.1815 15.1283C12.026 15.1599 11.7918 15.1971 11.5618 15.2534C10.6742 15.4699 9.9159 15.9681 9.19748 16.5395C8.84142 16.8236 8.53682 17.1629 8.34251 17.6115C8.23538 17.8594 8.27109 18.033 8.44019 18.21C8.71538 18.4974 8.9601 18.5064 9.30881 18.2325C9.61026 17.9958 9.82558 17.6599 10.1165 17.4131C10.44 17.1392 10.8465 17.0287 11.2036 16.8191C11.4567 16.6703 11.7141 16.5373 12.0103 16.5012C12.2256 16.4753 12.4377 16.4065 12.6478 16.3434C12.8999 16.2679 13.0091 16.0875 12.9913 15.8001L12.9923 15.8012Z" fill="#F1A436"/>
<path d="M28.825 18.5178V18.4952C28.8061 16.9206 28.2021 15.4316 27.4123 14.1275C27.1381 13.707 27.0468 13.2021 27.178 12.7084C27.3787 11.5429 27.2442 10.3098 26.8955 9.18259C26.6676 8.32595 26.4638 7.48395 25.9786 6.75581C25.3988 5.91607 24.7927 5.06731 24.0533 4.37861C23.5492 3.92775 22.9106 3.65385 22.2877 3.43631C21.2164 3.08463 20.0305 3.31344 18.9802 3.67977C18.4992 3.86125 18.057 4.15205 17.6557 4.49359C17.3449 4.7472 17.0434 5.11465 16.7084 5.10113C16.3176 5.07408 16.0761 4.6311 15.7715 4.37861C15.6213 4.2411 15.4648 4.10246 15.3009 3.97622C14.6833 3.51972 13.9796 3.1579 13.2244 3.16691C10.3476 3.19847 8.68068 6.21138 7.73853 8.76554C7.31315 9.89045 7.01696 11.1055 7.0138 12.3229C7.0117 12.6892 6.96024 13.0544 6.77328 13.3644C6.33739 13.9967 5.81958 14.5783 5.46142 15.2693C5.05389 15.9974 4.70098 16.7921 4.52662 17.6284C3.96995 20.2175 4.61695 23.1313 6.46448 24.9663C7.92864 26.4417 9.78352 27.4235 11.6878 28.0446C13.1425 28.4222 14.6276 28.722 16.1254 28.8099C16.9037 28.8685 17.6925 28.7941 18.4677 28.7817C19.2764 28.7772 20.0747 28.651 20.8666 28.474C21.6554 28.2576 22.4726 28.1223 23.232 27.8011C24.1289 27.3897 24.9125 26.7314 25.6645 26.0732C27.7169 24.2415 28.9573 21.3796 28.8229 18.5166L28.825 18.5178ZM27.3597 20.3753C27.1287 21.4664 26.8272 22.5913 26.1865 23.4919C25.6614 24.148 25.1194 24.8186 24.4818 25.3597C24.214 25.5659 23.9115 25.7102 23.6258 25.8838C23.3086 26.0653 23.003 26.2839 22.6648 26.4226C22.1218 26.639 21.5525 26.7743 20.9916 26.9242C20.4118 27.0538 19.8362 27.1924 19.2512 27.2803C18.4866 27.3322 17.7177 27.4348 16.952 27.4449C15.3692 27.4596 13.7737 27.3018 12.2613 26.7731C11.8716 26.6548 11.4735 26.5916 11.1069 26.4338C10.65 26.2197 10.1963 25.9976 9.72891 25.806C9.3949 25.6516 9.11236 25.4059 8.81197 25.1962C8.21433 24.8231 7.71122 24.3294 7.20391 23.829C6.78588 23.3894 6.48759 22.8438 6.17564 22.3242C5.92881 21.9252 5.85844 21.5104 5.7198 21.0291C5.44881 20.3111 5.54754 19.5367 5.59796 18.7815C5.69354 17.2508 6.38571 15.8362 7.29634 14.6775C8.28575 13.4884 7.99376 12.8459 8.25529 11.4516C8.39289 10.6254 8.63446 9.82846 8.94431 9.06198L8.95061 9.04282C9.16068 8.3823 9.52934 7.80632 9.8518 7.17849C10.3087 6.42667 10.796 5.68162 11.5103 5.18905C12.2255 4.65139 13.2023 4.34255 14.0531 4.64801C14.7442 4.98052 15.2831 5.62751 15.7221 6.27338C16.0613 6.8967 16.8249 7.07254 17.3301 6.59124C17.6726 6.22829 18.0738 5.88451 18.4698 5.58243C19.0537 5.10789 19.6955 4.76072 20.4402 4.62096C21.5913 4.45864 22.8675 4.7765 23.6804 5.71431C24.5407 6.70508 25.2213 7.87846 25.5206 9.1995C25.8756 10.3582 25.9712 11.5778 25.7769 12.7805C25.6792 13.5132 25.9576 14.2143 26.2327 14.8646C26.8041 16.0403 27.3976 17.3151 27.4165 18.6733C27.4133 19.2403 27.4858 19.814 27.3587 20.3708L27.3597 20.3753Z" fill="#F1A436"/>
</svg>
