<svg width="33" height="33" viewBox="0 0 33 33" fill="none" xmlns="http://www.w3.org/2000/svg">
<circle cx="16.5" cy="16.5" r="16.5" fill="#B8FF92"/>
<path d="M18.8972 25.1366C18.4502 25.1819 18.0023 25.1956 17.5553 25.2167C17.1253 25.2367 16.6942 25.2273 16.2641 25.242C15.7739 25.2599 15.2754 25.2483 14.7947 25.1935C13.9757 25.0997 13.1757 24.8656 12.3725 24.6642C11.7158 24.4997 11.1097 24.1971 10.4572 24.0242C10.3012 23.9831 10.141 23.9757 9.9892 23.9251C9.86692 23.8934 9.74465 23.8597 9.64873 23.769C9.31037 23.6952 9.0321 23.4812 8.71166 23.3694C7.88632 23.0826 7.23385 22.4995 6.48968 22.0725C6.32946 21.9808 6.25462 21.7889 6.12707 21.6507C5.88885 21.3913 5.66434 21.1214 5.39133 20.8958C5.26695 20.765 5.12887 20.6417 5.16154 20.4329H5.16471C5.10462 20.3306 4.92649 20.3148 4.95178 20.1482C4.80738 19.718 4.67035 19.2847 4.51434 18.8587C4.46902 18.7353 4.58707 18.6668 4.55545 18.5402C4.40577 17.9413 4.48167 17.3266 4.59656 16.7414C4.6714 16.3587 4.79789 15.9675 4.95389 15.589C5.11727 15.1925 5.28065 14.8098 5.52204 14.4565C5.58634 14.1972 5.84037 14.0822 5.96896 13.8724C6.19243 13.6078 6.43065 13.3547 6.63514 13.0763C6.87547 12.7484 7.20539 12.5228 7.50264 12.2613C7.90635 11.9049 8.37963 11.6297 8.74961 11.2343C8.98783 10.9802 9.23764 10.7324 9.40208 10.4161C9.46743 10.2917 9.51065 10.1746 9.48851 10.0354C9.69827 9.84882 9.693 9.53566 9.89538 9.34376C10.0134 9.23199 9.9386 9.04747 10.0472 8.93149C10.2664 8.57299 10.4962 8.21977 10.7028 7.85389C10.9568 7.40366 11.2214 6.9566 11.5682 6.57596C11.6957 6.43572 11.8549 6.31974 11.9867 6.16791C12.3798 5.71557 12.9227 5.58271 13.4982 5.56479C14.3257 5.53948 15.0024 5.96862 15.6643 6.36719C15.9974 6.56752 16.2346 6.94711 16.4739 7.27608C16.6446 7.51227 16.7679 7.7843 16.9471 8.01943C17.1 8.22082 17.2728 8.33259 17.549 8.25456C17.724 8.20501 17.9084 8.29463 18.1034 8.18287C18.4176 8.00362 18.6252 7.75689 18.7781 7.44373C18.8023 7.39523 18.855 7.36043 18.894 7.31931C19.1491 7.17697 19.2808 6.89755 19.5307 6.74888C19.693 6.4431 19.9723 6.30287 20.2906 6.23539C20.3802 6.21641 20.473 6.19743 20.5405 6.14893C20.8598 5.91485 21.233 5.90114 21.603 5.87056C21.876 5.88111 22.1321 5.75774 22.4125 5.79887C22.9553 5.88005 23.3348 6.20376 23.6932 6.58123C24.6303 7.5671 25.1478 8.79336 25.5663 10.046C25.794 10.7282 25.9405 11.4652 25.8414 12.217C25.7919 12.5934 26.0406 12.8781 26.2651 13.1354C26.6646 13.5919 27.0357 14.0569 27.2201 14.6463C27.3392 15.028 27.412 15.4129 27.4204 15.8167C27.4299 16.2448 27.4489 16.6666 27.4088 17.0989C27.3308 17.9413 27.1484 18.7469 26.8522 19.5419C26.5497 20.3549 26.0933 21.0539 25.5494 21.7161C25.0877 22.2781 24.509 22.722 23.9451 23.148C23.1693 23.7342 22.3693 24.3373 21.3785 24.5598C21.3342 24.5704 21.2952 24.6052 21.253 24.6284C20.8008 24.795 20.3507 24.9679 19.8659 25.0174C19.811 25.0195 19.7552 25.0216 19.7004 25.0238C19.4305 25.0554 19.1596 25.0817 18.8929 25.1345L18.8972 25.1366Z" fill="#EBEBEB"/>
<path d="M28.5955 14.4407C28.4732 13.67 28.0821 13.0574 27.553 12.5122C27.3401 12.294 26.9437 12.1495 27.2241 11.7225C27.2336 11.7077 27.2051 11.6698 27.202 11.6423C27.1725 11.3629 27.1777 11.073 27.1039 10.8052C27.046 10.5943 27.0776 10.375 26.9785 10.1641C26.9269 10.0534 26.7593 9.89415 26.9153 9.72439C26.929 9.70963 26.8984 9.6548 26.8879 9.61895C26.7698 9.2225 26.6191 8.84081 26.4293 8.47387C26.3703 8.4433 26.3376 8.39268 26.3239 8.33258C26.3619 8.37792 26.3977 8.42537 26.4293 8.47387C26.404 8.35473 26.3714 8.22609 26.3218 8.12592C26.2122 7.90239 26.1637 7.62824 25.9149 7.49117C25.9149 7.4743 25.9139 7.45638 25.9128 7.43951C25.858 7.26026 25.7431 7.11897 25.6177 6.98506C25.5355 6.60548 25.1381 6.47684 24.9673 6.16684C24.9652 6.16368 24.9494 6.16895 24.9399 6.17001C24.9273 5.87372 24.4445 5.39608 24.0703 5.30856C23.8627 5.08925 23.5475 5.03547 23.3325 4.82881C23.1649 4.66749 22.9551 4.64429 22.738 4.61793C22.1066 4.54201 21.4826 4.61055 20.8712 4.74762C20.2598 4.88469 19.6759 5.08819 19.1478 5.4625C18.6524 5.81257 18.1991 6.19637 17.8007 6.64976C17.7617 6.69405 17.7048 6.80159 17.65 6.73517C17.5351 6.59704 17.3622 6.52007 17.26 6.38932C16.9184 5.95069 16.52 5.56478 16.0583 5.27904C15.4838 4.92371 14.8546 4.6464 14.2 4.46715C13.889 4.38174 13.5675 4.29739 13.2186 4.34906C12.8972 4.39651 12.5925 4.49984 12.2816 4.55677C11.8178 4.64113 11.4604 4.85728 11.1558 5.17782C10.6172 5.74614 10.1123 6.33977 9.71912 7.02724C9.28274 7.79062 8.86321 8.55612 8.58178 9.39331C8.42788 9.85198 8.17701 10.2526 7.75855 10.531C7.47289 10.7219 7.18408 10.9138 6.92794 11.1415C6.23752 11.7552 5.55659 12.372 4.94628 13.0774C4.28538 13.8408 3.8374 14.6875 3.55596 15.6354C3.31247 16.4662 3.15647 17.3034 3.16701 18.1912C3.18176 19.3215 3.50958 20.3274 4.06824 21.2764C4.34335 21.7435 4.74074 22.1231 5.0928 22.5333C5.54605 23.0594 6.10471 23.4622 6.72872 23.7616C6.98697 23.885 7.241 24.0126 7.48765 24.1581C7.80809 24.3458 8.12853 24.5387 8.46478 24.6916C9.4282 25.1292 10.419 25.4856 11.4499 25.7428C13.0152 26.133 14.5763 26.5263 16.2059 26.4989C17.3011 26.4799 18.3984 26.5083 19.4883 26.3903C20.2272 26.3101 20.9682 26.1868 21.6713 25.9421C22.3385 25.7102 22.9709 25.3738 23.5454 24.9668C24.4603 24.3194 25.3816 23.6804 26.1816 22.878C26.7656 22.2918 27.281 21.6602 27.7016 20.9569C28.5185 19.5925 28.723 18.0647 28.8242 16.5137C28.8695 15.8093 28.703 15.1303 28.5944 14.4428L28.5955 14.4407ZM27.4117 17.0989C27.3337 17.9413 27.1514 18.7469 26.8552 19.5419C26.5527 20.3549 26.0962 21.0539 25.5523 21.7161C25.0907 22.2781 24.512 22.722 23.948 23.148C23.1722 23.7342 22.3722 24.3373 21.3814 24.5598C21.3371 24.5704 21.2981 24.6052 21.2559 24.6283C20.8037 24.7949 20.3537 24.9679 19.8688 25.0174C19.814 25.0195 19.7581 25.0216 19.7033 25.0237C19.4335 25.0554 19.1626 25.0817 18.8959 25.1345C18.449 25.1798 18.001 25.1935 17.554 25.2146C17.124 25.2346 16.6929 25.2251 16.2628 25.2399C15.7727 25.2578 15.273 25.2462 14.7934 25.1914C13.9744 25.0976 13.1744 24.8635 12.3712 24.6621C11.7145 24.4976 11.1084 24.195 10.4559 24.0221C10.2999 23.9809 10.1397 23.9736 9.98791 23.923C9.86564 23.8913 9.74337 23.8576 9.64744 23.7669C9.30909 23.6931 9.03081 23.4791 8.71037 23.3673C7.88504 23.0805 7.23256 22.4974 6.48839 22.0704C6.32817 21.9786 6.25333 21.7867 6.12579 21.6486C5.88757 21.3892 5.66305 21.1193 5.39005 20.8937C5.26567 20.7629 5.12758 20.6395 5.16026 20.4308H5.16342C5.10334 20.3285 4.9252 20.3127 4.9505 20.1461C4.80609 19.7159 4.66906 19.2825 4.51306 18.8566C4.46773 18.7332 4.58579 18.6647 4.55417 18.5381C4.40449 17.9392 4.48038 17.3245 4.59528 16.7393C4.67011 16.3566 4.7966 15.9654 4.95261 15.5869C5.11599 15.1904 5.27937 14.8077 5.52075 14.4544C5.58505 14.1951 5.83908 14.0801 5.96768 13.8703C6.19114 13.6056 6.42936 13.3526 6.63385 13.0742C6.87418 12.7463 7.2041 12.5207 7.50135 12.2592C7.90506 11.9028 8.37834 11.6276 8.74832 11.2322C8.98654 10.9781 9.23636 10.7303 9.40079 10.414C9.46614 10.2896 9.50936 10.1725 9.48723 10.0333C9.69699 9.8467 9.69172 9.53355 9.8941 9.34165C10.0122 9.22988 9.93731 9.04536 10.0459 8.92937C10.2651 8.57088 10.4949 8.21765 10.7015 7.85178C10.9555 7.40155 11.2201 6.95448 11.5669 6.57384C11.6945 6.43361 11.8536 6.31762 11.9854 6.16579C12.3785 5.71345 12.9214 5.5806 13.4969 5.56267C14.3244 5.53737 15.0011 5.96651 15.663 6.36507C15.9961 6.56541 16.2333 6.94499 16.4726 7.27397C16.6433 7.51015 16.7667 7.78219 16.9458 8.01732C17.0987 8.21871 17.2716 8.33048 17.5477 8.25245C17.7227 8.20289 17.9072 8.29252 18.1022 8.18075C18.4163 8.0015 18.6239 7.75477 18.7768 7.44162C18.801 7.39311 18.8537 7.35832 18.8927 7.3172C19.1478 7.17485 19.2796 6.89544 19.5294 6.74677C19.6917 6.44099 19.971 6.30075 20.2894 6.23327C20.379 6.21429 20.4717 6.19531 20.5392 6.14681C20.8586 5.91273 21.2317 5.89903 21.6017 5.86845C21.8747 5.87899 22.1308 5.75563 22.4112 5.79675C22.9541 5.87794 23.3335 6.20164 23.6919 6.57912C24.629 7.56498 25.1465 8.79125 25.565 10.0439C25.7927 10.7261 25.9392 11.4631 25.8401 12.2149C25.7906 12.5913 26.0393 12.876 26.2638 13.1333C26.6633 13.5898 27.0344 14.0548 27.2188 14.6442C27.3379 15.0259 27.4107 15.4108 27.4191 15.8146C27.4286 16.2427 27.4476 16.6645 27.4075 17.0968L27.4117 17.0989Z" fill="#848484"/>
<path d="M19.7921 15.6977C19.1924 15.7146 18.6379 15.9624 18.0497 16.0288C17.3024 16.1131 16.5614 16.2818 15.8014 16.2059C14.9065 16.1163 14.0632 15.8569 13.2843 15.4035C13.064 15.2749 12.8953 15.3845 12.7298 15.4879C12.5675 15.5902 12.5833 15.7578 12.6276 15.9265C12.7088 16.2291 12.9723 16.3546 13.1989 16.5001C14.2034 17.1475 15.3134 17.3963 16.4423 17.3426C17.7124 17.3869 18.9014 17.2909 20.0282 16.7816C20.3792 16.6224 20.4889 16.4421 20.3919 16.0319C20.3445 15.8306 20.0725 15.6914 19.7911 15.6988L19.7921 15.6977Z" fill="#848484"/>
<path d="M11.7842 12.8338C11.6282 12.8823 11.4701 12.9245 11.3299 13.0078C10.5067 13.4981 9.63709 13.9178 8.94035 14.5989C8.70634 14.8277 8.5261 15.0829 8.43018 15.3275C8.43966 15.7999 8.50185 15.8568 8.90451 15.9222C9.34511 15.9939 9.59703 15.6607 9.83631 15.4255C10.162 15.1061 10.5183 14.8509 10.903 14.6305C11.3837 14.3564 11.857 14.0791 12.2291 13.6594C12.364 13.5065 12.5137 13.3463 12.3893 13.127C12.2607 12.8981 12.0846 12.7389 11.7832 12.8338H11.7842Z" fill="#848484"/>
<path d="M24.0832 14.9036C23.7354 14.5683 23.3063 14.3511 22.8932 14.116C22.2112 13.729 21.4702 13.5203 20.745 13.4443C20.5457 13.4486 20.4055 13.4812 20.2748 13.5413C20.0134 13.6615 19.9186 14.0411 20.1188 14.2046C20.2791 14.3353 20.4456 14.4587 20.6564 14.5209C21.1128 14.6548 21.5819 14.7528 22.0162 14.9574C22.5147 15.1915 22.9227 15.55 23.3548 15.88C23.4982 15.9897 23.6679 16.0445 23.8576 16.016C24.0885 15.9812 24.2244 15.8262 24.2645 15.6238C24.3151 15.3686 24.2887 15.1029 24.0832 14.9057V14.9036Z" fill="#848484"/>
</svg>
