<svg width="33" height="33" viewBox="0 0 33 33" fill="none" xmlns="http://www.w3.org/2000/svg">
<circle cx="16.5" cy="16.5" r="16.5" fill="#E2D9FF"/>
<path d="M27.3916 21.6088C27.1315 21.8819 26.8601 22.1823 26.5671 22.4323C26.1347 22.7568 25.6992 23.0855 25.2451 23.3827C23.9862 24.1316 22.5744 24.5611 21.1493 24.8605C20.33 25.1073 19.4693 25.186 18.6221 25.2848C17.2135 25.3488 15.8203 25.2963 14.4097 25.2449C13.4799 25.1692 12.5552 25.0915 11.6234 24.9665C10.9681 24.85 10.2839 24.7019 9.64308 24.5622C9.14155 24.4225 8.64828 24.2471 8.17461 24.015C7.80827 23.8249 7.48011 23.5697 7.12718 23.3628C6.12929 22.7452 5.64324 21.5038 5.45336 20.3706C5.35739 19.272 5.59061 18.1566 6.07563 17.1704C6.22113 16.8554 6.38418 16.5476 6.57922 16.2609C6.93214 15.7358 7.47495 15.302 7.5348 14.6435C7.62046 14.047 7.02296 13.777 6.70924 13.3853C6.59263 13.2435 6.50801 13.0797 6.43784 12.9106C6.04157 12.1407 6.27273 11.3667 6.75568 10.7071C7.19942 10.0202 7.87535 9.54133 8.55643 9.11912C9.36755 8.6444 10.2561 8.35873 11.1611 8.14658C11.6822 8.03735 12.2044 7.87876 12.7338 7.95648C13.1682 8.05415 13.5903 8.16233 14.032 8.2453C14.743 8.39444 15.52 8.67591 16.2486 8.50157C16.7078 8.38604 17.1433 8.11612 17.5654 7.89136C18.2671 7.50172 19.0194 7.20764 19.7995 7.00809C21.5683 6.49767 24.1389 6.67936 25.6724 7.76533C26.2441 8.21169 26.8818 8.85446 26.7673 9.64845C26.6403 11.456 24.853 11.9443 26.2884 13.5166C27.793 15.1644 29.0262 17.4866 28.3286 19.7688C28.115 20.4231 27.8869 21.0953 27.4029 21.5941L27.3895 21.6088H27.3916Z" fill="#C5FAFF"/>
<path d="M29.8116 17.8909V17.8709C29.7486 17.1851 29.5928 16.4699 29.3462 15.8198C28.8715 14.7559 28.2017 13.8001 27.4216 12.9463C26.9778 12.4526 27.2627 12.168 27.5103 11.6859C27.8117 11.0327 28.0882 10.4246 28.0583 9.70619C27.9334 8.40177 27.0274 7.27378 26.013 6.5302C24.1875 5.47994 21.9306 5.25833 19.9038 5.7488C19.2155 5.90844 18.5365 6.12585 17.9122 6.46823C17.2693 6.77911 16.6749 7.25278 15.9855 7.44183C15.6553 7.5164 15.3178 7.42817 15 7.32315C14.1992 7.06373 13.3912 6.77386 12.5512 6.66148C11.9145 6.58691 11.2798 6.71715 10.673 6.90724C8.63286 7.46808 6.43171 8.38916 5.39048 10.3868C4.67843 11.5736 4.66811 12.8412 5.45858 14.0039C5.6206 14.2958 6.00861 14.5584 5.9725 14.9197C5.94154 15.156 5.75166 15.3503 5.62886 15.5488C5.03342 16.431 4.59071 17.413 4.37607 18.4601C4.07061 19.7782 4.07267 20.672 4.55872 21.946C4.77543 22.6622 5.22124 23.2861 5.70316 23.8417C6.13038 24.2975 6.65977 24.6315 7.20671 24.9371C7.93527 25.3541 8.75257 25.5725 9.53995 25.8193C10.0281 25.9895 10.5378 26.0294 11.0476 26.0945C13.6533 26.4894 16.2982 26.564 18.939 26.46C20.974 26.3329 22.9171 25.6229 24.8304 24.9581C26.4505 24.3826 27.8973 23.3008 28.8612 21.8525C29.6785 20.694 29.9106 19.2877 29.8136 17.894L29.8116 17.8909ZM28.3307 19.7688C28.1171 20.4231 27.8891 21.0952 27.4051 21.5941L27.3917 21.6088C27.1316 21.8819 26.8602 22.1823 26.5671 22.4322C26.1347 22.7568 25.6993 23.0855 25.2452 23.3827C23.9862 24.1315 22.5745 24.5611 21.1494 24.8604C20.33 25.1072 19.4694 25.186 18.6221 25.2847C17.2135 25.3488 15.8204 25.2963 14.4097 25.2448C13.4799 25.1692 12.5553 25.0915 11.6235 24.9665C10.9682 24.8499 10.284 24.7018 9.64314 24.5622C9.14162 24.4225 8.64834 24.2471 8.17468 24.015C7.80834 23.8249 7.48018 23.5697 7.12725 23.3628C6.12935 22.7452 5.6433 21.5038 5.45342 20.3706C5.35745 19.272 5.59067 18.1566 6.07569 17.1704C6.2212 16.8553 6.38424 16.5476 6.57928 16.2609C6.93221 15.7357 7.47502 15.302 7.53487 14.6435C7.62052 14.0469 7.02302 13.777 6.70931 13.3853C6.5927 13.2435 6.50808 13.0796 6.43791 12.9105C6.04164 12.1407 6.27279 11.3667 6.75575 10.7071C7.19948 10.0202 7.87541 9.5413 8.5565 9.1191C9.36761 8.64438 10.2561 8.35871 11.1611 8.14655C11.6823 8.03733 12.2044 7.87874 12.7338 7.95646C13.1683 8.05413 13.5904 8.16231 14.032 8.24528C14.743 8.39441 15.5201 8.67589 16.2487 8.50154C16.7079 8.38601 17.1434 8.1161 17.5654 7.89134C18.2672 7.50169 19.0194 7.20762 19.7996 7.00807C21.5684 6.49764 24.1389 6.67934 25.6724 7.76531C26.2441 8.21167 26.8819 8.85443 26.7673 9.64843C26.6404 11.4559 24.8531 11.9443 26.2885 13.5165C27.7931 15.1644 29.0263 17.4865 28.3287 19.7688H28.3307Z" fill="#2A93C9"/>
<path d="M23.1698 16.7282C23.3226 16.1274 22.9036 15.3418 22.4113 14.9291C21.8386 14.4596 20.9697 14.4313 20.2907 14.0962C18.3073 13.1867 15.8265 13.4031 13.9194 14.4124C13.4138 14.6865 12.9319 15.0037 12.453 15.324C11.7389 15.8481 10.8989 16.3091 10.449 17.1021C9.88244 18.2007 11.0104 18.7783 11.9928 18.5693C12.9762 18.3939 13.7646 17.6209 14.5778 17.0674C15.3053 16.5896 16.1546 16.3007 17.0029 16.1285C18.2712 15.867 18.7201 16.9561 19.7035 17.4277C20.7943 17.9654 22.6642 18.1492 23.1657 16.7439L23.1698 16.7271V16.7282Z" fill="#95D3E1"/>
<path d="M19.0598 16.1695C18.0877 15.5656 17.3788 15.1927 16.2292 15.5141C15.0817 15.7767 13.7546 16.724 13.6875 18.0873C13.7216 18.8666 14.5069 19.3854 15.2251 19.2016C15.74 19.1333 16.1281 18.7227 16.6172 18.5767C17.321 18.3572 17.9949 18.8666 18.7028 18.8476C19.2415 18.8645 19.7791 18.457 19.9122 17.9339C20.1062 17.247 19.5768 16.5623 19.0743 16.1789L19.0588 16.1684L19.0598 16.1695Z" fill="#2A93C9"/>
<path d="M25.1171 16.221C25.113 15.7358 24.984 15.2495 24.5217 15.0058C24.2627 14.8966 24.0129 14.759 23.757 14.8472C23.563 14.9596 23.6064 15.2306 23.7766 15.364C24.3143 15.7085 24.5888 16.535 24.2328 17.0791C24.0501 17.3553 23.7622 17.6199 23.4113 17.558C23.1141 17.5034 22.7808 17.391 22.5744 17.1914C22.4145 17.036 22.2947 16.8228 22.2504 16.6106C22.2143 16.4457 22.1864 16.2651 22.0533 16.1506C21.9284 16.0382 21.7509 16.0351 21.6446 16.1569C21.4661 16.3565 21.5136 16.6926 21.5961 16.9383C21.8386 17.7229 22.6704 18.2154 23.4299 18.2112C24.5269 18.2364 25.1615 17.2975 25.1171 16.2441V16.2231V16.221Z" fill="#2A93C9"/>
<path d="M13.6863 13.8633C13.5646 13.6038 13.2354 13.5009 12.9763 13.5986C12.5605 13.7614 12.4439 14.3033 12.126 14.6005C11.9444 14.7959 11.7359 14.9629 11.5244 15.1215C11.2117 15.3578 10.6152 15.6939 10.8289 16.1633C11.5234 17.0287 12.6771 15.8209 13.2023 15.278C13.3994 15.0732 13.4727 14.7959 13.5904 14.5438C13.6925 14.3422 13.8019 14.1017 13.6946 13.8811L13.6863 13.8643V13.8633Z" fill="#2A93C9"/>
<path d="M10.1065 17.9035C9.9465 17.8794 9.81132 18.0611 9.76797 18.227C9.63898 18.6681 9.47387 19.1943 9.01362 19.377C8.55027 19.606 8.03223 19.1869 8.08486 18.6828C8.10963 18.2837 8.25514 17.9203 8.56575 17.6567C8.65347 17.5769 8.7773 17.4782 8.80413 17.3742C8.86708 17.14 8.51209 16.9394 8.30776 17.0791C7.39862 17.6882 7.00751 19.0641 7.91975 19.8371C8.36349 20.1532 8.94757 20.1868 9.42124 19.9284C9.71844 19.8171 9.94857 19.5829 10.0961 19.2867C10.2344 18.9958 10.4068 18.7164 10.4274 18.395C10.4295 18.1892 10.2901 17.9361 10.1219 17.9067L10.1054 17.9046L10.1065 17.9035Z" fill="#2A93C9"/>
<path d="M22.1914 14.757C22.1934 14.3652 21.7228 14.2403 21.4339 14.1037C21.2368 14.0166 21.05 13.9094 20.8767 13.7813C20.566 13.5702 20.37 13.2425 20.0222 13.0776C19.6208 12.877 19.207 13.1144 19.2565 13.5901C19.4061 14.4461 20.2647 14.9429 21.016 15.2023C21.2017 15.2664 21.3978 15.3357 21.5949 15.2947C21.8642 15.2422 22.1759 15.0857 22.1903 14.7769V14.758L22.1914 14.757Z" fill="#2A93C9"/>
<path d="M8.48623 21.3044C8.08893 21.3149 8.14362 21.902 7.9104 22.0974C7.80205 22.2003 7.60907 22.2129 7.51826 22.0816C7.316 21.8044 7.5905 21.4683 7.55644 21.1837C7.52652 20.9652 7.27678 20.8014 7.09826 20.9537C6.78042 21.1994 6.67206 21.671 6.75462 22.0606C6.8671 22.7622 7.64209 23.0783 8.23547 22.8116C8.46249 22.654 8.68127 22.3705 8.71635 22.0753C8.75866 21.8201 8.82265 21.3717 8.50274 21.3065L8.48623 21.3044Z" fill="#2A93C9"/>
<path d="M26.9065 18.997C26.8621 18.8647 26.8291 18.7176 26.7239 18.6241C26.6537 18.5601 26.5577 18.5233 26.4597 18.4813C26.2822 18.4099 26.1099 18.3175 25.987 18.4204C25.9035 18.4897 25.8704 18.6126 25.9024 18.7176C25.9468 18.8647 26.0748 18.977 26.1449 19.1125C26.2739 19.3761 26.374 19.7647 26.1852 19.9958C25.9066 20.3392 25.3318 20.3298 25.1078 19.9338C25.0036 19.7679 25.0438 19.5295 24.9231 19.3509C24.8323 19.1986 24.6238 19.0453 24.499 19.1556C24.2926 19.3278 24.306 19.6629 24.3947 19.9013C24.5495 20.4201 24.9056 20.7688 25.4246 20.8591C26.1233 21.0198 26.7249 20.7163 26.9323 20.0683C27.0004 19.7332 26.9911 19.3341 26.9117 19.0148L26.9065 18.9959V18.997Z" fill="#2A93C9"/>
</svg>
