<svg width="33" height="33" viewBox="0 0 33 33" fill="none" xmlns="http://www.w3.org/2000/svg">
<circle cx="16.5" cy="16.5" r="16.5" fill="#BFF1CC"/>
<g clip-path="url(#clip0_54849_27616)">
<path d="M17.2119 7.31541C17.3673 7.03798 17.5496 6.77816 17.732 6.51614C18.0406 6.04826 18.3359 5.56606 18.8155 5.28202C19.1024 5.10808 19.4018 4.94404 19.7208 4.84826C20.534 4.61487 21.4621 5.07395 21.9945 5.74661C22.6803 6.71871 23.1174 7.89118 23.4189 9.05925C23.6395 9.9587 23.7244 10.8945 23.9264 11.8038C24.0362 12.2794 24.1108 12.7627 24.2123 13.2416C24.3035 13.6754 24.5179 14.02 24.8898 14.2071C25.1487 14.3425 25.4367 14.4361 25.6946 14.577C26.1453 14.806 26.5275 15.1737 26.8268 15.6009C27.8016 17.0067 27.6659 18.9047 27.4007 20.5374C27.1967 21.5205 26.7875 22.4629 26.1763 23.2291C25.3197 24.4093 24.262 25.4375 23.0377 26.1597C22.7507 26.3205 22.4514 26.4449 22.1396 26.5373C21.6258 26.6838 21.1047 26.861 20.5816 26.9854C20.0347 27.1021 19.4784 27.1693 18.9284 27.2628C17.4699 27.5623 15.9824 27.5722 14.5073 27.4247C13.8381 27.2859 13.1514 27.2133 12.4843 27.0504C11.8959 26.883 11.3282 26.6166 10.7461 26.4041C9.87388 26.0794 8.98822 25.8008 8.19578 25.2878C7.11019 24.5139 6.04947 23.6221 5.30675 22.4772C4.63551 21.4192 4.33925 20.5891 4.44388 19.2878C4.4677 17.3865 5.29329 15.5822 6.52182 14.2236C7.26868 13.3803 8.22893 12.8486 9.07005 12.1363C9.3777 11.8633 9.57866 11.4956 9.71021 11.0981C9.97954 10.2262 10.367 9.34439 10.6901 8.47577C10.8517 8.01008 11.0641 7.57963 11.2702 7.13926C11.5458 6.51835 11.8534 5.89083 12.246 5.34918C12.8841 4.45524 13.6683 3.89707 14.2007 5.2534C14.6917 6.41376 14.8533 7.68641 15.0553 8.92934C15.1205 9.27943 15.2158 9.7187 15.5452 9.86732C15.885 10.0126 16.2186 9.75943 16.375 9.42365C16.5169 9.1198 16.5749 8.77411 16.6899 8.45375C16.8225 8.06733 16.9986 7.68641 17.2016 7.33412L17.2119 7.31541Z" fill="#F5F0FF"/>
<path d="M11.8339 18.2721C11.726 15.1588 8.47137 13.5055 5.80157 15.0249C4.06872 15.9427 4.03028 18.0943 4.01057 19.7938C3.95441 21.7844 4.99727 23.0052 6.92011 23.1249C7.73352 23.1724 8.57476 22.9903 9.31916 22.6393C11.0318 21.8958 11.915 20.144 11.8359 18.294L11.8354 18.2716L11.8339 18.2721Z" fill="#F5CBFB"/>
<path d="M28.4899 18.4889C28.3817 17.3707 27.6539 16.3472 26.7789 15.6777C25.2559 14.546 22.9736 14.9045 21.6208 16.2131C20.5379 17.2907 19.9308 18.9262 20.1146 20.4997C20.3089 22.0338 21.4674 23.2838 22.7541 23.8823C24.3821 24.6398 26.2538 23.729 27.344 22.3528C28.1233 21.2684 28.5729 19.8753 28.491 18.5091L28.4889 18.4889H28.4899Z" fill="#F5CBFB"/>
<path d="M23.3019 16.8261C23.289 16.3211 23.3356 15.8119 23.1854 15.3206C23.0779 14.9587 22.9083 14.6436 22.6986 14.3408C22.5108 14.0752 22.2298 13.9183 21.9644 13.7752C21.6083 13.5895 21.2173 13.372 20.8133 13.3362C20.2306 13.2936 19.7541 13.756 19.3644 14.1619C18.8063 14.7399 18.4269 15.4638 18.3414 16.2922C18.2275 17.089 18.0527 17.9436 18.3311 18.7225C18.5823 19.5591 18.9746 20.0587 19.7567 20.3642C19.9678 20.4605 20.1801 20.5555 20.4041 20.5871C20.7356 20.6353 21.0787 20.4991 21.418 20.4082C22.0265 20.2926 22.4435 19.8481 22.7283 19.2908C23.1841 18.5587 23.3537 17.7165 23.3032 16.8468V16.8206L23.3019 16.8261Z" fill="#7C429D"/>
<path d="M14.5537 15.4988C14.5291 14.896 14.2702 14.3428 13.8196 13.9671C13.1981 13.3988 12.3253 12.9075 11.4992 13.0148C10.4906 13.1965 9.79135 14.1859 9.33945 15.1011C8.82152 16.3134 8.79821 18.0887 9.96874 18.8992C10.5061 19.3148 11.1768 19.4854 11.8385 19.44C12.1661 19.418 12.4613 19.2776 12.7708 19.2336C13.1463 19.1854 13.4285 18.9061 13.6849 18.6364C14.063 18.2469 14.3893 17.7144 14.5032 17.146C14.5408 16.9644 14.5641 16.7634 14.5524 16.5818C14.511 16.2832 14.5991 15.8689 14.5537 15.5249L14.5511 15.4988H14.5537Z" fill="#7C429D"/>
<path d="M16.0036 18C15.4925 18.0506 15.0416 19.0349 15.0077 19.7971C14.9251 20.6605 15.5207 21.0486 16.0694 20.9952C16.6181 21.012 17.0803 20.0249 16.9882 19.2796C16.883 18.6862 16.4208 18.0675 16.0337 18H16.0036Z" fill="#7C429D"/>
<path d="M19.8756 18.2341C19.8769 18.212 19.8717 18.1928 19.8575 18.1749C19.7552 18.0441 19.6878 17.9024 19.7383 17.7249C19.7953 17.3987 19.7992 17.0671 19.8251 16.7382C19.8756 16.1175 20.0517 15.5299 20.4945 15.102C20.8118 14.7951 21.107 14.912 21.3323 15.3084C21.6974 15.9497 21.722 16.6267 21.6301 17.3464C21.5783 17.7497 21.4372 18.0951 21.2572 18.4377C20.9425 19.0391 20.8907 19.0666 20.2407 18.8382C20.0077 18.7143 19.9028 18.501 19.8743 18.2368L19.8756 18.2341Z" fill="#F5F0FF"/>
<path d="M12.9753 16.2078C13.0115 16.7597 12.9028 17.2633 12.4509 17.6418C11.8112 18.1785 11.1263 18.0601 10.6239 17.4422C10.4737 17.2592 10.6057 16.9661 10.5527 16.7225C10.4439 16.2243 10.6537 15.7922 10.8595 15.3656C10.923 15.2349 11.0149 15.1165 11.0602 14.9803C11.1755 14.6349 11.4254 14.5055 11.7348 14.5248C12.1337 14.5496 12.5286 14.6363 12.8251 14.9569C13.0284 15.1757 12.9753 15.4785 13.0103 15.7482C13.0284 15.8913 12.9908 16.0427 12.9766 16.2064L12.9753 16.2078Z" fill="#F5F0FF"/>
<path d="M28.7907 17.3422L28.7886 17.3191C28.6229 15.6017 27.7248 13.8798 26.1492 13.271C25.6313 13.0585 25.3972 12.6215 25.3174 12.0611C24.9424 10.3217 24.8544 8.47434 24.0651 6.88793C23.7667 6.28243 23.5565 5.60096 23.0965 5.11216C22.5921 4.69822 22.1342 4.1995 21.5697 3.87363C21.1574 3.65785 20.6747 3.54116 20.2303 3.53675C18.5429 3.53455 17.1403 4.90409 16.2743 6.34848C16.0143 6.76243 15.9056 6.51142 15.8165 6.16463C15.7616 5.94995 15.6694 5.75069 15.5824 5.54922C15.4166 5.18482 15.3275 4.73675 15.1028 4.38996C14.6314 3.75033 13.9996 3.12391 13.2227 3.16905C11.0846 3.35731 9.41897 8.43141 8.72183 10.6883C8.63068 11.1077 8.33545 11.4314 7.96876 11.6141C7.0458 12.1272 6.14978 12.7217 5.43296 13.5286C3.67717 15.5334 2.73971 18.4882 3.35605 21.18C3.60259 22.2985 4.1806 23.3378 4.94714 24.148C11.4016 31.6012 29.8214 30.7447 28.7917 17.3422H28.7907ZM27.4006 20.537C27.1965 21.5202 26.7873 22.4625 26.1762 23.2288C25.3195 24.4089 24.2619 25.4372 23.0375 26.1594C22.7506 26.3201 22.4512 26.4445 22.1394 26.537C21.6256 26.6834 21.1046 26.8607 20.5815 26.9851C20.0345 27.1018 19.4783 27.1689 18.9282 27.2625C17.4697 27.562 15.9822 27.5719 14.5071 27.4243C13.838 27.2856 13.1512 27.213 12.4841 27.05C11.8957 26.8827 11.3281 26.6163 10.7459 26.4038C9.87371 26.079 8.98805 25.8005 8.19561 25.2875C7.11002 24.5135 6.0493 23.6218 5.30658 22.4768C4.63534 21.4189 4.33909 20.5888 4.44371 19.2875C4.46753 17.3862 5.29312 15.5818 6.52165 14.2233C7.26851 13.38 8.22876 12.8483 9.06988 12.136C9.37753 11.863 9.57849 11.4952 9.71005 11.0978C9.97937 10.2259 10.3668 9.34406 10.69 8.47545C10.8516 8.00976 11.0639 7.5793 11.2701 7.13894C11.5456 6.51802 11.8533 5.8905 12.2458 5.34885C12.8839 4.45491 13.6681 3.89675 14.2005 5.25308C14.6915 6.41344 14.8531 7.68609 15.0551 8.92902C15.1204 9.27911 15.2157 9.71838 15.5451 9.867C15.8848 10.0123 16.2184 9.75911 16.3748 9.42333C16.5167 9.11948 16.5747 8.77379 16.6897 8.45343C16.8223 8.06701 16.9984 7.68609 17.2014 7.3338L17.2118 7.31508C17.3672 7.03765 17.5495 6.77784 17.7318 6.51582C18.0405 6.04793 18.3357 5.56573 18.8153 5.2817C19.1022 5.10776 19.4016 4.94372 19.7206 4.84794C20.5338 4.61455 21.4619 5.07363 21.9944 5.74628C22.6801 6.71839 23.1172 7.89086 23.4187 9.05893C23.6393 9.95837 23.7243 10.8941 23.9263 11.8035C24.0361 12.2791 24.1106 12.7624 24.2122 13.2413C24.3033 13.6751 24.5177 14.0196 24.8896 14.2068C25.1486 14.3422 25.4366 14.4358 25.6945 14.5767C26.1451 14.8057 26.5273 15.1734 26.8267 15.6005C27.8014 17.0064 27.6657 18.9044 27.4006 20.537Z" fill="#7C429D"/>
</g>
<defs>
<clipPath id="clip0_54849_27616">
<rect width="28" height="28" fill="white" transform="translate(2 2)"/>
</clipPath>
</defs>
</svg>
