<svg width="204" height="44" viewBox="0 0 204 44" fill="none" xmlns="http://www.w3.org/2000/svg">
<g id="logo_s" clip-path="url(#clip0_200_4472)">
<path id="Vector" d="M80.8384 30.7199V40.1999C80.8384 42.3599 79.0024 43.2799 77.3704 43.2799C75.7384 43.2799 73.8208 42.3599 73.8208 40.1999V15.2399C73.8208 13.6799 74.8 12.9599 76.228 12.9599H85.3672C91.6504 12.9599 97.1992 14.8799 97.1992 21.5599C97.1992 26.2799 94.0576 28.9999 90.9568 29.9599L96.2608 38.4799C97.2808 40.0399 97.1584 41.8799 95.404 42.8399C93.4864 43.8799 91.6504 43.0799 90.7528 41.6399L84.1024 30.7199H80.8384ZM80.8384 25.9199H85.204C88.264 25.9199 90.2632 24.9199 90.2632 21.9199C90.2632 18.8799 88.3048 17.8799 85.204 17.8799H80.8384V25.9199ZM114.29 42.1999C112.332 43.3599 109.639 43.5199 107.966 43.5199C101.398 43.5199 99.1127 40.5999 99.0311 37.7599C98.7047 33.0799 102.703 30.7999 110.251 30.7999H113.678C113.556 29.1999 111.924 27.6399 108.823 27.6399C106.62 27.6399 105.396 28.0399 104.621 28.3599C103.152 28.9599 101.602 29.0799 100.908 27.5599C100.296 26.1999 100.786 25.0399 102.091 24.3999C103.764 23.5599 106.538 22.9999 108.986 22.9999C117.106 22.9999 120.574 26.9599 120.574 31.2399V40.5599C120.574 42.2799 119.268 43.2399 117.228 43.2399C115.8 43.2399 114.862 42.9199 114.29 42.1999ZM105.845 37.1199C105.845 38.2399 106.824 39.0399 108.619 39.0399C111.19 39.0399 113.719 37.6799 113.719 35.9199V35.1199H110.129C106.742 35.1199 105.845 35.7999 105.845 37.1199ZM136.928 23.0799C138.683 23.0799 140.192 23.4399 141.498 23.9199V15.3599C141.498 13.3199 143.171 12.4399 144.884 12.4399C146.639 12.4399 148.393 13.3199 148.393 15.3599V40.5999C148.393 42.3199 147.006 43.2799 145.007 43.2799C143.456 43.2799 142.436 42.8799 141.783 41.7999C140.478 42.8799 138.927 43.5199 136.928 43.5199C130.278 43.5199 125.831 40.2399 125.708 35.2399C125.667 33.7999 125.627 32.5599 125.708 31.3599C126.116 25.9199 130.727 23.0799 136.928 23.0799ZM132.603 35.2799C132.889 37.4799 134.521 38.7599 136.928 38.7599C139.458 38.7599 141.171 37.4799 141.416 35.2799C141.579 33.8799 141.579 32.5599 141.416 31.2799C141.131 29.1199 139.458 27.9199 136.928 27.9199C134.521 27.9199 132.93 28.7999 132.603 30.9199C132.44 32.6399 132.44 33.9999 132.603 35.2799ZM152.842 18.4799C152.842 16.2799 154.637 15.0399 156.881 15.0399C159.125 15.0399 160.961 16.2799 160.961 18.4799C160.961 20.6799 159.125 21.8799 156.881 21.8799C154.637 21.8799 152.842 20.6799 152.842 18.4799ZM153.536 40.2399V26.2399C153.536 24.1999 155.209 23.2799 156.963 23.2799C158.717 23.2799 160.431 24.1999 160.431 26.2399V40.2399C160.431 42.3599 158.717 43.2799 156.963 43.2799C155.209 43.2799 153.536 42.3599 153.536 40.2399ZM176.176 23.0799C181.929 23.0799 187.111 26.3599 187.56 31.3599C187.682 32.6799 187.641 33.9599 187.56 35.2399C187.233 40.2399 182.256 43.5199 176.176 43.5199C170.138 43.5199 165.283 40.1199 164.834 35.2399C164.752 33.9199 164.752 32.6399 164.834 31.3599C165.242 26.3199 170.016 23.0799 176.176 23.0799ZM171.688 35.2799C171.688 37.4799 173.647 38.7599 176.176 38.7599C178.665 38.7599 180.42 37.4799 180.705 35.2799C180.868 33.9199 180.787 32.5199 180.705 31.2799C180.542 29.0799 178.788 27.9199 176.176 27.9199C173.81 27.9199 171.974 29.1999 171.688 31.2799C171.525 32.6399 171.525 33.9999 171.688 35.2799Z" fill="black"/>
<path id="Vector_2" d="M192.779 1.29779C194.157 -1.00878 197.432 -0.0560637 197.554 2.7018C197.615 3.93865 198.396 4.97494 199.483 5.29251C201.916 6.01122 202.1 9.70506 199.742 10.6912C198.687 11.1258 198.014 12.2624 198.074 13.4992C198.212 16.2571 195.044 17.5775 193.453 15.4381C192.749 14.4854 191.555 14.1343 190.499 14.5689C188.142 15.5551 186.015 12.6802 187.377 10.3736C187.989 9.33736 187.928 8.00022 187.224 7.03079C185.632 4.89136 187.484 1.78251 189.918 2.50122C191.004 2.81879 192.167 2.33408 192.779 1.29779Z" fill="#9452D6"/>
<path id="Vector_3" d="M200.437 23.6667C201.94 23.6667 203.157 22.4728 203.157 21C203.157 19.5273 201.94 18.3334 200.437 18.3334C198.935 18.3334 197.717 19.5273 197.717 21C197.717 22.4728 198.935 23.6667 200.437 23.6667Z" fill="#9452D6"/>
<path id="Vector_4" d="M175.396 3.33333C176.335 3.33333 177.096 2.58714 177.096 1.66667C177.096 0.746193 176.335 0 175.396 0C174.457 0 173.696 0.746193 173.696 1.66667C173.696 2.58714 174.457 3.33333 175.396 3.33333Z" fill="#9452D6"/>
<path id="Vector_5" d="M49.98 10H13.94C6.24115 10 0 16.1188 0 23.6667C0 31.2146 6.24115 37.3333 13.94 37.3333H49.98C57.6788 37.3333 63.92 31.2146 63.92 23.6667C63.92 16.1188 57.6788 10 49.98 10Z" fill="#7331B7"/>
<path id="Vector_6" d="M47.6 40.7886C47.6 41.8642 46.3679 42.4971 45.4659 41.8848L38.76 37.3334H47.6V40.7886Z" fill="#7331B7"/>
<path id="Vector_7" d="M11.2853 25.9V19.572C11.2853 18.858 11.8993 18.536 12.5419 18.536C13.2131 18.536 13.7557 18.872 13.7557 19.572V25.9C13.7557 27.006 14.5411 27.482 15.7978 27.482C17.0116 27.482 17.7541 27.006 17.7541 25.9V19.572C17.7541 18.858 18.3682 18.536 19.0108 18.536C19.6105 18.536 20.2246 18.872 20.2246 19.572V25.9C20.2246 28.336 18.2111 29.218 15.7978 29.218C13.2845 29.218 11.2853 28.336 11.2853 25.9ZM24.7855 25.214V28.07C24.7855 28.826 24.1857 29.148 23.5717 29.148C22.9005 29.148 22.3007 28.812 22.3007 28.07V19.278C22.3007 18.788 22.7149 18.536 23.3289 18.536H26.699C29.1266 18.536 31.1543 19.446 31.1543 21.826V21.91C31.1543 24.29 29.2265 25.214 26.8132 25.214H24.7855ZM24.7855 23.618H26.8132C27.9699 23.618 28.6839 23.114 28.6839 22.008V21.812C28.6839 20.734 27.7985 20.258 26.599 20.258H24.7855V23.618ZM32.7192 25.9V19.572C32.7192 18.858 33.3333 18.536 33.9759 18.536C34.647 18.536 35.1897 18.872 35.1897 19.572V25.9C35.1897 27.006 35.9751 27.482 37.2317 27.482C38.4455 27.482 39.1881 27.006 39.1881 25.9V19.572C39.1881 18.858 39.8021 18.536 40.4447 18.536C41.0445 18.536 41.6585 18.872 41.6585 19.572V25.9C41.6585 28.336 39.645 29.218 37.2317 29.218C34.7184 29.218 32.7192 28.336 32.7192 25.9ZM46.2194 25.214V28.07C46.2194 28.826 45.6196 29.148 45.0056 29.148C44.3344 29.148 43.7347 28.812 43.7347 28.07V19.278C43.7347 18.788 44.1488 18.536 44.7628 18.536H48.1329C50.5605 18.536 52.5883 19.446 52.5883 21.826V21.91C52.5883 24.29 50.6605 25.214 48.2472 25.214H46.2194ZM46.2194 23.618H48.2472C49.4038 23.618 50.1178 23.114 50.1178 22.008V21.812C50.1178 20.734 49.2325 20.258 48.033 20.258H46.2194V23.618Z" fill="white"/>
</g>
<defs>
<clipPath id="clip0_200_4472">
<rect width="204" height="44" fill="white"/>
</clipPath>
</defs>
</svg>
