<svg width="111" height="24" viewBox="0 0 111 24" fill="none" xmlns="http://www.w3.org/2000/svg">
<g id="logo_s" clip-path="url(#clip0_201_4583)">
<path id="Vector" d="M43.9856 16.7563V21.9272C43.9856 23.1054 42.9866 23.6072 42.0986 23.6072C41.2106 23.6072 40.1672 23.1054 40.1672 21.9272V8.31267C40.1672 7.46176 40.7 7.06904 41.477 7.06904H46.4498C49.8686 7.06904 52.8878 8.11631 52.8878 11.7599C52.8878 14.3345 51.1784 15.8181 49.4912 16.3418L52.3772 20.989C52.9322 21.8399 52.8656 22.8436 51.911 23.3672C50.8676 23.9345 49.8686 23.4981 49.3802 22.7127L45.7616 16.7563H43.9856ZM43.9856 14.1381H46.361C48.026 14.1381 49.1138 13.5927 49.1138 11.9563C49.1138 10.2981 48.0482 9.75267 46.361 9.75267H43.9856V14.1381ZM62.1874 23.0181C61.1218 23.6509 59.6566 23.7381 58.7464 23.7381C55.1722 23.7381 53.929 22.1454 53.8846 20.5963C53.707 18.0436 55.8826 16.7999 59.9896 16.7999H61.8544C61.7878 15.9272 60.8998 15.0763 59.2126 15.0763C58.0138 15.0763 57.3478 15.2945 56.926 15.469C56.1268 15.7963 55.2832 15.8618 54.9058 15.0327C54.5728 14.2909 54.8392 13.6581 55.5496 13.309C56.4598 12.8509 57.9694 12.5454 59.3014 12.5454C63.7192 12.5454 65.6062 14.7054 65.6062 17.0399V22.1236C65.6062 23.0618 64.8958 23.5854 63.7858 23.5854C63.0088 23.5854 62.4982 23.4109 62.1874 23.0181ZM57.592 20.2472C57.592 20.8581 58.1248 21.2945 59.1016 21.2945C60.5002 21.2945 61.8766 20.5527 61.8766 19.5927V19.1563H59.923C58.0804 19.1563 57.592 19.5272 57.592 20.2472ZM74.5051 12.589C75.4597 12.589 76.2811 12.7854 76.9915 13.0472V8.37813C76.9915 7.2654 77.9017 6.7854 78.8341 6.7854C79.7887 6.7854 80.7433 7.2654 80.7433 8.37813V22.1454C80.7433 23.0836 79.9885 23.6072 78.9007 23.6072C78.0571 23.6072 77.5021 23.389 77.1469 22.7999C76.4365 23.389 75.5929 23.7381 74.5051 23.7381C70.8865 23.7381 68.4667 21.949 68.4001 19.2218C68.3779 18.4363 68.3557 17.7599 68.4001 17.1054C68.6221 14.1381 71.1307 12.589 74.5051 12.589ZM72.1519 19.2436C72.3073 20.4436 73.1953 21.1418 74.5051 21.1418C75.8815 21.1418 76.8139 20.4436 76.9471 19.2436C77.0359 18.4799 77.0359 17.7599 76.9471 17.0618C76.7917 15.8836 75.8815 15.229 74.5051 15.229C73.1953 15.229 72.3295 15.709 72.1519 16.8654C72.0631 17.8036 72.0631 18.5454 72.1519 19.2436ZM83.1642 10.0799C83.1642 8.87995 84.141 8.20358 85.362 8.20358C86.583 8.20358 87.582 8.87995 87.582 10.0799C87.582 11.2799 86.583 11.9345 85.362 11.9345C84.141 11.9345 83.1642 11.2799 83.1642 10.0799ZM83.5416 21.949V14.3127C83.5416 13.1999 84.4518 12.6981 85.4064 12.6981C86.361 12.6981 87.2934 13.1999 87.2934 14.3127V21.949C87.2934 23.1054 86.361 23.6072 85.4064 23.6072C84.4518 23.6072 83.5416 23.1054 83.5416 21.949ZM95.8608 12.589C98.991 12.589 101.81 14.3781 102.055 17.1054C102.121 17.8254 102.099 18.5236 102.055 19.2218C101.877 21.949 99.1686 23.7381 95.8608 23.7381C92.5751 23.7381 89.9333 21.8836 89.6891 19.2218C89.6447 18.5018 89.6447 17.8036 89.6891 17.1054C89.9111 14.3563 92.5085 12.589 95.8608 12.589ZM93.4187 19.2436C93.4187 20.4436 94.4844 21.1418 95.8608 21.1418C97.215 21.1418 98.1696 20.4436 98.325 19.2436C98.4138 18.5018 98.3694 17.7381 98.325 17.0618C98.2362 15.8618 97.2816 15.229 95.8608 15.229C94.5732 15.229 93.5742 15.9272 93.4187 17.0618C93.3299 17.8036 93.3299 18.5454 93.4187 19.2436Z" fill="white"/>
<path id="Vector_2" d="M104.894 0.707887C105.644 -0.550243 107.426 -0.0305802 107.492 1.47371C107.526 2.14836 107.951 2.7136 108.542 2.88682C109.866 3.27885 109.966 5.29367 108.683 5.83156C108.109 6.06862 107.743 6.68858 107.776 7.36322C107.851 8.86749 106.127 9.58771 105.261 8.42077C104.878 7.90111 104.229 7.70963 103.654 7.94669C102.371 8.48458 101.214 6.91646 101.955 5.65835C102.288 5.09311 102.255 4.36376 101.872 3.83498C101.006 2.66802 102.013 0.972276 103.337 1.3643C103.928 1.53752 104.561 1.27313 104.894 0.707887Z" fill="#9452D6"/>
<path id="Vector_3" d="M109.062 12.9091C109.879 12.9091 110.542 12.2579 110.542 11.4545C110.542 10.6512 109.879 10 109.062 10C108.244 10 107.582 10.6512 107.582 11.4545C107.582 12.2579 108.244 12.9091 109.062 12.9091Z" fill="#9452D6"/>
<path id="Vector_4" d="M95.436 1.81818C95.947 1.81818 96.361 1.41117 96.361 0.909091C96.361 0.407015 95.947 0 95.436 0C94.925 0 94.511 0.407015 94.511 0.909091C94.511 1.41117 94.925 1.81818 95.436 1.81818Z" fill="#9452D6"/>
<path id="Vector_5" d="M27.195 5.45459H7.585C3.39592 5.45459 0 8.7921 0 12.9091C0 17.0262 3.39592 20.3637 7.585 20.3637H27.195C31.3841 20.3637 34.78 17.0262 34.78 12.9091C34.78 8.7921 31.3841 5.45459 27.195 5.45459Z" fill="#7331B7"/>
<path id="Vector_6" d="M25.9001 22.2483C25.9001 22.835 25.2297 23.1802 24.7389 22.8463L21.0901 20.3636H25.9001V22.2483Z" fill="#7331B7"/>
<path id="Vector_7" d="M6.14062 14.1273V10.6757C6.14062 10.2862 6.47473 10.1106 6.82438 10.1106C7.18957 10.1106 7.48483 10.2939 7.48483 10.6757V14.1273C7.48483 14.7306 7.91218 14.9902 8.59594 14.9902C9.25639 14.9902 9.66043 14.7306 9.66043 14.1273V10.6757C9.66043 10.2862 9.99454 10.1106 10.3442 10.1106C10.6705 10.1106 11.0046 10.2939 11.0046 10.6757V14.1273C11.0046 15.456 9.90907 15.9371 8.59594 15.9371C7.22842 15.9371 6.14062 15.456 6.14062 14.1273ZM13.4863 13.7531V15.311C13.4863 15.7233 13.16 15.899 12.8259 15.899C12.4607 15.899 12.1343 15.7157 12.1343 15.311V10.5153C12.1343 10.248 12.3597 10.1106 12.6938 10.1106H14.5275C15.8484 10.1106 16.9517 10.607 16.9517 11.9051V11.951C16.9517 13.2491 15.9028 13.7531 14.5896 13.7531H13.4863ZM13.4863 12.8826H14.5896C15.219 12.8826 15.6075 12.6077 15.6075 12.0044V11.8975C15.6075 11.3095 15.1258 11.0499 14.4731 11.0499H13.4863V12.8826ZM17.8032 14.1273V10.6757C17.8032 10.2862 18.1373 10.1106 18.487 10.1106C18.8522 10.1106 19.1474 10.2939 19.1474 10.6757V14.1273C19.1474 14.7306 19.5748 14.9902 20.2585 14.9902C20.919 14.9902 21.323 14.7306 21.323 14.1273V10.6757C21.323 10.2862 21.6571 10.1106 22.0068 10.1106C22.3331 10.1106 22.6672 10.2939 22.6672 10.6757V14.1273C22.6672 15.456 21.5717 15.9371 20.2585 15.9371C18.891 15.9371 17.8032 15.456 17.8032 14.1273ZM25.1489 13.7531V15.311C25.1489 15.7233 24.8226 15.899 24.4884 15.899C24.1233 15.899 23.7969 15.7157 23.7969 15.311V10.5153C23.7969 10.248 24.0222 10.1106 24.3564 10.1106H26.1901C27.511 10.1106 28.6143 10.607 28.6143 11.9051V11.951C28.6143 13.2491 27.5654 13.7531 26.2522 13.7531H25.1489ZM25.1489 12.8826H26.2522C26.8816 12.8826 27.2701 12.6077 27.2701 12.0044V11.8975C27.2701 11.3095 26.7884 11.0499 26.1357 11.0499H25.1489V12.8826Z" fill="white"/>
</g>
<defs>
<clipPath id="clip0_201_4583">
<rect width="111" height="24" fill="white"/>
</clipPath>
</defs>
</svg>
