<svg width="173" height="89" viewBox="0 0 173 89" fill="none" xmlns="http://www.w3.org/2000/svg">
<g id="Group 2053 1">
<path id="Vector" d="M43.7467 55.6989V65.7146C43.7467 67.9966 41.8132 68.9686 40.0945 68.9686C38.3759 68.9686 36.3564 67.9966 36.3564 65.7146V39.3442C36.3564 37.6961 37.3877 36.9354 38.8915 36.9354H48.516C55.1328 36.9354 60.9764 38.9639 60.9764 46.0214C60.9764 51.008 57.6678 53.8818 54.4024 54.896L59.9878 63.8973C61.0624 65.5453 60.9335 67.4893 59.0856 68.5038C57.0663 69.6026 55.1328 68.7574 54.1876 67.2357L47.184 55.6989H43.7467ZM43.7467 50.6277H48.3441C51.5666 50.6277 53.6719 49.5712 53.6719 46.4017C53.6719 43.19 51.6096 42.1334 48.3441 42.1334H43.7467V50.6277ZM78.9748 67.8279C76.9128 69.0529 74.0768 69.2222 72.3149 69.2222C65.3978 69.2222 62.9915 66.1375 62.9056 63.1365C62.5619 58.192 66.7725 55.7835 74.7212 55.7835H78.3304C78.2015 54.093 76.4832 52.4449 73.2176 52.4449C70.8972 52.4449 69.6084 52.8675 68.7916 53.2056C67.2451 53.8395 65.6126 53.9663 64.8817 52.3604C64.2373 50.9235 64.7528 49.698 66.1281 49.0218C67.8895 48.1343 70.8113 47.5427 73.3895 47.5427C81.9396 47.5427 85.5918 51.7265 85.5918 56.2483V66.095C85.5918 67.9122 84.2171 68.9261 82.0685 68.9261C80.5649 68.9261 79.5763 68.5882 78.9748 67.8279ZM70.081 62.4605C70.081 63.6437 71.112 64.4889 73.0028 64.4889C75.7093 64.4889 78.3734 63.0521 78.3734 61.193V60.3478H74.5924C71.0261 60.3478 70.081 61.0662 70.081 62.4605ZM102.815 47.6273C104.662 47.6273 106.253 48.0076 107.627 48.5147V39.471C107.627 37.3158 109.389 36.386 111.193 36.386C113.041 36.386 114.889 37.3158 114.889 39.471V66.1375C114.889 67.9547 113.428 68.9686 111.322 68.9686C109.69 68.9686 108.615 68.5463 107.928 67.405C106.553 68.5463 104.92 69.2222 102.815 69.2222C95.8116 69.2222 91.1278 65.757 90.9989 60.4746C90.9559 58.9529 90.913 57.6429 90.9989 56.3751C91.4291 50.6277 96.2841 47.6273 102.815 47.6273ZM98.2603 60.5165C98.5616 62.841 100.28 64.1934 102.815 64.1934C105.479 64.1934 107.284 62.841 107.541 60.5165C107.713 59.0372 107.713 57.6429 107.541 56.2906C107.241 54.0085 105.479 52.7408 102.815 52.7408C100.28 52.7408 98.6045 53.6704 98.2603 55.9103C98.0884 57.7274 98.0884 59.1641 98.2603 60.5165ZM119.574 42.7673C119.574 40.443 121.464 39.1329 123.828 39.1329C126.191 39.1329 128.124 40.443 128.124 42.7673C128.124 45.0916 126.191 46.3595 123.828 46.3595C121.464 46.3595 119.574 45.0916 119.574 42.7673ZM120.304 65.757V50.9658C120.304 48.8105 122.066 47.8385 123.914 47.8385C125.761 47.8385 127.566 48.8105 127.566 50.9658V65.757C127.566 67.9966 125.761 68.9686 123.914 68.9686C122.066 68.9686 120.304 67.9966 120.304 65.757ZM144.148 47.6273C150.206 47.6273 155.663 51.0926 156.135 56.3751C156.264 57.7697 156.221 59.1222 156.135 60.4746C155.791 65.757 150.549 69.2222 144.148 69.2222C137.788 69.2222 132.675 65.6302 132.203 60.4746C132.117 59.0797 132.117 57.7274 132.203 56.3751C132.632 51.0503 137.66 47.6273 144.148 47.6273ZM139.421 60.5165C139.421 62.841 141.484 64.1934 144.148 64.1934C146.768 64.1934 148.616 62.841 148.917 60.5165C149.089 59.0797 149.003 57.6007 148.917 56.2906C148.745 53.9663 146.897 52.7408 144.148 52.7408C141.655 52.7408 139.722 54.093 139.421 56.2906C139.249 57.7274 139.249 59.1641 139.421 60.5165Z" fill="black"/>
<path id="Vector_2" d="M161.632 24.6143C163.083 22.1774 166.531 23.1839 166.66 26.0976C166.724 27.4044 167.546 28.4992 168.691 28.8347C171.254 29.594 171.447 33.4966 168.965 34.5384C167.853 34.9976 167.144 36.1984 167.208 37.5052C167.353 40.4188 164.017 41.8139 162.341 39.5535C161.599 38.547 160.342 38.1761 159.23 38.6353C156.748 39.6772 154.508 36.6398 155.942 34.203C156.587 33.1081 156.523 31.6954 155.781 30.6712C154.105 28.4109 156.055 25.1264 158.618 25.8857C159.762 26.2212 160.987 25.7091 161.632 24.6143Z" fill="#9452D6"/>
<path id="Vector_3" d="M169.696 48.2471C171.278 48.2471 172.561 46.9856 172.561 45.4297C172.561 43.8738 171.278 42.6124 169.696 42.6124C168.114 42.6124 166.832 43.8738 166.832 45.4297C166.832 46.9856 168.114 48.2471 169.696 48.2471Z" fill="#9452D6"/>
<path id="Vector_4" d="M143.325 26.7648C144.313 26.7648 145.114 25.9765 145.114 25.004C145.114 24.0315 144.313 23.2432 143.325 23.2432C142.335 23.2432 141.534 24.0315 141.534 25.004C141.534 25.9765 142.335 26.7648 143.325 26.7648Z" fill="#9452D6"/>
<path id="Vector_5" d="M52.634 0H14.6802C6.57255 0 0 6.46454 0 14.4389C0 22.4133 6.57255 28.8778 14.6802 28.8778H52.634C60.7416 28.8778 67.3144 22.4133 67.3144 14.4389C67.3144 6.46454 60.7416 0 52.634 0Z" fill="#7331B7"/>
<path id="Vector_6" d="M29.079 32.5283C29.079 33.6646 27.7813 34.3333 26.8315 33.6865L19.7695 28.8778H29.079V32.5283Z" fill="#7331B7"/>
<path id="Vector_7" d="M11.8848 16.7984V10.1128C11.8848 9.35849 12.5314 9.01831 13.2081 9.01831C13.9149 9.01831 14.4864 9.37332 14.4864 10.1128V16.7984C14.4864 17.9669 15.3135 18.4698 16.6369 18.4698C17.9151 18.4698 18.6971 17.9669 18.6971 16.7984V10.1128C18.6971 9.35849 19.3437 9.01831 20.0205 9.01831C20.6521 9.01831 21.2988 9.37332 21.2988 10.1128V16.7984C21.2988 19.3721 19.1783 20.3039 16.6369 20.3039C13.9901 20.3039 11.8848 19.3721 11.8848 16.7984ZM26.1018 16.0737V19.091C26.1018 19.8897 25.4702 20.2299 24.8235 20.2299C24.1167 20.2299 23.4852 19.875 23.4852 19.091V9.80227C23.4852 9.28455 23.9213 9.01831 24.5679 9.01831H28.1169C30.6734 9.01831 32.8089 9.97974 32.8089 12.4942V12.583C32.8089 15.0975 30.7787 16.0737 28.2373 16.0737H26.1018ZM26.1018 14.3875H28.2373C29.4554 14.3875 30.2073 13.855 30.2073 12.6865V12.4794C30.2073 11.3405 29.2749 10.8376 28.0117 10.8376H26.1018V14.3875ZM34.4569 16.7984V10.1128C34.4569 9.35849 35.1035 9.01831 35.7802 9.01831C36.4871 9.01831 37.0585 9.37332 37.0585 10.1128V16.7984C37.0585 17.9669 37.8856 18.4698 39.209 18.4698C40.4872 18.4698 41.2692 17.9669 41.2692 16.7984V10.1128C41.2692 9.35849 41.9159 9.01831 42.5926 9.01831C43.2242 9.01831 43.8708 9.37332 43.8708 10.1128V16.7984C43.8708 19.3721 41.7504 20.3039 39.209 20.3039C36.5622 20.3039 34.4569 19.3721 34.4569 16.7984ZM48.6739 16.0737V19.091C48.6739 19.8897 48.0423 20.2299 47.3957 20.2299C46.6889 20.2299 46.0573 19.875 46.0573 19.091V9.80227C46.0573 9.28455 46.4934 9.01831 47.14 9.01831H50.6891C53.2456 9.01831 55.381 9.97974 55.381 12.4942V12.583C55.381 15.0975 53.3508 16.0737 50.8094 16.0737H48.6739ZM48.6739 14.3875H50.8094C52.0275 14.3875 52.7794 13.855 52.7794 12.6865V12.4794C52.7794 11.3405 51.847 10.8376 50.5838 10.8376H48.6739V14.3875Z" fill="white"/>
<path id="Vector_8" d="M40.8337 78.2694C42.848 78.2694 44.0142 78.8005 44.0238 79.776C44.0142 80.645 43.0745 81.1616 41.4216 81.2535V81.7648H44.8334V82.7403H36.834V81.7648H40.2073V81.2535C38.5688 81.1517 37.634 80.6352 37.634 79.776C37.634 78.8005 38.8098 78.2694 40.8337 78.2694ZM40.8337 79.1768C39.5422 79.1768 38.9158 79.37 38.9254 79.776C38.9158 80.2006 39.5422 80.3746 40.8337 80.3746C42.1348 80.3746 42.7516 80.2006 42.7516 79.776C42.7516 79.37 42.1348 79.1768 40.8337 79.1768ZM43.86 83.2231V85.4638H38.9736V85.9949H44.0913V86.9222H37.7689V84.6041H42.6456V84.1405H37.7592V83.2231H43.86ZM52.7557 78.192V86.9995H51.5317V83.4552H50.0282V82.4413H51.5317V81.0604H50.0571V80.0558H51.5317V78.192H52.7557ZM49.5945 78.9261V82.3058H46.8959V84.0154C47.9801 84.0102 48.9439 83.9572 50.0475 83.7932L50.1438 84.7972C48.8331 85.0101 47.7151 85.0293 46.3658 85.0293H45.6719V81.3501H48.3897V79.9011H45.6526V78.9261H49.5945ZM57.8927 78.2694C59.9067 78.2694 61.073 78.8005 61.0829 79.776C61.073 80.645 60.1337 81.1616 58.4803 81.2535V81.7648H61.8922V82.7403H53.8929V81.7648H57.2662V81.2535C55.6278 81.1517 54.6929 80.6352 54.6929 79.776C54.6929 78.8005 55.8687 78.2694 57.8927 78.2694ZM57.8927 79.1768C56.6012 79.1768 55.9747 79.37 55.9843 79.776C55.9747 80.2006 56.6012 80.3746 57.8927 80.3746C59.1938 80.3746 59.8104 80.2006 59.8104 79.776C59.8104 79.37 59.1938 79.1768 57.8927 79.1768ZM60.9192 83.2231V85.4638H56.0326V85.9949H61.1502V86.9222H54.8278V84.6041H59.7047V84.1405H54.8182V83.2231H60.9192ZM69.8148 78.192V86.9995H68.5904V83.4552H67.0874V82.4413H68.5904V81.0604H67.1158V80.0558H68.5904V78.192H69.8148ZM66.6531 78.9261V82.3058H63.9548V84.0154C65.0393 84.0102 66.0029 83.9572 67.1065 83.7932L67.2029 84.7972C65.8921 85.0101 64.7739 85.0293 63.4248 85.0293H62.731V81.3501H65.4485V79.9011H62.7113V78.9261H66.6531ZM80.1466 78.192V81.5141H81.4377V82.528H80.1466V86.9995H78.9321V78.192H80.1466ZM77.6404 78.9261V82.3349H74.8167V83.9282C76.0938 83.9235 77.1493 83.8653 78.315 83.6675L78.4212 84.6524C77.0813 84.8938 75.8767 84.9519 74.3348 84.9519H73.5929V81.3594H76.4166V79.9208H73.583V78.9261H77.6404ZM89.1002 78.192V86.9995H87.8567V78.192H89.1002ZM86.5557 78.9645V79.9691H83.5195V83.8607C85.0904 83.856 86.0541 83.8223 87.1629 83.6193L87.2785 84.6332C86.064 84.8653 84.9459 84.9037 83.0475 84.9037H82.2858V78.9645H86.5557ZM94.285 78.6457C96.174 78.6457 97.5813 79.6021 97.5905 81.0505C97.5813 82.3733 96.4678 83.2668 94.8922 83.4453V84.9421H98.3139V85.9565H90.2856V84.9421H93.6684V83.436C92.0975 83.2668 90.9887 82.3686 90.9887 81.0505C90.9887 79.6021 92.3959 78.6457 94.285 78.6457ZM94.285 79.6311C93.0612 79.6311 92.2032 80.1715 92.2032 81.0505C92.2032 81.9777 93.0612 82.4989 94.285 82.4989C95.5186 82.4989 96.3668 81.9777 96.3766 81.0505C96.3668 80.1715 95.5186 79.6311 94.285 79.6311Z" fill="black"/>
</g>
</svg>
