<svg width="43" height="39" viewBox="0 0 43 39" fill="none" xmlns="http://www.w3.org/2000/svg">
<path fill-rule="evenodd" clip-rule="evenodd" d="M1.35888 15.0711L0.58242 12.1733C1.73469 11.8646 2.40809 10.6412 2.08648 9.44096L4.86834 8.69556C5.18996 9.89585 6.38481 10.6186 7.53709 10.3098C8.68936 10.0011 9.36276 8.77775 9.04114 7.57747L11.823 6.83207C12.1446 8.03235 13.3395 8.7551 14.4918 8.44635C15.644 8.1376 16.3174 6.91425 15.9958 5.71397L18.7777 4.96857C19.0993 6.16885 20.2941 6.89161 21.4464 6.58285C22.5987 6.2741 23.2721 5.05076 22.9505 3.85047L25.7323 3.10507C26.054 4.30536 27.2488 5.02811 28.4011 4.71936C29.5534 4.41061 30.2268 3.18726 29.9051 1.98697L32.687 1.24158C33.0086 2.44186 34.2035 3.16461 35.3557 2.85586L36.1322 5.75364C34.9799 6.06239 34.3065 7.28573 34.6281 8.48602C34.9498 9.6863 36.1446 10.4091 37.2969 10.1003L38.0733 12.9981C36.9211 13.3068 36.2477 14.5302 36.5693 15.7305C36.8909 16.9307 38.0858 17.6535 39.238 17.3447L40.0145 20.2425C38.8622 20.5513 38.1888 21.7746 38.5104 22.9749C38.832 24.1752 40.0269 24.8979 41.1792 24.5892L41.9556 27.487C40.8034 27.7957 40.13 29.0191 40.4516 30.2193L37.6697 30.9647C37.3481 29.7645 36.1532 29.0417 35.001 29.3505C33.8487 29.6592 33.1753 30.8826 33.4969 32.0828L30.715 32.8282C30.3934 31.628 29.1986 30.9052 28.0463 31.214C26.894 31.5227 26.2206 32.7461 26.5422 33.9463L23.7604 34.6917C23.4388 33.4915 22.2439 32.7687 21.0916 33.0775C19.9394 33.3862 19.266 34.6096 19.5876 35.8098L16.8057 36.5552C16.4841 35.355 15.2892 34.6322 14.137 34.941C12.9847 35.2497 12.3113 36.473 12.6329 37.6733L9.85105 38.4187C9.52943 37.2184 8.33458 36.4957 7.18231 36.8045L6.40585 33.9067C7.55812 33.5979 8.23152 32.3746 7.90991 31.1743C7.58829 29.974 6.39344 29.2513 5.24116 29.56L4.46471 26.6622C5.61698 26.3535 6.29038 25.1301 5.96876 23.9298C5.64715 22.7296 4.45229 22.0068 3.30002 22.3156L2.52356 19.4178C3.67584 19.109 4.34924 17.8857 4.02762 16.6854C3.706 15.4851 2.51115 14.7624 1.35888 15.0711Z" fill="#99C2FF"/>
<rect x="10.7344" y="33.834" width="21.6" height="27.6" transform="rotate(-105 10.7344 33.834)" fill="white"/>
<g clip-path="url(#clip0_54999_21737)">
<path d="M12.025 20.2535C11.8786 20.1667 11.8583 20.0181 11.9041 19.8704C12.0244 19.4851 12.1262 19.0866 12.2983 18.7268C12.4487 18.4125 12.5499 18.0872 12.6422 17.7555C12.9134 16.7803 13.3707 15.9086 14.0653 15.1931C14.5535 14.6897 15.1288 14.2997 15.8426 14.2029C16.1143 14.1663 16.3948 14.1696 16.6704 14.1815C16.975 14.1943 17.2075 14.386 17.4361 14.5727C17.4661 14.5968 17.4942 14.6241 17.5319 14.6576C17.7577 14.3813 18.0576 14.2286 18.3643 14.0962C19.1953 13.7388 19.9915 13.8035 20.7504 14.3493C21.5418 14.9193 22.0583 15.6915 22.3895 16.6065C22.4018 16.6401 22.4172 16.6735 22.4265 16.7079C22.4486 16.7904 22.496 16.8166 22.5819 16.8137C23.1221 16.7962 23.6382 16.8884 24.1091 17.1911C24.4706 17.4239 24.7642 17.7266 25.0146 18.0776C25.4585 18.7004 25.7018 19.4065 25.8086 20.1552C25.8937 20.7528 25.7492 21.3203 25.5007 21.8593C25.3316 22.2255 25.1199 22.5617 24.8342 22.8406C24.7207 22.9521 24.5876 23.044 24.4581 23.1371C24.3859 23.1886 24.343 23.2476 24.3321 23.3383C24.2446 24.0285 23.9527 24.6294 23.5706 25.1881C23.5135 25.2718 23.4412 25.3474 23.3641 25.4123C22.9771 25.7411 22.5928 26.0753 22.1928 26.3875C22.0191 26.5225 21.8167 26.6257 21.6144 26.7147C20.7369 27.1006 19.8206 27.3609 18.8741 27.5039C18.1744 27.6096 17.4719 27.7021 16.7666 27.7651C16.1778 27.8176 15.5822 27.8204 14.9931 27.721C14.402 27.6214 13.8273 27.4564 13.282 27.1871C12.8479 26.973 12.5047 26.6529 12.1909 26.2847C11.5306 25.5107 11.1871 24.601 11.0724 23.6012C10.9702 22.7092 11.1529 21.8682 11.5597 21.0831C11.7027 20.8069 11.8633 20.5401 12.0244 20.2536L12.025 20.2535ZM13.6612 26.8221C13.7056 26.8343 13.7294 26.838 13.7507 26.847C14.1811 27.04 14.6338 27.1679 15.0941 27.2175C15.5853 27.2701 16.0839 27.2873 16.5755 27.2635C17.1778 27.2347 17.7804 27.1751 18.3752 27.0794C19.1893 26.9484 20.002 26.7976 20.7763 26.4984C21.2469 26.316 21.7286 26.1581 22.1161 25.8043C22.3989 25.5463 22.7203 25.3302 22.9888 25.0579C23.4038 24.6364 23.6599 24.1108 23.797 23.5253C23.8044 23.4925 23.8049 23.4575 23.8111 23.4056C23.6793 23.4268 23.5606 23.4412 23.4455 23.4687C23.421 23.4746 23.402 23.5279 23.3911 23.5623C23.3574 23.6678 23.3361 23.7781 23.2974 23.8816C23.1706 24.2185 22.9829 24.5127 22.7505 24.786C22.3486 25.2589 21.8418 25.5153 21.2419 25.5581C20.4553 25.6141 19.7592 25.3463 19.154 24.8196C19.1064 24.7781 19.0612 24.7312 19.0262 24.6783C18.4699 23.845 18.2992 22.9721 18.7005 22.0229C18.9424 21.4515 19.3338 21.0518 19.8915 20.8199C19.9924 20.7782 20.0238 20.7322 20.0123 20.6187C19.9651 20.1677 19.9606 19.7179 20.027 19.2679C20.1139 18.6751 20.3113 18.1444 20.7584 17.7385C20.8172 17.6852 20.8652 17.6187 20.9393 17.5352C20.6763 17.3685 20.4329 17.2166 20.1923 17.0606C20.1142 17.0099 20.0631 17.0162 20.0113 17.0977C19.8346 17.3749 19.5696 17.4707 19.2623 17.4137C19.0572 17.3755 18.8516 17.3086 18.6599 17.2206C18.3397 17.0739 18.0649 16.8708 18.0186 16.4691C18.016 16.445 17.9655 16.4123 17.9352 16.4083C17.7997 16.3917 17.6627 16.3862 17.527 16.3736C17.4474 16.3661 17.403 16.3975 17.3878 16.4793C17.2915 16.9956 17.1701 17.5079 17.1037 18.0289C17.0587 18.3814 17.0864 18.7452 17.0874 19.1041C17.0877 19.2682 17.0236 19.3791 16.8964 19.4032C16.7679 19.4269 16.6491 19.3388 16.6084 19.1795C16.589 19.1023 16.5818 19.0218 16.5755 18.9424C16.5243 18.2358 16.6542 17.5503 16.7917 16.8668C16.8217 16.7161 16.8566 16.5667 16.8898 16.4157C16.668 16.3833 16.6565 16.4038 16.6181 16.5984C16.5887 16.7443 16.554 16.9064 16.4688 17.019C16.0973 17.5106 15.6652 17.8997 14.9881 17.844C14.6888 17.819 14.5269 17.7136 14.4382 17.4164C14.4153 17.3408 14.3975 17.2645 14.3732 17.1738C14.3127 17.2061 14.258 17.2328 14.2058 17.2642C13.7318 17.5507 13.37 17.9566 13.069 18.4191C12.9837 18.5506 12.9125 18.7083 12.8889 18.8634C12.8324 19.2411 12.8098 19.6237 12.7691 20.0045C12.7627 20.0659 12.7451 20.1316 12.714 20.1834C12.6386 20.3082 12.5579 20.4303 12.4694 20.5452C12.1868 20.9131 11.9801 21.3263 11.8024 21.7552C11.7354 21.9165 11.6982 22.0913 11.6367 22.2947C11.7182 22.2729 11.761 22.2574 11.8047 22.2504C11.942 22.2277 12.0825 22.178 12.2177 22.1913C12.7742 22.2446 13.323 22.3441 13.7668 22.7405C13.993 22.9426 14.2277 23.147 14.407 23.3905C14.5937 23.6447 14.6668 23.9661 14.7181 24.2794C14.7847 24.6837 14.7218 25.0765 14.5841 25.4551C14.4074 25.9414 14.1618 26.3818 13.7682 26.7204C13.7402 26.7447 13.7144 26.7723 13.6622 26.8232L13.6612 26.8221ZM25.191 19.6285C24.9441 18.8336 24.6939 18.396 24.2532 17.9432C23.6288 17.301 22.6825 17.1284 21.8638 17.5341C21.5444 17.692 21.2767 17.9239 21.0282 18.1835C20.7802 18.4423 20.6388 18.7489 20.5631 19.0988C20.4417 19.6553 20.46 20.2147 20.5251 20.7788C20.6126 21.5334 21.0299 22.0789 21.6098 22.4944C22.1333 22.8694 22.7381 23.0082 23.3717 22.9551C23.6504 22.932 23.9347 22.8913 24.1692 22.7206C24.4218 22.537 24.6547 22.3312 24.8264 22.0574C25.2984 21.3064 25.4703 20.5078 25.191 19.6285ZM13.3309 17.2413C13.3415 17.2492 13.3513 17.2566 13.3619 17.2645C13.3774 17.2543 13.3948 17.2463 13.4078 17.2341C13.6698 16.981 13.9768 16.7962 14.2965 16.6322C14.3819 16.5885 14.4246 16.5288 14.4396 16.4343C14.4912 16.1136 14.5793 15.8025 14.7321 15.519C15.0019 15.0179 15.4055 14.8434 15.883 15.2173C16.034 15.3357 16.1928 15.4687 16.2872 15.631C16.4384 15.8914 16.6241 15.9569 16.8921 15.8891C16.9842 15.8657 17.0635 15.8552 17.126 15.7648C17.2174 15.6317 17.4021 15.6131 17.4746 15.7377C17.552 15.8711 17.6545 15.8691 17.7711 15.8713C17.853 15.8729 17.9353 15.8883 18.016 15.8807C18.0548 15.8771 18.1062 15.8452 18.1248 15.8101C18.218 15.637 18.2859 15.4479 18.3923 15.2854C18.5797 15 18.8087 14.755 19.1344 14.6255C19.3681 14.5321 19.6028 14.6005 19.7371 14.8219C19.7951 14.9169 19.8528 15.0154 19.893 15.1192C20.0159 15.4367 20.1297 15.7567 20.1598 16.1004C20.167 16.1782 20.1741 16.246 20.2668 16.2928C20.6736 16.5001 21.0789 16.7112 21.474 16.9403C21.609 17.0187 21.72 17.0486 21.8649 16.991C21.9615 16.9524 21.9794 16.9148 21.9433 16.8166C21.7187 16.2094 21.4265 15.6444 20.9647 15.1858C20.4491 14.6747 19.8859 14.2801 19.1199 14.4036C18.6301 14.4826 18.1965 14.6691 17.8594 15.053C17.798 15.123 17.7251 15.1841 17.6521 15.2425C17.5522 15.3222 17.4389 15.3271 17.338 15.2476C17.2586 15.1845 17.1887 15.106 17.1236 15.0263C16.9879 14.8603 16.8273 14.7278 16.6179 14.6981C16.1764 14.6362 15.7475 14.6774 15.3422 14.8798C14.6049 15.2489 14.0755 15.8343 13.6793 16.557C13.5562 16.7809 13.4461 17.0121 13.3305 17.2401L13.3309 17.2413Z" fill="#99C2FF"/>
<path d="M18.2735 21.898C18.0256 21.9484 17.8378 21.9699 17.661 21.8524C17.5294 21.7651 17.4747 21.6336 17.5223 21.517C17.571 21.3974 17.6926 21.3501 17.8502 21.403C17.9706 21.4438 18.08 21.4312 18.1892 21.3765C18.2345 21.3537 18.2788 21.3291 18.3248 21.3087C18.4627 21.2469 18.589 21.2781 18.6559 21.3888C18.7208 21.4974 18.6977 21.6423 18.579 21.7271C18.4696 21.8053 18.3434 21.8599 18.2741 21.8979L18.2735 21.898Z" fill="#99C2FF"/>
<path d="M15.5545 22.2096C15.3705 22.2476 15.1941 22.2218 15.023 22.1571C14.9069 22.1131 14.8411 22.0014 14.854 21.8961C14.8669 21.7935 14.949 21.7206 15.0759 21.7053C15.1182 21.7 15.1621 21.6963 15.2039 21.7039C15.331 21.7281 15.4478 21.7116 15.5667 21.6589C15.7117 21.5946 15.8424 21.642 15.9002 21.7605C15.9569 21.8774 15.9139 22.0135 15.7838 22.0973C15.7127 22.1431 15.6314 22.173 15.5547 22.2103L15.5545 22.2096Z" fill="#99C2FF"/>
<path d="M16.85 21.8989C16.8725 21.99 16.8065 22.0942 16.7138 22.1156C16.6161 22.1378 16.5136 22.0808 16.4893 21.9902C16.4646 21.8983 16.5285 21.7961 16.6238 21.7746C16.7182 21.7526 16.8292 21.814 16.85 21.8989Z" fill="#99C2FF"/>
<path d="M22.8389 19.1577C22.7678 19.0602 22.6988 18.9681 22.6333 18.8744C22.5912 18.8146 22.5695 18.7461 22.6333 18.6921C22.6981 18.6372 22.7562 18.6766 22.8084 18.7276C22.8694 18.7877 22.9317 18.8474 23.0169 18.8956C23.0075 18.8264 22.9949 18.7574 22.9899 18.6877C22.9834 18.5977 22.98 18.5 23.0949 18.4813C23.2006 18.4644 23.2495 18.5377 23.2753 18.6313C23.2917 18.6926 23.3081 18.7539 23.3299 18.8352C23.3725 18.7655 23.4068 18.704 23.4468 18.6464C23.4853 18.5905 23.5376 18.5208 23.6051 18.5731C23.6453 18.6039 23.6678 18.6903 23.6615 18.747C23.6514 18.8361 23.6109 18.9207 23.5804 19.016C23.6175 19.0355 23.6506 19.0541 23.6849 19.0704C23.9965 19.2214 24.1651 19.4811 24.1636 19.8233C24.1624 20.1446 24.1148 20.4656 24.0854 20.7864C24.0822 20.8254 24.0656 20.8634 24.0521 20.9005C23.9252 21.2662 23.6275 21.3714 23.3394 21.1109C22.9936 20.7981 22.7059 20.4249 22.5621 19.9663C22.4696 19.6694 22.5426 19.4046 22.7868 19.2065C22.8045 19.1924 22.8194 19.175 22.8375 19.1574L22.8389 19.1577Z" fill="#99C2FF"/>
<path d="M20.6954 30.3368C15.5151 31.7248 10.1393 28.5209 8.71221 23.1949C7.28511 17.8689 10.3387 12.4063 15.519 11.0183C20.6993 9.63021 26.0751 12.8341 27.5022 18.1602C28.9293 23.4862 25.8757 28.9487 20.6954 30.3368ZM15.6865 11.6435C10.8413 12.9417 7.9855 18.0504 9.3203 23.032C10.6551 28.0135 15.6826 31.0099 20.5279 29.7116C25.3731 28.4133 28.2289 23.3046 26.8941 18.3231C25.5593 13.3415 20.5318 10.3452 15.6865 11.6435Z" fill="#99C2FF"/>
<path d="M30.311 20.2457C29.9042 20.3548 29.4823 20.3928 29.0649 20.3552L26.18 20.0989C25.6233 20.0498 25.0588 20.1541 24.5469 20.4012L21.3312 21.953C21.2059 22.0134 21.0547 21.9574 20.994 21.8282C20.9333 21.6991 20.9853 21.5451 21.1112 21.4846L24.3269 19.9328C24.9185 19.6476 25.5718 19.5268 26.2167 19.5839L29.1015 19.8401C29.6423 19.8882 30.1935 19.7901 30.6949 19.5572L33.9447 18.0452C34.0705 17.9867 34.2208 18.0442 34.2804 18.1743C34.3394 18.3046 34.2852 18.4572 34.159 18.5165L30.9091 20.0285C30.7156 20.1186 30.5153 20.191 30.3116 20.2456L30.311 20.2457Z" fill="#99C2FF"/>
<path d="M30.814 22.1215C30.4071 22.2305 29.9852 22.2685 29.5678 22.2309L26.6829 21.9747C26.1262 21.9255 25.5617 22.0298 25.0498 22.2769L21.8341 23.8287C21.7088 23.8891 21.5578 23.8337 21.497 23.704C21.4363 23.5748 21.4882 23.4209 21.6141 23.3603L24.8298 21.8085C25.4214 21.5233 26.0747 21.4025 26.7196 21.4596L29.6045 21.7158C30.1453 21.7639 30.6964 21.6658 31.1978 21.433L34.4476 19.9209C34.5734 19.8624 34.7237 19.92 34.7834 20.0501C34.8424 20.1803 34.7881 20.3329 34.6619 20.3922L31.4121 21.9043C31.2185 21.9943 31.0183 22.0667 30.8146 22.1213L30.814 22.1215Z" fill="#99C2FF"/>
<path d="M31.3169 23.997C30.9101 24.106 30.4881 24.144 30.0707 24.1064L27.1859 23.8501C26.6291 23.801 26.0647 23.9053 25.5528 24.1524L22.337 25.7042C22.2116 25.764 22.0606 25.7086 21.9999 25.5795C21.9392 25.4503 21.9912 25.2963 22.117 25.2358L25.3327 23.684C25.9244 23.3988 26.5776 23.278 27.2225 23.3351L30.1074 23.5913C30.6482 23.6394 31.1993 23.5413 31.7007 23.3085L34.9506 21.7964C35.0763 21.7379 35.2267 21.7955 35.2863 21.9256C35.3453 22.0558 35.291 22.2084 35.1648 22.2677L31.915 23.7797C31.7214 23.8698 31.5212 23.9422 31.3175 23.9968L31.3169 23.997Z" fill="#99C2FF"/>
<path d="M31.8188 25.8727C31.412 25.9817 30.9901 26.0197 30.5727 25.9821L27.6878 25.7259C27.1311 25.6767 26.5666 25.7811 26.0547 26.0281L22.839 27.5799C22.7137 27.6403 22.5627 27.585 22.5018 27.4552C22.4412 27.326 22.4931 27.1721 22.619 27.1115L25.8347 25.5597C26.4263 25.2745 27.0796 25.1538 27.7245 25.2108L30.6093 25.4671C31.1501 25.5151 31.7013 25.417 32.2027 25.1842L35.4525 23.6721C35.5783 23.6136 35.7286 23.6712 35.7882 23.8013C35.8473 23.9316 35.793 24.0841 35.6668 24.1434L32.4169 25.6555C32.2234 25.7455 32.0232 25.818 31.8194 25.8725L31.8188 25.8727Z" fill="#99C2FF"/>
</g>
<defs>
<clipPath id="clip0_54999_21737">
<rect width="26" height="20" fill="white" transform="translate(6.12402 13.5356) rotate(-15)"/>
</clipPath>
</defs>
</svg>
