<svg width="140" height="140" viewBox="0 0 140 140" fill="none" xmlns="http://www.w3.org/2000/svg">
<path d="M70 140C108.66 140 140 108.66 140 70C140 31.3401 108.66 0 70 0C31.3401 0 0 31.3401 0 70C0 108.66 31.3401 140 70 140Z" fill="#A8A8A8"/>
<mask id="mask0_54900_27950" style="mask-type:luminance" maskUnits="userSpaceOnUse" x="0" y="0" width="140" height="140">
<path d="M70 140C108.66 140 140 108.66 140 70C140 31.3401 108.66 0 70 0C31.3401 0 0 31.3401 0 70C0 108.66 31.3401 140 70 140Z" fill="white"/>
</mask>
<g mask="url(#mask0_54900_27950)">
<path d="M22.5454 139.669L26.6646 130.091L24.5945 124.716L22.5454 113.803L26.3126 106.085L31.8451 98.1513L31.3775 94.2581L26.7119 85.3577L29.9169 64.7617L39.8733 53.5495L46.3148 47.8594L61.9037 26.1758L77.8866 12.6833H82.7203L87.2913 16.5819L95.619 12.6833L100.857 13.9601L105.423 22.5715L111.471 54.1695L112.006 64.7617L116.535 77.1823L118.994 87.9112L114.838 100.857L113.604 103.222L115.632 109.805L117.513 118.269L114.838 130.847L117.781 139.669H22.5454Z" fill="#FEFEFE"/>
<path d="M47.1187 129.087C46.9243 129.192 46.7351 129.298 46.5407 129.403C46.2517 129.466 46.0573 129.639 45.9365 129.902C44.5862 130.369 43.2517 130.879 41.8856 131.294C41.0817 131.536 40.1623 131.651 39.8155 130.611C39.4845 129.613 39.5213 128.609 40.5773 127.963C41.3234 127.506 42.1851 127.317 42.9679 126.965C49.6564 123.933 53.1819 118.658 53.7703 111.402C54.1696 106.463 50.9909 101.199 46.5092 99.1917C45.4321 98.7084 44.4128 98.1987 43.1939 97.9676C39.6789 97.2898 36.4792 98.3563 33.2794 99.4492C31.7505 99.9746 30.9466 101.446 30.0482 102.644C27.8467 105.554 25.8502 108.733 25.3405 112.353C24.6628 117.192 23.9902 122.215 27.274 126.555C29.1602 129.051 28.5035 131.294 27.0849 133.7C26.0446 135.461 25.2039 137.363 24.4684 139.275C23.964 140.583 22.7555 140.73 21.794 141.061C21.4052 141.193 20.5331 140.216 20.1758 139.459C21.0007 137.641 21.5156 135.681 22.6767 134.016C24.5314 131.357 25.2039 128.699 22.6242 126.061C22.5349 125.966 22.5296 125.793 22.4718 125.662C20.7432 121.826 20.9271 117.823 21.463 113.803C21.6942 112.054 21.9306 110.309 22.5559 108.628C23.2442 106.773 24.379 105.155 25.1146 103.332C26.0025 102.854 26.26 101.919 26.6908 101.109C28.1357 100.148 28.9343 98.5665 30.2005 97.4159C30.5946 97.0586 29.9431 96.7013 29.6962 96.3756C28.1199 94.2739 26.6278 92.125 25.7976 89.5926C24.5314 85.7413 24.3528 81.8165 24.8204 77.8077C25.4982 72.0334 27.4684 66.7058 30.3161 61.7039C32.6647 57.5742 35.8329 54.1276 39.8943 51.6004C43.3988 49.4199 46.1256 46.6405 48.0854 42.9206C50.8753 37.6088 54.4113 32.7382 57.9315 27.8835C62.3187 21.836 67.6358 16.7659 74.0195 12.8516C75.1964 12.1318 76.4889 11.5906 77.7499 11.0179C80.7815 9.64659 83.4138 10.1352 85.6941 12.6414C86.2878 13.2929 87.1074 13.7448 87.6959 14.4488C88.174 15.0163 88.5628 14.4593 88.9043 14.1756C90.6276 12.757 92.4666 11.496 94.6207 10.8971C97.1847 10.1825 99.5701 10.7289 101.514 12.5784C103.705 14.6642 105.428 17.1599 106.421 19.9866C106.963 21.5261 107.772 23.0024 107.935 24.7048C108.045 25.8659 109.127 26.7328 109.243 27.9833C109.516 30.9781 110.635 33.7891 111.208 36.7261C111.654 39.0116 111.649 41.3497 112.259 43.6037C112.49 44.4548 112.569 45.285 112.159 46.2412C111.87 46.9085 112.432 47.9015 112.458 48.7527C112.569 52.1678 113.026 55.5409 113.625 58.893C113.767 59.6759 113.446 60.3904 113.383 61.1418C113.241 62.8703 113.462 64.2627 114.539 65.8074C116.278 68.3136 117.644 71.0982 118.5 74.093C119.651 78.1072 120.728 82.158 121.049 86.314C121.306 89.6609 119.893 92.7923 118.973 95.9605C118.432 97.8362 117.765 99.6699 117.155 101.525C115.989 101.551 116.126 102.754 115.574 103.342C114.507 104.493 114.66 105.502 115.747 106.632C115.979 106.868 116.236 107.078 116.483 107.304C116.078 108.397 117.655 108.775 117.381 109.884C117.266 110.351 117.36 111.061 117.66 111.397C119.325 113.278 118.916 115.653 119.105 117.812C119.194 118.842 119.709 120.035 119.152 121.038C118.595 122.042 118.569 123.203 118.432 124.191C118.212 125.809 117.565 127.306 117.413 128.872C117.334 129.702 116.409 130.191 116.903 131.263C118.08 133.806 119.047 136.454 119.583 139.228C119.241 139.485 118.789 139.475 118.474 139.848C117.486 141.004 116.93 140.909 116.168 139.564C115.217 137.883 114.828 135.981 114.124 134.205C113.95 133.764 113.824 133.306 113.567 132.891C112.821 131.693 112.884 130.453 113.357 129.161C114.649 125.63 115.558 122.021 115.563 118.217C115.574 114.697 114.539 111.413 113.367 108.166C113.162 107.598 112.726 106.947 111.886 106.726C110.74 106.427 110.525 105.113 109.705 104.378C105.854 100.926 101.519 99.9746 96.5017 101.12C94.0112 101.687 91.6207 102.302 89.5138 103.789C86.4349 105.964 83.9392 108.481 83.1984 112.437C82.7465 114.859 82.2106 117.182 82.673 119.688C83.3613 123.392 84.9375 126.119 88.5575 127.895C92.6767 129.912 96.88 130.301 101.288 130.07C102.465 130.007 103.805 129.692 104.104 131.446C104.183 131.914 104.188 132.187 103.595 132.539C101.913 133.532 100.206 133.553 98.3354 133.485C95.7346 133.39 93.1653 133.28 90.6539 132.529C90.47 132.329 90.3439 132.045 90.0024 132.066C89.8185 132.066 89.6399 132.061 89.456 132.056C89.188 131.951 88.9306 131.841 88.6574 131.751C85.5207 130.711 82.8148 128.925 81.1125 126.135C79.1265 122.872 78.559 119.194 79.2578 115.369C79.3892 114.644 79.7149 113.877 79.2683 113.131C79.3944 112.726 79.5626 112.327 79.6414 111.912C80.1405 109.301 81.0862 106.868 82.8201 104.84C85.0005 102.292 87.4857 100.164 90.7695 99.0499C91.5523 98.7872 92.6504 98.7451 93.1023 97.7469C93.6435 97.5262 94.2057 97.7311 94.7836 97.626C96.9062 97.2372 99.0657 97.1374 101.225 97.0271C102.712 96.9535 103.952 97.9098 105.166 98.0726C107.456 98.3721 108.949 99.9641 110.95 100.626C112.08 100.999 112.647 101.01 113.131 99.859C113.257 99.5543 113.288 99.2075 113.415 98.9028C115.322 94.2844 117.087 89.6346 116.388 84.4856C115.868 80.6711 115.574 76.7989 113.619 73.3365C113.32 71.6184 112.647 70.0632 111.786 68.5447C110.572 66.4221 109.421 64.2574 109.343 61.7039C109.301 60.4062 109.122 59.1189 109.001 57.8264C108.681 54.4008 108.171 50.9751 108.082 47.539C107.982 43.7771 107.73 40.0519 106.831 36.4056C106.316 34.3302 105.964 32.2181 105.371 30.1795C104.015 25.5191 103.332 20.6066 100.426 16.4874C99.2968 14.8902 97.5262 14.0863 95.6295 14.6275C93.0603 15.3525 91.1163 17.244 89.3824 18.9831C88.1635 20.2073 87.3806 19.3404 86.4717 19.4087C85.61 19.477 85.2895 18.5417 85.0688 17.6801C84.4173 15.1686 82.405 13.2666 79.5888 14.1966C78.8848 14.4278 78.2911 14.8691 77.7394 15.2422C75.9793 16.4138 73.8041 16.6082 72.1753 18.2475C70.3679 20.0707 68.1297 21.4945 66.2015 23.2441C65.0718 24.2739 64.0105 25.4036 63.0385 26.5542C61.2994 28.619 59.8125 30.9046 58.2783 33.1323C56.6338 35.5229 54.9262 37.882 53.4918 40.3934C52.2414 42.5844 50.6652 44.5546 49.5198 46.8244C48.4164 49.0154 47.0924 51.1958 44.8436 52.4252C42.7578 53.5706 41.1395 55.315 39.1693 56.6285C37.4827 57.7476 36.1587 59.6128 35.1604 61.5358C34.5562 61.6672 34.346 62.2188 34.1253 62.6549C33.2006 64.4833 32.2601 66.317 31.4878 68.2137C30.4948 70.6569 29.8012 73.1893 29.1602 75.7691C28.1567 79.8095 28.5455 83.687 29.4335 87.575C30.0009 90.0549 31.761 91.9726 33.1638 94.027C33.7996 94.957 34.7611 95.1776 36.0693 94.9622C38.5808 94.5524 41.15 93.9587 43.7245 94.6154C44.5284 94.8204 45.327 94.9097 46.1467 94.8939C46.2255 95.1829 46.3673 95.4036 46.6668 95.5402C49.6143 96.88 52.4358 98.3353 54.4428 101.067C55.2887 102.218 56.2607 103.274 56.597 104.661C57.1434 106.899 57.879 109.101 58.1207 111.407C57.9526 111.802 57.6058 112.211 57.6478 112.579C58.0051 115.621 56.7126 118.175 55.4464 120.791C53.6705 124.448 50.8543 127.017 47.4444 129.045V129.056C47.3026 128.741 47.208 128.84 47.1292 129.093L47.1187 129.087ZM103.731 131.835L103.815 131.888L103.826 131.809L103.731 131.835Z" fill="#EBB86C"/>
<path d="M25.1091 103.326C24.3736 105.15 23.2387 106.768 22.5504 108.623C21.9251 110.309 21.6887 112.053 21.4575 113.798C20.9216 117.817 20.7377 121.826 22.4663 125.656C22.5241 125.788 22.5294 125.961 22.6187 126.056C25.1984 128.693 24.5259 131.352 22.6712 134.01C21.5101 135.676 20.9952 137.636 20.1703 139.453C15.8882 139.501 11.6377 139.023 7.38188 138.681C5.75312 138.55 4.10859 138.634 2.46932 138.65C1.90188 138.655 1.62342 138.555 1.59189 137.872C1.38173 133.595 1.10326 129.318 0.887848 125.036C0.745988 122.173 0.304646 119.257 0.651415 116.446C1.12428 112.647 0.378203 108.87 0.898356 105.102C0.92988 104.887 0.824799 104.656 0.788021 104.43C1.37648 104.866 1.36071 103.663 2.01222 104.02C3.02626 104.577 3.20489 104.488 3.31523 103.479C3.61997 100.726 4.59722 98.125 5.07534 95.4086C5.43262 93.3805 6.50971 91.3472 6.34683 89.3927C6.1209 86.6028 5.88972 83.7498 5.22246 81.0019C4.68129 78.769 4.72857 76.4677 4.2452 74.2294C4.12961 73.6778 4.26622 72.8529 4.78637 72.7215C5.51143 72.5429 5.88447 73.3152 6.21022 73.8932C6.27327 74.0088 6.24175 74.1769 6.26276 74.3188C7.02986 78.8057 7.80221 83.2875 8.55879 87.7744C8.72692 88.7832 8.96336 90.0862 9.79875 90.3805C11.5536 91.0004 11.3435 92.1616 11.2068 93.4698C11.065 94.8674 11.4223 96.1862 11.8373 97.4997C12.0738 96.554 12.41 95.6555 12.3365 94.6835C12.2997 94.2054 12.5099 93.8219 13.0353 93.7431C13.5186 93.6748 13.8444 93.9007 14.0913 94.3263C14.3803 94.8149 14.3698 95.3403 14.3698 95.871C14.3698 96.6958 14.3698 97.5207 14.3698 98.3456C15.1264 97.2107 14.6745 95.8604 15.3996 94.7518C16.6553 92.8499 17.559 90.8008 17.8165 88.5047C17.9005 87.7744 18.2631 87.4855 19.0091 87.7587C19.6186 87.9846 20.1072 88.2105 19.6659 88.9829C19.5766 89.1352 19.4347 89.4137 19.4873 89.4662C20.6484 90.6221 20.3384 92.1879 20.6484 93.5749C21.2264 96.1652 21.3262 98.7975 21.3262 101.43C21.3262 101.766 21.0845 102.044 21.5416 102.176C22.0302 102.318 22.0723 101.929 22.1668 101.603C22.6029 100.09 22.7185 98.5348 22.7448 96.9743C22.7605 96.1704 22.7711 95.1879 23.7693 95.251C24.5785 95.3035 25.0671 96.0233 25.0986 97.0479C25.1617 99.139 24.6152 101.225 25.0934 103.305L25.1091 103.326Z" fill="#F5810E"/>
<path d="M47.4388 129.045C50.8487 127.017 53.6649 124.448 55.4408 120.791C56.707 118.175 57.9995 115.626 57.6422 112.579C57.6002 112.211 57.947 111.796 58.1151 111.407C61.4935 110.257 64.9559 109.715 68.5234 109.941C68.9017 109.962 69.2852 109.852 69.6635 109.831C71.6916 109.715 73.6356 110.041 75.4272 111.024C76.7092 111.723 77.7496 112.852 79.2575 113.141C79.6988 113.887 79.3783 114.654 79.247 115.379C78.5482 119.204 79.1104 122.887 81.1017 126.145C82.804 128.935 85.5098 130.721 88.6465 131.762C88.9145 131.851 89.1772 131.966 89.4451 132.066C89.256 134.646 88.368 137.089 87.8689 139.606C87.7008 140.457 85.8986 140.877 85.1315 140.294C84.5641 139.863 84.1438 139.753 83.4082 140.047C81.5377 140.793 79.5254 140.047 77.5972 140.399C75.2696 140.825 72.9211 140.504 70.5935 140.51C68.3973 140.515 66.2011 140.694 63.9786 140.489C61.6038 140.273 59.1659 140.651 56.7595 140.809C54.6632 140.946 52.5563 141.13 50.4652 140.914C49.5509 140.82 48.7681 140.236 48.3793 139.217C47.1131 135.907 47.4283 132.471 47.4336 129.05L47.4388 129.045Z" fill="#FEF3E0"/>
<path d="M119.567 139.233C119.031 136.459 118.064 133.811 116.887 131.268C116.394 130.196 117.318 129.707 117.397 128.877C117.55 127.317 118.196 125.819 118.416 124.196C118.548 123.208 118.579 122.047 119.136 121.043C119.693 120.04 119.178 118.847 119.089 117.817C118.905 115.658 119.31 113.288 117.644 111.402C117.345 111.066 117.25 110.351 117.366 109.889C117.639 108.78 116.057 108.397 116.467 107.309C117.15 107.204 117.655 107.64 118.164 108.008C118.527 107.341 118.353 106.747 118.411 106.18C118.464 105.686 118.222 104.94 118.937 104.871C119.614 104.808 119.872 105.376 120.177 106.038C120.77 107.309 119.877 108.901 121.206 109.999C121.206 108.728 122.236 107.866 122.247 106.521C122.257 104.53 122.73 102.539 122.945 100.542C123.429 96.0813 125.005 91.7519 124.511 87.1756C124.427 86.377 125.741 84.454 126.114 84.6852C126.744 85.0687 127.695 85.6782 127.537 86.3349C127.18 87.8113 128.315 88.9725 128.094 90.4121C128.016 90.9218 127.853 91.9568 128.257 92.188C129.019 92.6293 129.024 93.1915 129.04 93.8483C129.108 96.5016 129.161 99.1549 129.24 101.808C129.25 102.239 129.576 102.539 129.954 102.628C130.553 102.77 130.953 103.179 131.415 103.521C133.007 104.682 134.489 104.246 134.646 102.334C134.867 99.6698 136.123 97.1688 135.802 94.4367C135.75 93.9691 135.718 93.3912 136.322 93.2283C136.984 93.0549 137.62 93.5488 137.72 94.0006C138.119 95.7818 139.795 97.1688 139.307 99.2232C139.17 99.7959 139.233 100.432 140.121 100.39C140.463 100.789 140.441 101.262 140.436 101.745C140.431 107.33 140.557 112.921 140.384 118.506C140.284 121.695 140.426 124.879 140.342 128.052C140.247 131.551 140.21 135.056 140.163 138.555C140.153 139.322 139.932 139.58 139.181 139.517C137.047 139.328 134.898 139.354 132.765 139.002C131.898 138.86 130.958 139.201 130.049 139.212C126.555 139.238 123.056 139.222 119.562 139.217L119.567 139.233Z" fill="#F5810F"/>
<path d="M25.109 103.327C24.6362 101.241 25.1826 99.1549 25.1143 97.069C25.0828 96.0392 24.5942 95.3247 23.785 95.2721C22.7867 95.2091 22.7762 96.1863 22.7605 96.9955C22.7342 98.5559 22.6186 100.111 22.1825 101.624C22.088 101.955 22.0459 102.339 21.5573 102.197C21.1002 102.066 21.3419 101.782 21.3419 101.451C21.3419 98.8186 21.2421 96.1863 20.6641 93.5961C20.3541 92.2038 20.6641 90.6433 19.503 89.4874C19.4504 89.4349 19.5975 89.1564 19.6816 89.004C20.1229 88.2317 19.6343 88.0005 19.0248 87.7798C18.2735 87.5066 17.911 87.7956 17.8322 88.5259C17.5747 90.8219 16.6658 92.871 15.4153 94.773C14.685 95.8764 15.1368 97.2319 14.3855 98.3668C14.3855 97.5419 14.3855 96.717 14.3855 95.8921C14.3855 95.3614 14.396 94.8413 14.107 94.3474C13.8601 93.9218 13.5343 93.6907 13.051 93.7642C12.5255 93.843 12.3206 94.2213 12.3522 94.7047C12.4257 95.6767 12.0895 96.5751 11.853 97.5209C11.438 96.2074 11.0807 94.8886 11.2225 93.491C11.3591 92.1827 11.5693 91.0216 9.81444 90.4016C8.97905 90.1074 8.74787 88.8044 8.57448 87.7956C7.8179 83.3086 7.04555 78.8216 6.27845 74.3399C6.25218 74.198 6.28896 74.0299 6.22591 73.9143C5.89491 73.3364 5.52187 72.564 4.80206 72.7427C4.28191 72.8688 4.1453 73.6989 4.26089 74.2506C4.73901 76.4888 4.69698 78.7901 5.23815 81.0231C5.90016 83.771 6.13134 86.6239 6.36252 89.4138C6.52014 91.3684 5.44831 93.4017 5.09103 95.4298C4.61291 98.1461 3.63566 100.747 3.33092 103.5C3.22058 104.509 3.04195 104.598 2.02791 104.041C1.3764 103.684 1.39217 104.892 0.803711 104.451C1.18726 100.51 0.950825 96.5016 2.11723 92.561C2.52179 92.6924 2.84229 93.4857 3.44126 93.1232C3.99293 92.787 3.67769 92.1512 3.66718 91.6783C3.49905 85.6572 3.47278 79.636 3.50956 73.6148C3.53057 70.205 3.48329 66.7898 3.47278 63.3747C3.46753 60.921 3.58312 58.4306 4.89138 56.2186C5.67949 54.8893 7.08233 54.9997 8.30653 55.7615C11.8951 57.9892 10.9756 61.5935 11.2383 64.7722C11.4222 66.9842 11.3171 69.2329 11.4327 71.4712C11.5746 74.2506 11.8162 77.0195 12.3574 79.7358C12.8723 82.3313 12.9354 85.0109 13.8075 87.5276C14.0177 88.1266 13.4923 89.2405 14.2752 89.2457C15.0317 89.251 14.9582 88.0268 15.1631 87.3753C15.6938 85.6834 16.3137 84.0389 17.0073 82.4154C17.8269 80.5134 18.3943 80.3558 20.0179 81.6851C20.5905 82.1527 21.3051 81.6904 21.9198 82.0949C22.2088 82.2841 22.6974 82.2578 22.7027 82.7149C22.7184 84.7745 23.4698 86.7605 23.2491 88.8517C23.1335 89.934 23.2018 91.0373 23.2018 92.1302C23.2018 92.5032 23.475 92.8658 23.743 92.9078C25.6345 93.1915 26.1126 94.3579 26.3227 96.1233C26.5224 97.7888 26.8009 99.4281 26.6905 101.109C26.2597 101.919 26.0075 102.848 25.1143 103.332L25.109 103.327ZM3.15754 93.9166C2.8528 94.4105 2.90009 94.7572 3.45702 95.0462C3.63566 94.5576 3.58837 94.2108 3.15754 93.9166ZM27.0163 100.095C26.99 99.8957 26.9322 99.7276 26.6748 99.7696C26.4856 99.8011 26.3017 99.8484 26.307 100.106C26.307 100.358 26.4909 100.411 26.68 100.442C26.9375 100.484 26.9848 100.295 27.0163 100.101V100.095Z" fill="#C95129"/>
<path d="M140.126 100.4C139.238 100.442 139.175 99.8012 139.312 99.2338C139.8 97.1742 138.124 95.7924 137.725 94.0112C137.625 93.5646 136.989 93.0655 136.327 93.2389C135.723 93.4018 135.749 93.9797 135.807 94.4473C136.128 97.1795 134.872 99.6804 134.651 102.344C134.494 104.257 133.012 104.688 131.42 103.532C130.958 103.195 130.558 102.786 129.959 102.638C129.581 102.549 129.255 102.244 129.245 101.819C129.166 99.1655 129.113 96.5122 129.045 93.8589C129.029 93.2021 129.024 92.6399 128.262 92.1986C127.858 91.9622 128.021 90.9324 128.099 90.4227C128.32 88.9831 127.185 87.822 127.542 86.3456C127.7 85.6888 126.749 85.0793 126.119 84.6958C125.746 84.4699 124.427 86.3928 124.516 87.1862C125.01 91.7625 123.434 96.0971 122.95 100.553C122.735 102.549 122.262 104.535 122.252 106.532C122.241 107.877 121.211 108.738 121.211 110.01C119.887 108.907 120.78 107.32 120.181 106.048C119.871 105.386 119.619 104.819 118.941 104.882C118.227 104.95 118.469 105.696 118.416 106.19C118.358 106.758 118.532 107.351 118.169 108.019C117.66 107.646 117.155 107.209 116.472 107.32C116.225 107.099 115.968 106.889 115.737 106.647C114.649 105.518 114.497 104.509 115.563 103.358C116.11 102.765 115.978 101.561 117.145 101.54C117.885 101.729 118.237 101.409 118.505 100.7C119.162 98.9658 119.272 97.0639 120.019 95.3878C121.248 92.6242 121.847 89.6819 122.273 86.7711C122.798 83.1721 123.371 79.5678 123.786 75.9425C123.928 74.7235 124.101 73.4836 124.816 72.4013C125.21 71.8023 125.703 71.5606 126.402 71.6709C127.553 71.8548 129.76 73.9039 129.901 75.0493C130.474 79.6519 131.026 84.2544 131.257 88.8938C131.336 90.491 131.457 92.0883 131.551 93.6855C131.567 93.9745 131.536 94.2845 131.861 94.4158C132.261 94.5787 132.271 94.1111 132.497 93.985C134.299 92.9657 134.073 91.0112 134.525 89.4087C134.809 88.4157 134.614 87.2965 134.735 86.2457C134.798 85.6993 135.014 84.8166 135.492 84.8482C136.091 84.8849 136.737 85.3788 137.084 86.0513C137.914 87.6748 138.045 89.6346 139.469 90.9744C139.553 91.0532 139.564 91.2424 139.574 91.379C139.753 93.9219 140.557 96.3861 140.541 98.9606C140.541 99.507 140.483 99.9799 140.136 100.405L140.126 100.4Z" fill="#C95028"/>
<path d="M52.2729 22.4611C52.4831 23.659 52.1993 24.694 51.0907 25.293C50.6021 25.5557 50.8333 26.3333 50.1608 26.3596L50.166 26.3648C50.0031 26.7957 49.6879 27.0006 49.2308 26.9796C48.6423 25.5872 48.9103 23.617 46.6721 23.3543C45.9785 23.2702 45.574 23.2334 45.3008 24.0951C44.7964 25.6976 45.5529 27.0846 45.7894 28.561C45.2062 30.2266 43.6194 30.0952 42.3322 30.4C41.7227 30.5418 41.2499 30.6837 40.9451 31.2249C40.798 31.1145 40.5248 31.0042 40.5195 30.8938C40.4828 29.0497 38.833 28.6609 37.7349 27.7834C37.4827 27.5838 37.1412 27.5943 36.9153 27.7677C36.0536 28.4402 35.0606 28.2353 34.1043 28.2353C32.2391 28.2353 31.8503 27.7204 32.2759 25.9077C32.3442 25.6293 32.5123 25.3508 32.5018 25.0776C32.4545 24.0793 32.67 23.1178 31.3459 22.4716C30.2163 21.9199 28.6874 21.2684 28.7504 19.5556C28.8345 17.2017 29.5858 14.9635 31.0412 13.1719C32.3915 11.5063 33.8784 9.72519 36.4529 9.89332C36.6998 9.90908 36.9888 9.69892 37.2095 9.53079C37.7454 9.12097 38.234 9.23131 38.8067 9.49926C41.3024 10.6657 41.3077 10.6499 41.087 13.4713C41.066 13.713 41.045 13.96 41.0922 14.1912C41.2499 14.9425 41.6387 15.5992 42.4636 15.552C43.5722 15.4942 44.9119 15.8462 45.4846 14.333C45.5477 14.1701 45.8787 14.0651 46.0994 14.0178C47.7386 13.671 49.1625 14.354 50.082 15.5152C51.0855 16.7814 51.7685 18.3629 50.5706 20.0127C50.1713 20.5643 49.7825 21.1633 50.2501 21.8621C50.7492 22.5977 51.4795 22.6502 52.2729 22.4611Z" fill="#FEA89B"/>
<path d="M52.2728 22.4611C51.4847 22.6503 50.7492 22.603 50.25 21.8622C49.7824 21.1686 50.1712 20.5697 50.5705 20.0127C51.7632 18.363 51.0854 16.7815 50.0819 15.5153C49.1572 14.3541 47.7333 13.6763 46.0993 14.0178C45.8734 14.0651 45.5476 14.1702 45.4846 14.3331C44.9119 15.8463 43.5721 15.4942 42.4635 15.552C41.6386 15.5941 41.2498 14.9373 41.0922 14.1912C41.0449 13.96 41.0659 13.7079 41.0869 13.4714C41.3076 10.6552 41.3023 10.671 38.8067 9.49934C38.234 9.23138 37.7453 9.12105 37.2094 9.53087C36.9887 9.699 36.6998 9.90916 36.4528 9.8934C33.8836 9.72527 32.3914 11.5064 31.0411 13.1719C29.5858 14.9636 28.8397 17.2018 28.7504 19.5556C28.6873 21.2685 30.2162 21.9147 31.3459 22.4716C32.6699 23.1179 32.4545 24.0794 32.5018 25.0777C32.5123 25.3509 32.3441 25.6293 32.2758 25.9078C31.845 27.7205 32.2338 28.2354 34.1043 28.2354C35.0605 28.2354 36.0535 28.4403 36.9152 27.7677C37.1411 27.5891 37.4826 27.5839 37.7348 27.7835C38.8329 28.6609 40.4827 29.0497 40.5195 30.8939C40.5195 31.0095 40.7979 31.1146 40.9451 31.2249C41.3076 31.661 41.7332 32.0603 42.0116 32.5437C42.5318 33.4369 42.1377 34.2828 41.15 34.5718C39.1377 35.1602 38.8172 35.0499 37.5089 32.7381C37.0781 31.9763 36.5684 31.7451 35.7803 31.7714C34.7925 31.8029 33.8153 31.971 32.8065 31.7976C29.3966 31.2144 27.4106 28.7135 28.2827 25.3456C28.4036 24.8728 28.3405 24.4629 28.0148 24.3789C25.0673 23.6065 25.0515 21.1844 25.1723 18.9619C25.414 14.538 27.5472 9.72527 32.3231 7.82329C34.1883 7.07722 36.1376 5.71116 38.3128 6.28385C40.7507 6.92485 43.3409 7.53957 44.5283 10.2034C44.7963 10.8076 45.1588 10.629 45.5476 10.5869C49.0941 10.2191 51.7212 12.0055 53.9121 14.4277C55.7248 16.4295 55.378 19.9497 53.6547 22.0513C53.1713 22.6398 52.7247 22.3245 52.2728 22.4559V22.4611Z" fill="#EC643A"/>
<path d="M126.802 57.5111C126.161 57.5268 125.541 57.4953 124.874 57.6424C121.469 58.3937 118.768 55.152 119.01 52.7719C119.189 50.9802 121.191 48.9837 123.072 48.3059C126.25 47.1605 130.259 50.0976 130.874 52.6195C131.567 55.4935 129.76 57.6687 126.802 57.5111ZM124.842 51.3901C123.529 51.369 122.72 52.3253 122.404 53.2763C122.147 54.0486 123.234 54.7211 123.781 55.3884C123.912 55.546 124.448 55.9716 124.763 55.462C125.205 54.7527 125.861 54.4374 126.623 54.2168C127.07 54.0907 127.138 53.7176 127.128 53.2973C127.091 52.2307 126.082 51.3743 124.847 51.3953L124.842 51.3901Z" fill="#EC643A"/>
<path d="M26.1653 64.7302C26.1863 67.3467 23.8273 70.6095 21.279 71.0876C18.5732 71.5973 16.8656 70.2995 16.2561 67.4308C15.8358 65.471 16.0039 63.7109 16.8919 61.9245C17.8166 60.0541 19.4559 59.3553 21.4261 60.1276C22.6609 60.611 24.0322 60.8317 24.9516 61.914C25.6242 62.7074 26.3387 63.506 26.1706 64.7249L26.1653 64.7302ZM20.0811 62.7757C19.7869 62.7547 19.6555 62.9123 19.603 63.1855C19.4191 64.1102 19.1984 65.0244 18.9515 65.9334C18.7308 66.753 19.2142 67.683 20.0391 68.0665C20.8324 68.4396 21.2002 67.5937 21.6206 67.1208C21.899 66.8056 22.0829 66.3957 22.2563 66.0069C23.0707 64.1733 22.0829 62.7126 20.0759 62.7809L20.0811 62.7757Z" fill="#EC643A"/>
<path d="M29.2339 47.8436C26.8117 47.9855 25.6611 47.1764 25.3248 44.7385C25.0253 42.537 24.9623 40.3356 26.549 38.3968C27.1743 37.6297 27.8888 37.635 28.5771 37.6612C30.2899 37.7295 31.945 38.2182 33.3793 39.1692C34.2515 39.7471 35.0396 40.4984 34.4984 41.7962C34.0571 42.8523 33.1166 43.1465 32.3758 42.3111C31.7506 41.607 31.0675 41.0606 30.1691 40.7769C29.4598 40.551 29.071 40.7927 28.9606 41.5282C28.8713 42.1377 28.7347 42.7472 28.6612 43.3619C28.5508 44.3129 28.9291 44.791 29.9589 44.7227C30.374 44.6964 30.6945 44.3444 31.1936 44.5598C32.0133 44.9171 33.2322 45.0537 33.1008 46.1361C32.9432 47.4338 31.4301 47.2814 30.5106 47.7491C30.1586 47.9277 29.6647 47.8226 29.2339 47.8489V47.8436Z" fill="#EC683F"/>
<path d="M45.7894 28.5612C45.5529 27.0848 44.7964 25.6977 45.3007 24.0952C45.574 23.2388 45.9785 23.2756 46.6721 23.3544C48.905 23.6171 48.6423 25.5874 49.2308 26.9797C49.2203 27.5419 49.1205 28.1093 49.4567 28.64C49.7299 29.0761 50.1765 29.6383 49.6879 30.0481C49.3569 30.3213 48.9313 30.563 48.2746 30.626C46.4672 30.7942 46.2412 29.6803 45.7894 28.5612ZM48.8157 27.1373C48.821 27.0953 48.8472 27.0375 48.8315 27.006C48.7632 26.8956 48.6896 26.9114 48.6581 27.0428C48.6476 27.0743 48.6791 27.1321 48.7106 27.1583C48.7317 27.1741 48.7842 27.1478 48.821 27.1373H48.8157Z" fill="#EC683F"/>
<path d="M126.113 39.6366C124.979 39.7417 124.569 39.0324 124.611 37.887C124.653 36.7311 125.819 35.4019 126.786 35.4176C127.464 35.4281 129.198 37.0516 129.198 37.6138C129.203 38.8275 127.48 39.6629 126.113 39.6314V39.6366Z" fill="#EC683F"/>
<path d="M13.8232 58.0364C12.888 58.0889 12.6936 57.4111 12.6515 56.7334C12.599 55.9663 13.2242 55.1624 13.7601 55.3883C14.4589 55.6826 15.7777 55.3043 15.846 56.5863C15.9196 57.9996 14.6428 57.7527 13.8285 58.0364H13.8232Z" fill="#EC683F"/>
<path d="M45.9414 129.907C46.0622 129.639 46.2566 129.471 46.5456 129.408C46.4458 129.697 46.719 130.438 45.9414 129.907Z" fill="#FEF3E0"/>
<path d="M50.1659 26.3702L50.1606 26.365C50.1974 26.3808 50.2342 26.3965 50.271 26.4175C50.2342 26.4018 50.2027 26.386 50.1659 26.3755V26.3702Z" fill="#EC683F"/>
<path d="M89.9917 132.072C90.3332 132.051 90.4541 132.334 90.6432 132.534C90.2807 132.587 90.0337 132.471 89.9917 132.072Z" fill="#FEF3E0"/>
<path d="M47.1187 129.087C47.1975 128.835 47.292 128.74 47.4339 129.05C47.3288 129.061 47.2237 129.072 47.1187 129.087Z" fill="#FEF3E0"/>
<path d="M79.2631 113.136C77.7551 112.847 76.7096 111.717 75.4329 111.019C73.6412 110.036 71.692 109.71 69.6691 109.826C69.2856 109.847 68.9073 109.963 68.529 109.936C64.9562 109.71 61.4938 110.257 58.1207 111.402C57.879 109.096 57.1382 106.894 56.597 104.656C56.2607 103.269 55.2887 102.213 54.4428 101.062C52.4358 98.33 49.6143 96.8746 46.6668 95.5348C46.3726 95.3982 46.2255 95.1775 46.1519 94.8886C46.4409 94.5786 46.8612 94.3159 47.0031 93.9481C47.8332 91.8307 48.7106 89.7238 49.3254 87.5434C49.6091 86.5398 50.145 85.4733 49.7615 84.3384C49.5776 83.7972 49.6932 83.3979 49.9401 82.8042C50.6546 81.0704 50.3236 79.1631 50.1187 77.3242C50.1135 77.2612 49.8613 77.2296 49.7247 77.1823L49.7457 77.1981C50.0452 76.3102 49.7457 75.2383 49.5145 74.6236C48.9628 73.1577 48.6949 71.5185 47.7124 70.2154C47.1712 69.1489 46.2833 68.4501 45.264 67.8826C45.2114 67.767 45.1641 67.6515 45.1116 67.5306C45.0223 67.4571 44.933 67.3888 44.8436 67.3152L44.8279 67.2994C44.7753 66.774 44.3445 66.464 44.024 66.1751C42.7998 65.0717 41.7543 63.6426 39.8838 63.5585C38.3181 62.8703 36.8417 61.9665 35.1709 61.5252C36.1639 59.6022 37.4932 57.7423 39.1798 56.6179C41.15 55.3096 42.7683 53.5653 44.8542 52.4146C47.0976 51.1799 48.4217 49.0048 49.5303 46.8138C50.6757 44.544 52.2519 42.5738 53.5024 40.3828C54.9367 37.8714 56.6443 35.5123 58.2888 33.1217C59.823 30.8887 61.3047 28.6084 63.049 26.5436C64.021 25.393 65.0823 24.2581 66.212 23.2335C68.1349 21.4839 70.3784 20.0601 72.1858 18.2369C73.8146 16.5976 75.9898 16.4032 77.7499 15.2316C78.3016 14.8638 78.8953 14.4225 79.5993 14.186C82.4155 13.256 84.4278 15.158 85.0793 17.6695C85.3052 18.5311 85.6205 19.4664 86.4822 19.3981C87.3911 19.3298 88.174 20.2019 89.3929 18.9725C91.1215 17.2334 93.0708 15.3472 95.64 14.6169C97.5367 14.0809 99.3074 14.8796 100.437 16.4768C103.342 20.596 104.026 25.5085 105.381 30.1689C105.975 32.2075 106.332 34.3249 106.842 36.395C107.74 40.0361 107.998 43.7664 108.092 47.5284C108.181 50.9645 108.691 54.3849 109.012 57.8158C109.132 59.1083 109.311 60.4008 109.353 61.6933C109.437 64.2468 110.583 66.4115 111.796 68.5341C112.663 70.0473 113.336 71.6078 113.63 73.3206C112.285 72.7006 110.751 73.1892 109.453 72.7164C107.866 72.1332 106.311 72.5167 104.924 72.8425C101.85 73.5675 99.0604 75.17 96.7696 77.3295C94.3843 79.5782 93.1391 82.5625 92.104 85.6887C90.6959 89.9235 91.0637 93.864 93.1233 97.7363C92.6715 98.7346 91.5734 98.7713 90.7905 99.0393C87.5067 100.148 85.0215 102.281 82.8411 104.829C81.1072 106.857 80.1615 109.29 79.6624 111.901C79.5836 112.316 79.4154 112.716 79.2893 113.12L79.2631 113.136ZM83.9917 69.69C83.4716 68.9912 82.673 68.7548 81.9111 68.4816C74.5607 65.8388 66.9475 64.7722 59.1662 64.7617C58.4202 63.0121 57.7529 61.2257 56.9017 59.5339C56.3238 58.3885 56.2712 56.8964 54.8789 56.2186C54.4954 56.0347 54.0698 55.8613 53.8439 56.1555C53.5969 56.4813 53.0085 56.7387 53.3185 57.3587C53.4813 57.6897 53.5444 58.068 53.6757 58.4201C54.4796 60.6215 55.2835 62.823 56.0874 65.0244C54.1854 65.2661 52.73 66.3484 51.8105 67.8931C49.772 71.3188 51.5426 74.9914 55.4464 75.6744C58.5673 76.2208 61.8248 76.1105 64.9457 75.128C65.8337 76.0159 66.6901 75.9371 67.5255 75.0544C70.4362 75.6271 73.1789 76.7252 75.9635 77.6867C77.9758 78.3803 79.9776 79.2157 81.8638 80.1194C83.4768 80.8917 84.9637 81.0598 86.3035 80.4504C88.0216 79.6675 88.9358 78.0965 88.9095 75.9949C88.8833 73.9353 87.4699 72.7742 86.4244 71.3398C88.2633 70.3993 90.0865 69.4273 91.9411 68.5236C92.7871 68.1138 93.6592 67.7933 93.1181 66.5954C92.5506 65.3449 91.6364 65.9439 90.8483 66.2539C90.097 66.5481 89.3719 66.9369 88.6784 67.3625C87.1862 68.2819 85.631 69.0701 83.9865 69.6795L83.9917 69.69ZM78.58 24.9201C78.2911 24.3316 78.5327 23.16 77.6185 22.6976C76.7253 22.2458 76.0949 23.181 75.4223 23.6801C73.058 25.4297 72.0072 28.1356 70.5571 30.5157C69.48 32.2863 68.797 34.3039 67.9878 36.2321C67.5412 37.2934 67.1367 38.3758 66.8109 39.4791C65.7338 43.1097 66.1857 44.0291 69.5851 45.3322C71.5186 46.073 73.7936 44.9854 74.6973 43.1149C75.5432 41.3653 76.0108 39.5369 76.5152 37.6822C77.6291 33.5893 78.7797 29.5227 78.5853 24.9253L78.58 24.9201ZM97.8835 28.7398C97.9203 28.5086 98.0096 28.2722 97.9833 28.041C97.873 26.9061 96.1497 25.7397 95.3563 26.3387C94.8099 26.7538 94.2056 27.1163 93.7328 27.6785C92.5559 29.0813 91.5786 30.605 90.6907 32.1917C88.6836 35.7855 86.6661 39.3793 85.5732 43.3987C85.2317 44.6491 85.5837 45.495 86.5872 46.2411C88.2686 47.4968 90.2073 47.686 92.1671 47.5284C93.2074 47.4443 94.5156 46.9767 94.7889 45.9784C95.33 44.0081 96.3966 42.1324 96.4859 40.1201C96.5752 38.0448 97.4264 36.1691 97.521 34.0674C97.5998 32.3283 97.6418 30.5052 97.8835 28.7345V28.7398ZM75.5484 52.1257C75.5484 53.7334 76.3313 54.4848 77.1772 54.0434C77.9758 53.6231 78.6116 52.8823 78.911 52.0679C79.8988 49.3988 80.5346 46.6194 81.433 43.9083C82.6887 40.1096 84.1178 36.374 85.3683 32.5753C86.1144 30.295 86.9918 28.0673 87.9533 25.8658C88.3211 25.0199 88.3946 23.9954 87.4332 23.6591C85.3315 22.9288 84.7378 23.3649 84.2177 25.5768C84.1756 25.766 84.1756 25.9656 84.1126 26.1443C81.8113 32.9641 79.1738 39.6683 77.1142 46.5721C76.5257 48.5476 75.995 50.5442 75.5484 52.1257Z" fill="#FEFDFC"/>
<path d="M49.714 77.1824C49.8506 77.2297 50.1028 77.2612 50.108 77.3243C50.3129 79.1632 50.6439 81.0704 49.9294 82.8043C49.6824 83.4032 49.5668 83.7973 49.7507 84.3384C50.1343 85.4733 49.6036 86.5399 49.3146 87.5434C48.6947 89.7239 47.8172 91.836 46.9923 93.9481C46.8505 94.3159 46.4302 94.5786 46.1412 94.8886C45.3215 94.9096 44.5229 94.8151 43.7138 94.6102C41.1393 93.9534 38.5701 94.5471 36.0586 94.9569C34.7504 95.1723 33.7889 94.9569 33.1531 94.0217C31.745 91.9674 29.9849 90.0496 29.4227 87.5697C28.5348 83.6817 28.146 79.8042 29.1495 75.7638C29.7905 73.184 30.4841 70.6516 31.4771 68.2084C32.2494 66.3117 33.1899 64.4781 34.1146 62.6496C34.3353 62.2135 34.5454 61.6619 35.1497 61.5305C36.8205 61.9719 38.2969 62.8756 39.8626 63.5638C40.1358 64.1681 40.5666 64.5674 41.1025 64.9929C41.9117 65.6392 43.2409 65.739 43.5614 66.7846C43.8452 67.7198 44.276 67.4203 44.8067 67.2995L44.8224 67.3152C44.9117 67.3888 45.0011 67.4571 45.0904 67.5307C45.1429 67.6463 45.1902 67.7618 45.2427 67.8827C45.206 68.3188 44.6911 68.9177 45.0326 69.1227C45.8417 69.6113 46.509 70.6043 47.6911 70.2102C48.6736 71.5133 48.9416 73.1473 49.4933 74.6184C49.7245 75.2331 50.0239 76.305 49.7245 77.1929C49.7034 77.2297 49.6824 77.2665 49.6614 77.3085C49.6772 77.2665 49.6877 77.2192 49.7034 77.1771L49.714 77.1824Z" fill="#FECE78"/>
<path d="M93.0968 97.7519C91.0372 93.8796 90.6694 89.9391 92.0775 85.7043C93.1178 82.5781 94.3578 79.5938 96.7432 77.3451C99.0339 75.1856 101.829 73.5779 104.897 72.8581C106.285 72.5323 107.834 72.1488 109.426 72.732C110.724 73.2101 112.264 72.7162 113.603 73.3362C115.558 76.7986 115.857 80.6761 116.378 84.4906C117.076 89.6396 115.311 94.2894 113.404 98.9078C113.278 99.2125 113.251 99.5593 113.12 99.864C112.637 101.015 112.069 101.004 110.94 100.631C108.938 99.9691 107.446 98.3824 105.155 98.0776C103.941 97.92 102.696 96.9585 101.214 97.0321C99.0549 97.1424 96.8955 97.2422 94.7729 97.631C94.1949 97.7361 93.6327 97.5312 93.0916 97.7519H93.0968Z" fill="#FECD76"/>
<path d="M103.731 131.835L103.826 131.809L103.815 131.888L103.731 131.835Z" fill="#FEFEFE"/>
<path d="M3.1575 93.9165C3.58834 94.2107 3.63562 94.5575 3.45699 95.0461C2.90005 94.7572 2.85802 94.4104 3.1575 93.9165Z" fill="#FEFEFE"/>
<path d="M27.0164 100.095C26.9849 100.295 26.9376 100.479 26.6802 100.437C26.491 100.405 26.3124 100.353 26.3071 100.101C26.3071 99.8432 26.4858 99.7959 26.6749 99.7644C26.9324 99.7224 26.9849 99.8958 27.0164 100.09V100.095Z" fill="#FEFEFE"/>
<path d="M124.842 51.3952C126.077 51.3795 127.086 52.2306 127.123 53.2972C127.138 53.7175 127.065 54.0906 126.618 54.2167C125.862 54.4374 125.2 54.7526 124.758 55.4619C124.443 55.9715 123.907 55.546 123.776 55.3883C123.229 54.7211 122.142 54.0486 122.399 53.2762C122.714 52.3252 123.524 51.369 124.837 51.39L124.842 51.3952Z" fill="#FEA89B"/>
<path d="M20.0811 62.7757C22.0881 62.7126 23.0759 64.168 22.2615 66.0017C22.0881 66.3905 21.9042 66.8055 21.6257 67.1155C21.2054 67.5884 20.8429 68.4343 20.0443 68.0613C19.2194 67.6777 18.736 66.7478 18.9567 65.9281C19.1984 65.0192 19.4243 64.105 19.6082 63.1802C19.6607 62.907 19.7921 62.7494 20.0863 62.7704L20.0811 62.7757Z" fill="#FEA89B"/>
<path d="M48.8154 27.1373C48.7786 27.1425 48.7261 27.1688 48.7051 27.1583C48.6735 27.1373 48.6473 27.0795 48.6525 27.0427C48.6841 26.9114 48.7576 26.8956 48.8259 27.0059C48.8469 27.0375 48.8207 27.09 48.8102 27.1373H48.8154Z" fill="#FEA89B"/>
<path d="M86.4244 71.3503C87.4647 72.7847 88.878 73.9406 88.9096 76.0054C88.9411 78.1123 88.0216 79.6833 86.3035 80.4609C84.9637 81.0703 83.4768 80.9022 81.8638 80.1299C79.9776 79.2262 77.9811 78.3908 75.9635 77.6972C73.1789 76.7357 70.4362 75.6324 67.5255 75.0649C67.1735 74.5395 67.599 73.3994 66.5009 73.5045C65.634 73.5833 64.7881 73.9563 64.9457 75.1385C61.8248 76.121 58.562 76.2313 55.4464 75.6849C51.5373 75.0019 49.772 71.3293 51.8106 67.9036C52.73 66.359 54.1801 65.2766 56.0874 65.0349C56.5813 66.2013 57.0594 67.3782 57.5848 68.5341C57.8948 69.2172 58.1417 70.0315 59.2451 69.5061C60.2118 69.0438 60.3957 68.4343 60.0805 67.4308C59.7967 66.5376 59.14 65.7705 59.1768 64.7722C66.958 64.7827 74.5712 65.8493 81.9216 68.4921C82.6782 68.7653 83.4821 69.0017 83.997 69.7005C82.6099 70.4781 81.2229 71.2505 79.841 72.0386C79.1948 72.4064 78.8322 72.9423 79.0949 73.7041C79.3629 74.4817 80.088 74.1665 80.5924 74.1823C81.0284 74.1928 81.4908 73.9458 81.9059 73.7357C83.4243 72.9633 84.927 72.1594 86.4296 71.3661L86.4244 71.3503Z" fill="#FDAA9D"/>
<path d="M78.5801 24.9201C78.7745 29.5175 77.6239 33.5841 76.51 37.677C76.0056 39.5317 75.538 41.3601 74.6921 43.1097C73.7884 44.9802 71.5134 46.0678 69.5799 45.327C66.1805 44.0239 65.7287 43.1045 66.8058 39.4739C67.1315 38.3706 67.5361 37.2882 67.9827 36.2269C68.7918 34.2987 69.4748 32.2811 70.5519 30.5105C72.002 28.1304 73.0529 25.4245 75.4172 23.6749C76.095 23.1758 76.7202 22.2406 77.6134 22.6924C78.5276 23.1548 78.2807 24.3264 78.5749 24.9149L78.5801 24.9201Z" fill="#FECE78"/>
<path d="M97.8836 28.7398C97.6419 30.5104 97.5999 32.3336 97.5211 34.0727C97.4265 36.1743 96.5753 38.05 96.486 40.1254C96.3967 42.1377 95.3354 44.0134 94.7889 45.9837C94.5157 46.9767 93.2022 47.4495 92.1672 47.5336C90.2074 47.6965 88.2739 47.5021 86.5873 46.2464C85.5891 45.5003 85.2318 44.6596 85.5733 43.4039C86.6661 39.3793 88.6837 35.7908 90.6908 32.197C91.5787 30.6102 92.556 29.0866 93.7329 27.6837C94.2057 27.1215 94.81 26.759 95.3564 26.3439C96.1498 25.745 97.8678 26.9061 97.9834 28.0463C98.0044 28.2722 97.9204 28.5086 97.8836 28.745V28.7398Z" fill="#FECE78"/>
<path d="M75.5483 52.1256C75.9897 50.5442 76.5203 48.5476 77.1141 46.5721C79.1737 39.6682 81.8112 32.964 84.1125 26.1443C84.1755 25.9656 84.1703 25.7607 84.2176 25.5768C84.7377 23.3596 85.3262 22.9235 87.4331 23.6591C88.3946 23.9953 88.3262 25.0199 87.9532 25.8658C86.9917 28.062 86.1143 30.295 85.3682 32.5752C84.123 36.3739 82.6886 40.1096 81.4329 43.9083C80.5397 46.6141 79.8987 49.3988 78.911 52.0678C78.6115 52.8875 77.9757 53.623 77.1771 54.0434C76.3312 54.49 75.5536 53.7334 75.5483 52.1256Z" fill="#EBBB72"/>
<path d="M86.4242 71.3503C84.9163 72.1436 83.4137 72.9475 81.9005 73.7199C81.4854 73.93 81.0231 74.1822 80.587 74.1665C80.0773 74.1559 79.3523 74.4659 79.0896 73.6883C78.8269 72.9265 79.1946 72.3906 79.8356 72.0228C81.2175 71.2347 82.6045 70.4623 83.9916 69.6847C85.6361 69.0753 87.1861 68.2872 88.6835 67.3677C89.3718 66.9421 90.1021 66.5533 90.8534 66.2591C91.6415 65.9491 92.5557 65.3501 93.1232 66.6006C93.6644 67.7985 92.7922 68.119 91.9463 68.5288C90.0916 69.4325 88.2684 70.3993 86.4295 71.345L86.4242 71.3503Z" fill="#0E0C0B"/>
<path d="M59.1661 64.7616C59.1293 65.7598 59.7861 66.5269 60.0698 67.4201C60.3851 68.4237 60.2012 69.0331 59.2344 69.4955C58.1311 70.0261 57.8841 69.2065 57.5741 68.5235C57.0487 67.3676 56.5706 66.1907 56.0767 65.0243C55.2729 62.8228 54.4637 60.6214 53.6651 58.4199C53.539 58.0679 53.476 57.6896 53.3078 57.3586C52.9978 56.7333 53.5863 56.4759 53.8332 56.1554C54.0592 55.8559 54.4847 56.0293 54.8683 56.2184C56.2659 56.8962 56.3132 58.3884 56.8911 59.5338C57.7475 61.2256 58.4095 63.012 59.1556 64.7616H59.1661Z" fill="#0E0C0B"/>
<path d="M64.9404 75.1331C64.788 73.951 65.6286 73.5832 66.4956 73.4991C67.5937 73.3993 67.1681 74.5342 67.5201 75.0596C66.6847 75.937 65.823 76.0158 64.9404 75.1331Z" fill="#0E0C0B"/>
<path d="M44.8118 67.3099C44.2811 67.436 43.845 67.7354 43.5665 66.795C43.2513 65.7494 41.9168 65.6496 41.1076 65.0033C40.5717 64.5725 40.1409 64.1732 39.8677 63.5742C41.7381 63.6583 42.7837 65.0874 44.0079 66.1907C44.3284 66.4797 44.7592 66.7897 44.8118 67.3151V67.3099Z" fill="#FECE78"/>
<path d="M47.702 70.226C46.5198 70.6148 45.8526 69.627 45.0434 69.1384C44.7019 68.9335 45.2116 68.3345 45.2536 67.8984C46.2729 68.4606 47.1661 69.1594 47.702 70.2312V70.226Z" fill="#FECE78"/>
<path d="M49.7139 77.1824C49.6981 77.2244 49.6876 77.2717 49.6719 77.3137C49.6929 77.2769 49.7139 77.2402 49.7349 77.1981L49.7139 77.1824Z" fill="#FEFDFC"/>
</g>
<circle cx="70" cy="70" r="68.5" stroke="#FFE9BA" stroke-width="3"/>
</svg>
