<svg width="140" height="140" viewBox="0 0 140 140" fill="none" xmlns="http://www.w3.org/2000/svg">
<path d="M70 140C108.66 140 140 108.66 140 70C140 31.3401 108.66 0 70 0C31.3401 0 0 31.3401 0 70C0 108.66 31.3401 140 70 140Z" fill="#CBD5FB"/>
<mask id="mask0_54900_27949" style="mask-type:luminance" maskUnits="userSpaceOnUse" x="0" y="0" width="140" height="140">
<path d="M70 140C108.66 140 140 108.66 140 70C140 31.3401 108.66 0 70 0C31.3401 0 0 31.3401 0 70C0 108.66 31.3401 140 70 140Z" fill="white"/>
</mask>
<g mask="url(#mask0_54900_27949)">
<path d="M20.9796 141.208L23.8325 126.397L30.7311 111.891L24.5366 105.134L18.7623 92.4559L21.857 73.9774L17.0705 68.3765L10.876 54.9944L12.7044 45.2428L22.7607 40.0676L37.2882 38.5176L45.2376 39.6473L46.362 34.3459L53.9699 30.2109H61.499L74.403 34.3459L90.5014 47.9539L96.9009 59.6443L104.53 66.7267L110.724 84.6274L109.174 96.5436L104.246 105.696L109.174 115.837L120.045 127.669L123.865 141.208H20.9796Z" fill="#FEFDFC"/>
<path d="M116.22 49.9504C113.467 48.3636 111.234 49.3094 109.117 51.3007C107.672 52.6615 106.054 53.7596 103.978 54.1063C103.379 54.2062 103.127 53.2132 102.575 53.8699L102.591 53.8541C101.75 53.8909 100.978 53.7806 100.085 54.1694C99.4334 54.4531 98.2723 53.7386 97.4159 53.3077C96.8957 53.045 96.4229 52.8979 95.8659 52.9662H95.8975C95.7924 52.8086 95.6925 52.651 95.5875 52.4986C93.9062 50.9592 93.0235 48.9101 92.0357 46.924C91.8991 44.4178 91.048 43.4879 88.9726 43.5772C88.547 43.0203 88.1792 42.395 87.6801 41.9116C85.1161 39.4265 82.3419 37.2093 79.4575 35.1024C75.2437 32.013 70.6411 29.801 65.613 28.4455C60.196 26.9848 54.9104 26.9113 49.7877 29.6749C46.8822 31.2406 44.3025 33.0795 43.8506 36.5788C43.6142 38.4019 42.8786 38.5701 41.46 38.0341C41.3234 37.9816 41.1605 37.9974 41.0134 37.9501C35.4178 36.2793 29.7907 36.0166 24.09 37.4509C20.2441 38.4177 16.5347 39.6104 13.729 42.6315C12.0214 44.4756 10.2876 46.3461 9.47847 48.7735C7.9653 53.3235 9.22102 57.6371 11.081 61.7615C12.2421 64.3465 13.7921 66.7582 15.1634 69.2433C14.1388 70.6357 13.1143 72.028 12.1003 73.4256C11.764 73.8879 7.78141 75.874 7.49243 75.5902C6.21044 74.3345 4.61846 75.2803 3.19986 74.8915C1.28212 74.3713 -0.120715 72.7163 0.163005 70.7145C0.509773 68.3081 -0.0734285 65.9385 -0.236305 63.5584C-0.425451 60.8 -0.588328 58.0311 -0.830015 55.278C-1.16102 51.5003 -1.18729 47.7332 -0.982383 43.9712C-0.856285 41.5859 -1.24509 39.19 -0.194272 36.7942C0.72519 34.6925 -0.131223 32.2862 -0.115461 30.0112C-0.0786827 25.4086 -0.110207 20.806 -0.0839367 16.2035C-0.0629203 11.6902 -0.0103797 7.16121 -0.168002 2.64271C-0.257321 0.157534 -0.125969 -2.3329 -0.115461 -4.81807C-0.115461 -5.46958 0.15775 -5.67449 0.788239 -5.72177C4.7393 -6.016 8.65359 -6.55717 12.6467 -6.49412C14.969 -6.45734 17.3228 -6.47836 19.6504 -6.56242C22.6609 -6.66751 25.7503 -5.76906 28.6033 -6.44158C32.2864 -7.30325 35.8959 -6.63073 39.5213 -6.7936C43.8506 -6.99326 48.201 -6.54141 52.5461 -6.42582C56.6811 -6.31548 60.8108 -6.15261 64.9562 -6.22091C67.0421 -6.25769 69.1542 -6.32599 71.2611 -6.08956C72.8478 -5.91092 74.4818 -5.84262 76.0843 -6.2787C77.2507 -6.5992 78.4224 -6.56242 79.6571 -6.35752C83.5661 -5.70601 87.5014 -6.50463 91.4367 -6.31548C95.5454 -6.11583 99.6646 -5.98448 103.773 -6.06329C107.914 -6.1421 112.064 -6.55192 116.194 -6.25769C119.115 -6.05278 122.031 -5.8899 124.942 -6.05803C127.312 -6.19464 129.681 -6.38904 132.051 -6.27345C135.308 -6.12108 138.534 -6.15261 141.739 -6.86191C142.743 -7.08258 143.778 -6.58344 144.871 -6.77784C145.491 -6.88818 146.226 -6.28396 146.174 -5.40127C145.9 -1.22429 146.31 2.96846 146 7.12443C145.433 14.6745 145.879 22.2246 145.785 29.7695C145.738 33.5367 146.158 37.3196 146.216 41.0815C146.247 43.2619 146.158 45.558 145.68 47.7594C145.648 47.9065 145.601 48.1009 145.496 48.1692C143.573 49.3462 142.895 52.0205 140.357 52.4566C139.559 52.5932 139.296 53.0765 139.349 53.8541C139.438 55.1466 138.913 56.3919 139.244 57.7474C139.501 58.8192 138.208 59.5023 138.061 60.6319C137.631 63.9367 134.883 65.534 132.576 67.3046C132.119 67.6566 130.763 68.0717 129.639 67.8037C127.889 67.3781 126.271 66.4955 124.453 66.3273C124.354 66.3536 124.254 66.3536 124.159 66.3221L124.18 66.3431C124.406 63.8527 124.396 61.3412 124.07 58.8876C123.797 56.8227 124.023 54.6843 123.287 52.6825C123.996 52.9242 123.886 52.3988 123.865 52.0257C123.77 50.397 123.655 48.7682 123.555 47.1447C123.529 46.7296 123.518 46.3198 122.956 46.2778C122.956 43.5824 122.436 40.9186 122.346 38.2443C122.231 34.8659 121.443 31.5716 121.532 28.1407C121.595 25.7133 121.101 23.2071 121.075 20.7167C121.059 19.3822 118.669 16.4924 117.476 16.277C117.14 16.2192 116.919 16.4189 116.656 16.5765C114.949 17.6011 114.928 19.3139 114.964 20.9689C115.043 24.5259 115.49 28.0934 115.274 31.6242C115.101 34.4719 115.364 37.2565 115.527 40.0622C115.721 43.3618 116 46.6613 116.241 49.9556L116.22 49.9504ZM91.6417 9.48877C91.9464 9.18403 92.0305 8.88455 91.6417 8.57981C91.6259 8.32762 91.5471 8.05966 91.6101 7.82848C92.2406 5.54296 89.0672 6.58326 89.0251 4.87044C89.0251 4.71281 88.836 4.3713 88.505 4.43435C88.3631 4.46062 88.2475 4.58146 88.1057 4.634C86.2247 5.3433 85.568 6.36259 85.6152 8.74269C85.7624 15.8147 85.1949 22.8867 85.631 29.9586C85.6888 30.9359 85.8307 31.8659 86.23 32.738C86.624 33.5944 87.0759 34.3353 88.2948 33.8309C88.9358 33.5629 89.6661 33.6628 90.3544 33.9885C90.9902 34.288 92.7135 33.5524 92.6399 33.027C92.3142 30.7625 93.3335 28.5085 92.7398 26.2913C92.2669 24.5312 92.5506 22.7763 92.3772 21.0582C92.1986 19.3244 92.2932 17.559 91.8623 15.7937C91.3737 13.7918 91.6837 11.6009 91.6469 9.49402L91.6417 9.48877ZM105.281 9.97739C105.061 9.55707 105.66 8.65862 104.677 8.73218C103.574 8.81625 102.87 8.25406 102.197 7.57103C101.835 7.2085 101.477 6.93529 101.031 7.3346C100.101 8.16474 99.3231 9.0159 99.239 10.4345C99.0867 13.0405 98.9553 15.6413 98.9553 18.2473C98.9553 21.8884 98.7767 25.5557 99.1182 29.1705C99.4177 32.365 99.3546 35.57 99.6173 38.7592C99.8328 41.4283 99.9431 44.1761 99.9694 46.8925C99.9956 49.5353 101.073 50.2341 103.758 49.8716C104.062 49.8295 104.341 49.8453 104.64 49.9504C106.033 50.4443 106.647 50.0292 106.789 48.5528C106.915 47.2288 106.784 45.91 107.12 44.5702C107.388 43.4931 107.346 42.2006 107.005 41.1446C106.526 39.6787 106.532 38.3284 106.689 36.8204C106.81 35.6225 107.115 34.2144 106.237 33.0585C105.901 32.6119 106.027 32.1969 106.096 31.6662C106.295 30.2056 106.479 28.7029 105.775 27.2896C105.407 26.5487 105.996 25.5977 105.255 24.9357C106.301 24.5469 105.975 23.6117 105.728 23.0653C105.008 21.4733 105.218 19.6922 105.255 18.1843C105.329 15.4469 104.761 12.699 105.276 9.97214L105.281 9.97739Z" fill="#D5ECB1"/>
<path d="M92.0356 46.9189C93.0182 48.9049 93.9061 50.9487 95.5874 52.4934C95.5454 52.7456 95.5716 52.9558 95.8974 52.9611H95.8659C97.0007 55.7352 98.0568 58.5304 100.626 60.4271C103.684 62.6863 105.88 65.6917 107.766 68.9597C110.488 73.6779 111.612 78.8269 112.259 84.1755C112.842 88.9935 112.222 93.6538 110.956 98.2459C110.225 100.894 108.744 103.227 107.041 105.407C106.474 106.138 106.169 106.978 106.81 108.034C108.076 110.125 109.437 112.164 110.477 114.397C111.118 115.773 112.563 116.567 113.693 117.539C118.716 121.858 122.336 126.996 123.849 133.548C124.285 135.434 125.215 137.21 125.268 139.201C125.315 140.961 124.532 141.813 122.578 141.807C121.264 141.807 121.054 140.51 120.959 139.606C120.634 136.496 119.173 133.753 118.364 130.805C117.444 127.459 115.091 124.942 113.183 122.189C112.411 121.075 111.192 120.213 110.041 119.425C107.819 117.912 106.668 115.668 105.518 113.372C104.551 111.439 103.453 109.568 102.391 107.682C101.966 106.926 101.913 106.211 102.213 105.37C103.106 102.864 105.092 100.968 106.006 98.5086C107.399 94.7677 108.208 90.9375 107.961 86.8603C107.772 83.6816 107.514 80.5134 106.7 77.4713C105.055 71.3135 102.26 65.6339 96.9902 61.8562C94.5051 60.0698 93.7222 57.5216 92.23 55.2834C90.5067 52.7036 89.2405 49.7929 87.3228 47.3865C84.8113 44.2235 81.6536 41.6595 78.4696 39.1323C74.4765 35.9641 70.0158 33.7837 65.2084 32.3861C60.7792 31.0989 56.2869 30.6733 51.8945 33.0744C50.166 34.0201 48.5477 34.8293 47.4181 36.5526C46.7823 37.5141 46.8191 38.5386 46.5301 39.5264C46.3778 40.0465 46.9925 40.0781 47.3235 40.2357C48.7211 40.9082 50.0924 41.649 51.5373 42.2007C53.0662 42.7839 52.2098 43.7507 51.9471 44.4915C51.6423 45.3426 50.8385 45.3847 50.0451 45.0852C48.0643 44.3444 46.0205 43.7402 44.1238 42.8207C41.502 41.5492 38.7173 41.0711 35.9011 40.7191C31.9869 40.2252 28.1671 40.5247 24.2476 41.3968C19.7501 42.4004 16.4979 44.7805 14.1756 48.4688C12.3734 51.3375 12.3156 54.5058 13.6817 57.7265C14.722 60.1749 15.5574 62.7021 17.0968 64.9193C18.631 67.1313 20.0233 69.4221 22.1828 71.1664C24.111 72.7216 24.2371 74.5238 23.3702 76.9564C22.3719 79.7621 21.6679 82.6466 21.2896 85.6361C20.7537 89.8657 21.4209 93.9218 22.5873 97.9201C23.0917 99.6435 24.0164 101.162 25.1671 102.665C26.5541 104.472 28.3931 105.77 29.7276 107.567C29.9062 107.808 30.1112 108.045 30.3581 108.213C33.4212 110.293 33.0114 111.029 31.7452 114.287C30.6786 117.029 28.908 119.488 27.6523 122.173C25.6032 126.55 24.2108 131.152 23.4753 135.939C23.3544 136.732 23.2073 137.525 23.181 138.319C23.1075 140.226 22.6609 140.956 20.9691 141.208C20.3071 141.308 19.5505 140.935 19.3771 140.131C19.1459 139.054 18.92 137.951 19.1196 136.848C20.0023 131.924 20.822 127.012 23.0182 122.409C24.4998 119.309 26.2914 116.399 27.9255 113.399C28.3405 112.637 28.1356 112.227 27.6155 111.702C25.5244 109.605 23.3492 107.603 21.5891 105.166C18.7676 101.262 17.4278 96.9639 17.1966 92.1932C16.9865 87.7903 17.2597 83.4715 18.5049 79.2314C18.8779 77.9652 19.4086 76.7778 19.934 75.5798C20.1232 75.149 20.3964 74.7339 19.955 74.3399C18.279 72.8425 16.8341 71.1349 15.4103 69.4063C15.3525 69.3327 15.2369 69.3012 15.1528 69.2487C13.7815 66.7582 12.2368 64.3466 11.0704 61.7616C9.21046 57.6319 7.95473 53.3236 9.46791 48.7736C10.277 46.3514 12.0056 44.4757 13.7185 42.6315C16.5189 39.6105 20.2335 38.4178 24.0795 37.451C29.7749 36.0167 35.402 36.2794 41.0028 37.9502C41.1447 37.9922 41.3076 37.9817 41.4494 38.0342C42.8733 38.5702 43.6036 38.402 43.84 36.5789C44.2971 33.0796 46.8716 31.2407 49.7771 29.675C54.8999 26.9114 60.1855 26.9849 65.6024 28.4456C70.6306 29.8011 75.2331 32.0131 79.4469 35.1025C82.3261 37.2146 85.1055 39.4318 87.6695 41.9117C88.1686 42.3951 88.5364 43.0204 88.962 43.5773C89.9813 44.6911 90.5172 46.2569 92.0251 46.9241L92.0356 46.9189ZM22.9341 139.722C22.9078 139.69 22.8816 139.637 22.8553 139.637C22.8238 139.637 22.7922 139.68 22.7607 139.706C22.787 139.737 22.8132 139.79 22.8395 139.79C22.871 139.79 22.9026 139.748 22.9341 139.722Z" fill="#EBB96E"/>
<path d="M91.2371 71.2242C93.0708 70.4991 94.6155 71.4501 96.0866 72.233C97.3003 72.8792 97.0691 76.3574 95.929 77.2979C94.7836 78.2436 93.4543 78.8951 92.0778 79.2366C89.8238 79.7936 87.6801 80.7025 85.3473 81.0651C83.6187 81.333 81.9269 81.1701 80.2246 81.2752C76.2 81.5327 72.0755 81.2017 68.445 83.6133C65.6393 85.4785 63.2434 87.8376 60.6216 89.9182C58.5673 91.5469 56.3081 92.934 54.3483 94.6679C53.2554 95.6346 51.9734 96.1495 50.7913 96.8535C47.3919 98.8816 43.7823 96.9271 42.9207 93.7589C42.3059 91.4891 43.6352 89.4926 44.9645 87.6747C45.1694 87.391 45.3953 87.1177 45.6108 86.8393C50.2186 86.792 53.9542 84.5538 57.5375 82.0003C58.8142 81.0861 59.0139 79.762 58.2888 78.5378C59.0349 78.5799 59.6076 78.1648 60.2486 77.8706C64.5622 75.8951 69.0334 74.3293 73.5046 72.7636C73.7778 72.6691 74.1036 72.7268 74.4031 72.7163C75.1859 75.9003 76.2105 76.2155 79.2631 76.2891C81.7903 76.3521 84.1126 75.3907 86.5137 74.818C88.5838 74.3241 90.5699 73.6043 91.2371 71.2137V71.2242ZM70.079 78.9161C69.2173 79.1105 68.3872 79.4783 68.3661 80.3873C68.3346 81.5169 69.5483 81.3856 70.2366 81.7166C70.3942 81.7901 71.4345 81.4959 71.2454 80.9232C71.0089 80.2139 71.1823 79.1263 70.079 78.9161Z" fill="#E7EE96"/>
<path d="M124.143 66.317C124.243 66.3485 124.338 66.3485 124.437 66.3222C124.753 67.9142 124.117 69.6113 125.063 71.1612C125.462 71.818 124.359 74.5764 123.654 74.8916C123.376 75.0177 122.971 74.8128 122.635 74.8496C122.294 74.8916 121.868 74.9494 121.647 75.1648C121.138 75.6692 120.786 76.5782 119.898 76.0738C118.921 75.5169 117.964 74.797 117.838 73.5308C117.076 65.8861 116.309 58.2362 116.204 50.5442C116.204 50.3446 116.215 50.1397 116.225 49.94C115.984 46.6405 115.705 43.3462 115.516 40.0466C115.353 37.2409 115.09 34.4563 115.264 31.6086C115.479 28.0778 115.033 24.5103 114.954 20.9533C114.917 19.2983 114.938 17.5907 116.646 16.5609C116.908 16.4033 117.129 16.2036 117.465 16.2614C118.653 16.4716 121.048 19.3613 121.064 20.7011C121.09 23.1915 121.584 25.6925 121.521 28.1251C121.437 31.556 122.22 34.8503 122.336 38.2287C122.425 40.9083 122.945 43.5668 122.945 46.2622C122.945 46.7666 122.882 47.2394 122.693 47.7281C122.273 48.8157 122.057 49.9453 122.94 50.9436C123.408 51.4742 123.161 52.0942 123.271 52.6721C124.006 54.6792 123.781 56.8124 124.054 58.8772C124.38 61.3361 124.39 63.8423 124.164 66.3327C124.096 66.4431 124.033 66.5481 123.964 66.6585C124.033 66.6795 124.096 66.7005 124.164 66.7215L124.143 66.3117V66.317Z" fill="#9FB44F"/>
<path d="M60.9525 100.174C66.6847 100.61 71.9598 102.281 76.2839 106.468C77.8233 107.961 79.1631 109.631 79.8619 111.533C80.5291 113.346 81.3488 115.195 81.0493 117.397C80.7971 119.231 81.0388 121.159 80.6027 123.024C79.8409 126.292 78.2699 129.14 76.4835 131.951C74.9493 134.357 72.7584 136.08 70.5674 137.594C68.3765 139.107 66.3221 140.914 63.8475 142.039C63.1224 142.37 62.1557 142.238 61.8877 141.76C61.4201 140.925 60.8211 139.821 61.7248 138.86C62.3711 138.166 63.0646 137.42 63.8948 137.005C66.5533 135.681 68.676 133.6 70.6462 131.562C75.2436 126.791 77.6499 120.97 76.7147 114.223C76.3469 111.57 74.4344 109.668 72.2908 108.118C69.2066 105.885 65.6234 104.609 61.9508 104.414C58.0838 104.209 54.2168 105.034 50.7543 107.125C46.5931 109.647 43.241 112.978 40.656 117.071C39.9257 118.227 38.8381 117.912 38.0395 117.744C37.162 117.565 37.1988 116.556 37.4247 115.7C37.6454 114.849 38.0763 114.124 38.5439 113.404C42.1639 107.808 46.9819 103.689 53.3026 101.43C55.7457 100.552 58.3044 100.342 60.9577 100.179L60.9525 100.174Z" fill="#EBB96F"/>
<path d="M50.9489 51.017C50.9016 51.8262 50.9226 52.3778 50.8333 52.9138C50.3184 56.0242 47.5968 56.8596 45.0276 55.7299C40.7507 53.8437 36.4897 51.8472 31.8398 51.0223C29.7592 50.6493 28.6138 49.341 27.831 47.6124C27.1007 45.9994 27.8205 44.2866 29.5333 43.9135C36.4739 42.3951 43.1361 42.8365 48.9944 47.3707C50.1818 48.2902 50.9226 49.6562 50.9542 51.017H50.9489Z" fill="#FECE78"/>
<path d="M81.081 133.606C81.37 128.562 82.8569 124.043 86.5242 120.292C89.3036 117.444 92.5086 115.584 96.4019 114.917C99.3231 114.418 102.092 115.09 104.808 116.136C106.08 116.625 106.28 117.765 105.933 118.684C105.649 119.43 104.588 119.766 103.626 119.483C101.971 118.989 100.269 118.9 98.5613 118.847C95.5612 118.758 93.2284 120.234 90.9691 121.989C87.4384 124.737 86.1144 128.625 85.6205 132.776C85.3946 134.672 85.673 136.753 86.8079 138.529C87.5067 139.622 87.3754 141.413 86.6713 141.823C85.8464 142.306 83.5031 141.587 82.9304 140.667C81.5959 138.513 81.0127 136.164 81.0862 133.611L81.081 133.606Z" fill="#EBB96F"/>
<path d="M58.2205 37.0412C58.2205 35.1707 59.9018 33.936 62.0139 34.267C64.6725 34.6768 67.1524 35.6488 69.5535 36.8047C71.7497 37.8608 73.8881 39.0114 75.5326 40.9239C76.7095 42.2952 76.7936 44.2708 75.5326 46.0624C74.7288 47.2025 73.2996 47.4127 71.6183 46.6982C68.4239 45.3321 65.7128 43.1149 62.5919 41.6122C61.3624 41.0238 59.8913 40.8661 59.0086 39.5631C58.4674 38.7645 58.1837 37.9711 58.2205 37.0359V37.0412Z" fill="#FECE78"/>
<path d="M58.2889 78.5378C59.0139 79.762 58.8195 81.0912 57.5375 82.0002C53.9543 84.5537 50.2186 86.7919 45.6108 86.8392C45.2062 86.4346 44.6651 86.7814 44.1817 86.545C41.8121 85.3891 40.5774 83.6079 42.6895 80.8916C43.8927 79.3469 45.6108 78.5115 47.4392 77.9178C49.5093 77.2453 51.5952 76.6043 53.6653 75.9317C55.5095 75.3328 57.5375 76.4624 58.2836 78.5325L58.2889 78.5378ZM46.8192 84.4433C50.019 83.6973 52.9245 82.2734 55.5935 80.3399C55.9718 80.0667 56.4972 79.7094 56.3291 79.1262C56.1715 78.5851 55.562 78.5483 55.1154 78.3434C54.7739 78.1857 54.4534 78.2646 54.0961 78.3171C51.6477 78.6744 49.4253 79.6989 47.145 80.5763C46.2045 80.9389 45.3796 81.3855 44.7281 82.121C44.3078 82.5992 44.0503 83.2297 44.2237 83.8444C44.3866 84.4433 44.9645 84.3015 45.4742 84.333C45.9103 84.3593 46.3359 84.5327 46.8245 84.4433H46.8192Z" fill="#10100E"/>
<path d="M91.2369 71.2242C90.5696 73.6095 88.5783 74.3346 86.5135 74.8284C84.1176 75.4011 81.7901 76.3574 79.2628 76.2996C76.205 76.226 75.1804 75.9108 74.4028 72.7268C75.3853 70.1155 77.466 68.8861 79.9879 68.0665C82.6465 67.2048 85.3576 67.4675 88.0266 67.5831C90.37 67.6829 90.8954 68.5341 91.2369 71.2242ZM83.3295 69.8371C81.5431 69.4535 79.6832 70.5043 77.9178 71.7496C77.4187 72.1016 76.7934 72.6638 76.9668 73.3153C77.135 73.951 77.902 73.8985 78.5168 73.951C80.487 74.1191 82.2314 73.2207 84.0703 72.8109C85.4627 72.4956 86.8077 71.9335 88.1475 71.4186C88.4943 71.2872 88.9093 71.014 88.862 70.5359C88.82 70.1313 88.3787 70.2994 88.1317 70.1996C86.7446 69.6427 85.284 69.8528 83.319 69.8266L83.3295 69.8371Z" fill="#0F100D"/>
<path d="M66.6059 54.7106C66.4273 55.1625 66.3012 56.3709 66.1383 56.2868C65.1663 55.793 64.3677 57.2588 63.1855 56.1292C61.0051 54.0486 59.4656 51.39 57.0172 49.5669C56.3552 49.073 56.124 48.1168 56.8228 47.2709C57.5374 46.4039 58.1626 46.8926 58.9192 47.2603C61.8982 48.7105 64.0629 51.0801 66.2013 53.4969C66.5008 53.8332 66.6006 54.1642 66.6059 54.7106Z" fill="#ECBB72"/>
<path d="M80.219 66.0227C78.254 66.0963 76.3205 65.4132 74.471 64.4202C73.8983 64.1155 73.4412 63.7162 73.809 62.9964C74.1558 62.3239 74.9281 62.0611 75.4273 62.4027C76.9982 63.464 78.7216 63.7162 80.5132 63.6426C81.585 63.5953 82.2628 64.0997 82.2208 65.0402C82.1735 66.0595 81.2435 66.1488 80.2137 66.028L80.219 66.0227Z" fill="#0F100D"/>
<path d="M102.58 53.8646C102.622 53.9014 102.665 53.9435 102.707 53.9802C102.68 53.9697 102.643 53.9697 102.633 53.954C102.612 53.9224 102.607 53.8857 102.591 53.8489L102.575 53.8646H102.58Z" fill="#D5ECB1"/>
<path d="M105.281 9.97749C104.766 12.7096 105.333 15.4522 105.26 18.1896C105.218 19.6975 105.013 21.4787 105.733 23.0706C105.98 23.6171 106.305 24.547 105.26 24.9411C106.001 25.5979 105.407 26.5488 105.78 27.2949C106.484 28.703 106.3 30.2109 106.101 31.6716C106.027 32.197 105.901 32.6173 106.242 33.0639C107.12 34.2198 106.815 35.6279 106.694 36.8258C106.542 38.3337 106.531 39.684 107.009 41.1499C107.351 42.206 107.398 43.4985 107.125 44.5756C106.789 45.9153 106.92 47.2341 106.794 48.5581C106.652 50.0345 106.032 50.4549 104.645 49.9557C104.34 49.8454 104.067 49.8349 103.762 49.8769C101.078 50.2394 100.001 49.5407 99.9743 46.8979C99.948 44.1815 99.8429 41.4336 99.6222 38.7646C99.3648 35.5701 99.4226 32.3651 99.1231 29.1759C98.7869 25.5611 98.9655 21.899 98.9602 18.2527C98.9602 15.6466 99.0916 13.0406 99.244 10.4399C99.328 9.02125 100.106 8.17009 101.036 7.33995C101.482 6.94064 101.839 7.21385 102.202 7.57638C102.88 8.25941 103.584 8.8216 104.682 8.73753C105.664 8.66398 105.06 9.56242 105.286 9.98275L105.281 9.97749Z" fill="#9FB550"/>
<path d="M91.6417 9.48888C91.6785 11.5958 91.3685 13.792 91.8572 15.7885C92.288 17.5591 92.1934 19.3192 92.372 21.0531C92.5507 22.7659 92.267 24.526 92.7346 26.2861C93.3283 28.5034 92.309 30.7626 92.6348 33.0219C92.7136 33.5525 90.985 34.2828 90.3492 33.9834C89.661 33.6576 88.9306 33.5578 88.2896 33.8257C87.0707 34.3301 86.6188 33.5893 86.2248 32.7329C85.8255 31.8607 85.6836 30.9255 85.6258 29.9535C85.195 22.8815 85.7624 15.8095 85.6101 8.73755C85.5575 6.35745 86.2195 5.33816 88.1005 4.62886C88.2371 4.57632 88.3579 4.45548 88.4998 4.42921C88.8308 4.36616 89.0147 4.71293 89.02 4.8653C89.062 6.57812 92.2354 5.53782 91.605 7.82334C91.5419 8.05452 91.6207 8.32247 91.6365 8.57467L91.6522 8.56416C91.5472 8.56942 91.4368 8.57467 91.3317 8.57992C91.2897 8.52738 91.2477 8.47484 91.2057 8.41705C91.2109 8.44857 91.2056 8.4906 91.2267 8.50637C91.2634 8.53264 91.3107 8.54314 91.3528 8.55891C91.3633 8.89517 91.2109 9.28922 91.6522 9.48888L91.6417 9.47837V9.48888Z" fill="#9FB550"/>
<path d="M123.271 52.6773C123.161 52.1046 123.408 51.4794 122.94 50.9487C122.058 49.9557 122.273 48.8261 122.693 47.7332C122.883 47.2446 122.946 46.7717 122.946 46.2673C123.508 46.3094 123.518 46.7192 123.545 47.1343C123.644 48.763 123.765 50.3865 123.855 52.0153C123.876 52.3883 123.986 52.9085 123.277 52.672L123.271 52.6773Z" fill="#B6C973"/>
<path d="M91.6415 8.57984C92.0303 8.88458 91.9462 9.18406 91.6415 9.4888L91.652 9.49931C91.652 9.18932 91.652 8.87933 91.652 8.56934L91.6362 8.57984H91.6415Z" fill="#9FB550"/>
<path d="M95.8976 52.961C95.5719 52.9505 95.5456 52.7403 95.5876 52.4934C95.6927 52.651 95.7925 52.8087 95.8976 52.961Z" fill="#FEFEFE"/>
<path d="M22.9341 139.722C22.9026 139.748 22.8658 139.79 22.8396 139.79C22.808 139.79 22.787 139.737 22.7607 139.706C22.7923 139.679 22.829 139.637 22.8553 139.637C22.8868 139.637 22.9079 139.69 22.9341 139.722Z" fill="#FEFEFE"/>
<path d="M70.0787 78.916C71.1768 79.1314 71.0086 80.2138 71.2451 80.9231C71.4342 81.4958 70.3939 81.7952 70.2363 81.7164C69.548 81.3854 68.3343 81.5168 68.3658 80.3872C68.3921 79.4782 69.217 79.1104 70.0787 78.916Z" fill="#0F100D"/>
<path d="M124.143 66.3169L124.164 66.7267C124.096 66.7057 124.033 66.6847 123.964 66.6637C124.033 66.5533 124.096 66.4482 124.164 66.3379L124.143 66.3169Z" fill="#FEFEFE"/>
<path d="M46.819 84.4433C46.3303 84.5327 45.9048 84.3593 45.4687 84.333C44.959 84.3067 44.3811 84.4433 44.2182 83.8444C44.0501 83.2244 44.3023 82.5992 44.7226 82.121C45.3741 81.3855 46.2042 80.9389 47.1395 80.5763C49.4197 79.6989 51.6369 78.6744 54.0906 78.3171C54.4479 78.2646 54.7684 78.1857 55.1099 78.3434C55.5565 78.5483 56.1712 78.5851 56.3236 79.1262C56.4917 79.7094 55.9715 80.0614 55.588 80.3399C52.9189 82.2734 50.0134 83.6973 46.8137 84.4433H46.819Z" fill="#F5F5F5"/>
<path d="M83.3297 69.837C85.2894 69.8633 86.7553 69.6479 88.1424 70.2101C88.3841 70.3099 88.8307 70.1418 88.8727 70.5463C88.92 71.0245 88.4997 71.2977 88.1582 71.429C86.8184 71.9439 85.4733 72.5061 84.081 72.8213C82.2421 73.2364 80.4977 74.1349 78.5274 73.9615C77.9127 73.9089 77.1456 73.9615 76.9775 73.3257C76.8041 72.6742 77.4241 72.112 77.9285 71.76C79.6938 70.5096 81.5538 69.464 83.3402 69.8475L83.3297 69.837Z" fill="#F2F2F2"/>
<path d="M91.6574 8.56934C91.6574 8.87933 91.6574 9.18932 91.6574 9.49931C91.2161 9.29965 91.3684 8.91085 91.3579 8.56934L91.3369 8.59035C91.442 8.5851 91.5523 8.57984 91.6574 8.57459V8.56934Z" fill="#D5ECB1"/>
<path d="M91.3527 8.56935C91.3106 8.55359 91.2634 8.54308 91.2266 8.51681C91.2056 8.50105 91.2108 8.45901 91.2056 8.42749C91.2476 8.48003 91.2896 8.53257 91.3317 8.59037L91.3527 8.56935Z" fill="#D5ECB1"/>
</g>
<circle cx="70" cy="70" r="68.5" stroke="#FFE9BA" stroke-width="3"/>
</svg>
