<svg width="140" height="140" viewBox="0 0 140 140" fill="none" xmlns="http://www.w3.org/2000/svg">
<path d="M70 140C108.66 140 140 108.66 140 70C140 31.3401 108.66 0 70 0C31.3401 0 0 31.3401 0 70C0 108.66 31.3401 140 70 140Z" fill="#C9EDF5"/>
<mask id="mask0_54900_27952" style="mask-type:luminance" maskUnits="userSpaceOnUse" x="0" y="0" width="140" height="140">
<path d="M70 140C108.66 140 140 108.66 140 70C140 31.3401 108.66 0 70 0C31.3401 0 0 31.3401 0 70C0 108.66 31.3401 140 70 140Z" fill="white"/>
</mask>
<g mask="url(#mask0_54900_27952)">
<path d="M25.8921 140.988L30.1164 129.923L26.5699 123.592L28.0042 107.357L35.9852 97.3003L30.253 87.307L29.1654 73.5413L35.4125 58.541L41.6596 52.6512L39.3057 44.749L40.1779 34.9554L47.0345 29.7434H58.0838L70.2207 34.7085L78.5431 34.9554L92.2878 34.7085H110.462L116.194 38.0133L119.604 46.9137L118.222 54.2747L111.145 63.0017L110.052 66.3012L111.554 84.764L108.554 98.4404L106.232 104.22L109.248 112.679L114.145 135.729L113.462 140.988H25.8921Z" fill="#FEFEFE"/>
<path d="M12.0162 125.919C11.4698 126.912 10.7605 127.6 9.49423 127.359C8.23325 127.117 8.28054 125.972 7.94428 125.115C7.80767 124.768 7.88123 124.343 7.86021 123.949C7.82343 123.276 7.24549 122.935 6.79889 122.898C6.13162 122.835 6.43111 123.549 6.3628 123.917C6.2262 124.721 6.28925 125.577 6.05281 126.345C5.76384 127.275 5.70079 128.388 4.14033 128.388C2.91613 128.388 3.23663 129.802 2.89512 130.579C2.69021 131.042 2.83732 131.94 2.33293 131.961C1.05094 132.024 -0.0261483 133.122 -1.37644 132.644C-1.67593 132.539 -1.74948 132.297 -1.75999 131.945C-1.82304 129.071 -2.12778 126.192 -1.95439 123.334C-1.81253 120.985 -2.31167 118.6 -1.62339 116.278C-1.33441 115.316 -1.67593 114.35 -1.74423 113.388C-2.05947 108.665 -1.67067 103.967 -1.47627 99.2546C-1.39746 97.3263 -1.25035 95.4033 -1.72847 93.412C-2.13828 91.6939 -1.66542 89.7657 -1.56034 87.9268C-1.46051 86.1404 -1.93338 84.4066 -2.04897 82.6727C-2.31167 78.7532 -1.74948 74.8021 -2.04897 70.8405C-2.15405 69.4009 -1.72847 67.851 -1.48678 66.3693C-1.13476 64.1994 0.877552 63.4848 2.73749 64.6618C3.27866 65.0085 3.80932 65.3553 4.47659 65.576C5.5852 65.9437 5.92146 67.0944 5.96875 68.245C6.00553 69.1225 6.45212 69.6058 7.35057 69.5323C7.73937 69.5007 8.12817 69.485 8.11766 69.9368C8.09139 71.3239 9.10543 72.5481 8.7429 73.9667C8.56426 74.6602 8.72713 75.275 8.99509 75.895C9.33661 76.6883 9.96184 76.4676 10.6186 76.4782C11.081 76.4887 11.6642 76.5937 11.6799 77.5868C11.6957 78.7847 12.1213 80.0036 12.1318 81.2489C12.1423 82.3102 13.1668 82.2839 13.7921 82.6359C14.3542 82.9512 14.9847 83.1613 15.631 83.3295C16.356 83.5186 17.1126 83.8286 16.9182 84.9425C16.8132 85.5362 17.1442 86.4294 17.7221 86.3663C18.1529 86.319 19.0041 86.1824 19.209 85.1894C19.4349 84.0808 19.9025 82.9459 20.7852 82.0895C20.9429 81.9371 21.0795 81.6744 21.0847 81.459C21.1425 78.6533 21.836 75.8897 21.6574 73.084C21.5628 71.5919 22.0882 70.3204 22.6609 69.0594C23.1496 67.9823 24.626 67.6198 25.1724 68.4552C25.9605 69.6636 26.9798 69.5848 28.1094 69.4587C27.3055 72.3327 26.612 75.1804 26.4596 78.233C26.2337 82.762 27.3791 86.8602 29.1655 90.8743C30.1953 93.1809 31.7242 95.2037 33.0272 97.3578C33.2742 97.7624 33.3845 97.9883 32.9957 98.3351C31.1357 99.9796 29.8065 102.023 28.4352 104.078C25.1829 108.943 23.9745 114.339 24.1794 120.045C24.2949 123.323 25.3458 126.439 27.3528 129.14C25.7976 130.175 24.1794 131.068 22.2774 131.283C22.2774 131.184 22.2774 131.078 22.2721 130.979C23.3755 130.201 22.703 129.523 22.0672 128.998C21.4788 128.509 20.9481 127.979 20.8588 127.248C20.5646 124.742 19.6031 123.796 17.1547 123.828C16.8342 123.828 16.5242 123.775 16.3718 123.534C16.1459 123.182 16.4086 122.793 16.6818 122.672C17.5487 122.273 17.7379 121.18 18.7414 120.854C19.2038 120.702 19.4665 120.124 19.23 119.294C18.8938 118.127 18.0479 117.476 17.3018 116.798C16.5137 116.083 16.6293 115.684 17.1862 115.001C18.1267 113.845 19.3351 112.962 20.3754 111.922C21.442 110.861 21.153 110.419 20.3964 109.568C19.3351 108.381 17.969 107.577 16.7921 106.537C15.5574 105.444 15.4891 105.055 16.7764 104.046C17.7484 103.29 18.4314 102.281 19.2931 101.435C19.8553 100.883 19.6346 100.19 19.1249 99.9271C18.4945 99.6066 18.0111 98.477 17.0076 99.3124C15.4313 100.621 13.8393 101.903 12.2631 103.211C11.4225 103.91 11.1335 105.99 11.9636 106.563C13.5819 107.687 14.9322 109.106 16.4716 110.356C15.3 111.733 13.7343 112.747 12.778 114.339C12.0319 115.584 12.489 117.35 13.7185 118.027C14.4278 118.421 14.68 118.91 14.0337 119.693C12.5521 121.485 11.6799 123.513 12.0057 125.914L12.0162 125.919Z" fill="#DFCCEF"/>
<path d="M113.562 78.748C114.676 78.3172 115.669 78.0965 116.315 79.5414C116.635 80.2612 117.576 80.1035 118.238 80.3505L118.227 80.34C118.774 82.1369 118.705 84.0021 118.79 85.8462C118.847 87.0652 119.147 88.2001 119.893 89.1931C120.213 89.6187 120.544 89.8236 120.875 89.1931C121.143 88.694 121.516 88.3472 122.1 88.2421C123.361 88.0109 123.471 87.0547 123.424 86.0406C123.319 83.9548 124.333 82.368 125.977 82.0265C126.329 81.953 126.671 81.8006 126.886 82.1789C127.128 82.5992 127.233 83.1667 127.905 82.9513C128.557 82.7411 128.735 82.1474 128.82 81.5589C129.04 79.9722 129.224 78.3802 129.408 76.7882C129.571 75.3801 129.755 73.9826 130.254 72.6428C130.501 71.9808 130.842 71.3765 131.478 71.0613C132.298 70.6567 133.196 70.1366 133.606 71.6025C133.827 72.3958 134.263 72.4957 134.825 71.8021C135.886 70.5044 136.948 69.2749 137.158 67.4517C137.284 66.3799 137.993 65.5077 139.149 64.9298C140.604 64.1995 140.347 65.0979 140.284 65.8598C140.168 67.2416 139.837 68.6181 139.848 69.9947C139.879 74.0036 139.99 78.0177 140.153 82.0213C140.326 86.2456 140.478 90.4803 140.258 94.6994C140.042 98.7975 140.321 102.906 139.974 106.983C139.575 111.759 139.916 116.535 139.695 121.301C139.517 125.178 139.753 129.066 139.475 132.944C139.401 133.974 139.118 134.809 138.188 134.825C137.336 134.84 136.123 134.357 136.039 133.406C135.876 131.478 134.483 130.285 133.732 128.725C133.527 128.299 133.37 128.021 132.75 128.247C131.741 128.614 130.259 127.8 130.059 126.76C129.781 125.299 129.455 123.838 129.545 122.262C129.382 122.331 129.172 122.362 129.161 122.43C128.746 124.795 126.214 126.134 126.156 128.667C126.156 128.877 126.014 129.14 125.846 129.071C124.658 128.599 124.012 129.45 123.135 129.97C122.378 130.422 121.417 130.112 120.818 129.261C120.607 128.961 120.45 128.504 119.924 128.693C119.473 128.851 119.341 129.266 119.42 129.649C119.719 131.084 118.579 131.814 117.97 132.807C117.712 133.222 117.487 132.917 117.276 132.844C116.746 132.66 116.32 132.749 115.973 133.201C115.28 131.945 115.69 130.558 115.49 129.266C114.87 125.362 114.76 121.338 113.331 117.597C112.858 116.357 113.057 114.933 112.322 113.845C111.528 112.674 111.161 111.339 110.593 110.083C109.81 108.339 109.238 106.447 107.914 105.066C107.456 104.588 107.372 104.341 107.693 104.041C108.323 103.447 108.523 102.623 109.033 101.971C111.045 99.4123 111.723 96.3018 112.311 93.2335C112.931 90.0075 113.173 86.7132 113.598 83.4504C113.635 83.1562 113.683 82.8935 113.593 82.594C113.194 81.312 113.346 80.0247 113.572 78.7375L113.562 78.748Z" fill="#DFCCEF"/>
<path d="M113.562 78.748C113.336 80.0352 113.183 81.3277 113.583 82.6044C113.677 82.8987 113.63 83.1666 113.588 83.4609C113.162 86.7236 112.921 90.0179 112.301 93.2439C111.712 96.3123 111.034 99.4227 109.022 101.981C108.512 102.633 108.313 103.458 107.682 104.052C107.367 104.351 107.446 104.598 107.903 105.076C109.227 106.458 109.8 108.349 110.582 110.094C111.145 111.344 111.518 112.679 112.311 113.856C113.047 114.943 112.847 116.367 113.32 117.607C114.744 121.348 114.859 125.367 115.479 129.276C115.684 130.564 115.269 131.956 115.963 133.212C115.9 135.534 115.879 137.856 115.758 140.173C115.705 141.214 114.034 142.648 113.167 142.401C111.98 142.06 111.765 141.019 111.812 139.932C112.085 133.695 111.36 127.516 110.251 121.422C109.448 116.998 108.187 112.637 106.09 108.575C105.581 107.588 105.039 106.574 104.677 105.538C104.172 104.104 104.02 102.496 104.955 101.162C107.819 97.0847 108.428 92.3613 109.195 87.6273C110.062 82.2944 109.369 77.0404 108.812 71.781C108.602 69.7898 108.486 67.6934 107.567 65.8177C107.309 65.2923 107.477 64.7721 107.777 64.4411C108.686 63.4428 108.849 62.1819 109.19 60.9734C109.61 59.4655 110.451 58.2781 111.801 57.4059C115.71 54.8735 118.138 51.2271 117.912 46.5983C117.728 42.9204 116.935 39.106 112.989 37.0884C111.98 36.5735 110.924 36.7049 109.968 36.5788C107.22 36.2057 104.435 35.964 101.619 35.964C98.1934 35.964 94.8202 36.3161 91.4681 36.7679C89.2877 37.0569 87.2701 36.3844 85.1685 36.4264C83.7499 36.4527 82.4522 37.0937 81.1544 37.5087C77.5396 38.6646 74.1087 38.5018 70.6358 37.0411C69.1856 36.4317 67.4886 36.4895 66.1278 35.5437C65.8913 35.3808 65.6076 35.2915 65.3659 35.1392C61.6776 32.8536 57.6372 31.5138 53.3446 31.1986C49.3095 30.9044 45.8786 32.5174 43.1149 35.4491C40.8347 37.866 40.6298 40.8766 41.0869 43.9292C41.4231 46.1675 42.5212 48.2113 43.2673 50.3444C44.0974 52.735 43.6981 53.7018 41.649 55.7246C38.3075 59.0189 35.0131 62.4025 33.4212 66.9263C32.1497 70.5306 30.7416 74.0718 30.6418 78.0754C30.5419 81.8741 31.5612 85.3208 32.6541 88.799C32.859 89.4505 33.4895 90.1808 34.0306 90.7693C35.134 91.9724 35.7907 93.4488 36.6839 94.7781C38.1708 96.9953 38.1393 98.3877 36.1112 100.279C32.4019 103.742 30.1636 108.055 28.7608 112.81C28.0778 115.122 27.8308 117.565 28.1776 120.019C28.2564 120.586 28.0935 121.185 28.1776 121.747C28.5349 124.227 29.8957 126.192 31.5822 127.937C32.9378 129.334 32.9588 129.555 31.5717 130.91C31.4404 131.036 31.3616 131.252 31.33 131.436C30.8624 134.268 28.9815 136.558 28.2669 139.312C28.1513 139.753 28.1566 140.82 27.048 140.94C24.6469 141.208 24.237 140.856 24.6416 138.46C24.9621 136.548 26.076 134.956 26.7958 133.206C27.3159 131.935 28.5664 130.695 27.3737 129.156C25.3667 126.455 24.3159 123.339 24.2003 120.061C23.9954 114.355 25.2038 108.959 28.4561 104.094C29.8274 102.039 31.1619 100.001 33.0166 98.3509C33.4054 98.0041 33.2951 97.7835 33.0481 97.3736C31.7451 95.2247 30.2109 93.1966 29.1864 90.8901C27.4 86.876 26.2546 82.7778 26.4805 78.2488C26.6329 75.1962 27.3264 72.3485 28.1303 69.4745C29.1864 65.5655 31.1987 62.1346 33.5525 58.9033C35.0814 56.8069 37.036 55.0731 38.9379 53.334C39.9835 52.383 39.9782 51.6317 39.4528 50.4285C38.1288 47.3917 37.0307 44.3128 37.0044 40.8871C36.9572 35.5069 39.8627 32.034 44.129 29.5226C49.0888 26.6013 54.3219 26.7589 59.6022 28.745C60.7791 29.1915 62.0453 29.3807 63.2538 29.7432C64.2205 30.0322 65.14 30.3895 65.8545 30.999C67.3099 32.2337 69.0385 32.6803 70.8091 33.0113C71.5657 33.1531 72.1121 33.6628 72.8267 33.8467C75.79 34.6243 78.7113 34.8187 81.6168 33.5472C83.4294 32.7538 85.447 32.4228 87.3069 32.8641C89.4716 33.379 91.4786 32.9219 93.533 32.6645C100.405 31.7976 107.225 31.7976 114.003 33.4473C115.931 33.915 116.971 35.3808 118.127 36.7364C120.124 39.085 120.676 41.9747 121.385 44.8802C122.352 48.8523 121.274 52.2096 119.309 55.5512C118.169 57.4847 116.845 59.1555 114.849 60.159C113.273 60.9524 113.115 62.5339 112.579 63.8842C112.332 64.5094 112.054 65.1189 111.801 65.7389C111.465 66.5743 111.444 67.5147 111.759 68.4184C112.668 71.0402 112.978 73.7723 113.078 76.5202C113.11 77.3136 113.498 77.9914 113.562 78.7585V78.748Z" fill="#EBB96F"/>
<path d="M67.7932 113.63C67.3466 115.857 67.4044 118.579 65.9175 121.059C64.7984 122.924 65.245 125.194 65.0401 127.29C64.7721 130.043 66.6216 131.741 68.1978 133.569C68.9912 134.488 69.9474 135.182 70.9877 135.818C71.4396 136.096 72.2907 136.469 71.655 137.425C70.9509 138.487 69.8371 138.939 68.6707 138.34C67.8983 137.94 67.1049 137.488 66.5007 136.879C64.3886 134.751 62.0873 132.755 61.378 129.602C61.1521 128.609 60.4796 129.339 60.1853 129.623C59.1293 130.642 57.8735 131.373 56.6861 132.208C54.4689 133.779 51.9207 134.22 49.3199 134.404C46.0204 134.641 42.7576 134.079 39.4896 133.742C38.4492 133.637 37.4194 133.243 36.4422 132.776C35.4492 132.303 35.2075 131.357 35.57 130.616C35.9325 129.87 36.6629 129.066 37.7925 129.355C41.1446 130.201 44.5965 130.227 48.0064 130.49C52.5407 130.842 55.835 128.515 58.6669 125.231C60.4848 123.119 61.667 120.654 62.6968 118.143C64.3623 114.071 64.2835 109.905 62.0873 106.064C60.7633 103.747 58.3359 102.633 55.8507 101.714C53.602 100.883 51.2271 100.978 48.9469 100.794C46.9241 100.631 44.6543 100.994 42.931 102.449C42.0168 103.221 41.0605 102.859 40.3144 102.523C39.4423 102.123 39.6577 101.209 40.2304 100.531C41.4388 99.1075 43.0203 98.2931 44.7751 97.7415C47.4127 96.9166 50.0502 97.4787 52.7035 97.5996C57.0014 97.7992 60.5794 99.5278 63.653 102.433C64.7301 103.447 65.3553 104.777 65.9911 106.064C66.3799 106.842 66.6163 107.078 67.3309 106.437C72.1331 102.097 77.9283 101.561 83.9863 102.181C88.0582 102.601 91.5311 104.383 94.6258 107.025C95.293 107.593 95.7239 108.271 96.0391 109.022C96.244 109.505 96.2125 110.057 95.6293 110.435C95.1249 110.761 94.7729 110.772 94.1792 110.509C92.3245 109.7 90.8428 108.307 89.0775 107.393C86.3926 106.011 83.4661 105.502 80.4766 105.644C76.7252 105.822 73.0368 106.426 69.9579 108.796C68.0139 110.293 67.4675 111.108 67.788 113.625L67.7932 113.63Z" fill="#EBB96F"/>
<path d="M87.6068 80.7392C89.4247 82.2261 89.6086 84.2647 89.3039 86.3506C89.0727 87.9268 86.3458 89.5923 84.1023 89.7184C82.4158 89.813 80.8974 89.2508 79.2896 88.7727C74.8972 87.4697 70.8989 85.1421 66.4276 84.0335C63.6377 83.34 60.9582 82.1893 58.2365 81.2173C54.8214 80.0037 51.3169 79.3574 47.6916 79.0894C44.5077 78.853 41.5759 77.9493 39.9997 74.6603C38.4497 71.4185 39.4375 67.604 43.4411 66.7949C44.7178 66.5375 46.0629 65.7336 47.2766 66.9841C45.2432 70.5253 47.3133 74.0981 50.76 74.9282C51.5954 75.1279 52.4361 75.2119 53.2609 75.5482C54.4273 76.0263 57.8425 74.8231 58.4415 73.8511C59.2821 72.4903 60.086 71.1033 60.9056 69.7319C65.1614 70.0735 69.1177 71.5078 73.032 73.084C73.5679 73.2995 74.0618 73.6515 74.6765 73.62C74.5032 74.8389 73.6888 76.0946 74.913 77.2348C75.0075 77.3241 74.9865 77.6341 74.913 77.7969C74.4874 78.7689 74.9445 79.6359 75.5697 80.1455C77.0882 81.3802 78.491 83.1876 80.9131 82.0422C81.1706 81.9214 81.6382 82.0002 81.9009 82.1631C84.2915 83.5922 85.9991 82.389 87.6016 80.7392H87.6068ZM64.1316 77.9808C64.7726 77.9651 65.5187 78.0071 65.6868 77.1454C65.8339 76.3889 64.8041 75.2855 64.0108 75.2855C63.0335 75.2855 62.6447 75.9107 62.5869 76.7829C62.5186 77.8758 63.2069 78.0754 64.1316 77.9808ZM59.0089 73.4466C58.9721 73.4045 58.9406 73.3678 58.9143 73.331C58.8828 73.3678 58.8197 73.3993 58.8197 73.4361C58.8197 73.4728 58.8723 73.5096 58.9038 73.5464C58.9406 73.5149 58.9721 73.4833 59.0089 73.4466Z" fill="#CAA2EC"/>
<path d="M23.1498 44.2864C25.5667 44.4073 25.7558 44.1656 25.1569 42.1165C24.6052 40.225 24.6105 38.26 24.4423 36.3265C24.3372 35.1233 25.1149 34.1724 26.5019 34.1776C27.3688 34.1776 27.7261 33.8256 28.0992 33.0427C29.0396 31.0672 30.1062 29.1862 32.3077 28.188C33.3165 27.7309 34.1624 27.3421 34.8612 28.3036C35.5179 29.2073 35.0345 30.1687 34.3883 30.9201C33.8208 31.5716 32.9749 31.9394 32.5494 32.7748C32.2184 33.421 31.8874 33.9727 31.8979 34.7923C31.9136 36.1794 30.6369 36.8782 29.6123 37.1094C28.2358 37.4194 28.3514 38.3231 28.6403 38.9956C29.1447 40.162 29.0239 41.423 29.5756 42.6104C30.4635 44.5229 29.4179 46.3565 27.3899 47.0501C27.0694 47.1604 26.7331 47.2392 26.4074 47.3443C25.6403 47.5965 24.4161 47.3601 24.1586 48.0431C23.7961 49.0204 24.0273 50.213 24.3005 51.2901C24.6052 52.5038 24.8627 53.7122 25.3303 54.8997C25.7506 55.9662 24.4949 57.5057 22.9712 58.194C21.5053 58.8612 20.0131 59.4655 18.4107 59.6756C17.612 59.7807 17.3388 60.159 17.6751 60.8525C18.6208 62.807 18.7627 64.998 19.5088 67.0103C19.6926 67.4989 19.6927 68.0191 19.9974 68.513C20.4492 69.2433 19.6559 70.8248 18.7522 71.1137C17.7276 71.4395 17.1549 70.8195 16.8607 69.9578C15.6785 66.4954 14.5174 63.0225 13.3983 59.539C13.02 58.3568 13.6505 57.4059 14.8221 57.0013C16.6663 56.3655 18.6261 56.1344 20.4492 55.404C21.0902 55.1466 21.2111 54.8156 21.0219 54.3165C20.155 52.0152 20.2706 49.5195 19.493 47.1867C18.915 45.4581 20.2706 44.2549 22.6087 44.2181C22.8976 44.2181 23.1814 44.2969 23.1393 44.2864H23.1498Z" fill="#CEA7EF"/>
<path d="M92.4509 39.2479C94.148 38.9379 95.6612 39.3425 96.6384 40.7085C97.8416 42.3951 97.8784 44.2235 96.7067 46.0361C96.0185 47.1027 94.7522 47.2603 93.8538 48.0012C92.1042 49.4355 90.5174 51.0906 88.4 52.0626C87.2914 52.5722 86.2196 52.7771 85.0217 52.567C83.1407 52.236 81.2282 52.1151 79.3525 51.6843C76.9462 51.1326 76.0215 49.0888 77.3928 47.0502C80.004 43.1569 83.4507 40.4353 88.1268 39.5684C89.5454 39.3057 91.0061 38.9904 92.4509 39.2479Z" fill="#EBB76A"/>
<path d="M122.147 21.3104C122.294 21.8201 122.557 22.75 122.835 23.68C122.919 23.9585 123.171 24.237 123.145 24.4891C122.998 25.7606 123.718 25.976 124.769 26.3754C126.313 26.9691 127.727 27.9936 128.347 29.7222C128.788 30.9517 127.995 31.8921 127.506 32.8379C126.429 34.9237 126.319 34.971 128.347 36.1952C129.177 36.6996 129.786 37.472 130.711 37.8555C131.273 38.0867 131.525 38.775 131.399 39.3634C131.158 40.4825 131.357 41.8118 130.117 42.5421C129.634 42.8259 129.634 43.1096 129.96 43.6035C131.856 46.4984 131.373 48.0431 128.946 50.376C128.241 51.0537 127.075 51.369 126.25 50.9066C125.352 50.4022 125.415 49.199 125.961 48.4319C127.175 46.7296 126.849 45.1902 125.93 43.5246C125.289 42.3635 125.593 41.2129 126.607 40.3775C127.627 39.5368 127.227 38.9851 126.303 38.6121C125.325 38.218 124.511 37.5981 123.749 36.9255C122.383 35.7224 122.247 34.3931 123.182 32.7906C123.329 32.5384 123.45 32.2652 123.592 32.013C124.853 29.822 124.842 29.8063 122.273 29.1915C119.782 28.5978 119.835 28.5926 119.698 26.0811C119.63 24.8254 119.32 23.5854 119.11 22.3402C118.979 21.5469 118.569 21.778 118.054 22.004C116.446 22.7133 115.117 23.8744 113.635 24.7834C112.369 25.5662 111.124 25.314 109.868 25.4717C109.411 25.5295 109.421 25.0146 109.327 24.7151C109.143 24.1581 109.301 23.5382 109.768 23.2912C112.637 21.7623 115.012 19.3927 118.154 18.3576C119.719 17.8427 122.262 19.4663 122.152 21.2999L122.147 21.3104Z" fill="#CEA7EF"/>
<path d="M22.288 130.979C22.288 131.079 22.288 131.184 22.2932 131.283C21.4263 131.147 20.8273 132.072 19.9446 131.877C18.0006 131.373 17.7432 129.665 17.2966 128.115C17.181 127.711 17.2546 127.022 16.6871 127.222C15.9305 127.49 15.3211 127.017 14.6433 127.117C13.9445 127.248 13.4559 126.76 12.8832 126.529C12.7045 126.187 12.4418 125.966 12.0425 125.945L12.0215 125.919C11.6957 123.518 12.5679 121.49 14.0496 119.698C14.6958 118.921 14.4436 118.427 13.7343 118.033C12.5049 117.355 12.0478 115.59 12.7938 114.344C13.7448 112.752 15.3158 111.733 16.4875 110.362C14.948 109.111 13.603 107.693 11.9795 106.568C11.1546 105.996 11.4383 103.91 12.2789 103.216C13.8552 101.908 15.4472 100.626 17.0234 99.3177C18.0216 98.4875 18.505 99.6119 19.1408 99.9324C19.6504 100.19 19.8711 100.883 19.3089 101.44C18.4472 102.291 17.7642 103.295 16.7922 104.052C15.5049 105.055 15.5785 105.444 16.808 106.542C17.9796 107.582 19.3509 108.386 20.4123 109.574C21.1688 110.425 21.4578 110.866 20.3912 111.927C19.3509 112.968 18.1372 113.85 17.202 115.006C16.6451 115.689 16.5295 116.089 17.3176 116.803C18.0584 117.481 18.9096 118.133 19.2458 119.299C19.4823 120.129 19.2196 120.712 18.7572 120.859C17.7589 121.185 17.5698 122.278 16.6976 122.677C16.4244 122.803 16.167 123.187 16.3876 123.539C16.54 123.781 16.85 123.833 17.1705 123.833C19.6136 123.802 20.5804 124.747 20.8746 127.254C20.9587 127.984 21.4893 128.515 22.083 129.003C22.724 129.534 23.3913 130.212 22.288 130.989C22.2459 130.963 22.2039 130.942 22.1671 130.916C22.2091 130.937 22.2512 130.958 22.2932 130.984L22.288 130.979Z" fill="#CCA4EE"/>
<path d="M58.0155 35.1076C59.4604 34.556 60.6426 35.6698 61.8458 36.253C64.4045 37.4982 66.7163 39.1112 67.0525 42.3635C67.1997 43.8084 66.8371 45.1114 66.3485 46.4354C65.6445 48.3321 64.4781 49.7297 62.4763 50.3077C59.6601 51.1168 57.28 50.2551 55.9034 47.6123C54.5216 44.9643 53.5969 42.0903 53.8596 39.064C54.075 36.5893 54.448 34.9027 58.0155 35.1129V35.1076Z" fill="#EBB76B"/>
<path d="M87.6065 80.7392C86.004 82.3942 84.2964 83.5974 81.9058 82.1631C81.6378 82.0054 81.1755 81.9214 80.918 82.0422C78.4959 83.1876 77.0983 81.3802 75.5746 80.1455C74.9494 79.6411 74.4975 78.7689 74.9179 77.7969C74.9914 77.6341 75.0124 77.3241 74.9179 77.2347C73.6937 76.0946 74.5028 74.8389 74.6814 73.6199C75.6377 70.4412 78.333 68.3081 81.0756 68.4237C84.2176 68.555 86.9287 69.5113 88.9883 72.0175C89.6293 72.7951 89.8184 73.6147 89.0986 74.2977C88.2159 75.1384 88.2842 76.2365 88.6257 76.9878C89.3823 78.6533 88.7571 79.7147 87.6065 80.7392ZM76.72 75.5219C76.389 76.4309 77.3768 77.0088 77.2717 77.9493C77.1246 79.2365 78.27 80.2558 79.5887 80.0404C81.0021 79.8092 82.3261 79.7199 83.6186 80.466C84.3752 80.9073 85.0425 80.4187 85.3735 79.8828C85.7991 79.1945 87.1283 78.7742 86.5451 77.7812C85.7413 76.4204 86.1826 75.0438 86.6292 73.993C87.2282 72.5901 86.4138 72.2539 85.6624 71.7863C85.1055 71.4395 84.3805 71.3765 83.7605 71.1138C80.6553 69.7845 76.7673 71.161 76.72 75.5167V75.5219Z" fill="#0F0F10"/>
<path d="M60.9161 69.732C60.0964 71.1086 59.2926 72.4904 58.4519 73.8512C57.8529 74.8232 54.4325 76.0264 53.2714 75.5483C52.4412 75.2068 51.6058 75.128 50.7705 74.9283C47.329 74.0982 45.2589 70.5201 47.287 66.9841C47.6338 66.6374 47.66 66.1698 47.6443 65.7442C47.5182 62.9543 48.5427 61.4358 51.0016 60.6687C57.6112 58.5986 62.0772 65.3554 60.9161 69.732ZM53.3239 62.4446C52.5779 62.3606 51.6899 62.6758 50.8493 63.1697C50.0086 63.6636 49.3834 64.7984 49.6776 65.3239C50.3764 66.5743 49.6251 67.2626 49.1837 68.1558C48.0331 70.4623 49.1785 72.4274 51.7845 72.874C52.2311 72.9475 52.7775 72.916 53.1926 73.205C53.9439 73.7251 54.5849 73.2838 55.3362 73.1209C57.2697 72.7058 57.6218 71.056 58.3521 69.7057C59.7917 67.0472 56.9808 62.1557 53.3292 62.4499L53.3239 62.4446Z" fill="#0F0E0F"/>
<path d="M66.5639 51.4057C67.8248 48.2165 69.0543 44.8539 72.0806 42.6209C72.5167 42.3004 72.916 41.9641 73.2996 41.5806C74.5763 40.2986 75.7585 40.2671 77.0457 41.4335C77.4661 41.817 77.5554 42.2794 77.1718 42.726C76.5151 43.4931 76.0317 44.3968 75.0649 44.9064C73.1052 45.9415 72.3013 47.9853 71.1191 49.6876C70.5464 50.5125 70.1944 51.4845 69.6638 52.3409C69.2855 52.9556 68.7706 53.4443 67.9089 53.1553C67.1208 52.8873 66.4483 52.5563 66.5533 51.4057H66.5639Z" fill="#ECBB73"/>
<path d="M92.2881 90.3806C92.514 88.8359 92.7137 87.2912 92.9816 85.7571C93.0604 85.3105 93.3652 84.6222 93.8118 84.7903C94.4423 85.0267 95.099 85.5101 94.9046 86.4611C94.5946 87.9427 94.3109 89.4244 94.3634 90.9533C94.395 91.9516 94.4948 93.0182 95.5193 93.3807C96.2076 93.6224 97.6367 91.6942 97.6105 90.6749C97.5947 90.0969 97.4056 89.5295 97.3478 88.9515C97.311 88.5785 97.1586 88.1004 97.5527 87.8639C97.9993 87.6012 98.3881 87.969 98.7506 88.1949C99.1394 88.4366 99.3653 88.8254 99.5177 89.2458C100.343 91.4998 98.2147 94.8624 95.8556 95.0515C93.817 95.2144 93.0815 94.6259 92.6086 92.5558C92.4457 91.836 92.2881 91.1267 92.2933 90.3806H92.2881Z" fill="#D0AAEF"/>
<path d="M38.5389 85.5941C38.3497 84.7377 38.791 83.9548 38.7858 83.1142C38.7858 82.6571 38.8541 81.932 39.4583 82.0686C39.8681 82.1632 40.5827 82.3944 40.5196 83.235C40.4356 84.3541 40.4829 85.489 40.5144 86.6134C40.5301 87.1441 40.5301 87.7956 41.1922 87.9269C41.9015 88.0688 42.0486 87.3805 42.2377 86.9076C42.7158 85.7149 42.7421 84.4277 42.8892 83.172C42.989 82.3418 43.3306 82.284 43.94 82.7359C44.9436 83.4767 45.1117 84.8007 44.4076 86.5924C44.1765 87.1861 43.9295 87.7693 43.6983 88.363C43.1572 89.7553 41.9908 89.8551 40.7771 89.729C39.6317 89.6082 38.9382 88.9252 38.7753 87.764C38.6755 87.039 38.4233 86.3297 38.5494 85.5941H38.5389Z" fill="#D0AAEF"/>
<path d="M96.3178 64.3257C97.4264 63.7215 97.6839 62.6234 97.9045 61.5253C98.0096 60.9998 98.2093 60.485 98.7767 60.5585C99.2443 60.6163 99.5438 61.0629 99.6384 61.6041C99.9116 63.2538 98.1305 66.07 96.5069 66.3958C95.4088 66.6165 94.7206 66.0227 94.4631 64.9877C94.0901 63.485 94.3528 61.9981 94.7206 60.5322C94.8414 60.0436 95.0831 59.5129 95.6505 59.5707C96.302 59.639 96.4492 60.2433 96.4071 60.8002C96.3336 61.6671 96.2075 62.5393 96.0393 63.3957C95.9658 63.7793 96.0131 64.0577 96.3125 64.3362L96.3178 64.3257Z" fill="#D0AAEF"/>
<path d="M45.2585 93.1863C45.2585 92.9919 45.2218 92.787 45.2638 92.6031C45.4267 91.9253 45.3846 90.9376 46.3829 91.0427C47.46 91.153 47.3392 92.0619 47.1605 92.8658C47.0659 93.3072 46.6771 93.9377 47.397 94.0427C47.8698 94.111 48.1483 93.5173 48.1798 92.9814C48.1956 92.6924 48.2008 92.3877 48.2901 92.1145C48.4583 91.6154 48.7998 91.2896 49.3725 91.2896C50.0187 91.2896 49.9925 91.8623 50.0765 92.2353C50.5074 94.1846 49.0257 95.971 47.0397 95.9342C45.9994 95.9184 45.2638 94.7836 45.2638 93.1863H45.2585Z" fill="#D0AAEF"/>
<path d="M74.7287 99.3071C75.6324 99.1179 75.4328 98.23 75.9004 97.8359C76.2104 97.5732 76.4415 97.0058 76.9669 97.3158C77.3452 97.5417 77.5974 97.9988 77.4556 98.4507C77.0615 99.7169 76.3365 100.731 75.0019 101.151C74.5133 101.304 74.0457 101.241 73.6306 100.878C72.7637 100.121 72.5851 96.8639 73.3627 96.0338C73.5886 95.7921 73.804 95.6975 74.1298 95.8499C74.6341 96.0916 74.9284 96.4961 74.8023 97.0163C74.6236 97.7781 74.5869 98.5137 74.7287 99.3018V99.3071Z" fill="#D0AAEF"/>
<path d="M127.322 55.4618C127.443 56.2972 126.87 56.7911 126.124 56.9487C125.278 57.1274 122.919 55.3568 123.124 54.721C123.371 53.9539 123.844 53.2499 124.889 53.2656C126.071 53.2814 127.301 54.2902 127.327 55.4618H127.322Z" fill="#D0AAEF"/>
<path d="M14.6434 127.117C15.3212 127.017 15.9307 127.49 16.6873 127.222C17.2547 127.017 17.1759 127.711 17.2967 128.115C17.7433 129.665 18.006 131.373 19.9448 131.877C19.2513 133.012 17.5647 133.096 16.9815 131.709C16.309 130.106 15.069 128.819 14.6382 127.117H14.6434Z" fill="#DFCCEF"/>
<path d="M38.2499 27.3053C37.2201 27.5522 36.5897 27.0163 36.5792 25.9707C36.5739 25.2299 36.9837 24.5521 37.8717 24.4733C38.6125 24.4103 40.2045 25.5084 40.1782 26.0443C40.1204 27.258 39.2797 27.3788 38.2499 27.3V27.3053Z" fill="#D0AAEF"/>
<path d="M12.0374 125.945C12.4367 125.966 12.7047 126.187 12.8781 126.529C12.442 126.555 11.9954 126.602 12.0374 125.945Z" fill="#DFCCEF"/>
<path d="M118.233 80.3506C118.254 80.3085 118.275 80.2718 118.29 80.2297C118.269 80.2665 118.243 80.3033 118.222 80.3401L118.233 80.3506Z" fill="#DFCCEF"/>
<path d="M64.1314 77.981C63.2067 78.0756 62.5184 77.8759 62.5867 76.7831C62.6445 75.9109 63.0333 75.2909 64.0106 75.2856C64.8039 75.2856 65.8337 76.389 65.6866 77.1456C65.5185 78.0073 64.7671 77.9652 64.1314 77.981Z" fill="#0F0F10"/>
<path d="M59.0085 73.4466C58.9717 73.4782 58.9402 73.5097 58.9034 73.5465C58.8719 73.5097 58.8193 73.4729 58.8193 73.4361C58.8193 73.3994 58.8771 73.3678 58.9139 73.3311C58.9454 73.3678 58.977 73.4046 59.0085 73.4466Z" fill="#0F0E0F"/>
<path d="M22.2882 130.979C22.2462 130.958 22.2041 130.937 22.1621 130.91C22.2041 130.937 22.2462 130.958 22.283 130.984L22.2882 130.979Z" fill="#DFCCEF"/>
<path d="M76.72 75.522C76.762 71.1611 80.6553 69.7898 83.7605 71.1191C84.3805 71.3818 85.1055 71.4448 85.6624 71.7916C86.4138 72.2592 87.2282 72.5955 86.6292 73.9983C86.1826 75.0491 85.736 76.4257 86.5451 77.7865C87.1336 78.7795 85.7991 79.1998 85.3735 79.8881C85.0425 80.424 84.3752 80.9127 83.6186 80.4713C82.3261 79.7252 81.0021 79.8146 79.5887 80.0457C78.27 80.2612 77.1298 79.2419 77.2717 77.9546C77.3768 77.0141 76.389 76.4362 76.72 75.5272V75.522Z" fill="#F8F8F8"/>
<path d="M53.324 62.4446C56.9756 62.1504 59.7813 67.0419 58.3469 69.7005C57.6166 71.0508 57.2646 72.7005 55.3311 73.1156C54.5797 73.2785 53.9387 73.7198 53.1874 73.1997C52.7671 72.9107 52.2207 72.9475 51.7793 72.8687C49.1733 72.4221 48.0279 70.457 49.1785 68.1505C49.6251 67.2573 50.3765 66.569 49.6724 65.3186C49.3782 64.7931 50.0034 63.6583 50.8441 63.1644C51.6847 62.6705 52.5727 62.3553 53.3188 62.4393L53.324 62.4446Z" fill="#F8F8F8"/>
</g>
<circle cx="70" cy="70" r="68.5" stroke="#FFE9BA" stroke-width="3"/>
</svg>
