<svg width="140" height="140" viewBox="0 0 140 140" fill="none" xmlns="http://www.w3.org/2000/svg">
<path d="M70 140C108.66 140 140 108.66 140 70C140 31.3401 108.66 0 70 0C31.3401 0 0 31.3401 0 70C0 108.66 31.3401 140 70 140Z" fill="#C9F0CF"/>
<mask id="mask0_54900_27954" style="mask-type:luminance" maskUnits="userSpaceOnUse" x="0" y="0" width="140" height="140">
<path d="M70 140C108.66 140 140 108.66 140 70C140 31.3401 108.66 0 70 0C31.3401 0 0 31.3401 0 70C0 108.66 31.3401 140 70 140Z" fill="white"/>
</mask>
<g mask="url(#mask0_54900_27954)">
<path d="M29.1335 142.422L33.0163 123.108L29.1335 118.458L27.2578 107.577L33.0163 94.815L30.137 84.9583L29.2491 69.8686L38.5593 55.8245L42.2214 50.066L48.9151 32.9903L59.1027 21.1949L71.6495 18.053L81.0385 20.5644L82.8144 22.6555L90.3487 18.053L101.125 20.2492L110.75 29.9797L119.015 50.4864L121.631 72.1436V87.7377L115.668 103.847L118.81 113.577L124.038 129.586L124.695 143.242L29.1335 142.422Z" fill="#FEFDFC"/>
<path d="M52.3882 84.7113C54.5319 85.5362 56.9172 85.2262 59.0346 86.0406C60.8052 86.7236 62.5128 87.3962 64.0102 88.8358C65.7966 90.5486 66.8632 92.5031 67.7038 94.7046C67.8614 95.1091 68.0716 95.5662 68.4604 94.962C70.6461 91.5837 74.2189 90.5591 77.7286 89.4032C81.0964 88.2946 84.4118 88.6782 87.7061 89.7079C91.0792 91.5889 94.8936 92.666 97.8464 95.3245C99.2282 96.5698 101.015 97.3526 101.992 99.0497C102.265 99.5226 102.733 99.491 103.19 99.4437C103.946 101.199 105.202 102.664 106.022 104.404C106.421 105.255 106.584 106.174 107.031 107.02C107.44 107.798 106.747 108.56 106.127 109.211C105.397 109.978 105.134 109.085 104.645 108.954C103.841 108.733 103.305 108.297 103.153 107.482C102.517 104.052 100.022 101.934 97.6941 99.7012C94.673 96.8062 90.9058 95.1407 87.1071 93.6643C81.9844 91.6677 77.0823 92.8499 72.8213 95.9708C70.6356 97.5733 69.0804 100.295 68.8334 102.927C68.555 105.943 68.4341 109.064 69.5112 112.201C70.4885 115.043 72.6321 116.787 74.2346 119.026C74.5551 119.472 74.6392 119.756 74.45 120.203C74.0507 120.224 73.6934 120.297 73.3519 120.581C71.8755 121.805 71.3134 121.789 70.0103 120.381C69.0699 119.367 68.2187 118.269 67.3308 117.208C66.7266 115.39 65.702 113.751 65.1713 111.591C63.8105 113.472 63.117 115.4 61.8035 116.924C60.7106 117.555 59.5547 117.702 58.3358 117.35C57.7368 116.315 57.9365 115.369 58.5932 114.434C60.1064 112.264 61.7142 110.094 62.6021 107.609C64.0312 103.605 64.8456 99.4385 63.9104 95.1722C63.1485 91.6835 60.6213 89.7762 56.8174 89.1037C52.0204 88.2578 47.6017 89.4873 43.1463 90.9584C40.0254 91.9882 37.288 93.6748 34.8133 95.7133C33.5523 96.7537 32.6434 98.3036 31.8027 99.7537C29.3123 104.067 28.4664 108.754 29.5908 113.603C30.258 116.493 31.4455 119.278 33.7783 121.337C35.407 122.777 35.5646 124.427 34.7187 126.35C32.7905 130.737 31.9393 135.387 31.561 140.137C31.498 140.93 29.9165 142.532 29.1232 142.422C27.9095 142.254 27.6363 141.229 27.6205 140.242C27.5627 136.585 28.2667 133.028 29.307 129.539C29.7747 127.968 30.258 126.397 30.8202 124.858C31.0987 124.085 30.589 123.786 30.2108 123.339C27.0425 119.598 25.3402 115.269 25.2824 110.372C25.2509 107.687 25.5609 105.008 26.4804 102.444C28.0723 100.116 28.7449 97.2318 30.9043 95.2457C31.2458 94.9305 30.9516 94.5942 30.8202 94.2842C29.3543 90.8691 27.8464 87.5328 27.3105 83.7288C26.7798 79.9616 26.8692 76.2943 27.4156 72.6165C27.9515 69.0279 29.3648 65.7021 31.3404 62.66C33.4788 59.3604 35.386 55.8612 38.6856 53.4864C39.7889 52.693 40.1094 51.5686 40.1777 50.3024C40.2355 49.2516 40.5718 48.2586 40.7924 47.2445C41.3389 44.7331 42.6787 42.5159 43.2829 40.0359C44.6122 38.2548 45.1376 36.0639 46.2199 34.1566C49.8242 27.7992 53.8015 21.7097 60.553 18.2736C64.5146 16.256 68.6758 15.0108 73.3677 15.9618C76.2207 16.5397 79.0684 16.9233 81.0019 19.193C82.2891 20.7062 83.1087 20.4015 84.4065 19.4085C86.3085 17.9583 88.6045 17.2543 90.9216 16.9653C92.5713 16.7604 94.3052 16.9916 95.9812 17.1965C99.7537 17.6641 103.09 19.0617 106.048 21.5836C108.244 23.4541 109.994 25.5767 111.491 27.9989C112.873 30.2266 114.528 32.2914 115.679 34.661C117.575 38.5596 118.963 42.6367 120.019 46.8452C120.97 50.6439 122.031 54.4111 122.399 58.3306C122.677 61.3307 122.961 64.3308 123.276 67.3256C123.323 67.7564 123.082 67.9771 122.882 68.2451C122.572 68.6496 122.42 69.0174 122.94 69.3642L122.929 69.3537C122.756 71.1663 123.155 72.9369 123.455 74.6971C124.227 79.1683 124.096 83.5922 123.271 88.0424C122.914 89.9601 122.698 91.9252 121.884 93.6905C121.174 95.2247 120.886 96.8692 120.287 98.4245C119.546 100.353 119.047 102.339 117.549 103.92C117.061 104.435 117.507 105.412 117.901 105.88C119.441 107.708 119.966 110.02 120.907 112.101C122.099 114.733 122.761 117.618 123.523 120.429C125.262 126.865 126.234 133.432 126.702 140.073C126.786 141.256 125.819 142.8 124.7 143.242C123.717 143.63 123.239 143.042 122.787 142.301C122.068 141.114 122.283 139.742 122.178 138.492C121.773 133.658 120.922 128.903 119.85 124.196C118.484 118.232 116.924 112.311 114.281 106.742C113.367 104.819 113.325 102.938 114.628 101.094C115.195 100.29 115.6 99.3492 115.952 98.4245C118.343 92.0985 120.518 85.6728 119.914 78.7847C119.278 71.5394 119.02 64.2572 117.67 57.0644C116.493 50.7805 114.828 44.6648 112.616 38.6909C111.554 35.8327 109.684 33.379 108.139 30.7625C107.256 29.2651 106.584 27.505 105.354 26.3701C103.037 24.237 100.889 21.736 97.5574 21.0162C95.314 20.5328 93.0757 20.0967 90.7482 20.391C88.2472 20.7062 86.3137 22.0092 84.6745 23.7851C83.9231 24.5995 82.9354 25.2825 82.0212 25.1984C80.9756 25.1039 79.8092 24.3578 79.3573 23.286C78.4589 21.1581 76.7303 20.5959 74.7075 20.0652C71.9123 19.3244 69.2327 19.3297 66.5006 20.1808C62.4235 21.4523 58.9978 23.6222 56.1081 26.8377C53.7227 29.4858 51.7945 32.4123 50.0659 35.4597C48.6263 37.9974 47.7961 40.8819 46.325 43.3986C44.8276 45.9625 44.1183 48.868 43.6769 51.5634C43.1515 54.7473 40.8713 56.2763 39.2793 58.3884C38.1444 59.8963 36.689 61.131 36.1531 63.0383C34.6662 63.1696 34.104 64.7038 33.6049 65.5234C33.0269 66.4692 32.738 67.9351 32.3281 69.154C31.3982 71.9177 30.9095 74.6971 30.9989 77.6183C31.0251 78.5378 31.0304 79.4993 31.0934 80.3977C31.2353 82.4521 31.3772 84.5274 32.181 86.5082C32.6381 87.6326 33.5681 88.6256 33.379 90.0022C33.3264 90.4067 34.5821 91.3525 34.8238 91.1686C36.978 89.4978 39.4527 88.5415 41.9956 87.5853C44.8223 86.524 47.7226 85.925 50.6386 85.3523C51.2953 85.221 51.847 85.0266 52.3987 84.7061L52.3882 84.7113Z" fill="#EBB96E"/>
<path d="M58.3512 117.344C59.5649 117.696 60.7208 117.549 61.8189 116.919C62.1026 116.987 62.4547 117.192 62.6596 117.097C64.2516 116.346 65.7963 116.688 67.3462 117.202C68.2342 118.264 69.0853 119.362 70.0258 120.376C71.3288 121.784 71.891 121.8 73.3674 120.576C73.7089 120.292 74.0662 120.218 74.4655 120.197C74.2868 120.996 74.3709 121.5 75.3114 121.921C76.9454 122.651 78.4218 123.728 80.1556 124.269C81.2327 124.6 82.4044 124.38 83.4499 125.047C85.2258 126.182 86.5971 127.648 87.7478 129.402C88.352 130.322 88.9194 131.22 89.1821 132.287C89.7969 134.783 89.9072 137.341 89.944 139.884C89.965 141.277 89.0035 141.739 86.8756 141.455C84.8423 141.182 82.8457 141.534 80.8334 141.571C78.1749 141.618 75.5163 141.461 72.8525 141.413C69.8629 141.355 66.8786 141.35 63.889 141.55C61.9818 141.676 60.0536 141.518 58.1306 141.487C55.3879 141.445 52.6558 141.261 49.9027 141.581C47.8799 141.813 47.1023 141.119 47.1443 139.023C47.1811 137.163 47.0024 135.297 47.3545 133.427C48.1794 129.024 49.7083 125.052 52.7714 121.626C53.9641 120.292 55.0622 119.288 56.8118 118.936C57.5789 118.784 58.3407 118.369 58.3407 117.35L58.3512 117.344Z" fill="#FEF3E0"/>
<path d="M43.2878 40.0307C42.6836 42.5106 41.3438 44.7278 40.7974 47.2393C40.5767 48.2586 40.2405 49.2516 40.1827 50.2971C40.1144 51.5634 39.7939 52.6877 38.6905 53.4811C35.3962 55.8559 33.4837 59.3552 31.3453 62.6547C29.3698 65.6968 27.9565 69.0279 27.4205 72.6112C26.8741 76.289 26.7848 79.9564 27.3155 83.7235C27.8514 87.5327 29.3593 90.8638 30.8252 94.279C30.9565 94.589 31.2508 94.9252 30.9092 95.2405C28.7551 97.2213 28.0773 100.111 26.4853 102.439C24.0317 102.171 22.2873 100.573 20.5272 99.1022C18.993 97.8202 17.648 96.3123 16.2346 94.8884C14.1435 92.7763 12.8142 90.2386 11.8107 87.4434C11.0226 85.2577 10.0821 83.1561 9.6933 80.8233C9.09959 77.24 8.77909 73.7303 9.26246 70.0472C9.5672 67.7091 10.2818 65.5445 10.7651 63.2905C10.907 62.6232 11.2275 61.9612 11.7897 61.4831C11.8895 65.7651 12.5935 69.9684 13.3817 74.1664C13.5025 74.8231 13.8125 75.3906 14.1803 75.9212C14.4955 76.3783 14.9474 76.7356 15.5358 76.7566C16.9387 76.7987 19.1139 75.2592 19.2872 73.8564C19.5552 71.7022 20.2014 69.6636 20.9213 67.6566C21.4992 66.0541 21.6411 64.357 22.1507 62.7756C23.2908 59.2396 23.7374 55.5775 24.473 51.9679C24.9354 49.7087 25.3242 47.4915 24.142 45.332C26.0124 44.2182 27.7148 42.8311 29.7428 41.9589C34.088 40.0937 38.6065 39.5526 43.2773 40.0202L43.2878 40.0307ZM20.9896 83.3085C20.8162 80.403 18.7776 78.5588 15.9299 78.7217C13.7967 78.8425 11.9736 81.5011 12.1732 84.2017C12.3414 86.4609 14.3904 88.2788 16.6182 88.137C19.2767 87.9688 21.1472 85.904 20.9896 83.3085Z" fill="#FEF1AB"/>
<path d="M103.2 99.4438C102.743 99.491 102.27 99.5226 102.002 99.0497C101.025 97.3526 99.2388 96.5645 97.857 95.3246C94.9042 92.666 91.0897 91.5889 87.7166 89.708C86.6763 86.7131 86.5817 83.7131 87.7376 80.7182C91.0687 79.9669 91.5784 77.1455 92.3192 74.4869C94.8254 71.8809 98.1092 70.9141 101.498 70.3887C103.195 70.126 104.871 71.014 106.563 71.345C108.612 71.7495 109.962 73.3153 111.612 74.3713C112.395 74.8757 113.11 75.6586 113.819 76.3416C116.194 78.6219 116.646 81.438 116.567 84.4644C116.488 87.5538 116.02 90.6432 114.16 93.1494C111.759 96.3806 108.596 98.7345 104.519 99.5541C104.104 99.6382 103.647 99.4858 103.206 99.4438H103.2Z" fill="#FECD77"/>
<path d="M52.3878 84.7114C51.8361 85.0266 51.2844 85.2263 50.6277 85.3576C47.7117 85.9303 44.8114 86.5293 41.9847 87.5906C39.4418 88.5469 36.9671 89.5031 34.8129 91.1739C34.5765 91.3578 33.3155 90.412 33.3681 90.0075C33.5519 88.6309 32.6272 87.6379 32.1701 86.5135C31.3662 84.5327 31.2244 82.4574 31.0825 80.403C31.0195 79.5046 31.0195 78.5431 30.988 77.6236C30.8986 74.7024 31.3873 71.923 32.3172 69.1593C32.7271 67.9404 33.016 66.4745 33.594 65.5288C34.0931 64.7091 34.6606 63.1749 36.1422 63.0436C42.3368 62.266 47.3071 64.4832 51.2372 69.2276C51.2634 71.324 51.9675 73.0841 53.7749 74.282C54.8099 76.4782 54.295 78.7112 53.8116 80.8917C53.5227 82.2052 52.8712 83.4399 52.3825 84.7061L52.3878 84.7114Z" fill="#FECD76"/>
<path d="M89.1612 49.9819C86.3556 49.9924 83.7548 49.3199 81.4115 47.7069C80.5708 47.129 80.3659 46.3619 80.513 45.5002C81.4535 40.0045 83.3029 34.908 87.1332 30.6995C88.7304 28.9499 90.6744 27.9359 93.0177 28.7345C95.4714 29.5699 96.291 31.7135 96.7166 34.0989C97.1054 36.2741 96.622 38.3862 96.27 40.4721C95.9285 42.4739 95.6027 44.4914 94.9407 46.446C94.0213 49.1623 93.2226 49.8716 90.3592 49.9819C89.9599 49.9977 89.5606 49.9819 89.156 49.9819H89.1612Z" fill="#FECE77"/>
<path d="M59.1501 42.0482C58.8506 38.5174 59.9697 34.9815 61.63 31.5558C62.3445 30.0899 63.4584 29.0601 64.8402 28.3298C67.6879 26.8166 70.5777 28.54 71.1083 32.0339C71.8229 36.7311 71.8807 41.4335 70.9455 46.0938C70.1994 49.7927 67.8561 50.4915 64.7929 49.8662C64.0784 49.7191 63.3586 49.5195 62.623 49.4249C60.0643 49.0939 59.2079 48.1482 59.1501 45.5421C59.1291 44.4913 59.1501 43.4405 59.1501 42.0534V42.0482Z" fill="#FECE77"/>
<path d="M24.1476 45.3426C25.3298 47.5021 24.9357 49.7193 24.4786 51.9785C23.743 55.5881 23.2964 59.2502 22.1563 62.7861C21.6467 64.3676 21.5048 66.0647 20.9269 67.6672C20.2018 69.6742 19.5555 71.7128 19.2928 73.867C19.1195 75.2698 16.9443 76.8093 15.5414 76.7672C14.9477 76.7515 14.5011 76.3942 14.1859 75.9318C13.8181 75.4012 13.5081 74.8337 13.3873 74.177C12.5992 69.979 11.8951 65.7757 11.7953 61.4936C11.459 56.765 11.6482 52.0311 11.5851 47.2971C11.5588 45.4162 12.3312 44.3916 14.2174 44.4232C16.4609 44.4652 18.6729 44.1447 20.9058 44.171C22.1458 44.1867 23.2334 44.5072 24.1529 45.3426H24.1476ZM16.1457 74.1192C16.7656 73.6358 16.8707 73.1524 16.9968 72.6691C18.6203 66.4115 20.5433 60.2274 21.7097 53.8542C22.0775 51.8472 22.5714 49.8506 22.4138 47.7805C22.3717 47.2288 22.398 46.4197 21.6834 46.5563C19.5083 46.9766 17.3173 46.4723 15.1579 46.8243C14.4066 46.9451 13.9547 47.2604 13.9284 48.1903C13.8654 50.5179 14.3803 52.8087 14.1649 55.1572C14.1071 55.7982 13.8181 56.4024 13.9179 57.1328C14.3435 60.2694 14.4013 63.4377 14.622 66.5953C14.7954 69.0963 15.284 71.5815 16.1457 74.1139V74.1192Z" fill="#FEB022"/>
<path d="M53.7805 74.2871C51.9679 73.0839 51.2691 71.3291 51.2428 69.2327C51.1955 65.4918 53.8698 63.7369 56.623 62.25C58.5827 61.194 62.6757 63.5951 63.406 65.9542C64.4463 69.3115 63.1065 72.8843 60.0329 74.6024C57.926 75.7845 55.8454 74.8335 53.7805 74.2871ZM61.3306 68.6022C61.3149 65.4813 59.3498 63.8893 57.0118 64.5776C54.4741 65.3184 52.9083 69.1801 54.2691 71.5497C55.383 73.4885 58.877 73.4517 60.201 71.4289C60.8683 70.4043 61.3937 69.2695 61.3359 68.6075L61.3306 68.6022Z" fill="#111010"/>
<path d="M92.3189 74.492C91.578 77.1453 91.0684 79.972 87.7373 80.7234C84.5376 81.2488 82.0104 80.2452 80.3501 77.3975C78.8632 74.8493 79.7774 70.7826 82.5673 69.0803C83.9018 68.2659 85.2679 67.6933 86.9755 67.8561C90.0018 68.1451 92.1297 70.7774 92.2821 73.4465C92.3031 73.7932 92.3084 74.1453 92.3241 74.4973L92.3189 74.492ZM89.8389 73.8931C89.613 72.795 89.6761 71.1557 88.2312 70.4149C87.0438 69.8054 85.662 70.0103 84.401 70.5672C82.4465 71.4289 81.2538 75.2801 82.4727 76.7723C83.7547 78.3327 85.5937 79 87.1961 78.4851C88.4519 78.0806 89.7496 75.9684 89.8389 73.8983V73.8931Z" fill="#111010"/>
<path d="M81.6006 30.794C81.7004 31.8028 80.9543 32.47 80.6338 33.2949C78.9 37.7977 77.2292 42.3162 76.4358 47.1079C76.2204 48.4214 74.765 49.4249 73.5671 48.9993C72.7159 48.6946 72.3324 47.98 72.4795 46.9555C72.9629 43.4826 74.1345 40.1988 75.2431 36.9045C76.0575 34.4928 76.9665 32.1075 78.3378 29.9376C78.7108 29.3491 79.1101 28.4296 79.851 28.8605C80.555 29.265 81.5743 29.6749 81.5953 30.7992L81.6006 30.794Z" fill="#EBBA71"/>
<path d="M35.3755 32.9323C35.6014 32.0969 35.5436 30.9831 35.407 29.8429C35.2704 28.7133 36.2109 27.8937 36.5945 26.9059C36.9412 26.0075 38.4754 26.102 39.1269 26.99C39.6103 27.6467 40.1357 28.2562 40.8292 28.603C41.6384 29.0075 41.7907 30.1319 41.7224 30.3683C41.197 32.2073 42.4317 34.3141 40.7714 35.9849C40.0516 36.71 39.8257 36.9569 38.88 36.5734C38.7907 36.5366 38.6856 36.5524 38.5858 36.5524C35.7958 36.5419 35.323 36.0532 35.3703 32.9323H35.3755Z" fill="#FEF3B3"/>
<path d="M17.2802 99.4859C17.4483 100.08 16.9702 100.558 16.6707 101.031C15.683 102.575 14.3747 103.899 12.8668 104.882C11.8948 105.512 10.5287 105.223 9.3518 105.365C8.19065 105.507 7.33424 103.537 7.93846 102.402C9.07859 100.248 10.8965 98.6663 12.7302 97.1531C13.4447 96.5646 14.5428 96.2651 15.2994 97.4263C15.4045 97.5839 15.7355 97.668 15.9614 97.6627C17.2119 97.6417 17.2329 98.5244 17.2854 99.4911L17.2802 99.4859Z" fill="#FEF3B1"/>
<path d="M27.2578 31.582C27.2841 30.1004 28.2141 29.223 29.1861 28.5084C29.6169 28.1932 30.6152 27.9252 30.8148 29.0443C30.9304 29.6748 31.419 29.8797 31.8709 29.9585C33.3946 30.216 33.8096 31.23 33.8307 32.5751C33.8359 33.0689 33.7886 33.5471 34.1722 33.9832C35.1862 35.1338 34.7133 36.8939 33.2895 37.4246C30.9041 38.3125 28.8288 37.3247 28.0774 34.8921C27.7307 33.7782 27.51 32.6223 27.2578 31.582Z" fill="#FEF3B3"/>
<path d="M22.3927 42.868C22.3454 43.0991 22.461 43.4932 22.1773 43.5247C18.3681 43.9083 15.1894 40.6928 15.615 36.9309C15.7831 35.444 16.5712 34.7872 17.8795 35.4019C19.2613 36.0534 21.0582 36.3582 21.4102 38.3705C21.4838 38.7856 21.9672 39.1954 22.356 39.4791C23.8061 40.5509 23.8429 41.5439 22.4138 42.8522C22.3665 42.6315 22.3192 42.4109 22.2719 42.1902C22.2299 42.2165 22.1668 42.2375 22.1563 42.2743C22.067 42.537 22.1563 42.7366 22.3927 42.8732V42.868Z" fill="#FEF3B1"/>
<path d="M16.3871 107.976C16.4607 106.022 17.3907 104.609 18.2996 103.269C18.6464 102.759 19.6289 101.787 20.4328 103.158C20.5589 103.374 20.9372 103.453 21.2156 103.558C22.9915 104.236 23.4066 105.323 22.5081 107.01C22.0878 107.798 21.5151 108.481 21.1578 109.316C20.8794 109.968 18.2418 110.603 17.5483 110.178C16.6919 109.658 16.261 108.807 16.3924 107.971L16.3871 107.976Z" fill="#FEF3B1"/>
<path d="M6.45701 70.8562C6.26261 70.9823 6.16278 71.266 6.33617 71.3343C7.37122 71.7179 7.16106 72.5007 6.87208 73.1785C6.55159 73.9246 5.90533 74.182 5.04892 74.408C3.23627 74.8913 1.88597 73.788 0.372797 73.3624C-0.320741 73.168 -0.940721 72.154 -0.709542 71.1662C-0.473109 70.1627 -0.215659 68.9175 1.01379 68.8492C2.17494 68.7861 3.58303 68.8912 4.45521 69.5164C5.09621 69.9735 5.68992 70.5357 6.45176 70.8615H6.45701V70.8562Z" fill="#FEF3B3"/>
<path d="M68.8805 76.9459C67.8928 77.051 67.3253 76.5308 67.3779 75.7847C67.4304 75.0176 67.6196 73.9195 68.7019 73.9826C69.6476 74.0351 70.4042 74.8705 70.4673 75.7479C70.5303 76.6727 69.6634 76.9984 68.8805 76.9459Z" fill="#111010"/>
<path d="M122.934 69.3642L123.008 69.2854L122.924 69.3485L122.934 69.3642Z" fill="#EBB96E"/>
<path d="M6.44629 70.8617C6.48832 70.8827 6.53035 70.9037 6.56713 70.93C6.53035 70.9037 6.48832 70.8827 6.45154 70.8564L6.44629 70.8617Z" fill="#FEF3B3"/>
<path d="M67.3466 117.197C65.7967 116.682 64.252 116.336 62.66 117.092C62.4551 117.192 62.1031 116.982 61.8193 116.913C63.1329 115.39 63.8264 113.456 65.1872 111.581C65.7179 113.74 66.7424 115.379 67.3466 117.197Z" fill="#FDFAF6"/>
<path d="M20.9895 83.3084C21.1472 85.904 19.2767 87.9741 16.6181 88.1369C14.3957 88.2735 12.3413 86.4556 12.1732 84.2016C11.9735 81.501 13.7967 78.8477 15.9299 78.7216C18.7828 78.5588 20.8161 80.4029 20.9895 83.3084ZM18.5096 83.3452C18.5096 81.8793 17.8844 81.107 16.7232 81.1175C15.7617 81.128 14.4009 82.4888 14.4272 83.424C14.4587 84.5064 15.5726 85.9197 16.3817 85.8935C17.6112 85.8567 18.5044 84.7848 18.5044 83.3452H18.5096Z" fill="#FEB020"/>
<path d="M16.1455 74.119C15.2838 71.5866 14.7952 69.0961 14.6218 66.6005C14.4011 63.4428 14.3433 60.2746 13.9178 57.1379C13.8179 56.4076 14.1069 55.8033 14.1647 55.1623C14.3749 52.8138 13.86 50.523 13.9283 48.1954C13.9545 47.2655 14.4064 46.9502 15.1577 46.8294C17.3171 46.4774 19.5081 46.9818 21.6833 46.5614C22.3978 46.4248 22.3716 47.2339 22.4136 47.7856C22.5712 49.8557 22.0773 51.8523 21.7096 53.8593C20.5431 60.2325 18.6202 66.4166 16.9966 72.6742C16.8706 73.1575 16.7655 73.6409 16.1455 74.1243V74.119Z" fill="#FECC73"/>
<path d="M61.3307 68.6024C61.3938 69.2644 60.8683 70.3993 60.1958 71.4238C58.8771 73.4467 55.3778 73.4834 54.264 71.5447C52.9084 69.1803 54.4689 65.3134 57.0066 64.5725C59.3447 63.8895 61.3097 65.4762 61.3255 68.5971L61.3307 68.6024Z" fill="#F7F7F7"/>
<path d="M89.839 73.8933C89.7496 75.9634 88.4571 78.0755 87.1962 78.4801C85.5937 78.995 83.7547 78.3277 82.4727 76.7673C81.2485 75.2804 82.4465 71.4291 84.401 70.5622C85.662 70.0053 87.0438 69.8004 88.2312 70.4099C89.6761 71.1507 89.613 72.79 89.839 73.8881V73.8933Z" fill="#F7F7F7"/>
<path d="M22.3927 42.8678C22.1616 42.726 22.067 42.5316 22.1563 42.2689C22.1668 42.2321 22.2299 42.2163 22.2719 42.1848C22.3192 42.4055 22.3665 42.6262 22.4137 42.8468L22.3927 42.8626V42.8678Z" fill="#FEFEFE"/>
<path d="M18.5097 83.3453C18.5097 84.7849 17.6165 85.8567 16.387 85.8935C15.5779 85.9145 14.4588 84.5064 14.4325 83.4241C14.4062 82.4888 15.767 81.128 16.7285 81.1175C17.8897 81.107 18.5149 81.8846 18.5149 83.3453H18.5097Z" fill="#FECC73"/>
</g>
<circle cx="70" cy="70" r="68.5" stroke="#FFE9BA" stroke-width="3"/>
</svg>
