<svg width="60" height="50" viewBox="0 0 60 50" fill="none" xmlns="http://www.w3.org/2000/svg">
<path fill-rule="evenodd" clip-rule="evenodd" d="M-1.78217e-06 8.75L-1.99819e-06 3.75C1.9882 3.75 3.6 2.07105 3.6 3.65549e-06L8.4 3.44321e-06C8.4 2.07105 10.0118 3.75 12 3.75C13.9882 3.75 15.6 2.07105 15.6 3.12479e-06L20.4 2.91252e-06C20.4 2.07105 22.0118 3.75 24 3.75C25.9882 3.75 27.6 2.07105 27.6 2.5941e-06L32.4 2.38182e-06C32.4 2.07105 34.0118 3.75 36 3.75C37.9882 3.75 39.6 2.07105 39.6 2.0634e-06L44.4 1.85112e-06C44.4 2.07105 46.0118 3.75 48 3.75C49.9882 3.75 51.6 2.07105 51.6 1.53271e-06L56.4 1.32043e-06C56.4 2.07105 58.0118 3.75 60 3.75L60 8.75C58.0118 8.75 56.4 10.429 56.4 12.5C56.4 14.571 58.0118 16.25 60 16.25L60 21.25C58.0118 21.25 56.4 22.929 56.4 25C56.4 27.071 58.0118 28.75 60 28.75L60 33.75C58.0118 33.75 56.4 35.429 56.4 37.5C56.4 39.571 58.0118 41.25 60 41.25L60 46.25C58.0118 46.25 56.4 47.929 56.4 50L51.6 50C51.6 47.929 49.9882 46.25 48 46.25C46.0118 46.25 44.4 47.929 44.4 50L39.6 50C39.6 47.929 37.9882 46.25 36 46.25C34.0118 46.25 32.4 47.929 32.4 50L27.6 50C27.6 47.929 25.9882 46.25 24 46.25C22.0118 46.25 20.4 47.929 20.4 50L15.6 50C15.6 47.929 13.9882 46.25 12 46.25C10.0118 46.25 8.4 47.929 8.4 50L3.6 50C3.6 47.929 1.9882 46.25 -1.62015e-07 46.25L-3.78036e-07 41.25C1.9882 41.25 3.6 39.571 3.6 37.5C3.6 35.429 1.9882 33.75 -7.02067e-07 33.75L-9.18088e-07 28.75C1.9882 28.75 3.6 27.071 3.6 25C3.6 22.929 1.9882 21.25 -1.24212e-06 21.25L-1.45814e-06 16.25C1.9882 16.25 3.6 14.571 3.6 12.5C3.6 10.429 1.9882 8.75 -1.78217e-06 8.75Z" fill="#F6F0FF"/>
<rect width="36" height="46" transform="translate(53 7) rotate(90)" fill="white"/>
</svg>
