<svg width="150" height="39" viewBox="0 0 150 39" fill="none" xmlns="http://www.w3.org/2000/svg">
<g id="writing_letter_post">
<path id="Vector" d="M145.655 38.9474C143.195 38.9474 141.205 36.9555 141.258 34.5442C141.205 32.1329 143.195 30.1934 145.655 30.1934C147.958 30.1934 150 32.1329 150 34.5442C150 36.9555 147.958 38.9474 145.655 38.9474Z" fill="#F6F0FF"/>
<path id="Vector_2" d="M106.859 7.02417V0.52417H137.901V7.02417H126.28V38.4758H118.48V7.02417H106.859Z" fill="#F6F0FF"/>
<path id="Vector_3" d="M94.8668 11.375C94.5528 8.3871 92.1448 6.60484 88.3235 6.60484C84.3451 6.60484 82.1465 8.43952 82.0941 10.9556C82.0418 13.6815 84.9209 14.9395 88.1664 15.6734L91.569 16.5121C98.06 17.9798 102.928 21.2823 102.928 27.625C102.928 34.5968 97.4842 39 88.2711 39C79.1104 39 73.2475 34.754 73.0381 26.629H80.6808C80.9425 30.4556 83.9786 32.3952 88.1664 32.3952C92.3018 32.3952 94.9715 30.4556 94.9715 27.625C94.9715 25.0565 92.6159 23.8508 88.4805 22.8024L84.3451 21.8065C77.9587 20.2339 74.0327 17.0363 74.0327 11.4798C74.0327 4.56048 80.105 0 88.3758 0C96.7513 0 102.3 4.66532 102.405 11.375H94.8668Z" fill="#F6F0FF"/>
<path id="Vector_4" d="M68.3716 19.5C68.3716 31.871 60.6766 39 50.6783 39C40.5753 39 32.9326 31.8186 32.9326 19.5C32.9326 7.12903 40.5753 0 50.6783 0C60.6766 0 68.3716 7.12903 68.3716 19.5ZM60.3625 19.5C60.3625 11.375 56.5412 6.97177 50.6783 6.97177C44.8154 6.97177 40.9417 11.375 40.9417 19.5C40.9417 27.625 44.8154 32.0282 50.6783 32.0282C56.5412 32.0282 60.3625 27.625 60.3625 19.5Z" fill="#F6F0FF"/>
<path id="Vector_5" d="M0 38.4758V0.52417H14.8666C23.5039 0.52417 28.4245 5.81852 28.4245 13.3145C28.4245 20.9153 23.3992 26.1048 14.6572 26.1048H7.85207V38.4758H0ZM7.85207 19.7621H13.4009C18.0598 19.7621 20.3107 17.1411 20.3107 13.3145C20.3107 9.5403 18.0598 6.97175 13.4009 6.97175H7.85207V19.7621Z" fill="#F6F0FF"/>
</g>
</svg>
