<svg width="140" height="140" viewBox="0 0 140 140" fill="none" xmlns="http://www.w3.org/2000/svg">
<path d="M70 140C108.66 140 140 108.66 140 70C140 31.3401 108.66 0 70 0C31.3401 0 0 31.3401 0 70C0 108.66 31.3401 140 70 140Z" fill="#F7D093"/>
<mask id="mask0_54900_27951" style="mask-type:luminance" maskUnits="userSpaceOnUse" x="0" y="0" width="140" height="140">
<path d="M70 140C108.66 140 140 108.66 140 70C140 31.3401 108.66 0 70 0C31.3401 0 0 31.3401 0 70C0 108.66 31.3401 140 70 140Z" fill="white"/>
</mask>
<g mask="url(#mask0_54900_27951)">
<path d="M18.9461 142.154L19.2509 130.385L26.3754 110.015L20.8218 101.54L16.9443 87.1495L20.5013 68.3136L16.9443 63.2592L21.2474 35.8645L34.7136 21.8361L45.2428 20.3334L50.5757 21.1531L56.8595 15.8202L67.1155 14.1809L76.4099 18.6942L88.1685 30.9782L93.3228 45.4637L94.5943 49.1783L105.06 60.1698L107.892 73.3785L106.222 86.0881L105.06 90.3282L109.358 97.3003L112.695 107.829L109.495 122.457L111.56 140.809L18.9461 142.154Z" fill="white"/>
<path d="M21.0111 66.4273C21.0531 66.7162 21.0899 67 21.1267 67.2889C21.2738 68.5972 21.8622 69.9633 21.4156 71.2137C20.3858 74.0982 19.7869 77.0668 19.4191 80.0721C19.3087 80.9758 19.0145 82.0213 19.6135 82.9303C20.0496 84.4067 19.6135 85.9041 19.6975 87.4015C19.8867 90.7431 21.0741 93.822 21.8727 97.0165C22.7291 100.453 24.6837 103.19 26.6539 105.98C28.1408 108.082 28.5717 110.173 27.4473 112.768C26.0077 116.105 24.1845 119.262 23.0024 122.73C21.1161 128.247 20.1336 133.8 21.0268 139.622C21.2475 141.067 20.575 141.828 18.941 142.165C17.7168 142.417 17.4383 141.382 17.1546 140.625C16.6922 139.391 16.4137 138.056 16.4558 136.737C16.6239 131.084 17.6642 125.604 19.7028 120.303C20.9165 117.15 22.6766 114.271 23.9533 111.155C24.2423 110.451 24.2844 109.936 23.7379 109.3C20.5382 105.575 18.5416 101.241 17.2071 96.5278C14.806 88.0583 15.2999 79.7096 17.9742 71.4134C18.1581 70.8407 18.1161 70.3993 17.9007 69.8739C16.3034 65.8966 15.2946 61.7617 15.3472 57.4848C15.405 52.9558 15.8516 48.4426 17.0285 44.0344C18.3105 39.2217 20.1914 34.6191 22.9288 30.4999C27.4473 23.6959 33.6419 19.1827 41.9801 18.2527C44.129 18.011 46.2043 18.8937 48.2009 19.5977C49.5722 20.0864 50.229 20.1494 50.9908 18.6257C51.8209 16.9654 53.5548 15.9724 55.1993 15.1002C59.7493 12.6781 64.6041 11.5642 69.627 12.9618C74.3504 14.2753 78.5064 16.7343 81.8059 20.5119C84.5433 23.6434 87.2492 26.7853 89.2457 30.4631C90.0496 31.9448 90.7904 33.4632 91.5627 34.9659C91.4682 36.5316 92.5032 37.7505 92.9446 39.1481C93.7642 41.7384 94.9411 44.2183 95.1775 46.9767C95.2826 48.1904 95.9604 49.0415 96.9692 49.6458C98.1829 50.3708 99.3755 51.1642 100.263 52.2518C101.046 53.2028 101.824 54.1958 102.586 55.1468C104.062 56.991 106.001 58.4358 107.073 60.6635C108.365 63.3589 109.374 66.1541 109.826 69.0806C110.267 71.9283 110.414 74.8338 109.994 77.7235C109.836 78.7901 109.773 79.8567 109.926 80.9285C109.069 84.0704 108.323 87.2597 106.448 90.0075C105.98 90.6906 106.132 91.1845 106.805 91.589C108.003 92.3036 108.691 93.5015 109.61 94.463C111.991 96.9429 112.632 100.221 114.118 103.101C114.749 104.32 114.539 105.665 114.612 106.936C114.78 109.805 114.633 112.7 113.94 115.479C113.42 117.565 113.005 119.74 111.728 121.6C111.239 122.31 111.392 123.276 111.628 124.049C112.611 127.29 113.11 130.622 113.462 133.968C113.635 135.65 113.572 137.357 113.357 139.044C113.325 139.27 111.749 140.778 111.533 140.814C110.409 141.014 109.39 139.911 109.295 138.434C109.169 136.338 109.295 134.242 109.054 132.129C108.738 129.439 108.103 126.839 107.293 124.29C106.852 122.898 106.968 121.705 107.614 120.497C109.784 116.409 110.456 111.964 110.388 107.446C110.32 102.99 108.686 98.8869 106.18 95.2826C104.661 93.0969 101.987 92.3929 99.3966 92.2773C91.7887 91.9358 86.6922 95.9972 82.8567 102.081C82.3891 102.822 82.263 103.747 82.6151 104.624C83.8708 107.735 83.7079 111.061 83.9811 114.302C84.102 115.737 83.7815 117.239 83.6764 118.716C83.6238 119.409 83.8655 119.767 84.3331 119.667C85.2999 119.462 85.8883 120.003 86.6029 120.423C88.9357 121.805 91.4629 122.919 94.0847 123.392C96.1811 123.77 98.5244 123.881 100.547 122.651C101.771 121.905 102.848 122.546 103.836 123.029C104.63 123.418 104.167 125.105 103.158 125.562C98.6137 127.632 94.1057 127.569 89.4664 125.651C87.5434 124.858 85.5468 124.201 83.6186 123.381C82.9933 123.119 82.8357 123.529 82.6361 123.923C81.8375 125.467 81.1334 127.065 80.2297 128.546C79.1894 130.254 77.8969 131.73 76.2997 133.023C75.0755 134.016 73.888 135.093 72.7111 136.154C70.9405 137.746 68.9229 137.336 66.9316 137.257C66.0595 137.221 66.2539 136.28 66.1278 135.728C65.9649 134.998 66.3274 134.284 67.0472 134.094C71.8915 132.849 74.7234 129.145 77.5606 125.483C78.8111 123.875 78.7165 121.795 79.1369 119.908C80.1509 115.395 79.9407 110.85 78.9425 106.384C78.1123 102.67 74.7707 99.9535 71.0088 99.3072C68.8967 98.9447 66.8213 98.6925 64.6671 98.724C60.301 98.7818 56.6389 100.306 53.3446 103.137C49.8402 106.153 47.4758 109.973 45.1956 113.882C44.9329 114.334 44.8593 114.901 44.6229 115.374C44.0344 116.551 42.8785 116.315 42.0484 116.026C41.1709 115.721 41.3496 114.738 41.628 113.977C43.1832 109.71 45.4162 105.849 48.5266 102.517C48.9154 102.102 49.0205 101.682 48.6527 101.209C49.5827 101.299 50.3288 100.899 50.933 100.253C52.4672 98.6032 54.3954 97.5051 56.2974 96.3755C62.3711 94.1477 68.4448 94.174 74.5343 96.3387C76.0317 96.8694 77.1561 97.9675 78.4696 98.7713C79.2735 99.2652 79.7726 99.4649 80.4661 98.4456C82.9671 94.7887 86.1668 92.0093 90.3596 90.2492C93.5278 88.9199 96.6697 88.2106 100.017 88.7991C102.207 89.1879 102.36 89.4086 103.237 87.391C104.251 85.0424 105.218 82.6256 105.47 80.0195C105.518 79.5624 105.544 79.1421 105.25 78.7586C105.581 78.3803 105.712 77.9284 105.822 77.4398C106.479 74.4818 106.222 71.5342 105.507 68.6497C104.871 66.0858 104.519 63.3694 102.596 61.3045C102.186 59.618 100.852 58.5462 99.8694 57.2484C98.2932 55.1836 96.5331 53.2501 94.4315 51.7369C93.3544 50.9645 91.9673 50.4601 91.7519 49.0678C91.5365 47.6492 90.8692 46.383 90.6801 44.9696C90.3228 42.3321 88.8044 40.0886 88.0478 37.5719C87.2492 34.9344 85.9777 32.4177 84.4435 30.1899C82.9303 27.9937 81.3751 25.7607 79.4206 23.8483C77.3873 21.857 75.4538 19.7869 72.7637 18.673C71.0981 17.9847 69.4483 17.2124 67.7198 16.7185C65.6707 16.13 63.5112 16.2509 61.4937 16.8131C58.9822 17.5119 56.5654 18.5469 54.5898 20.3543C54.1958 20.7116 53.7492 21.0478 53.4707 21.4839C51.8314 24.0742 51.2115 24.3369 48.3533 23.223C43.4459 21.3158 38.9064 22.3403 34.4983 24.7993C29.8169 27.4053 26.6066 31.3353 24.3527 36.085C22.8868 39.1691 21.7992 42.3951 20.8272 45.6842C19.8447 49.0258 19.9077 52.4304 19.603 55.7983C19.356 58.5146 19.6713 61.3045 20.4962 63.9736C20.596 64.2889 20.5645 64.6461 20.596 64.9824C20.7168 65.4605 20.0548 66.1593 20.99 66.4168L21.0111 66.4273ZM105.06 58.399C105.145 58.4621 105.218 58.5199 105.292 58.5724C105.318 58.5357 105.381 58.4831 105.37 58.4621C105.334 58.3833 105.276 58.3202 105.223 58.2467C105.171 58.294 105.118 58.3413 105.06 58.3938V58.399ZM113.672 102.239C113.651 102.207 113.625 102.181 113.604 102.15C113.577 102.176 113.53 102.197 113.525 102.229C113.525 102.255 113.567 102.286 113.588 102.318C113.614 102.292 113.646 102.265 113.672 102.239ZM82.841 106.379L82.9356 106.437L82.9513 106.353L82.8462 106.379H82.841Z" fill="#EBB96E"/>
<path d="M109.941 80.9128C109.789 79.841 109.852 78.7744 110.01 77.7078C110.43 74.8181 110.283 71.9126 109.841 69.0649C109.39 66.1384 108.381 63.3432 107.088 60.6479C106.017 58.4201 104.078 56.9753 102.601 55.1311C101.84 54.1801 101.057 53.1871 100.279 52.2361C99.3859 51.1485 98.1985 50.3551 96.9848 49.6301C95.976 49.0259 95.293 48.1747 95.1931 46.961C94.9567 44.2026 93.7798 41.7227 92.9602 39.1325C92.5188 37.7349 91.4838 36.5159 91.5783 34.9502C92.6239 33.5106 94.4996 33.4896 95.8026 32.4913C96.638 33.0482 97.6783 33.2269 98.23 34.304C98.5768 34.9765 100.09 34.5141 99.9743 33.8048C99.8272 32.9116 100.111 32.5281 100.82 32.155C101.13 31.9922 101.036 31.5508 100.925 31.2146C103.416 31.0149 105.922 30.6261 108.318 31.7452C108.838 31.9869 109.374 31.9239 109.91 31.9396C109.032 34.987 107.409 37.551 104.981 39.5948C104.472 40.0256 103.6 40.2516 103.742 41.0712C103.889 41.9276 104.787 42.1168 105.465 42.4793C107.241 43.4355 109.043 44.3235 110.257 46.0888C111.218 47.4917 112.574 48.5898 113.356 50.166C113.787 51.0329 114.67 51.5951 115.674 51.1275C116.493 50.7439 116.977 49.7404 116.777 48.9943C116.467 47.8174 117.197 47.0556 117.434 46.1099C117.523 45.7578 118.006 45.4899 118.059 45.1431C118.432 42.6159 120.434 41.0449 121.605 38.9906C122.956 39.9731 123.807 41.2709 124.411 42.8418C124.868 44.024 125.798 45.0118 126.355 46.1677C126.933 47.3708 127.317 48.6633 127.779 49.9191C128.31 51.3744 128.052 52.9769 128.614 54.427C128.625 54.4586 128.483 54.5479 128.409 54.6109C127.984 53.9594 127.563 53.3079 127.138 52.6564C126.718 52.0154 126.014 51.5583 125.373 51.5478C124.605 51.5373 124.495 52.3937 124.274 53.0715C123.581 55.2099 122.64 57.2643 121.132 58.9456C120.25 59.9281 120.229 60.6006 121.369 61.2573C124.253 62.9281 125.788 65.6865 127.264 68.4975C126.297 68.2032 126.781 69.2068 126.418 69.4379C125.74 69.874 126.113 71.3924 124.721 71.0877C124.695 71.2296 124.637 71.3767 124.653 71.5133C124.842 72.7743 124.185 73.3417 123.266 74.1981C122.225 75.1596 121.143 76.1001 120.045 77.0038C118.957 77.9022 117.933 79.2578 116.782 79.6151C114.607 80.2928 112.516 82.1423 109.952 80.9076L109.941 80.9128ZM113.414 66.6218C113.383 68.0036 114.213 69.3013 115.138 69.3118C117.003 69.3329 118.689 67.7619 118.668 66.0123C118.653 64.9142 117.244 63.7898 115.831 63.753C114.397 63.7162 113.456 64.8354 113.414 66.6218ZM122.052 69.6744C122.819 69.6639 123.344 69.5745 123.397 68.86C123.455 68.0561 122.919 67.9248 122.273 67.867C121.59 67.8092 121.232 68.1875 121.201 68.7654C121.169 69.3959 121.595 69.7111 122.052 69.6744ZM96.8114 35.8749C96.3333 35.8014 96.2019 36.2742 96.3228 36.3846C96.7589 36.7839 96.1914 37.5983 96.7378 37.6928C97.2002 37.7716 97.7992 37.2252 97.878 36.7734C97.9988 36.0956 97.1476 36.1849 96.8114 35.8697V35.8749Z" fill="#FEF2AC"/>
<path d="M56.3287 96.3703C54.4215 97.4999 52.4985 98.598 50.9643 100.248C50.3601 100.899 49.614 101.293 48.684 101.204C47.4073 102.171 45.8468 102.218 44.3704 102.339C42.0376 102.528 39.8467 101.677 37.5979 101.178C35.759 100.768 34.2931 99.8957 32.9796 98.7556C30.9515 96.9902 29.2439 95.0673 28.6345 92.1617C27.9987 89.1301 27.694 86.1721 28.2352 83.1615C28.5452 81.4172 29.1021 79.7989 30.3683 78.312C33.2581 74.9231 36.9201 73.0685 41.1129 72.1227C43.2145 71.6446 45.3109 72.1227 47.3074 72.9161C47.423 73.6254 47.5124 74.3399 47.6647 75.044C47.8486 75.8899 48.0956 76.7043 48.9362 77.1876C50.896 78.312 52.882 79.3103 55.2569 78.8374C57.411 80.587 57.8471 83.1247 58.6562 85.5942C59.7754 89.0041 58.4881 91.8307 57.3217 94.773C57.0958 95.3457 56.6702 95.8396 56.3392 96.3703H56.3287Z" fill="#FEC6BB"/>
<path d="M102.617 61.3097C104.54 63.3746 104.892 66.0962 105.528 68.6549C106.243 71.5394 106.5 74.4817 105.843 77.445C105.733 77.9336 105.602 78.3907 105.271 78.7638C103.169 82.9355 100.08 86.0512 95.2723 86.4557C92.4298 86.6922 89.4665 87.0494 86.6819 85.2946C83.4243 83.2455 81.8324 80.2612 80.7132 76.8145C80.1458 75.0596 80.5504 73.3363 80.75 71.5972C81.948 71.1454 83.1827 70.8091 84.0706 69.7425C85.836 67.6251 85.9831 65.224 85.4839 62.6758C87.0286 61.5409 88.3737 60.0383 90.3019 59.5864C93.1654 58.9139 96.0814 59.0032 98.9659 59.5181C100.337 59.765 101.309 60.8894 102.617 61.3097Z" fill="#FEC6BB"/>
<path d="M53.1031 55.7406C48.5636 55.872 46.1572 53.6022 45.1222 49.3359C44.4024 46.3779 43.9452 43.32 44.1291 40.2201C44.2342 38.4968 44.4654 36.7892 45.0486 35.1762C45.926 32.7646 47.434 31.9607 49.9769 32.7698C52.5199 33.579 53.907 35.3496 55.1995 37.7034C56.6496 40.3515 57.9158 43.0836 59.0034 45.8472C59.9964 48.3639 60.8896 51.3482 58.2101 53.5917C56.7337 54.8264 55.0156 55.7932 53.1031 55.7406Z" fill="#FECE78"/>
<path d="M64.1576 30.731C63.9579 28.3194 66.4904 26.1652 69.1489 26.9901C71.0667 27.5838 72.6849 28.3036 74.1666 29.9009C75.086 30.8939 76.0843 32.0866 77.3348 32.9587C79.4837 34.4509 80.1247 39.3267 79.1159 41.7646C78.4697 43.325 73.8093 45.7051 72.191 45.4477C70.8933 45.2428 69.9843 44.4284 69.4221 43.4616C67.2837 39.8048 65.3135 36.0534 64.2259 31.9184C64.1418 31.5927 64.1838 31.2354 64.1576 30.7363V30.731Z" fill="#FECE78"/>
<path d="M121.605 38.9904C120.434 41.0447 118.432 42.6157 118.059 45.1429C118.006 45.4897 117.523 45.7577 117.434 46.1097C117.197 47.0554 116.467 47.8225 116.777 48.9942C116.971 49.735 116.493 50.7438 115.673 51.1273C114.67 51.5949 113.787 51.0327 113.356 50.1658C112.579 48.5896 111.218 47.4915 110.257 46.0887C109.048 44.3233 107.241 43.4353 105.465 42.4791C104.787 42.1166 103.889 41.9274 103.741 41.071C103.6 40.2514 104.472 40.0255 104.981 39.5946C107.409 37.5508 109.032 34.9868 109.91 31.9394C110.094 31.4351 110.367 30.9464 110.435 30.4315C110.53 29.7065 110.698 28.9131 111.433 28.8553C112.053 28.808 112.778 29.3755 112.983 30.0059C114.213 33.7731 117.108 35.7276 120.502 37.2145C121.19 37.5193 121.894 37.9921 121.611 38.9957L121.605 38.9904ZM114.502 46.7559C115.595 44.0658 116.582 41.5334 118.216 39.3372C118.558 38.8748 118.237 38.6121 117.88 38.4072C115.978 37.2828 114.397 35.7486 112.757 34.2985C112.227 33.8257 111.943 33.9045 111.675 34.5034C110.829 36.3896 109.495 37.9554 108.234 39.5526C107.645 40.2987 107.882 40.7978 108.475 41.2917C110.53 42.994 112.668 44.5965 114.507 46.7612L114.502 46.7559Z" fill="#FFAD28"/>
<path d="M69.5796 51.4847C69.569 52.1415 68.823 52.8981 67.3886 53.0557C66.2012 53.187 65.8649 52.4987 65.5812 51.4479C63.8789 45.1325 60.9681 39.3793 57.222 34.0359C56.5757 33.1112 55.5775 32.5438 54.9312 31.5928C54.4163 30.831 54.4794 30.2635 54.9627 29.6383C55.4566 29.0025 56.0188 29.3651 56.5442 29.6225C60.6581 31.6296 62.9752 35.2234 64.8929 39.1534C65.6127 40.6245 66.5532 41.9801 67.0891 43.5511C67.9193 45.989 69.3957 48.2009 69.5743 51.49L69.5796 51.4847Z" fill="#EBBA70"/>
<path d="M85.4836 62.6759C85.988 65.2241 85.8408 67.6252 84.0702 69.7426C83.177 70.8092 81.9476 71.1454 80.7496 71.5973C78.338 71.4922 76.31 70.6778 74.6864 68.7758C73.1733 67.0052 73.3414 61.1942 75.0858 59.7861C78.7111 56.8648 82.3784 57.3482 84.8163 61.4254C85.058 61.8299 85.2629 62.2608 85.4836 62.6759ZM83.3031 65.077C83.5974 63.548 82.6043 62.3659 81.7689 61.2415C80.592 59.66 76.4728 60.3536 76.0735 62.2135C75.6269 64.2678 75.5691 66.3747 77.2242 68.1138C78.4536 69.4063 81.1122 69.6428 82.1577 68.3292C82.8618 67.4518 83.4713 66.4167 83.3031 65.077Z" fill="#121110"/>
<path d="M55.2517 78.8373C52.8768 79.3102 50.8908 78.3119 48.931 77.1875C48.0904 76.7094 47.8434 75.895 47.6595 75.0438C47.5072 74.3398 47.4178 73.6252 47.3022 72.9159C47.5387 72.0333 47.7593 71.1453 48.0115 70.2679C49.3618 65.5445 53.9959 64.9981 57.5162 67.3099C61.5093 69.9316 60.5425 73.9983 58.2255 76.9773C57.4636 77.9599 56.602 78.7953 55.2464 78.8373H55.2517ZM57.658 71.9019C58.0416 70.0682 55.2622 68.2083 53.1343 68.3186C51.537 68.4027 49.7191 70.6409 49.7717 72.5324C49.84 75.0281 51.7419 77.1297 53.9854 76.9195C55.9767 76.7357 57.5792 74.4344 57.6633 71.9072L57.658 71.9019Z" fill="#10100F"/>
<path d="M127.253 68.5027C125.777 65.6918 124.238 62.9281 121.358 61.2626C120.218 60.6006 120.239 59.9333 121.122 58.9508C122.635 57.2695 123.57 55.2152 124.264 53.0768C124.485 52.399 124.6 51.5426 125.362 51.5531C126.008 51.5636 126.707 52.0154 127.127 52.6617C127.553 53.3132 127.973 53.9647 128.399 54.6162C129.04 55.9034 130.29 56.4919 131.43 57.1539C133.285 58.231 133.453 59.1872 132.008 60.7687C130.795 62.0927 130.243 63.7688 129.865 65.4764C129.691 66.2435 129.387 66.979 129.465 67.8512C129.55 68.7864 128.478 69.0701 127.253 68.5132V68.5027ZM127.653 64.6777C128.278 62.7705 128.562 61.0629 129.618 59.6706C129.854 59.3554 129.718 58.9561 129.402 58.6198C128.541 57.6951 127.616 56.8019 126.917 55.7563C125.961 54.3325 125.551 55.667 125.493 56.1136C125.299 57.611 124.506 58.6934 123.528 59.7179C123.344 59.9123 123.04 60.2591 123.418 60.4325C125.267 61.2731 126.313 62.9124 127.653 64.6777Z" fill="#FFAD28"/>
<path d="M100.925 31.204C101.041 31.5403 101.13 31.9816 100.82 32.1445C100.106 32.5175 99.8273 32.9011 99.9744 33.7942C100.09 34.5035 98.5716 34.9659 98.2301 34.2934C97.6784 33.2216 96.6328 33.0429 95.8027 32.4807C95.7711 32.4019 95.7659 32.3179 95.7764 32.2338C96.181 32.2285 96.3386 31.9974 96.3386 31.6191C96.9113 31.3143 97.4682 31.0306 97.0847 30.19C96.843 29.6593 97.2108 29.1917 97.5891 28.9605C98.0935 28.6558 98.477 29.2074 98.5978 29.5437C99.0129 30.6628 100.037 30.8099 100.931 31.1987L100.925 31.204Z" fill="#FFAD28"/>
<path d="M117.502 29.3231C116.167 29.3284 115.264 28.472 115.216 27.169C115.18 26.0603 116.173 24.6995 117.029 24.689C118.626 24.6785 120.386 25.8397 120.339 26.8747C120.287 28.0727 118.842 29.3179 117.502 29.3231ZM117.738 26.0026C116.992 26.1287 116.588 26.4912 116.635 27.2005C116.677 27.8572 117.066 28.1305 117.723 28.0937C118.479 28.0516 118.947 27.6366 118.962 26.922C118.983 26.0919 118.117 26.3073 117.738 26.0026Z" fill="#FEF2AC"/>
<path d="M19.6189 82.9251C19.0199 82.0161 19.3141 80.9705 19.4245 80.0668C19.7922 77.0615 20.386 74.093 21.421 71.2085C21.8676 69.958 21.2791 68.5972 21.132 67.2837C22.3352 67.9405 22.5822 68.9702 22.2827 70.2155C21.5366 73.2681 20.8325 76.3312 20.0234 79.3628C19.7082 80.545 20.2493 81.7954 19.6241 82.9198L19.6189 82.9251Z" fill="#EBB96E"/>
<path d="M69.4064 74.7392C68.5658 74.7759 68.1717 74.2716 68.1875 73.494C68.2032 72.6218 68.8547 71.9282 69.5798 72.0228C70.1893 72.1016 71.2296 72.3748 71.2243 73.3626C71.2191 74.4765 70.3732 74.7444 69.4064 74.7392Z" fill="#1A1A1A"/>
<path d="M126.434 82.158C125.777 82.1948 125.525 81.8532 125.509 81.2648C125.488 80.4452 125.982 79.8777 126.676 79.8147C127.264 79.7621 128.058 80.1877 128 80.876C127.932 81.6588 127.122 81.9478 126.429 82.1527L126.434 82.158Z" fill="#FEF2AC"/>
<path d="M21.0112 66.4273C20.0759 66.1698 20.7379 65.471 20.6171 64.9929C21.2213 65.3397 21.4683 65.7863 21.0112 66.4273Z" fill="#EBB96E"/>
<path d="M96.3337 31.6296C96.3337 32.0079 96.176 32.2391 95.7715 32.2444C95.8083 31.9028 96.0027 31.7032 96.3337 31.6296Z" fill="#FEF2AC"/>
<path d="M105.061 58.3991C105.118 58.3465 105.171 58.2992 105.223 58.252C105.276 58.3203 105.334 58.3886 105.371 58.4674C105.381 58.4884 105.318 58.5409 105.292 58.5777C105.218 58.5199 105.145 58.4674 105.061 58.4043V58.3991Z" fill="#FEF2AC"/>
<path d="M113.672 102.239C113.646 102.265 113.614 102.292 113.588 102.318C113.567 102.286 113.52 102.255 113.525 102.228C113.525 102.202 113.577 102.176 113.604 102.15C113.625 102.181 113.651 102.207 113.672 102.239Z" fill="#FEFEFE"/>
<path d="M82.8408 106.379L82.9512 106.353L82.9354 106.437L82.8408 106.379Z" fill="#FEFEFE"/>
<path d="M113.414 66.6218C113.456 64.8354 114.397 63.7163 115.831 63.7531C117.239 63.7899 118.653 64.9142 118.669 66.0123C118.69 67.7619 117.003 69.3329 115.138 69.3119C114.213 69.3014 113.383 68.0036 113.414 66.6218ZM117.25 66.4064C117.04 65.8757 117.056 65.1191 116.031 65.1822C114.996 65.2452 114.66 65.9072 114.644 66.7269C114.628 67.4099 115.038 67.9721 115.852 67.8775C116.64 67.783 117.266 67.4467 117.25 66.4116V66.4064Z" fill="#FFAD28"/>
<path d="M122.052 69.6743C121.595 69.7111 121.169 69.3958 121.201 68.7653C121.232 68.1874 121.59 67.8091 122.273 67.8669C122.914 67.9194 123.455 68.056 123.397 68.8599C123.345 69.5745 122.819 69.6638 122.052 69.6743Z" fill="#FFAD28"/>
<path d="M96.8116 35.8748C97.1479 36.19 97.999 36.0955 97.8782 36.7785C97.7994 37.2303 97.1951 37.7768 96.738 37.698C96.1916 37.6034 96.7538 36.789 96.323 36.3897C96.2021 36.2794 96.3335 35.8065 96.8116 35.88V35.8748Z" fill="#FFAD28"/>
<path d="M114.502 46.756C112.663 44.5913 110.525 42.9888 108.47 41.2865C107.876 40.7926 107.645 40.2935 108.229 39.5474C109.489 37.9449 110.824 36.3844 111.67 34.4982C111.943 33.894 112.222 33.8204 112.752 34.2933C114.392 35.7487 115.973 37.2776 117.875 38.402C118.227 38.6122 118.553 38.8696 118.211 39.332C116.577 41.5334 115.589 44.0606 114.497 46.7507L114.502 46.756Z" fill="#FEFDFB"/>
<path d="M83.3032 65.0771C83.4661 66.4169 82.8566 67.4519 82.1578 68.3294C81.1123 69.6429 78.4484 69.4065 77.2242 68.1139C75.5692 66.3749 75.627 64.268 76.0736 62.2136C76.4782 60.3537 80.5974 59.6549 81.769 61.2416C82.6044 62.366 83.5974 63.5482 83.3032 65.0771Z" fill="#F7F7F7"/>
<path d="M57.6584 71.902C57.5743 74.4293 55.977 76.7305 53.9805 76.9144C51.7318 77.1246 49.8298 75.023 49.7667 72.5273C49.7142 70.6358 51.5321 68.3976 53.1293 68.3135C55.2625 68.2032 58.0366 70.0631 57.6531 71.8968L57.6584 71.902Z" fill="#F7F7F7"/>
<path d="M127.653 64.6776C126.313 62.9122 125.268 61.273 123.418 60.4323C123.035 60.2589 123.339 59.9122 123.528 59.7178C124.506 58.688 125.299 57.6109 125.493 56.1135C125.551 55.6669 125.961 54.3323 126.917 55.7562C127.616 56.7965 128.541 57.6949 129.403 58.6197C129.718 58.9559 129.854 59.3552 129.618 59.6705C128.562 61.0681 128.278 62.7704 127.653 64.6776Z" fill="#FEFCF7"/>
<path d="M117.738 26.0024C118.117 26.3072 118.984 26.0918 118.963 26.9219C118.947 27.6365 118.479 28.0515 117.723 28.0936C117.066 28.1303 116.677 27.8571 116.635 27.2004C116.588 26.4911 116.992 26.1285 117.738 26.0024Z" fill="#F7D093"/>
<path d="M117.25 66.4062C117.266 67.4412 116.64 67.7775 115.852 67.8721C115.038 67.9666 114.633 67.4045 114.644 66.7214C114.66 65.9018 114.996 65.2398 116.031 65.1767C117.055 65.1189 117.04 65.8703 117.25 66.4009V66.4062Z" fill="#FEFCF7"/>
</g>
<circle cx="70" cy="70" r="68.5" stroke="#FFE9BA" stroke-width="3"/>
</svg>
