<svg width="140" height="140" viewBox="0 0 140 140" fill="none" xmlns="http://www.w3.org/2000/svg">
<path d="M70 140C108.66 140 140 108.66 140 70C140 31.3401 108.66 0 70 0C31.3401 0 0 31.3401 0 70C0 108.66 31.3401 140 70 140Z" fill="#C7FD9E"/>
<mask id="mask0_54900_27955" style="mask-type:luminance" maskUnits="userSpaceOnUse" x="0" y="0" width="140" height="140">
<path d="M70 140C108.66 140 140 108.66 140 70C140 31.3401 108.66 0 70 0C31.3401 0 0 31.3401 0 70C0 108.66 31.3401 140 70 140Z" fill="white"/>
</mask>
<g mask="url(#mask0_54900_27955)">
<path d="M109.595 76.2051C110.54 76.7936 111.591 76.3575 112.511 76.2787C116.971 75.8899 121.406 75.107 125.872 74.8233C128.446 74.6605 131.021 74.2927 133.648 74.4766C135.802 74.6237 138.009 74.2874 140.163 73.9774C142.396 73.6569 144.093 75.2016 144.498 77.3821C145.033 80.2613 144.445 83.088 144.645 85.9304C144.66 86.1196 144.634 86.3823 144.519 86.5084C143.583 87.4751 144.345 88.4997 144.361 89.5032C144.398 91.8728 144.729 94.3002 144.298 96.5857C143.956 98.3826 144.529 100.011 144.392 101.756C144.019 106.395 143.909 111.071 143.946 115.732C143.988 120.817 144.403 125.903 144.471 130.995C144.524 134.841 144.76 138.666 145.039 142.496C145.091 143.231 144.54 143.142 144.114 143.126C142.033 143.047 139.953 142.879 137.867 142.848C132.592 142.779 127.311 142.827 122.036 142.695C120.539 142.659 119.015 142.554 117.507 142.653C117.77 142.165 118.264 142.249 118.7 142.17C119.078 142.102 119.383 141.939 119.341 141.492C119.052 138.492 118.196 135.587 117.602 132.644C117.318 131.236 117.665 130.942 118.548 130.438C119.425 129.939 120.418 129.56 121.133 128.888C123.124 127.012 124.753 124.816 126.187 122.488C126.607 121.805 127.375 121.28 127.543 120.576C127.895 119.094 128.494 117.691 128.851 116.199C129.744 112.453 130.296 108.859 129.476 104.976C128.772 101.63 127.453 98.6663 125.551 95.9394C124.553 94.5051 123.25 93.3177 121.884 92.1407C120.061 90.575 118.28 88.9358 116.388 87.4489C114.176 85.715 111.555 84.5906 109.322 82.8463C108.512 82.2158 108.339 81.6431 108.36 80.7184C108.397 79.0949 109.301 77.7341 109.595 76.1999V76.2051Z" fill="#E3FFCD"/>
<circle cx="110" cy="40" r="25" fill="#FFF5C1"/>
<circle cx="11" cy="77" r="4" fill="#FFF5C1"/>
<path d="M41.7384 142.401L25.4245 144.187L18.5102 138.933L15.7886 126.15L23.4175 104.372L28.7609 97.8623L22.5453 86.5503L21.237 72.3012L23.4175 58.4042L19.561 47.6859L20.8167 32.8589L28.7609 21.8043L36.9572 18.0372H46.3778L53.1871 20.3384L59.3186 14.4013L69.5587 12.5151L78.2647 16.151L86.7185 25.1354L96.3755 38.4335L97.7153 43.8504L105.187 52.32L108.36 63.1329L106.033 82.1684L122.609 95.3508L127.338 107.504L124.222 122.793L116.593 129.712L117.513 142.653L41.7384 142.401Z" fill="white"/>
<path d="M53.2029 134.32C52.9875 130.18 54.5637 126.529 56.224 122.877C57.1697 120.802 57.6636 118.532 58.8878 116.562C60.2696 114.344 61.8301 112.327 63.7058 110.451C66.212 107.945 69.0965 106.211 72.2437 104.724C75.0704 103.384 77.9969 102.486 81.039 101.787C82.5469 101.44 84.1862 101.067 85.526 101.362C87.5856 101.819 89.8291 101.566 91.731 102.712C92.3825 103.101 93.3703 102.969 93.633 103.957C93.654 104.036 93.8011 104.167 93.8432 104.146C95.3406 103.547 96.0972 104.829 97.19 105.349C98.3354 105.891 99.2496 106.495 99.9799 107.551C100.752 108.665 102.35 108.885 103.038 110.157C103.705 111.386 104.567 112.395 105.98 112.852C106.285 112.947 106.532 113.414 106.679 113.766C108.092 117.092 109.427 120.455 110.903 123.754C111.26 124.548 110.572 125.026 110.725 125.725C111.024 127.091 111.003 128.546 111.455 129.849C111.954 131.294 110.325 131.998 110.535 133.306C110.567 133.506 109.59 133.664 109.211 133.348C108.413 132.676 107.982 133.017 107.798 133.8C107.404 135.46 106.427 136.222 104.714 136.238C103.878 136.243 103.106 136.648 102.386 137.131C100.978 138.077 99.2811 138.482 97.8363 139.291C95.9973 140.326 93.943 140.667 92.0936 141.597C90.9166 142.191 89.7187 142.811 88.3159 142.569C88.2266 142.553 88.09 142.569 88.0269 142.627C86.8447 143.725 85.4839 143.562 84.0233 143.42C83.4716 143.368 82.8779 144.166 82.0583 144.182C80.2089 144.219 79.1843 143.047 78.3016 141.729C77.8708 141.088 77.7079 140.657 76.904 141.366C76.4627 141.755 75.7271 142.443 75.0861 141.292C74.6868 140.578 73.8514 141.166 73.284 141.187C71.7708 141.245 70.1368 140.468 68.7865 142.138C67.557 143.662 66.0229 142.464 64.9931 141.66C63.6165 140.594 62.7811 141.088 62.014 142.165C61.3993 143.032 60.464 143.11 59.9386 142.632C58.9771 141.76 57.8107 141.692 56.7337 141.277C54.2432 140.32 53.2502 138.855 53.2134 136.117C53.2029 135.518 53.2134 134.914 53.2134 134.315L53.2029 134.32Z" fill="#FEF3E1"/>
<path d="M109.595 76.2051C109.3 77.7393 108.397 79.0949 108.36 80.7236C108.339 81.6431 108.512 82.2158 109.321 82.8515C111.554 84.5959 114.176 85.7203 116.388 87.4541C118.28 88.941 120.061 90.5803 121.884 92.146C123.25 93.3176 124.548 94.5103 125.551 95.9447C127.453 98.6768 128.772 101.635 129.476 104.982C130.296 108.864 129.739 112.458 128.851 116.204C128.494 117.697 127.895 119.099 127.543 120.581C127.374 121.29 126.607 121.81 126.187 122.494C124.758 124.816 123.124 127.017 121.133 128.893C120.418 129.565 119.42 129.944 118.548 130.443C117.665 130.947 117.318 131.242 117.602 132.65C118.19 135.587 119.052 138.492 119.341 141.497C119.383 141.949 119.078 142.107 118.7 142.175C118.269 142.254 117.775 142.165 117.507 142.659C116.682 143.447 115.931 143.363 115.663 142.244C115.075 139.832 114.523 137.399 114.15 134.951C113.924 133.464 113.625 132.009 113.194 130.58C112.768 129.171 113.336 128.368 114.544 127.758C117.119 126.46 119.698 125.157 120.891 122.257C120.88 122.236 120.907 122.21 120.975 122.184C121.826 121.942 122 121.133 122.378 120.502C122.415 119.42 123.67 119.068 123.844 118.064C123.87 117.245 124.248 116.546 124.606 115.847C124.826 115.206 124.979 114.555 124.9 113.872C126.607 107.425 125.036 101.813 120.765 96.7643C117.208 92.5611 113.11 89.0671 108.413 86.2247C107.262 85.5311 106.243 84.6274 105.129 83.8656C104.435 83.3875 104.257 82.5941 103.831 81.9584C103.899 81.2648 103.868 80.5765 104.02 79.8725C105.297 73.9091 106.726 67.9562 105.67 61.7775C104.913 57.3483 103.537 53.2081 100.353 49.8717C99.5384 48.4899 98.5559 47.271 97.3737 46.1518C96.0812 44.9276 95.0672 43.467 94.6311 41.6176C93.885 38.4704 92.4034 35.5859 90.6695 32.8906C89.0198 30.3161 87.1178 27.8887 85.1895 25.5086C83.3769 23.2704 81.4014 21.1582 79.1316 19.3508C77.0615 17.7063 74.9546 16.1826 72.2383 15.7938C71.1979 15.6467 70.1524 15.4681 69.1436 15.1896C65.471 14.1756 62.287 15.1896 59.1398 17.1283C57.075 18.3998 55.3044 19.8972 53.8648 21.794C53.0977 22.8027 52.0521 22.6872 51.306 22.2616C47.5073 20.1127 43.3566 19.7869 39.1534 19.7081C32.9798 19.5978 28.8344 22.7712 25.9499 27.978C25.2774 29.1917 24.5313 30.3581 23.9428 31.6191C22.7922 34.0937 22.5085 36.7628 22.0619 39.4004C21.5207 42.5843 21.941 45.7473 22.1459 48.9155C22.3771 52.4988 24.0059 55.688 25.2196 58.9875C25.4928 59.7336 25.5243 60.3378 25.2826 61.1259C24.5628 63.4535 24.0637 65.8494 23.9165 68.2925C23.7852 70.4414 23.7221 72.5956 23.6276 74.7498C23.3123 75.9477 23.5067 77.1614 23.4647 78.3698C23.4122 79.9723 23.3228 81.6956 23.8167 83.0932C24.7257 85.673 25.104 88.4471 26.8693 90.7957C27.9937 92.2931 28.8291 94.069 29.9167 95.661C30.5157 96.5384 31.8134 97.957 30.048 99.1917C29.9745 99.2442 30.0848 99.5647 30.1058 99.7591C26.5961 104.987 23.1915 110.273 20.8849 116.173C19.0881 120.765 18.3367 125.536 18.5574 130.469C18.7676 135.145 20.9638 138.702 24.8675 141.051C27.2634 142.491 30.1164 142.249 32.8117 141.818C35.5175 141.387 38.1551 140.604 40.593 139.307C41.4126 138.87 41.6018 139.653 42.0851 139.853C42.7261 140.116 42.5738 140.662 42.4266 141.135C42.0694 142.301 41.213 143.126 40.1726 143.568C34.1725 146.105 28.0883 147.382 21.8517 144.314C20.8114 143.799 19.9235 143.068 19.1038 142.265C16.172 138.645 14.186 134.693 14.2911 129.86C14.3699 126.313 14.5485 122.83 15.5731 119.378C17.7378 112.096 21.0741 105.476 26.0024 99.6908C26.5646 99.0288 26.7117 98.6873 26.0812 97.9885C24.1582 95.8659 23.1389 93.2178 21.8675 90.6959C20.8377 88.652 20.5277 86.4401 19.7343 84.3542C19.5819 82.468 19.2352 80.5713 19.314 78.6956C19.5241 73.4678 19.314 68.1612 20.9165 63.1015C21.5627 61.0682 20.7536 59.4657 20.1231 57.8054C17.7062 51.49 17.2754 45.038 18.1528 38.3653C18.8148 33.3372 20.4856 28.8082 23.3228 24.6417C26.8746 19.4191 31.6243 16.3192 38.0447 15.9147C42.4372 15.6362 46.714 15.983 50.8121 17.6853C51.4584 17.9532 51.905 17.8587 52.3936 17.3175C56.0294 13.2981 60.632 11.2753 65.9701 10.7447C66.485 10.6921 66.9684 10.7026 67.4518 10.8182C70.1104 11.4382 72.874 11.6536 75.438 12.6571C79.3943 14.2071 82.3313 17.1336 85.2316 20.0864C89.1984 24.132 92.7449 28.5192 95.4245 33.5158C96.9429 36.3477 98.5769 39.2112 98.724 42.5791C98.7345 42.805 98.8344 43.1307 99.0025 43.2306C100.947 44.4075 102.06 46.383 103.6 47.933C107.761 52.1205 109.442 57.3378 110.225 62.9386C110.845 67.3783 110.346 71.8127 109.605 76.2104L109.595 76.2051ZM29.0077 142.354L28.9184 142.296V142.401L29.0077 142.354Z" fill="#EBB96E"/>
<path d="M19.7344 84.3489C20.5225 86.4295 20.8377 88.6467 21.8675 90.6905C23.139 93.2125 24.1583 95.8605 26.0813 97.9832C26.717 98.682 26.5647 99.0235 26.0025 99.6855C21.0742 105.47 17.7378 112.096 15.5731 119.373C14.5433 122.83 14.37 126.308 14.2911 129.854C14.1808 134.688 16.1721 138.639 19.1039 142.259C13.1773 142.49 7.29272 141.75 1.3924 141.461C0.299553 141.408 -0.141789 141.082 -0.0261996 139.743C0.11566 138.103 -0.215346 136.406 -0.488558 134.756C-0.908884 132.245 -0.682959 129.718 -0.751262 127.201C-0.830073 124.311 -0.625164 121.416 -0.677705 118.516C-0.746007 114.964 -0.483304 111.402 -0.383477 107.845C-0.288903 104.556 0.383618 101.136 -0.304665 98.02C-1.08752 94.4577 -0.283649 91.0898 -0.451779 87.6432C-0.514828 86.3296 0.0788819 85.8936 1.32935 85.8463C5.24363 85.6939 9.14741 85.5836 13.0249 84.8165C15.1948 84.3856 17.4804 84.2228 19.7344 84.3489Z" fill="#E3FFCD"/>
<path d="M30.1061 99.7539C30.0799 99.5595 29.9695 99.239 30.0483 99.1865C31.8137 97.9517 30.5159 96.5331 29.917 95.6557C28.8241 94.0585 27.994 92.2826 26.8696 90.7905C25.099 88.4419 24.726 85.6677 23.817 83.088C23.3231 81.6904 23.4124 79.9671 23.465 78.3646C23.507 77.1561 23.3126 75.9424 23.6279 74.7445C25.0832 72.9056 26.7278 71.2821 28.9555 70.4099C30.6053 69.7636 32.2445 69.3118 34.1045 69.296C35.8331 69.2803 37.4881 69.7531 39.2272 69.6638C40.3673 69.606 41.6336 70.268 42.5583 70.8723C44.6231 72.212 46.6354 73.6937 48.5216 75.2752C49.5514 76.1368 50.4919 77.3978 50.534 79.0529C50.5707 80.4872 50.7809 81.9268 51.2012 83.3349C51.4954 84.3279 50.6285 85.1423 50.4079 86.0933C49.5042 89.934 48.1644 93.6854 45.1065 96.3808C44.0189 97.337 42.5425 97.936 41.1344 98.5612C39.327 99.3598 37.5301 99.5858 35.728 100.085C33.7735 100.631 31.9766 100.001 30.1219 99.7591L30.1061 99.7539Z" fill="#FEF3E0"/>
<path d="M100.348 49.8613C103.532 53.1977 104.908 57.3431 105.665 61.7671C106.721 67.9458 105.286 73.8987 104.015 79.8621C103.863 80.5661 103.899 81.2544 103.826 81.9479C102.628 81.8849 101.456 81.9952 100.258 82.1318C98.0515 82.3788 95.9709 81.4015 94.3737 79.7675C93.9271 79.3104 93.5225 78.9058 92.9604 78.5643C89.1669 76.2735 87.6012 72.6167 86.9602 68.445C86.377 64.6568 86.7605 61.042 88.9042 57.7372C89.0776 57.4692 89.0461 57.0647 89.1091 56.7231C90.2598 56.7967 90.7064 56.2345 90.554 55.1259C91.9306 54.7213 92.5821 53.3763 93.7957 52.6617C95.3877 51.7265 96.8851 50.8123 98.7398 50.5128C99.2757 50.4235 99.9693 50.455 100.342 49.8613H100.348Z" fill="#FEF3E0"/>
<path d="M46.6615 33.5211C49.0416 33.1218 50.6809 34.7138 52.4515 35.8066C54.096 36.8206 55.3518 38.3338 56.7021 39.7209C58.5725 41.6386 59.4447 43.9714 59.3028 46.5512C59.2293 47.9067 57.9893 48.863 56.7756 49.4304C54.7423 50.3814 52.5671 50.8911 50.3289 51.2378C48.5267 51.5163 46.7614 52.0575 44.9119 52.089C43.7981 52.11 43.3147 51.758 43.073 50.5075C42.5844 47.9855 41.6859 45.5424 41.0607 43.0415C40.6456 41.3759 40.7087 39.6421 41.0134 37.9765C41.5493 35.029 43.4408 33.6104 46.6615 33.5263V33.5211Z" fill="#FECE78"/>
<path d="M77.009 43.8085C75.2857 43.8085 73.5623 43.8557 71.8443 43.7927C70.6253 43.7507 69.627 43.22 69.2698 41.9433C68.3293 38.5807 67.2154 35.2496 66.8529 31.7556C66.5324 28.6872 67.7566 26.5016 70.7094 25.7397C71.4555 25.5453 72.1805 25.5033 72.9161 25.8133C75.4853 26.9114 77.6763 28.4561 79.0318 30.978C79.7149 32.2443 80.5608 33.4054 81.1177 34.761C82.0844 37.099 82.1055 39.4423 81.4487 41.8067C81.1965 42.7104 80.4925 43.3303 79.5362 43.6351C78.7061 43.903 77.8602 43.882 77.009 43.8137V43.8085Z" fill="#FECE79"/>
<path d="M69.6114 48.0484C69.3592 49.0204 69.3382 49.9241 68.4293 50.4758C67.4783 51.059 66.7322 51.0643 65.9809 50.1606C65.5448 49.6351 65.2611 49.0257 65.1402 48.4215C64.5623 45.537 63.1437 43.0098 61.8039 40.4615C59.9807 36.9833 58.5043 33.3002 56.0297 30.1846C55.5042 29.5278 55.0051 28.8395 54.5848 28.1145C54.1802 27.4209 53.9911 26.7274 54.527 25.9078C55.189 24.899 55.6461 25.8815 56.1505 25.9813C58.2048 26.3701 58.9141 28.3141 59.965 29.7065C62.1349 32.5804 63.9686 35.6803 65.6026 38.9221C66.9634 41.6279 68.4187 44.2707 69.3277 47.171C69.4328 47.4967 69.5379 47.8225 69.6062 48.0432L69.6114 48.0484Z" fill="#EBBA70"/>
<path d="M120.907 117.696C119.914 118.259 119.341 118.879 118.127 118.8C116.231 118.674 115.117 117.833 115.458 115.91C115.705 114.502 116.068 113.026 117.097 111.87C118.379 110.425 120.786 110.383 122.057 111.78C123.098 112.926 122.383 114.071 122.115 115.227C121.91 116.12 121.69 116.551 120.985 117.618C120.943 117.639 120.922 117.665 120.907 117.696Z" fill="#6A512E"/>
<path d="M50.5497 73.7463C50.0978 73.4416 49.5882 73.2104 49.2519 72.8268C48.8947 72.417 49.2572 71.9652 49.5357 71.6342C51.942 68.7392 54.774 66.3486 58.084 64.5464C58.6042 64.2627 59.2084 63.7478 59.7706 64.4834C60.2645 65.1296 60.5482 65.6655 59.5289 66.2908C56.4868 68.1455 53.5288 70.1368 51.4324 73.1368C51.2485 73.4048 50.8702 73.5361 50.5497 73.7516V73.7463Z" fill="#0C0C0C"/>
<path d="M90.5594 55.1206C90.7118 56.2292 90.2652 56.7914 89.1146 56.7178C86.2774 56.9332 83.3824 56.5234 80.624 57.548C80.3981 57.632 80.1196 57.5742 79.8884 57.653C79.1108 57.9157 78.5381 57.3746 78.3332 56.9017C78.0232 56.1872 78.7535 55.6512 79.3105 55.4568C80.5084 55.0418 81.7589 54.716 83.0146 54.5584C84.7222 54.343 86.456 54.3377 88.1741 54.2011C89.1356 54.1223 89.8974 54.4638 90.5542 55.1206H90.5594Z" fill="#090909"/>
<path d="M120.402 122.089C120.324 122.31 120.182 122.399 119.877 122.578C119.157 122.998 118.296 123.092 117.87 122.409C117.392 121.642 117.991 120.812 118.406 120.108C118.7 119.609 119.11 120.077 119.467 120.103C119.982 120.134 120.56 120.597 120.613 121.401L120.402 122.089Z" fill="#725A36"/>
<path d="M121.08 117.844C121.091 117.812 121.117 117.786 121.159 117.765C122.157 116.924 122.966 117.817 123.844 118.059C123.67 119.063 122.415 119.415 122.378 120.497C121.852 120.618 121.668 120.691 121.012 120.229V120.24C120.807 119.388 120.392 118.627 121.075 117.844H121.08Z" fill="#725A36"/>
<path d="M71.1454 62.0455C72.0806 61.9299 72.1384 62.6865 72.1542 63.2907C72.1699 64 71.6077 64.2995 70.9667 64.2207C70.3678 64.1471 69.5166 64.1366 69.5639 63.2855C69.6059 62.4606 70.2207 61.9982 71.1454 62.0455Z" fill="#0C0C0C"/>
<path d="M124.895 113.861C124.973 114.549 124.821 115.201 124.6 115.837C124.112 115.611 123.324 115.978 123.166 115.096C123.061 114.518 123.24 113.971 123.618 113.593C124.075 113.136 124.501 113.593 124.895 113.856V113.861Z" fill="#725A36"/>
</g>
<circle cx="70" cy="70" r="68.5" stroke="#FFE9BA" stroke-width="3"/>
</svg>
